<?xml version="1.0" encoding="UTF-8" standalone="no"?>
<!-- Created with Inkscape (http://www.inkscape.org/) -->
<svg
   xmlns:dc="http://purl.org/dc/elements/1.1/"
   xmlns:cc="http://creativecommons.org/ns#"
   xmlns:rdf="http://www.w3.org/1999/02/22-rdf-syntax-ns#"
   xmlns:svg="http://www.w3.org/2000/svg"
   xmlns="http://www.w3.org/2000/svg"
   xmlns:xlink="http://www.w3.org/1999/xlink"
   xmlns:sodipodi="http://sodipodi.sourceforge.net/DTD/sodipodi-0.dtd"
   xmlns:inkscape="http://www.inkscape.org/namespaces/inkscape"
   width="86.423737"
   height="80.074532"
   id="svg2"
   sodipodi:version="0.32"
   inkscape:version="0.46"
   sodipodi:docname="site_logo.svg"
   inkscape:output_extension="org.inkscape.output.svg.inkscape"
   version="1.0">
  <defs
     id="defs4">
    <linearGradient
       inkscape:collect="always"
       id="linearGradient2412">
      <stop
         style="stop-color:#ff5555;stop-opacity:1;"
         offset="0"
         id="stop2414" />
      <stop
         style="stop-color:#ff5555;stop-opacity:0;"
         offset="1"
         id="stop2416" />
    </linearGradient>
    <linearGradient
       inkscape:collect="always"
       id="linearGradient12381">
      <stop
         style="stop-color:#1c1f24;stop-opacity:1;"
         offset="0"
         id="stop12383" />
      <stop
         style="stop-color:#1c1f24;stop-opacity:0;"
         offset="1"
         id="stop12385" />
    </linearGradient>
    <inkscape:perspective
       sodipodi:type="inkscape:persp3d"
       inkscape:vp_x="51.428571 : 140.4668 : 1"
       inkscape:vp_y="6.123234e-14 : 1000 : 0"
       inkscape:vp_z="795.52305 : 140.4668 : 1"
       inkscape:persp3d-origin="423.47581 : -34.926896 : 1"
       id="perspective10" />
    <inkscape:perspective
       id="perspective2461"
       inkscape:persp3d-origin="372.04724 : 350.78739 : 1"
       inkscape:vp_z="744.09448 : 526.18109 : 1"
       inkscape:vp_y="0 : 1000 : 0"
       inkscape:vp_x="0 : 526.18109 : 1"
       sodipodi:type="inkscape:persp3d" />
    <inkscape:perspective
       id="perspective12332"
       inkscape:persp3d-origin="372.04724 : 350.78739 : 1"
       inkscape:vp_z="744.09448 : 526.18109 : 1"
       inkscape:vp_y="0 : 1000 : 0"
       inkscape:vp_x="0 : 526.18109 : 1"
       sodipodi:type="inkscape:persp3d" />
    <linearGradient
       inkscape:collect="always"
       xlink:href="#linearGradient12381"
       id="linearGradient12387"
       x1="248.57143"
       y1="1103.7906"
       x2="545.71429"
       y2="692.36218"
       gradientUnits="userSpaceOnUse"
       gradientTransform="matrix(1.1644456,0,0,1.1644456,721.90381,-302.87019)" />
    <linearGradient
       inkscape:collect="always"
       xlink:href="#linearGradient12381"
       id="linearGradient12391"
       gradientUnits="userSpaceOnUse"
       gradientTransform="matrix(1.1644456,0,0,1.1644456,721.90381,-302.87019)"
       x1="248.57143"
       y1="1103.7906"
       x2="545.71429"
       y2="692.36218" />
    <linearGradient
       inkscape:collect="always"
       xlink:href="#linearGradient12381"
       id="linearGradient12395"
       gradientUnits="userSpaceOnUse"
       gradientTransform="matrix(1.1644456,0,0,1.1644456,721.90381,-302.87019)"
       x1="248.57143"
       y1="1103.7906"
       x2="545.71429"
       y2="692.36218" />
    <linearGradient
       inkscape:collect="always"
       xlink:href="#linearGradient12381"
       id="linearGradient12399"
       gradientUnits="userSpaceOnUse"
       gradientTransform="matrix(1.1644456,0,0,1.1644456,721.90381,-302.87019)"
       x1="248.57143"
       y1="1103.7906"
       x2="545.71429"
       y2="692.36218" />
    <linearGradient
       inkscape:collect="always"
       xlink:href="#linearGradient12381"
       id="linearGradient12403"
       gradientUnits="userSpaceOnUse"
       gradientTransform="matrix(1.1644456,0,0,1.1644456,721.90381,-302.87019)"
       x1="248.57143"
       y1="1103.7906"
       x2="545.71429"
       y2="692.36218" />
    <linearGradient
       inkscape:collect="always"
       xlink:href="#linearGradient12381"
       id="linearGradient12407"
       gradientUnits="userSpaceOnUse"
       gradientTransform="matrix(1.1644456,0,0,1.1644456,721.90381,-302.87019)"
       x1="248.57143"
       y1="1103.7906"
       x2="545.71429"
       y2="692.36218" />
    <linearGradient
       inkscape:collect="always"
       xlink:href="#linearGradient12381"
       id="linearGradient12411"
       gradientUnits="userSpaceOnUse"
       gradientTransform="matrix(1.1644456,0,0,1.1644456,721.90381,-302.87019)"
       x1="248.57143"
       y1="1103.7906"
       x2="545.71429"
       y2="692.36218" />
    <linearGradient
       inkscape:collect="always"
       xlink:href="#linearGradient12381"
       id="linearGradient12415"
       gradientUnits="userSpaceOnUse"
       gradientTransform="matrix(1.1644456,0,0,1.1644456,721.90381,-302.87019)"
       x1="248.57143"
       y1="1103.7906"
       x2="545.71429"
       y2="692.36218" />
    <linearGradient
       inkscape:collect="always"
       xlink:href="#linearGradient12381"
       id="linearGradient12419"
       gradientUnits="userSpaceOnUse"
       gradientTransform="matrix(1.1644456,0,0,1.1644456,79.046667,-380.01305)"
       x1="248.57143"
       y1="1103.7906"
       x2="545.71429"
       y2="692.36218" />
    <linearGradient
       inkscape:collect="always"
       xlink:href="#linearGradient2412"
       id="linearGradient2418"
       x1="243.39156"
       y1="678.65173"
       x2="334.95157"
       y2="774.41766"
       gradientUnits="userSpaceOnUse"
       gradientTransform="matrix(1,0,0,0.4444445,0,416.392)" />
  </defs>
  <sodipodi:namedview
     id="base"
     pagecolor="#ffffff"
     bordercolor="#666666"
     borderopacity="1.0"
     gridtolerance="10000"
     guidetolerance="10"
     objecttolerance="10"
     inkscape:pageopacity="0.0"
     inkscape:pageshadow="2"
     inkscape:zoom="3.0908695"
     inkscape:cx="147.26454"
     inkscape:cy="61.554791"
     inkscape:document-units="px"
     inkscape:current-layer="layer1"
     showgrid="false"
     inkscape:window-width="1440"
     inkscape:window-height="802"
     inkscape:window-x="0"
     inkscape:window-y="0" />
  <metadata
     id="metadata7">
    <rdf:RDF>
      <cc:Work
         rdf:about="">
        <dc:format>image/svg+xml</dc:format>
        <dc:type
           rdf:resource="http://purl.org/dc/dcmitype/StillImage" />
      </cc:Work>
    </rdf:RDF>
  </metadata>
  <g
     inkscape:label="Layer 1"
     inkscape:groupmode="layer"
     id="layer1"
     transform="translate(-30.50648,-706.96095)">
    <g
       id="g12421"
       transform="matrix(0.1284216,0,0,0.1284216,3.4728998,658.07729)">
      <path
         id="path12374"
         d="M 569.51786,380.66964 C 444.91976,379.74616 324.82243,462.2435 281.02599,578.63116 C 243.26735,674.86069 256.13091,790.22169 317.76786,873.60714 C 372.41166,949.95044 462.83726,1000.9862 557.45366,1003.8779 C 653.92896,1008.1852 751.72726,965.97974 812.12536,890.55648 C 870.86696,819.19264 896.60516,720.75809 876.97286,630.00261 C 856.77326,530.94479 786.27916,443.03634 692.15876,405.00645 C 653.49306,388.75875 611.54256,380.18092 569.51786,380.66964 z M 571.76786,419.70089 C 681.69436,418.69858 788.22126,491.58624 826.00386,594.69596 C 858.95136,680.1029 846.01206,782.59103 789.83036,855.38839 C 737.95786,925.18844 651.48586,968.35424 563.98666,964.85714 C 479.96376,962.80594 397.45986,919.6825 349.57877,850.60137 C 301.77684,783.89884 285.55383,694.80668 309.79911,615.91964 C 333.31057,534.92363 396.27196,465.79815 475.89246,437.19553 C 506.48076,425.66364 539.02266,419.66486 571.76786,419.70089 z"
         style="fill:url(#linearGradient12419);fill-opacity:1" />
      <path
         sodipodi:nodetypes="cssssssssssssssssssssscccsssssssssssssccssccssccssssccssssccsscccsssssccsssccsssccssccssccssccsssccsssccsssssccssccssssccssccsssscccccccsssccsssssssssssssccssccsssccssccsssccsssccssssssccsssccsssccssc"
         id="path12362"
         d="M 584.89245,965.19692 C 578.36275,961.01402 576.90765,944.41652 580.68915,917.25222 C 581.48775,911.51522 564.78305,896.22602 531.43525,872.17202 C 487.75795,840.66712 479.66245,836.60132 471.22665,841.93302 C 457.77145,850.43712 443.52615,840.54842 443.78835,822.88612 C 444.06785,804.06722 436.33591,805.79692 432.45781,825.42092 C 429.80374,838.85112 428.45971,840.09172 424.43973,832.82192 C 421.78348,828.01832 420.99636,818.49862 422.69057,811.66702 C 424.9269,802.64952 419.882,789.29592 404.27906,762.93262 C 385.01429,730.38212 381.47537,726.95232 370.12804,729.83462 C 361.94983,731.91192 355.48446,730.38762 351.86264,725.52812 C 344.50507,715.65632 305.19171,689.48869 280.94278,678.32264 C 270.37734,673.45751 261.73289,667.3251 261.73289,664.69506 C 261.73289,662.06502 250.20696,651.53289 236.11971,641.29031 C 216.76339,627.21668 210.50649,619.40184 210.50649,609.29921 C 210.50649,589.89023 235.69289,566.64318 261.19178,562.51664 C 277.1322,559.93696 282.22344,556.76344 282.22344,549.40697 C 282.22344,537.68923 287.21313,537.33939 310.98275,547.39059 C 326.41836,553.91767 331.23401,554.02386 342.83469,548.09295 C 350.35152,544.24992 368.35894,537.18498 382.85119,532.39308 C 397.34343,527.60119 419.2427,515.83958 431.51623,506.25618 C 453.69435,488.93907 483.58985,477.57315 507.10585,477.51784 C 513.86705,477.50194 538.46365,470.15991 561.76495,461.20223 L 604.13085,444.91554 L 669.85373,453.727 C 706.00133,458.57331 752.86553,464.8665 773.99643,467.71188 C 795.12723,470.55726 813.89493,474.50435 815.70233,476.4832 C 817.50973,478.46204 820.62183,522.6411 822.61803,574.65888 C 825.84423,658.73006 825.33693,669.59027 818.05113,672.41976 C 805.11893,677.44207 808.37683,684.09807 827.78403,692.30458 C 837.64513,696.47442 845.71333,700.95867 845.71333,702.26958 C 845.71333,703.58049 830.15333,716.88012 811.13553,731.82442 C 792.11773,746.76862 762.00993,774.92562 744.22913,794.39552 C 721.88373,818.86372 702.11033,834.63002 680.19623,845.45162 C 662.75883,854.06262 643.88145,864.74692 638.24655,869.19462 C 628.44955,876.92752 628.40905,877.51512 637.32125,882.62502 C 645.71865,887.43992 644.95815,888.85942 629.63725,896.96612 C 611.02255,906.81592 587.71685,945.87992 591.47765,960.92782 C 594.09815,971.41322 594.34555,971.25272 584.89245,965.19692 z M 612.35805,863.78972 C 632.57255,847.80572 603.17525,840.01712 580.08805,855.24002 C 574.66675,858.81462 574.43445,862.22882 579.02245,870.90472 C 585.18515,882.55852 589.89255,881.55372 612.35805,863.78972 z M 520.44305,840.42002 C 518.71105,837.58402 512.23575,832.76152 506.05345,829.70342 C 496.36955,824.91332 496.58645,825.61152 507.61935,834.74462 C 521.96135,846.61692 525.06655,847.99122 520.44305,840.42002 z M 567.10375,812.24122 C 559.98895,801.63062 552.75975,788.45972 551.03885,782.97252 C 549.31805,777.48532 544.60765,772.99582 540.57135,772.99582 C 530.79395,772.99582 530.78625,772.96332 549.69935,811.77892 C 563.54835,840.20142 567.26895,844.45802 573.10295,838.55372 C 578.93705,832.64932 577.98335,828.46622 567.10375,812.24122 z M 523.87335,800.67522 C 513.79935,780.69072 476.57745,753.81832 467.14345,759.71902 C 461.04345,763.53452 472.43085,788.45512 480.29865,788.50842 C 483.58575,788.53062 487.04345,790.59782 487.98265,793.10202 C 490.26965,799.20042 529.13385,825.53102 531.82625,822.80622 C 532.99285,821.62562 529.41405,811.66662 523.87335,800.67522 z M 697.01603,797.62142 C 719.97543,785.72932 754.03293,742.60182 761.49693,715.96822 C 764.57193,704.99559 760.89783,707.01749 737.54623,729.14852 C 692.07113,772.24682 659.39773,778.44322 643.33885,747.01472 L 635.43805,731.55242 L 662.45553,714.29392 C 677.31503,704.80175 706.16573,686.71436 726.56813,674.09973 C 766.14403,649.63027 768.69803,644.66799 756.68793,615.57766 C 739.63573,574.2745 695.34643,563.42339 657.39093,591.24937 C 611.16835,625.13613 583.00695,693.60889 594.29605,744.66112 C 601.53205,777.38472 611.76925,792.70522 632.50055,801.83672 C 655.42983,811.93622 671.39263,810.89332 697.01603,797.62142 z M 633.26955,683.56611 C 644.45475,630.0402 700.33153,598.09902 721.66293,633.03725 C 725.28023,638.96188 727.00803,645.82624 725.50263,648.29138 C 721.42633,654.9664 643.48025,700.41519 636.10865,700.41519 C 631.62605,700.41519 630.78795,695.44147 633.26955,683.56611 z M 435.9025,781.07832 C 435.9025,779.82092 433.59732,777.35022 430.77987,775.58802 C 427.96242,773.82572 425.65723,774.85452 425.65723,777.87422 C 425.65723,780.89382 427.96242,783.36452 430.77987,783.36452 C 433.59732,783.36452 435.9025,782.33572 435.9025,781.07832 z M 456.39305,747.45382 C 456.39305,740.08582 429.79688,735.61872 423.63561,741.95192 C 414.828,751.00522 434.45557,763.77572 446.85545,757.05952 C 452.10115,754.21832 456.39305,749.89572 456.39305,747.45382 z M 537.43495,750.78852 C 544.80335,741.80322 537.06675,730.35752 526.41975,734.49242 C 517.70765,737.87582 515.10695,747.73942 521.27975,753.98662 C 526.40295,759.17152 531.36625,758.18902 537.43495,750.78852 z M 415.41196,727.37372 C 415.41196,720.84542 403.80741,710.78385 396.27797,710.78385 C 391.02571,710.78385 390.71087,713.19027 394.92142,721.15252 C 400.22665,731.18482 415.41196,735.79532 415.41196,727.37372 z M 803.70763,714.93132 C 812.07403,706.46424 811.43363,700.41519 802.17093,700.41519 C 797.94473,700.41519 794.48693,701.39086 794.48693,702.58334 C 794.48693,703.77582 793.08773,708.44172 791.37753,712.95201 C 787.70893,722.62742 794.95393,723.79052 803.70763,714.93132 z M 471.76095,703.18324 C 471.76095,701.85429 467.87625,692.5225 463.12825,682.44592 C 456.26605,667.88255 451.53815,664.12487 440.07637,664.12487 C 421.39686,664.12487 421.83556,671.90487 441.56688,690.55869 C 455.40615,703.64221 471.76095,710.48037 471.76095,703.18324 z M 526.46555,699.37372 C 535.82235,695.94952 543.47785,690.30796 543.47785,686.8369 C 543.47785,683.36585 544.68725,677.33645 546.16525,673.43824 C 549.23865,665.3327 530.10885,661.84166 525.34715,669.63909 C 523.71665,672.30903 518.04435,674.49353 512.74205,674.49353 C 500.49825,674.49353 495.81715,682.09907 499.94995,695.27725 C 503.75055,707.39587 504.30895,707.48214 526.46555,699.37372 z M 338.83427,679.87774 C 317.27444,663.41927 297.59134,652.99436 297.59134,658.03392 C 297.59134,664.11642 344.94784,695.6911 348.57099,692.02431 C 350.03121,690.5465 345.64969,685.08055 338.83427,679.87774 z M 368.28371,657.90367 C 371.66465,654.48201 374.43088,644.44862 374.43088,635.60724 C 374.43088,621.67641 371.33751,618.01103 351.24198,608.13028 C 338.48808,601.85933 326.91313,596.72856 325.51986,596.72856 C 322.11022,596.72856 355.7375,663.51468 359.3191,663.85621 C 360.8687,664.00397 364.90277,661.32533 368.28371,657.90367 z M 809.85483,628.14051 C 809.85483,599.34291 804.20943,585.00206 797.31633,596.2896 C 792.98433,603.38323 800.18603,658.94054 805.43753,658.94054 C 807.86703,658.94054 809.85483,645.08053 809.85483,628.14051 z M 333.44979,645.46279 C 333.44979,643.7528 325.95794,629.8202 316.80123,614.50146 C 299.11868,584.91941 281.73744,576.27141 254.08261,583.29592 C 235.21099,588.08944 238.27317,595.00478 265.57487,609.2489 C 278.95776,616.23116 297.97554,627.82081 307.83661,635.00367 C 325.8543,648.12786 333.44979,651.22947 333.44979,645.46279 z M 264.2717,632.98201 C 262.51803,630.11035 253.73754,624.17083 244.75949,619.78306 L 228.43576,611.80532 L 243.80367,624.97851 C 259.38109,638.3313 270.09733,642.52161 264.2717,632.98201 z M 438.20769,623.02891 C 431.47238,616.37785 337.33492,575.51553 334.75735,578.12414 C 333.60806,579.28728 347.18185,586.86528 364.92132,594.96416 C 382.6608,603.06303 405.31232,613.5832 415.25805,618.3423 C 436.04709,628.29003 445.48775,630.21793 438.20769,623.02891 z M 495.33545,617.02689 C 499.27415,613.71868 502.49675,612.62295 502.49675,614.59194 C 502.49675,616.56094 508.83605,613.61404 516.58405,608.04329 C 524.33205,602.47254 539.31575,594.2674 549.88115,589.80964 C 560.44655,585.35189 569.09095,579.13679 569.09095,575.99832 C 569.09095,560.99262 551.92855,539.74665 531.86765,529.91838 C 505.95665,517.22399 486.76665,520.47267 458.42285,542.35188 C 443.10995,554.17222 422.01765,584.87452 426.56017,588.7316 C 430.24075,591.8568 450.78945,601.91289 453.49495,601.91289 C 455.08895,601.91289 456.39305,598.72808 456.39305,594.83554 C 456.39305,581.75683 476.42785,561.82656 492.93365,558.48565 C 511.21175,554.78601 533.23255,565.85992 533.23255,578.75132 C 533.23255,583.07431 518.61635,593.75112 499.93545,603.07401 C 481.62205,612.21354 466.63835,621.3896 466.63835,623.46526 C 466.63835,628.76614 486.72405,624.25978 495.33545,617.02689 z M 388.8667,563.0304 C 395.4518,548.40361 393.20319,547.6006 369.2871,556.0382 C 353.51669,561.60201 353.01008,562.48109 361.81782,568.99903 C 375.53435,579.14961 382.27982,577.66114 388.8667,563.0304 z M 803.68563,538.35123 C 804.68583,515.27903 803.26833,503.41059 799.51263,503.41059 C 794.16403,503.41059 743.26063,524.2503 743.26063,526.43998 C 743.26063,526.99836 753.05763,538.23 765.03173,551.39918 C 794.93363,584.28516 801.79473,581.96912 803.68563,538.35123 z M 611.42665,557.33922 C 615.53045,553.18597 610.15945,539.70091 604.40135,539.70091 C 601.88535,539.70091 599.82685,544.36681 599.82685,550.06957 C 599.82685,560.1748 605.26025,563.57993 611.42665,557.33922 z M 633.12395,539.70091 C 634.86525,536.84952 633.84865,534.51658 630.86495,534.51658 C 627.88125,534.51658 625.43995,536.84952 625.43995,539.70091 C 625.43995,542.55229 626.45655,544.88524 627.69895,544.88524 C 628.94145,544.88524 631.38265,542.55229 633.12395,539.70091 z M 599.11325,524.70397 C 608.89795,518.42985 602.03205,467.12026 591.40775,467.12026 C 585.41955,467.12026 555.89685,479.94335 549.71415,485.22967 C 548.03835,486.66258 585.74455,527.64585 589.58155,528.56195 C 590.99025,528.89829 595.27945,527.16219 599.11325,524.70397 z M 686.91353,522.07489 C 732.81923,512.06882 790.38373,484.96557 767.36773,484.19436 C 763.96993,484.0805 729.67063,479.02578 691.14723,472.96164 C 652.62373,466.8975 619.77485,461.93593 618.14965,461.93593 C 613.84435,461.93593 614.67945,504.9842 619.11515,511.70581 C 621.18505,514.84249 629.79425,519.90744 638.24655,522.96127 C 646.69895,526.01509 653.61533,528.69785 653.61633,528.92296 C 653.61743,529.14807 668.60113,526.06643 686.91353,522.07489 z M 608.36455,966.54412 C 599.64935,957.72402 605.71025,932.14252 619.92335,917.75832 C 637.16335,900.31062 641.99315,899.36002 653.61903,911.12592 C 663.91893,921.54982 660.11813,941.57302 644.65785,958.33562 C 634.33055,969.53282 615.52115,973.78702 608.36455,966.54412 z M 775.27663,818.87682 C 756.12243,799.49182 786.05153,748.92092 808.75253,762.31292 C 813.58493,765.16372 814.71043,767.56712 811.25363,767.65382 C 802.84623,767.86472 788.77153,790.26342 784.84873,809.67482 C 782.31353,822.21992 780.39873,824.06062 775.27663,818.87682 z M 800.89023,821.13842 C 791.79153,817.80252 792.95703,796.02212 802.76543,786.09552 C 813.63133,775.09882 822.29173,778.45802 824.18453,794.40352 C 825.84663,808.40532 811.39603,824.99032 800.89023,821.13842 z"
         style="fill:#006493;fill-opacity:1" />
    </g>
  </g>
</svg>
