<?xml version="1.0" encoding="UTF-8" standalone="no"?>
<svg
   xmlns:dc="http://purl.org/dc/elements/1.1/"
   xmlns:cc="http://creativecommons.org/ns#"
   xmlns:rdf="http://www.w3.org/1999/02/22-rdf-syntax-ns#"
   xmlns:svg="http://www.w3.org/2000/svg"
   xmlns="http://www.w3.org/2000/svg"
   xmlns:sodipodi="http://sodipodi.sourceforge.net/DTD/sodipodi-0.dtd"
   xmlns:inkscape="http://www.inkscape.org/namespaces/inkscape"
   width="120"
   height="120"
   viewBox="0 0 406 297"
   version="1.0"
   id="svg2"
   sodipodi:version="0.32"
   inkscape:version="0.46"
   sodipodi:docname="accessories.svg"
   inkscape:output_extension="org.inkscape.output.svg.inkscape">
  <metadata
     id="metadata370">
    <rdf:RDF>
      <cc:Work
         rdf:about="">
        <dc:format>image/svg+xml</dc:format>
        <dc:type
           rdf:resource="http://purl.org/dc/dcmitype/StillImage" />
      </cc:Work>
    </rdf:RDF>
  </metadata>
  <defs
     id="defs368">
    <inkscape:perspective
       sodipodi:type="inkscape:persp3d"
       inkscape:vp_x="0 : 185.625 : 1"
       inkscape:vp_y="0 : 1000 : 0"
       inkscape:vp_z="507.5 : 185.625 : 1"
       inkscape:persp3d-origin="253.75 : 123.75 : 1"
       id="perspective372" />
  </defs>
  <sodipodi:namedview
     inkscape:window-height="713"
     inkscape:window-width="640"
     inkscape:pageshadow="2"
     inkscape:pageopacity="0.0"
     guidetolerance="10.0"
     gridtolerance="10.0"
     objecttolerance="10.0"
     borderopacity="1.0"
     bordercolor="#666666"
     pagecolor="#ffffff"
     id="base"
     showgrid="false"
     inkscape:zoom="1.0699507"
     inkscape:cx="253.75"
     inkscape:cy="185.625"
     inkscape:window-x="0"
     inkscape:window-y="0"
     inkscape:current-layer="svg2" />
  <g
     id="#f1f1f1ff">
    <path
       d="M 278.19,0 L 279.89,0 L 279.91,0.91 C 279.46,0.9 278.55,0.9 278.1,0.9 L 278.19,0 z"
       id="path5"
       style="opacity:1;fill:#f1f1f1" />
    <path
       d="M 65.77,101.81 C 92.66,86.39 118.4,62.98 148.72,58.33 C 148.94,59.81 148.68,61.3 148.6,62.78 C 149.38,63.55 150.16,64.32 150.95,65.07 C 149.7,66.29 148.63,67.69 148.26,69.43 C 141.84,75.16 136.1,81.8 128.36,86.07 C 128.8,87.51 130.29,88.96 129.71,90.51 C 120.13,96.13 109.32,102.9 102.68,111.29 C 101.92,111.37 101.16,111.45 100.4,111.53 C 99.11,114.91 99.33,120.56 94.63,120.91 C 94.16,136 82.62,148.08 81.58,163.01 C 82.4,177.15 76.59,190.03 72.23,202.84 C 76.6,218.28 79.9,234.83 76.21,250.99 C 78.98,257.87 72.16,263.59 66.85,266.84 C 53.59,267.31 39.9,263.48 29.03,255.84 C 26.07,253.15 22.37,250.97 20.64,247.21 C 33.9,258.43 53.67,270.43 70.2,259.13 C 75.45,256.51 73.58,250.85 70.71,247.19 C 67.09,218.76 64.83,189.06 70.62,160.61 C 71.35,160.14 72.02,159.62 72.66,159.03 C 69.79,145.91 79.37,134.48 83.73,122.71 C 85.96,109.41 96.49,98.59 108.75,93.65 C 109.21,91.83 109.53,88.77 107.18,88.17 C 106.44,88.66 105.69,89.15 104.94,89.64 C 103.69,87.95 106.58,86.18 105.82,84.23 C 103.54,84.52 101.24,84.66 99.18,83.48 C 82.2,93.23 65.04,105.82 48.8,116.89 C 53.89,111.28 59.67,106.04 65.77,101.81 z"
       id="path7"
       style="opacity:1;fill:#f1f1f1" />
  </g>
  <g
     id="#e7e7e8ff">
    <path
       d="M 256.6,1.94 C 259.56,-0.14 263.81,1.5 267.27,1.07 C 264.9,1.79 262.43,2.09 259.96,2.09 C 259.12,2.05 257.44,1.98 256.6,1.94 z"
       id="path10"
       style="opacity:1;fill:#e7e7e8" />
  </g>
  <g
     id="#cfd0d2ff">
    <path
       d="M 267.27,1.07 C 270.88,0.94 274.49,1.06 278.1,0.9 C 278.55,0.9 279.46,0.9 279.91,0.91 C 282.92,1.02 285.94,1.01 288.96,1.01 L 289.04,1.94 C 283.98,2.91 277.02,0.25 273.12,3.72 C 277.44,4.68 282.29,4.16 286.28,5.98 C 284.7,6.84 283.06,7.59 281.43,8.36 C 281.29,10.01 281.36,11.69 281.75,13.31 C 297.54,24.39 316.67,20.3 335,21.02 C 338.58,20.8 343.52,22.4 345.1,18.03 C 347.37,18.6 349.62,19.31 351.91,19.85 C 350.41,17.07 347.23,16.1 344.47,15.08 C 342.84,14.26 341.36,13.2 339.96,12.05 C 344.81,12.2 348.75,15.83 353.15,17.61 C 353.78,20.13 356.24,21.09 358.26,22.28 C 340.01,22.71 319.56,24.23 301.31,29.65 C 300.37,33.53 297.12,36.05 295.37,39.51 C 294.31,39.86 293.18,39.58 292.1,39.56 C 289.8,43.5 287.74,48.32 282.77,49.33 C 282.66,50.1 282.56,50.87 282.46,51.64 C 280.63,53.33 279.01,55.24 277.14,56.87 C 276.12,56.35 275.09,55.84 274.07,55.33 C 270.25,64.75 259.25,64.76 250.92,66.87 C 248.31,64.51 247.77,60.63 247.56,57.28 C 252.41,53.07 248.87,45.11 255.94,41.95 C 248.67,32.3 259.81,39.59 265,40.08 C 272.77,41.18 274.68,32.79 279.13,28.51 C 282.71,30.82 280.03,35 279.11,38.02 C 289.97,29.28 274.73,24.62 267.84,21.96 C 270.51,20.93 271.88,18.4 272.9,15.89 C 272.19,15.08 271.44,14.31 270.65,13.58 C 271.24,10.75 272.82,8.33 274.73,6.22 C 269.72,4.78 264.51,4.17 259.32,3.84 C 259.48,3.41 259.8,2.53 259.96,2.09 C 262.43,2.09 264.9,1.79 267.27,1.07 z"
       id="path13"
       style="opacity:1;fill:#cfd0d2" />
    <path
       d="M 312.33,200.79 C 313,202.85 312.77,205.02 312.03,207.02 C 292.05,218.89 274.71,235.13 254.13,246.12 C 253.19,245.12 252.56,243.9 251.9,242.72 C 252.34,241.79 252.76,240.86 253.16,239.92 C 254.13,240.58 255.12,241.22 256.13,241.82 C 275.94,231.52 292.5,215.72 311.59,204.68 C 311.7,204.21 311.91,203.26 312.01,202.78 C 312.09,202.29 312.25,201.29 312.33,200.79 z"
       id="path15"
       style="opacity:1;fill:#cfd0d2" />
  </g>
  <g
     id="#e4e4e5ff">
    <path
       d="M 288.96,1.01 C 291.73,1.65 296.77,-0.43 298.03,2.18 C 295.03,2.09 292.04,2.03 289.04,1.94 L 288.96,1.01 z"
       id="path18"
       style="opacity:1;fill:#e4e4e5" />
  </g>
  <g
     id="#e6e7e7ff">
    <path
       d="M 249.89,2.98 C 250.45,1.22 252.66,1.97 253.99,2.1 C 252.95,3.24 251.31,3.6 249.89,2.98 z"
       id="path21"
       style="opacity:1;fill:#e6e7e7" />
  </g>
  <g
     id="#d4d5d7ff">
    <path
       d="M 253.99,2.1 C 254.64,2.06 255.95,1.98 256.6,1.94 C 257.44,1.98 259.12,2.05 259.96,2.09 C 259.8,2.53 259.48,3.41 259.32,3.84 C 264.51,4.17 269.72,4.78 274.73,6.22 C 272.82,8.33 271.24,10.75 270.65,13.58 C 271.44,14.31 272.19,15.08 272.9,15.89 C 271.88,18.4 270.51,20.93 267.84,21.96 C 266.63,21.43 265.4,20.98 264.17,20.53 C 260.8,18.52 256.46,19.89 253.24,17.89 C 254.55,12.54 259.23,9.52 262.91,6.16 C 254.55,4.49 245.58,8.35 237.71,6.03 C 239.27,5 241.48,5.33 242.79,3.89 C 244.64,2.09 247.58,3.34 249.89,2.98 C 251.31,3.6 252.95,3.24 253.99,2.1 z"
       id="path24"
       style="opacity:1;fill:#d4d5d7" />
    <path
       d="M 275.02,225.02 C 289.23,221.21 297.15,203.38 312.01,202.78 C 311.91,203.26 311.7,204.21 311.59,204.68 C 292.5,215.72 275.94,231.52 256.13,241.82 C 255.12,241.22 254.13,240.58 253.16,239.92 C 253.35,239.44 253.73,238.48 253.92,238.01 L 254.85,237.89 C 255.31,237.84 256.23,237.73 256.69,237.68 C 261.25,231.68 267.23,225.97 275.02,225.02 z"
       id="path26"
       style="opacity:1;fill:#d4d5d7" />
  </g>
  <g
     id="#cacaccff">
    <path
       d="M 273.12,3.72 C 277.02,0.25 283.98,2.91 289.04,1.94 C 288.44,2.55 287.85,3.17 287.26,3.79 C 294.79,5.19 302.98,5.96 309.87,8.92 C 306.63,9.09 303.37,8.81 300.14,9.23 C 305.59,21.29 324.44,14.59 335.4,18.01 C 335.4,17.05 335.4,16.09 335.4,15.14 C 338.44,14.39 341.64,16.96 344.47,15.08 C 347.23,16.1 350.41,17.07 351.91,19.85 C 349.62,19.31 347.37,18.6 345.1,18.03 C 343.52,22.4 338.58,20.8 335,21.02 C 316.67,20.3 297.54,24.39 281.75,13.31 C 281.36,11.69 281.29,10.01 281.43,8.36 C 283.06,7.59 284.7,6.84 286.28,5.98 C 282.29,4.16 277.44,4.68 273.12,3.72 z"
       id="path29"
       style="opacity:1;fill:#cacacc" />
  </g>
  <g
     id="#c4c4c7ff">
    <path
       d="M 289.04,1.94 C 292.04,2.03 295.03,2.09 298.03,2.18 C 300.77,3 303.64,3.22 306.49,3 L 307.13,3.15 C 308.53,4.25 310.37,4.63 312.1,4.07 C 313.46,5.38 315.46,5.6 317.19,4.92 L 318.01,5.11 C 319.07,6.15 320.64,6.62 322.08,6.07 C 323.04,7.26 324.67,7.57 326.08,7.04 C 326.81,8.2 327.84,8.54 329.15,8.03 L 329.99,8.03 C 330.75,9.21 331.79,9.53 333.09,8.96 C 333.58,9.25 334.56,9.81 335.05,10.09 C 335.8,11.25 336.81,11.54 338.07,10.96 C 338.54,11.23 339.49,11.77 339.96,12.05 C 341.36,13.2 342.84,14.26 344.47,15.08 C 341.64,16.96 338.44,14.39 335.4,15.14 C 335.4,16.09 335.4,17.05 335.4,18.01 C 324.44,14.59 305.59,21.29 300.14,9.23 C 303.37,8.81 306.63,9.09 309.87,8.92 C 302.98,5.96 294.79,5.19 287.26,3.79 C 287.85,3.17 288.44,2.55 289.04,1.94 z"
       id="path32"
       style="opacity:1;fill:#c4c4c7" />
  </g>
  <g
     id="#e0e0e1ff">
    <path
       d="M 298.03,2.18 C 300.79,2.34 304.21,0.96 306.49,3 C 303.64,3.22 300.77,3 298.03,2.18 z"
       id="path35"
       style="opacity:1;fill:#e0e0e1" />
  </g>
  <g
     id="#e2e3e5ff">
    <path
       d="M 307.13,3.15 C 308.7,3.09 311.41,1.99 312.1,4.07 C 310.37,4.63 308.53,4.25 307.13,3.15 z"
       id="path38"
       style="opacity:1;fill:#e2e3e5" />
  </g>
  <g
     id="#d9dadcff">
    <path
       d="M 207.5,12.81 C 218.9,8.74 230.81,5.29 242.79,3.89 C 241.48,5.33 239.27,5 237.71,6.03 C 245.58,8.35 254.55,4.49 262.91,6.16 C 259.23,9.52 254.55,12.54 253.24,17.89 C 256.46,19.89 260.8,18.52 264.17,20.53 C 263.66,20.71 262.63,21.07 262.12,21.25 C 263.87,22.85 266.41,23.25 268.21,24.83 C 264.79,25.03 260.99,24.67 258.05,26.77 C 258.62,27.54 259.18,28.3 259.76,29.06 C 256.26,30.05 252.66,31.25 250.42,34.32 C 250.48,35.47 250.54,36.62 250.63,37.77 C 249.61,38.79 248.34,39.48 247.12,40.22 C 246.71,40.13 245.88,39.93 245.46,39.84 C 241.91,38.79 236.93,36.23 233.93,39.55 C 230.88,51.78 219.56,60.92 219.38,73.83 C 212.36,79.06 215.02,91.36 207.44,94.54 C 206.81,96.5 206.34,98.51 205.68,100.46 C 204.9,100.55 204.12,100.64 203.34,100.73 C 202.68,105.18 198.67,107.61 196.1,110.89 C 196.7,111.97 197.29,113.04 197.9,114.11 C 190.4,119.4 189.77,129.88 182.74,135.34 C 180.69,148.77 173.91,160.92 171.87,174.4 C 172.83,176.81 173.67,179.3 173.7,181.93 C 172.43,181.44 171.19,180.9 169.96,180.34 C 170.59,186.1 172.95,192.41 170.18,198.02 C 171.03,198.62 171.9,199.22 172.64,199.97 C 172.43,201.15 172.27,202.34 172.27,203.54 C 173.37,203.82 174.47,204.11 175.58,204.41 C 175.51,205.51 175.45,206.61 175.39,207.71 C 177.82,209.19 182.7,214.81 182.68,208.79 C 186.81,201.26 198.4,200.15 201.77,191.77 C 203.27,191.19 204.82,190.73 206.36,190.28 C 212.71,179.93 217.24,166.83 226.51,158.53 C 227.96,149.85 234.87,143.19 235.34,134.4 C 238.78,132.8 238.68,128.81 241.32,126.55 C 241.2,117.43 251.37,109.29 253.56,99.49 C 273.97,86.23 293.03,67.9 311.24,51.15 C 318.98,31.15 343.33,30.82 361.07,26.83 C 362.8,27.93 364.68,28.79 366.75,28.99 C 365.9,27.55 365.05,26.11 364.24,24.65 C 369.25,27.27 373.13,31.45 377.48,34.95 C 377.13,35.45 376.45,36.44 376.1,36.94 C 361.55,24.35 338.75,32.02 325.46,42.36 C 325.29,49.35 314.11,49.49 310.28,56.36 C 310.32,57.51 310.35,58.66 310.39,59.82 C 307.56,62.04 305.23,64.86 302.15,66.77 C 290.38,72.19 282.62,84.99 271.77,91.77 C 262.22,104.22 249.1,115.47 246.4,131.45 C 242.63,137.69 241.27,145.63 235.45,150.45 C 231.43,157.5 230.8,169.72 221.68,171.78 C 218.39,184.24 209.75,193.57 199.69,200.99 C 196.6,213.98 182.72,217.07 174.14,225.02 C 170.17,225.92 167.55,229.48 170.66,232.97 C 160.58,235.96 165.89,216.36 155.59,217.27 C 155.01,210.69 158.65,203.92 159.52,197.15 C 158.45,196.28 157.39,195.4 156.3,194.55 C 156.89,191.17 158.69,188.02 157.47,184.42 C 158.36,183.55 159.25,182.68 160.15,181.83 C 159.39,177.21 158.29,170.91 162.92,167.89 C 163.66,169.01 164.41,170.13 165.17,171.24 C 166.22,169.37 166.35,167.19 166.54,165.1 C 164.84,164.47 163.07,164.08 161.31,163.67 C 164.26,158.85 162.15,152.76 167.97,149.87 C 167.46,133.52 183.49,122.74 189.23,108.27 C 197.77,106.57 195.29,95.27 202.18,91.18 C 206.08,89.21 205.22,84.42 205.82,80.81 C 207.17,77.97 209.37,75.76 211.66,73.67 C 217.06,59.31 226.34,46.3 233.05,32.08 C 235.91,28.02 240.76,31.73 243.82,29.36 C 233.85,28.78 241.45,21.94 245.31,18.32 C 245.76,14.71 246.47,11.11 248.73,8.1 C 242.49,10.04 235.51,7.23 229.73,10.74 C 222.79,11.41 216.01,13.04 209.24,14.57 C 208.8,14.13 207.94,13.25 207.5,12.81 M 249.24,23.99 C 248.87,25.66 248.5,27.34 248.17,29.02 C 249.64,28.73 250.83,27.82 251.9,26.82 C 251.89,26.15 251.87,24.8 251.86,24.12 C 251.2,24.09 249.89,24.02 249.24,23.99 z"
       id="path41"
       style="opacity:1;fill:#d9dadc" />
    <path
       d="M 103.09,147.08 C 105.31,146.18 107.56,145.21 109.99,145.04 C 106.25,150.82 107.62,158.45 105.97,164.99 L 105.13,165.27 C 104.58,165.01 103.48,164.47 102.94,164.21 C 102.27,163.63 101.64,163.01 101.05,162.36 C 105.9,160.33 103.92,153.35 105.78,149.12 C 103.66,148.64 102.5,150.81 101.1,151.98 C 100.89,151.74 100.47,151.25 100.26,151.01 L 99.9,150.28 C 100.99,149.24 102.05,148.17 103.09,147.08 z"
       id="path43"
       style="opacity:1;fill:#d9dadc" />
    <path
       d="M 310.35,197.07 C 311.28,198.14 311.99,199.4 312.33,200.79 C 312.25,201.29 312.09,202.29 312.01,202.78 C 297.15,203.38 289.23,221.21 275.02,225.02 C 267.23,225.97 261.25,231.68 256.69,237.68 C 256.23,237.73 255.31,237.84 254.85,237.89 C 259.45,229.83 265.01,222.19 270.8,215.24 C 272.9,216.5 275.33,216.73 277.56,215.6 C 279.58,212.45 280.56,208.49 283.78,206.24 C 284.59,207.4 285.4,208.57 286.21,209.74 C 287.71,208.15 288.9,206.19 290.83,205.06 C 291.56,205.66 292.29,206.26 293.03,206.85 C 296.64,199.96 305.54,200.79 310.35,197.07 z"
       id="path45"
       style="opacity:1;fill:#d9dadc" />
  </g>
  <g
     id="#dfe0e1ff">
    <path
       d="M 312.1,4.07 C 313.76,4.04 316.12,3.14 317.19,4.92 C 315.46,5.6 313.46,5.38 312.1,4.07 z"
       id="path48"
       style="opacity:1;fill:#dfe0e1" />
  </g>
  <g
     id="#e3e3e5ff">
    <path
       d="M 318.01,5.11 C 319.31,4.96 321.69,4.18 322.08,6.07 C 320.64,6.62 319.07,6.15 318.01,5.11 z"
       id="path51"
       style="opacity:1;fill:#e3e3e5" />
    <path
       d="M 220.77,13.73 C 224.04,13.17 229.92,10.53 230.29,15.76 C 231.01,32.44 215.88,43.11 210.93,57.96 C 198.8,84.25 178.85,104.96 165.33,130.34 C 150.1,145.08 150.43,167.93 147.7,187.24 C 147.32,187.36 146.57,187.6 146.19,187.72 C 146.6,188.66 147,189.61 147.39,190.57 C 146.71,191.19 146.02,191.81 145.33,192.42 C 144.88,195.68 145.22,199.12 143.32,202 C 143.72,202.91 144.11,203.82 144.51,204.74 C 135.24,215.55 144.86,232.19 135.91,242.88 C 136.7,243.51 137.58,244.03 138.54,244.41 C 133.11,250.47 136.21,260.29 128.55,264.53 C 119.85,276.26 103.7,276.89 90.73,280.78 C 82.49,281.8 74.62,278.14 66.56,277.13 C 73.05,274.49 79.75,278.49 86,279.86 C 97.9,278.47 109.31,273.64 119.52,267.61 C 119.49,266.6 119.49,265.6 119.59,264.61 C 120.34,264.17 121.03,263.64 121.65,263.03 C 121.49,261.81 121.05,260.57 121.36,259.35 C 126.07,258.84 127.12,253.72 128.75,250.08 C 126.01,245.84 127.71,240.79 128.68,236.39 C 129.62,231.6 123.55,224.41 130.47,222.43 C 130.81,221.16 131.17,219.9 131.54,218.64 C 132.83,217.93 134.15,217.04 134.1,215.38 C 133.04,215.79 131.99,216.21 130.94,216.63 C 131.47,213.53 132.03,210.42 131.66,207.27 C 133.97,205.52 134.47,202.39 132.56,200.13 C 137.63,197.96 134.37,192.86 136.01,189.33 C 137,189.77 138,190.21 139,190.66 C 140.59,186.39 136.32,182.05 135.03,178.12 C 138.42,174.81 138.84,170.35 140.32,166.13 C 138.66,155.93 130.24,166.23 128.03,162.05 C 134.41,159.05 131.9,150.45 137.95,146.82 C 139.45,148.78 140.64,152.18 143.74,150.8 C 143.7,149.63 143.66,148.47 143.63,147.31 C 149.14,147.28 147.61,140.78 149.2,137.22 C 156.35,131.49 157.57,122.4 164.76,116.64 C 171.26,117.42 166.68,107.99 172.51,107.45 C 173.29,104.44 173.46,100.52 176.81,99.16 C 177.56,99.66 178.31,100.16 179.07,100.65 C 179.96,99.54 178.72,98.29 178.47,97.15 C 184.46,91.85 189.86,84.86 192.44,77.4 C 195.98,75.2 197.08,71.23 198.29,67.53 C 199.1,67.46 199.92,67.39 200.74,67.32 C 206.65,50.22 224.01,36.11 221.37,16.33 C 222.17,15.61 222.98,14.89 223.79,14.17 C 223.03,14.06 221.53,13.84 220.77,13.73 z"
       id="path53"
       style="opacity:1;fill:#e3e3e5" />
    <path
       d="M 193.14,19.06 L 193.55,18.99 C 193.45,19.16 193.26,19.51 193.16,19.68 L 193.14,19.06 z"
       id="path55"
       style="opacity:1;fill:#e3e3e5" />
    <path
       d="M 274.3,241.92 C 274.5,241.71 274.91,241.28 275.12,241.07 C 274.91,241.28 274.5,241.71 274.3,241.92 z"
       id="path57"
       style="opacity:1;fill:#e3e3e5" />
  </g>
  <g
     id="#e2e2e4ff">
    <path
       d="M 322.08,6.07 C 323.36,5.93 325.69,5.21 326.08,7.04 C 324.67,7.57 323.04,7.26 322.08,6.07 z"
       id="path60"
       style="opacity:1;fill:#e2e2e4" />
    <path
       d="M 307.26,75.31 C 327.45,59.14 344.49,34.74 373.11,36.82 C 375.26,38.35 377.46,39.87 379.21,41.87 C 364.49,35.64 350.69,45.46 338.88,52.9 C 321.91,73.13 294.65,85.17 283.62,109.68 C 273.2,109.17 272.95,122.81 266.12,128.13 C 245.14,162.31 226.02,199.24 195.99,226.97 C 189.77,240.64 169.27,250.25 175.47,267.56 C 186.67,280.9 204.84,274.03 219.12,272.12 C 215.35,273.95 211.22,274.79 207.29,276.18 C 193.7,278.01 179.44,277.75 167.73,270.34 C 159.67,255.17 179.34,243.75 187.27,232.28 C 204.68,213.38 222.6,194.18 235.08,172.05 C 246.6,157.88 251.35,139.3 263.37,125.39 C 271.29,111.52 279.6,96.67 294.43,88.62 C 295.24,82.22 304.77,81.43 307.26,75.31 z"
       id="path62"
       style="opacity:1;fill:#e2e2e4" />
    <path
       d="M 366.64,164.63 C 368.13,163.7 369.67,161.07 371.45,163.03 C 353.45,180.76 333.53,196.49 313.17,211.32 L 313.31,210.38 C 313.9,208.88 314.64,207.45 315.36,206.02 L 315.74,205.81 C 333.26,192.81 350.33,179.1 366.64,164.63 z"
       id="path64"
       style="opacity:1;fill:#e2e2e4" />
  </g>
  <g
     id="#dfe0e2ff">
    <path
       d="M 326.08,7.04 C 327.49,6.49 328.51,6.82 329.15,8.03 C 327.84,8.54 326.81,8.2 326.08,7.04 z"
       id="path67"
       style="opacity:1;fill:#dfe0e2" />
  </g>
  <g
     id="#dedee0ff">
    <path
       d="M 229.73,10.74 C 235.51,7.23 242.49,10.04 248.73,8.1 C 246.47,11.11 245.76,14.71 245.31,18.32 C 241.45,21.94 233.85,28.78 243.82,29.36 C 240.76,31.73 235.91,28.02 233.05,32.08 C 226.34,46.3 217.06,59.31 211.66,73.67 C 209.37,75.76 207.17,77.97 205.82,80.81 C 203.4,82.27 203.91,85.23 203.55,87.64 C 197.7,90.91 196.54,98.02 191.5,102.17 C 191.82,103.03 192.14,103.89 192.46,104.75 C 178.03,115.31 172.2,136.82 160.51,149.36 C 160.9,150.21 161.29,151.06 161.67,151.92 C 161.21,152.64 160.76,153.36 160.3,154.09 C 160.8,155.09 161.3,156.08 161.82,157.08 C 158.16,162.93 158.11,173.17 158.44,180.74 C 154.2,184.65 155.6,190.93 153.65,195.74 C 154.72,196.21 155.77,196.72 156.79,197.29 C 156,202.9 157.16,210.29 150.96,213.15 C 151.77,217.07 154.37,220.05 158.67,219.51 C 159.2,220.43 159.63,221.42 160.01,222.43 C 159.04,222.41 158.09,222.4 157.13,222.38 C 157.03,224.23 157.28,226.07 157.5,227.9 C 148.1,234.21 163.96,229.02 166.4,234.69 C 172.99,237.73 171.8,230.34 172.3,227.23 C 172.84,227.27 173.93,227.33 174.47,227.36 C 174.72,227.95 175.22,229.13 175.47,229.72 C 180.61,221.5 190.62,216.64 198.42,210.39 C 201.16,201.32 210.56,197.07 213.65,188.52 C 222.24,185.98 219.59,174.39 227.34,171.32 C 232.41,166.93 232.71,159.39 237.75,154.99 C 237.3,154.05 236.86,153.11 236.41,152.18 C 248.65,139.41 248.47,119.74 261.59,107.58 C 266.58,102.64 269.86,96.04 274.85,91.21 C 275.61,91.77 276.37,92.32 277.14,92.88 C 282.07,81.22 295.13,76.15 302.15,66.77 C 305.23,64.86 307.56,62.04 310.39,59.82 C 310.35,58.66 310.32,57.51 310.28,56.36 C 314.11,49.49 325.29,49.35 325.46,42.36 C 338.75,32.02 361.55,24.35 376.1,36.94 C 376.45,36.44 377.13,35.45 377.48,34.95 C 386.92,44.36 395.7,55.15 400.37,67.76 C 400.21,68.28 399.89,69.34 399.73,69.87 C 397.24,66.97 396.37,63.11 394.08,60.07 C 390.94,52.88 384.79,47.28 379.21,41.87 C 377.46,39.87 375.26,38.35 373.11,36.82 C 366.75,29.41 358.59,37.78 351.21,36.08 C 332.01,42.86 318.68,59.34 305.47,73.47 C 292.2,83.83 276.57,95.39 268.86,110.85 C 262.08,112.36 264.08,122.33 257.39,124.24 C 259.04,132.46 248.99,135.74 248.56,143.61 C 237.97,164.35 225.8,182.52 211.32,200.31 C 207.53,210.31 195.3,213.58 191.81,223.79 C 183.64,227.87 180.48,238.6 171.32,240.75 C 170.87,244.01 169.96,247.39 167.37,249.62 C 166.36,248.05 165.36,246.46 164.06,245.12 C 164.32,246.95 164.82,248.77 164.77,250.64 C 163.38,251.75 161.87,252.68 160.27,253.46 C 160.13,253.01 159.83,252.13 159.69,251.68 C 157.17,251.85 154.7,251.35 152.2,251.2 C 151.93,252.31 151.95,253.42 152.26,254.53 C 153.83,254.96 155.43,255.36 156.89,256.11 C 156.31,257.97 154.53,258.98 152.66,259.05 C 152.61,258.12 152.57,257.2 152.53,256.27 C 151.53,255.71 150.46,255.3 149.38,254.94 C 150.15,264.91 160.14,269.04 166.41,274.71 C 179.47,277.39 193.78,281.13 207.29,276.18 C 211.22,274.79 215.35,273.95 219.12,272.12 C 225.31,269.5 232.03,267.52 237.23,263.1 C 237.64,263.09 238.46,263.07 238.88,263.06 C 238.74,263.49 238.47,264.34 238.34,264.77 C 238.79,264.89 239.7,265.14 240.15,265.27 C 234.17,268.49 228.37,272.03 222.43,275.31 C 222.46,274.71 222.52,273.51 222.56,272.91 C 204.75,279.44 185.04,282.96 166.38,278.62 C 148.09,270.09 127.44,273.26 109.13,280.12 C 94.6,284.93 79.18,280.92 64.42,280.04 C 64.46,280.59 64.54,281.71 64.58,282.27 C 61.21,280.67 57.91,278.94 54.58,277.28 C 54.53,276.74 54.44,275.64 54.4,275.09 C 58.33,276.48 62.47,276.59 66.56,277.13 C 74.62,278.14 82.49,281.8 90.73,280.78 C 108.52,280.2 127.12,274.09 141.29,263.23 C 145.55,259.91 147.01,254.88 145.64,249.45 C 146.46,248.95 147.26,248.44 148.06,247.9 C 145.47,242.01 142.74,235.12 145.97,228.98 C 148.1,223.63 140.11,215.49 147.81,213.19 C 147.43,212.55 147.06,211.9 146.69,211.27 C 148.75,207.53 147.07,202.75 150.66,199.73 C 149.67,195.48 150.02,191.04 152.16,187.18 C 155.63,180.68 150.62,172.36 156.44,166.74 C 151.05,153.03 162.11,140.08 170.21,130.2 C 179.82,109.81 195.95,94.16 206.35,74.4 C 213.14,51.1 234.45,35 236.83,10.32 C 234.49,10.82 232.11,11.14 229.73,10.74 z"
       id="path70"
       style="opacity:1;fill:#dedee0" />
    <path
       d="M 335.05,10.09 C 336.44,9.47 337.44,9.76 338.07,10.96 C 336.81,11.54 335.8,11.25 335.05,10.09 z"
       id="path72"
       style="opacity:1;fill:#dedee0" />
    <path
       d="M 111.82,294.14 C 114.19,293.28 116.78,293.64 118.92,294.9 C 116.61,294.76 113.64,296.03 111.82,294.14 z"
       id="path74"
       style="opacity:1;fill:#dedee0" />
  </g>
  <g
     id="#e6e6e7ff">
    <path
       d="M 329.99,8.03 C 331.4,7.49 332.44,7.81 333.09,8.96 C 331.79,9.53 330.75,9.21 329.99,8.03 z"
       id="path77"
       style="opacity:1;fill:#e6e6e7" />
    <path
       d="M 341.66,55.66 C 351.99,46.69 370.82,35.12 382.95,48.13 C 364.05,37.87 347.94,57.35 334.34,66.3 C 336.66,68.93 337.93,73.22 334,75.13 C 332.19,74.09 331.85,71.86 330.87,70.18 C 326.07,74.99 322.69,81.71 315.75,83.7 C 315.34,84.95 314.91,86.21 314.48,87.46 C 304.06,91.95 298.41,101.81 290.12,108.88 C 294.69,113.61 289.58,117.58 284.55,117.64 C 280.69,123.72 274.69,127.96 271.04,134.12 C 274.06,138.66 271.21,144.44 265.77,144.81 C 260.99,149.25 261,157.03 255.83,161.37 C 254.94,161.4 254.06,161.43 253.17,161.48 C 253.33,162.67 253.49,163.85 253.66,165.05 C 245.66,171.25 245.12,183.41 236.37,189.08 C 236.95,190.73 238.61,192.48 237.45,194.24 C 230.29,193.23 229.05,201.17 225.15,205.13 C 212.9,219.45 200.28,235.08 188.05,248.14 C 186.71,252.31 181.72,255.03 182.15,259.72 C 182.78,259.76 184.04,259.85 184.67,259.89 C 186.72,260.03 188.78,260.17 190.83,260.37 C 190.52,262 189.42,263.33 188.94,264.9 C 190.65,267.23 192.5,269.44 194.28,271.72 C 195.54,270.85 196.76,269.93 197.98,269.01 C 198.66,270.04 199.31,271.11 200.16,272.02 C 206.85,269.38 213.93,269.59 220.97,268.78 C 207.72,273.82 182.18,280.37 177.4,261.11 C 181.8,246.14 194.39,236.7 202.25,224.25 C 236.6,193.91 250.52,147.97 281.25,114.43 C 282.45,114.81 283.65,115.21 284.86,115.61 C 285.54,113.88 286.4,112.23 287.42,110.68 C 287.03,109.75 286.63,108.82 286.23,107.9 C 301.58,87.21 322.56,73.09 341.66,55.66 z"
       id="path79"
       style="opacity:1;fill:#e6e6e7" />
    <path
       d="M 120.1,168.76 C 120.79,167.75 121.58,166.81 122.57,166.07 C 124.9,167.98 127.93,166.05 130.31,166.83 C 132.79,177.58 125.21,187.25 128.73,197.64 C 127.46,198.76 125.84,199.58 124.95,201.07 C 125.47,202.32 125.98,203.57 126.52,204.81 C 125.46,206 124.4,207.18 123.37,208.4 C 123.13,219.51 118.26,230.45 121.14,241.49 C 116.24,248.75 121.78,260.63 112.74,264.72 C 106.61,273.87 93.14,278.35 82.93,277.16 C 88.22,276.77 92.39,273.05 97.63,272.59 C 104.05,265.1 112.22,257.72 113.46,247.4 C 116.03,236.5 111.71,225.44 113.29,214.45 C 116.12,214.25 119.31,212.65 116.65,209.73 C 117.3,208.71 117.96,207.7 118.65,206.71 C 119.41,197.03 121.03,186.07 124.6,177 C 124.06,174.4 123.99,171.76 124.49,169.16 C 123.02,169.02 121.56,168.9 120.1,168.76 z"
       id="path81"
       style="opacity:1;fill:#e6e6e7" />
    <path
       d="M 266.59,212.84 C 272.32,202.82 281.43,193.92 292.9,191.09 C 292.54,198.86 283.56,202.13 278.11,206.22 C 280.37,201.3 286.7,200.02 289.1,195.29 C 281.54,197.26 274.77,203.19 271.17,210.04 C 273.13,209 275.02,207.84 277.04,206.93 C 275.19,210.02 272.08,212.06 268.86,213.52 C 268.29,213.35 267.16,213.01 266.59,212.84 z"
       id="path83"
       style="opacity:1;fill:#e6e6e7" />
  </g>
  <g
     id="#dfdfe1ff">
    <path
       d="M 333.09,8.96 C 333.58,9.25 334.56,9.81 335.05,10.09 C 334.56,9.81 333.58,9.25 333.09,8.96 z"
       id="path86"
       style="opacity:1;fill:#dfdfe1" />
    <path
       d="M 94.86,291 C 96.19,290.48 97.25,290.81 98.02,291.98 C 96.59,292.5 95.53,292.17 94.86,291 z"
       id="path88"
       style="opacity:1;fill:#dfdfe1" />
    <path
       d="M 172.99,291.97 C 173.77,290.82 174.83,290.49 176.16,290.98 C 175.49,292.17 174.44,292.5 172.99,291.97 z"
       id="path90"
       style="opacity:1;fill:#dfdfe1" />
    <path
       d="M 167.94,292.94 C 168.78,291.83 169.85,291.52 171.15,292.01 C 170.46,293.2 169.39,293.51 167.94,292.94 z"
       id="path92"
       style="opacity:1;fill:#dfdfe1" />
    <path
       d="M 104.79,292.99 L 105.59,292.67 C 107.17,292.48 108.65,293.1 109.99,293.87 C 108.3,293.89 105.77,294.94 104.79,292.99 z"
       id="path94"
       style="opacity:1;fill:#dfdfe1" />
  </g>
  <g
     id="#e0e0e2ff">
    <path
       d="M 229.73,10.74 C 232.11,11.14 234.49,10.82 236.83,10.32 C 234.45,35 213.14,51.1 206.35,74.4 C 195.95,94.16 179.82,109.81 170.21,130.2 C 162.11,140.08 151.05,153.03 156.44,166.74 C 150.62,172.36 155.63,180.68 152.16,187.18 C 150.02,191.04 149.67,195.48 150.66,199.73 C 147.07,202.75 148.75,207.53 146.69,211.27 C 147.06,211.9 147.43,212.55 147.81,213.19 C 140.11,215.49 148.1,223.63 145.97,228.98 C 142.74,235.12 145.47,242.01 148.06,247.9 C 147.26,248.44 146.46,248.95 145.64,249.45 C 147.01,254.88 145.55,259.91 141.29,263.23 C 127.12,274.09 108.52,280.2 90.73,280.78 C 103.7,276.89 119.85,276.26 128.55,264.53 C 136.21,260.29 133.11,250.47 138.54,244.41 C 137.58,244.03 136.7,243.51 135.91,242.88 C 144.86,232.19 135.24,215.55 144.51,204.74 C 144.11,203.82 143.72,202.91 143.32,202 C 145.22,199.12 144.88,195.68 145.33,192.42 C 146.02,191.81 146.71,191.19 147.39,190.57 C 147,189.61 146.6,188.66 146.19,187.72 C 146.57,187.6 147.32,187.36 147.7,187.24 C 150.43,167.93 150.1,145.08 165.33,130.34 C 178.85,104.96 198.8,84.25 210.93,57.96 C 215.88,43.11 231.01,32.44 230.29,15.76 C 229.92,10.53 224.04,13.17 220.77,13.73 C 211.68,15.05 202.57,20.26 193.55,18.99 C 197.77,16.06 202.87,14.9 207.5,12.81 C 207.94,13.25 208.8,14.13 209.24,14.57 C 216.01,13.04 222.79,11.41 229.73,10.74 z"
       id="path97"
       style="opacity:1;fill:#e0e0e2" />
    <path
       d="M 351.21,36.08 C 358.59,37.78 366.75,29.41 373.11,36.82 C 344.49,34.74 327.45,59.14 307.26,75.31 C 304.77,81.43 295.24,82.22 294.43,88.62 C 279.6,96.67 271.29,111.52 263.37,125.39 C 251.35,139.3 246.6,157.88 235.08,172.05 C 222.6,194.18 204.68,213.38 187.27,232.28 C 179.34,243.75 159.67,255.17 167.73,270.34 C 179.44,277.75 193.7,278.01 207.29,276.18 C 193.78,281.13 179.47,277.39 166.41,274.71 C 160.14,269.04 150.15,264.91 149.38,254.94 C 150.46,255.3 151.53,255.71 152.53,256.27 C 152.57,257.2 152.61,258.12 152.66,259.05 C 154.53,258.98 156.31,257.97 156.89,256.11 C 155.43,255.36 153.83,254.96 152.26,254.53 C 151.95,253.42 151.93,252.31 152.2,251.2 C 154.7,251.35 157.17,251.85 159.69,251.68 C 159.83,252.13 160.13,253.01 160.27,253.46 C 161.87,252.68 163.38,251.75 164.77,250.64 C 164.82,248.77 164.32,246.95 164.06,245.12 C 165.36,246.46 166.36,248.05 167.37,249.62 C 169.96,247.39 170.87,244.01 171.32,240.75 C 180.48,238.6 183.64,227.87 191.81,223.79 C 195.3,213.58 207.53,210.31 211.32,200.31 C 225.8,182.52 237.97,164.35 248.56,143.61 C 248.99,135.74 259.04,132.46 257.39,124.24 C 264.08,122.33 262.08,112.36 268.86,110.85 C 276.57,95.39 292.2,83.83 305.47,73.47 C 318.68,59.34 332.01,42.86 351.21,36.08 z"
       id="path99"
       style="opacity:1;fill:#e0e0e2" />
    <path
       d="M 99.86,292 C 101.17,291.5 102.23,291.82 103.04,292.96 C 101.6,293.51 100.53,293.19 99.86,292 z"
       id="path101"
       style="opacity:1;fill:#e0e0e2" />
  </g>
  <g
     id="#dddedfff">
    <path
       d="M 338.07,10.96 C 338.54,11.23 339.49,11.77 339.96,12.05 C 339.49,11.77 338.54,11.23 338.07,10.96 z"
       id="path104"
       style="opacity:1;fill:#dddedf" />
  </g>
  <g
     id="#e4e4e6ff">
    <path
       d="M 193.55,18.99 C 202.57,20.26 211.68,15.05 220.77,13.73 C 221.53,13.84 223.03,14.06 223.79,14.17 C 222.98,14.89 222.17,15.61 221.37,16.33 C 224.01,36.11 206.65,50.22 200.74,67.32 C 199.92,67.39 199.1,67.46 198.29,67.53 C 197.08,71.23 195.98,75.2 192.44,77.4 C 189.86,84.86 184.46,91.85 178.47,97.15 C 178.72,98.29 179.96,99.54 179.07,100.65 C 178.31,100.16 177.56,99.66 176.81,99.16 C 173.46,100.52 173.29,104.44 172.51,107.45 C 166.68,107.99 171.26,117.42 164.76,116.64 C 157.57,122.4 156.35,131.49 149.2,137.22 C 147.61,140.78 149.14,147.28 143.63,147.31 C 143.66,148.47 143.7,149.63 143.74,150.8 C 140.64,152.18 139.45,148.78 137.95,146.82 C 131.9,150.45 134.41,159.05 128.03,162.05 C 127.7,161.55 127.03,160.57 126.7,160.08 L 127.25,158.91 C 127.34,158.73 127.51,158.36 127.6,158.17 L 128.3,156.86 C 128.39,156.66 128.58,156.26 128.67,156.06 C 128.74,155.3 128.88,153.77 128.94,153.01 C 128.69,152.47 128.17,151.39 127.91,150.84 C 127.64,150.32 127.11,149.26 126.84,148.74 C 127.64,147.46 128.25,146.08 128.8,144.69 C 132.15,143.36 135.89,143.62 139.27,142.33 C 146.58,132.95 151.15,120.67 161.65,113.68 C 161.1,109.16 164.87,107.05 168.33,105.32 C 182.84,84.86 196.95,63.68 210.41,42.79 C 210.12,41.92 209.84,41.04 209.56,40.17 C 215.1,34.32 218.36,24.29 213.77,17.27 C 206.02,18.33 198.92,21.85 191.21,22.97 C 191.86,21.87 192.52,20.78 193.16,19.68 C 193.26,19.51 193.45,19.16 193.55,18.99 z"
       id="path107"
       style="opacity:1;fill:#e4e4e6" />
    <path
       d="M 128.03,162.05 C 130.24,166.23 138.66,155.93 140.32,166.13 C 138.84,170.35 138.42,174.81 135.03,178.12 C 136.32,182.05 140.59,186.39 139,190.66 C 138,190.21 137,189.77 136.01,189.33 C 134.37,192.86 137.63,197.96 132.56,200.13 C 134.47,202.39 133.97,205.52 131.66,207.27 C 132.03,210.42 131.47,213.53 130.94,216.63 C 131.99,216.21 133.04,215.79 134.1,215.38 C 134.15,217.04 132.83,217.93 131.54,218.64 C 131.17,219.9 130.81,221.16 130.47,222.43 C 123.55,224.41 129.62,231.6 128.68,236.39 C 127.71,240.79 126.01,245.84 128.75,250.08 C 127.12,253.72 126.07,258.84 121.36,259.35 C 121.05,260.57 121.49,261.81 121.65,263.03 C 121.03,263.64 120.34,264.17 119.59,264.61 C 119.49,265.6 119.49,266.6 119.52,267.61 C 109.31,273.64 97.9,278.47 86,279.86 C 79.75,278.49 73.05,274.49 66.56,277.13 C 62.47,276.59 58.33,276.48 54.4,275.09 C 54.44,275.64 54.53,276.74 54.58,277.28 C 51.88,276 49.19,274.67 46.78,272.87 C 56.72,271.93 71.43,273.86 82.93,277.16 C 93.14,278.35 106.61,273.87 112.74,264.72 C 121.78,260.63 116.24,248.75 121.14,241.49 C 118.26,230.45 123.13,219.51 123.37,208.4 C 124.4,207.18 125.46,206 126.52,204.81 C 125.98,203.57 125.47,202.32 124.95,201.07 C 125.84,199.58 127.46,198.76 128.73,197.64 C 125.21,187.25 132.79,177.58 130.31,166.83 C 127.93,166.05 124.9,167.98 122.57,166.07 C 124.35,164.67 126.17,163.33 128.03,162.05 z"
       id="path109"
       style="opacity:1;fill:#e4e4e6" />
  </g>
  <g
     id="#e6e6e8ff">
    <path
       d="M 191.21,22.97 C 198.92,21.85 206.02,18.33 213.77,17.27 C 218.36,24.29 215.1,34.32 209.56,40.17 C 209.84,41.04 210.12,41.92 210.41,42.79 C 196.95,63.68 182.84,84.86 168.33,105.32 C 164.87,107.05 161.1,109.16 161.65,113.68 C 151.15,120.67 146.58,132.95 139.27,142.33 C 135.89,143.62 132.15,143.36 128.8,144.69 C 128.25,146.08 127.64,147.46 126.84,148.74 C 126.71,148.66 126.45,148.5 126.32,148.42 L 125.75,148.08 C 125.28,147.75 124.33,147.08 123.86,146.75 L 123.85,146.31 C 126.3,140.59 133.04,138.81 135.38,132.54 C 134.71,131.91 134.03,131.28 133.36,130.66 C 136.99,123.95 147.24,121.07 146.41,112.25 C 151.28,107.76 156.89,104.82 161.16,99.24 C 160.67,95.18 164.84,93.15 168.34,93.23 C 167.03,86.27 175.82,83.87 177.54,77.66 C 178.27,77.51 179,77.36 179.74,77.21 C 185.74,69.8 186.67,57.92 195.28,53.19 C 198.7,47.5 199.6,40.58 201.82,35.17 C 202.56,35.67 203.3,36.17 204.05,36.66 C 204.25,36.28 204.66,35.54 204.87,35.17 C 200.88,32.53 203.51,26.71 199.66,24.29 C 195.31,23.42 190.84,25.16 186.78,26.64 C 175.66,30.72 165.42,36.78 154.46,41.1 C 154.48,40.5 154.54,39.32 154.57,38.73 C 167.09,31.58 179.7,24.16 193.14,19.06 L 193.16,19.68 C 192.52,20.78 191.86,21.87 191.21,22.97 z"
       id="path112"
       style="opacity:1;fill:#e6e6e8" />
  </g>
  <g
     id="#d5d6d8ff">
    <path
       d="M 353.15,17.61 C 357.16,19.4 360.72,22.06 364.24,24.65 C 365.05,26.11 365.9,27.55 366.75,28.99 C 364.68,28.79 362.8,27.93 361.07,26.83 C 353.48,25.8 345.19,29.24 337.15,28.54 C 328.92,27.85 322.05,33.09 314.59,35.58 C 300.49,51.87 285.9,69.86 266.36,80.35 C 260.39,86.7 252.97,90.85 246.88,96.88 C 245.75,96.65 244.63,96.42 243.51,96.19 C 245.27,101.34 238.16,101.36 234.99,102.75 C 235.62,103.57 236.27,104.39 236.92,105.21 C 234.46,109.78 233.88,115.06 230.12,118.91 C 230.69,119.93 231.27,120.97 231.84,122 C 228.1,126.02 222.73,130.37 223.47,136.42 C 222.97,136.72 221.97,137.3 221.46,137.6 C 221.07,139.26 220.86,140.95 220.64,142.64 C 215.95,145.43 213.83,149.52 216.62,154.66 C 208.85,155.17 212.45,168.1 206.39,172.39 C 203.79,173.11 202.17,175.23 200.23,176.91 C 197.25,172.99 194.02,176.78 191.58,179.12 C 191.88,179.74 192.17,180.36 192.47,180.98 C 190.77,182.86 188.82,184.48 186.81,186.02 C 186.99,183.04 187.06,178.91 188.88,175.85 C 187.92,174.21 186.27,173.16 184.94,171.85 C 185.48,170.57 186.08,169.32 186.7,168.08 C 186.13,167.14 185.37,166.28 185.09,165.21 C 191.77,157.66 185.17,148.52 192.92,141.88 C 192.5,139.9 191.88,137.96 191.33,136.01 C 193.74,136.42 196.15,137.2 198.62,136.88 C 197.48,133.21 199.59,130.18 203.05,128.99 C 206.14,122.75 206.28,114.82 211.66,109.99 C 211.52,109.18 211.38,108.38 211.26,107.58 C 212.12,107.43 213.29,107.93 213.93,107.19 C 213.29,106.39 212.66,105.58 212.03,104.78 C 215.29,102.48 218.87,99.95 219.09,95.52 C 219.76,95.87 220.43,96.22 221.1,96.56 C 219.09,89.84 219.42,81.8 225.49,77.32 C 227.69,63.27 233.02,47.91 245.46,39.84 C 245.88,39.93 246.71,40.13 247.12,40.22 C 244.55,42.72 243.53,46.45 240.35,48.39 C 236.39,57.55 235.47,67.74 232.63,76.42 C 234.87,79.71 233.39,84.15 235.87,87.17 C 241.85,79.96 257.9,86.02 262.37,75.37 C 275.41,69.92 287.46,60.94 294.68,49.57 C 302.83,44.54 307.27,34.23 316.8,31.72 C 329.75,24.44 346.43,25.23 360.88,24.83 C 360.26,23.74 359.42,22.81 358.26,22.28 C 356.24,21.09 353.78,20.13 353.15,17.61 z"
       id="path115"
       style="opacity:1;fill:#d5d6d8" />
  </g>
  <g
     id="#e5e6e7ff">
    <path
       d="M 262.12,21.25 C 262.63,21.07 263.66,20.71 264.17,20.53 C 265.4,20.98 266.63,21.43 267.84,21.96 C 274.73,24.62 289.97,29.28 279.11,38.02 C 280.03,35 282.71,30.82 279.13,28.51 C 275.67,26.77 271.53,26.95 268.21,24.83 C 266.41,23.25 263.87,22.85 262.12,21.25 z"
       id="path118"
       style="opacity:1;fill:#e5e6e7" />
  </g>
  <g
     id="#d2d3d5ff">
    <path
       d="M 301.31,29.65 C 319.56,24.23 340.01,22.71 358.26,22.28 C 359.42,22.81 360.26,23.74 360.88,24.83 C 346.43,25.23 329.75,24.44 316.8,31.72 C 307.27,34.23 302.83,44.54 294.68,49.57 C 287.46,60.94 275.41,69.92 262.37,75.37 C 257.9,86.02 241.85,79.96 235.87,87.17 C 233.39,84.15 234.87,79.71 232.63,76.42 C 235.47,67.74 236.39,57.55 240.35,48.39 C 243.53,46.45 244.55,42.72 247.12,40.22 C 248.34,39.48 249.61,38.79 250.63,37.77 C 250.54,36.62 250.48,35.47 250.42,34.32 C 252.66,31.25 256.26,30.05 259.76,29.06 C 259.18,28.3 258.62,27.54 258.05,26.77 C 260.99,24.67 264.79,25.03 268.21,24.83 C 271.53,26.95 275.67,26.77 279.13,28.51 C 274.68,32.79 272.77,41.18 265,40.08 C 259.81,39.59 248.67,32.3 255.94,41.95 C 248.87,45.11 252.41,53.07 247.56,57.28 C 247.77,60.63 248.31,64.51 250.92,66.87 C 259.25,64.76 270.25,64.75 274.07,55.33 C 275.09,55.84 276.12,56.35 277.14,56.87 C 279.01,55.24 280.63,53.33 282.46,51.64 C 282.56,50.87 282.66,50.1 282.77,49.33 C 287.74,48.32 289.8,43.5 292.1,39.56 C 293.18,39.58 294.31,39.86 295.37,39.51 C 297.12,36.05 300.37,33.53 301.31,29.65 z"
       id="path121"
       style="opacity:1;fill:#d2d3d5" />
    <path
       d="M 138.61,282.5 C 160.93,285.38 183.81,284.87 205.59,282.13 C 202.2,284.15 198.34,285.07 194.6,286.2 C 183.86,283.5 171.97,289.14 160.79,286.3 C 134.64,284.72 108.56,288.63 82.46,286.17 C 82.47,286.71 82.51,287.81 82.52,288.35 C 80.46,287.71 78.44,286.98 76.42,286.22 C 96.35,283.47 118.44,286.88 138.61,282.5 z"
       id="path123"
       style="opacity:1;fill:#d2d3d5" />
  </g>
  <g
     id="#e8e8eaff">
    <path
       d="M 186.78,26.64 C 190.84,25.16 195.31,23.42 199.66,24.29 C 203.51,26.71 200.88,32.53 204.87,35.17 C 204.66,35.54 204.25,36.28 204.05,36.66 C 203.3,36.17 202.56,35.67 201.82,35.17 C 199.6,40.58 198.7,47.5 195.28,53.19 C 186.67,57.92 185.74,69.8 179.74,77.21 C 179,77.36 178.27,77.51 177.54,77.66 C 175.82,83.87 167.03,86.27 168.34,93.23 C 164.84,93.15 160.67,95.18 161.16,99.24 C 156.89,104.82 151.28,107.76 146.41,112.25 C 147.24,121.07 136.99,123.95 133.36,130.66 C 134.03,131.28 134.71,131.91 135.38,132.54 C 133.04,138.81 126.3,140.59 123.85,146.31 L 123.32,146.36 L 122.35,146.11 L 122.25,145.31 C 121.7,142.7 120.86,140.03 122.45,137.54 C 123.46,137.18 124.47,136.81 125.47,136.44 C 131.62,114.46 151.4,102.96 163.84,84.91 C 174.8,77.61 177.94,64.38 186.19,54.54 C 186.99,54.6 187.8,54.66 188.61,54.73 C 187.92,53.28 186.89,51.89 186.95,50.21 C 191.23,46.27 197.35,38.9 192.97,33.18 C 193.94,32.26 194.95,31.37 195.73,30.28 C 192.78,28.98 189.73,27.92 186.78,26.64 z"
       id="path126"
       style="opacity:1;fill:#e8e8ea" />
    <path
       d="M 126.7,160.08 C 127.03,160.57 127.7,161.55 128.03,162.05 C 126.17,163.33 124.35,164.67 122.57,166.07 C 121.58,166.81 120.79,167.75 120.1,168.76 C 121.56,168.9 123.02,169.02 124.49,169.16 C 123.99,171.76 124.06,174.4 124.6,177 C 121.03,186.07 119.41,197.03 118.65,206.71 C 117.96,207.7 117.3,208.71 116.65,209.73 C 119.31,212.65 116.12,214.25 113.29,214.45 C 111.71,225.44 116.03,236.5 113.46,247.4 C 112.22,257.72 104.05,265.1 97.63,272.59 C 92.39,273.05 88.22,276.77 82.93,277.16 C 71.43,273.86 56.72,271.93 46.78,272.87 C 43.68,270.56 39.98,268.96 37.5,265.89 C 47.19,268.78 58.13,271.9 68.79,272.14 C 74.49,274.33 80.78,273.78 86.66,272.67 C 92.39,266.21 101.2,260.31 99.43,250.2 C 106.03,239.06 94.68,224.35 103.74,214.05 C 103.37,213.49 102.99,212.93 102.62,212.38 C 105.42,210.73 107.66,207.82 108.05,204.54 C 107.23,204.6 106.42,204.66 105.61,204.73 C 104.77,197.21 109.36,190.56 111.21,183.42 C 114.59,178.36 110.33,169.88 117.99,168.11 C 117.81,167.77 117.46,167.09 117.28,166.75 L 116.86,165.99 C 117.45,165.89 118.61,165.68 119.19,165.58 C 119.38,165.52 119.75,165.39 119.93,165.32 L 121.15,164.69 C 121.27,164.63 121.5,164.49 121.61,164.43 C 122.03,164.15 122.85,163.6 123.27,163.33 L 124.28,162.53 C 124.46,162.38 124.82,162.09 125,161.94 C 125.25,161.7 125.74,161.23 125.98,161 C 126.16,160.77 126.52,160.31 126.7,160.08 z"
       id="path128"
       style="opacity:1;fill:#e8e8ea" />
    <path
       d="M 205.88,258.61 C 216.91,271.48 234.2,255.42 245.97,253.95 C 244.2,257.4 241.67,260.39 238.88,263.06 C 238.46,263.07 237.64,263.09 237.23,263.1 C 231.23,262.76 226.48,267.14 220.97,268.78 C 213.93,269.59 206.85,269.38 200.16,272.02 C 199.31,271.11 198.66,270.04 197.98,269.01 C 196.76,269.93 195.54,270.85 194.28,271.72 C 192.5,269.44 190.65,267.23 188.94,264.9 C 189.42,263.33 190.52,262 190.83,260.37 C 188.78,260.17 186.72,260.03 184.67,259.89 C 189.54,258.07 194.85,257.74 199.79,256 C 200.67,256.89 201.57,257.76 202.47,258.64 C 203.6,258.65 204.74,258.65 205.88,258.61 z"
       id="path130"
       style="opacity:1;fill:#e8e8ea" />
  </g>
  <g
     id="#cdced0ff">
    <path
       d="M 249.24,23.99 C 249.89,24.02 251.2,24.09 251.86,24.12 C 251.87,24.8 251.89,26.15 251.9,26.82 C 250.83,27.82 249.64,28.73 248.17,29.02 C 248.5,27.34 248.87,25.66 249.24,23.99 z"
       id="path133"
       style="opacity:1;fill:#cdced0" />
    <path
       d="M 307.88,191.93 C 308.34,191.94 309.24,191.95 309.7,191.95 L 309.89,192.84 C 309.39,192.61 308.38,192.16 307.88,191.93 z"
       id="path135"
       style="opacity:1;fill:#cdced0" />
    <path
       d="M 315.21,199.09 C 315.7,200.07 316.14,201.07 316.54,202.1 C 316.33,203.35 316.07,204.59 315.74,205.81 L 315.36,206.02 C 314.77,203.75 314.73,201.38 315.21,199.09 z"
       id="path137"
       style="opacity:1;fill:#cdced0" />
  </g>
  <g
     id="#d8d8dbff">
    <path
       d="M 337.15,28.54 C 345.19,29.24 353.48,25.8 361.07,26.83 C 343.33,30.82 318.98,31.15 311.24,51.15 C 293.03,67.9 273.97,86.23 253.56,99.49 C 251.37,109.29 241.2,117.43 241.32,126.55 C 238.68,128.81 238.78,132.8 235.34,134.4 C 234.87,143.19 227.96,149.85 226.51,158.53 C 217.24,166.83 212.71,179.93 206.36,190.28 C 204.82,190.73 203.27,191.19 201.77,191.77 C 198.4,200.15 186.81,201.26 182.68,208.79 C 182.7,214.81 177.82,209.19 175.39,207.71 C 175.45,206.61 175.51,205.51 175.58,204.41 C 174.47,204.11 173.37,203.82 172.27,203.54 C 172.27,202.34 172.43,201.15 172.64,199.97 C 171.9,199.22 171.03,198.62 170.18,198.02 C 172.95,192.41 170.59,186.1 169.96,180.34 C 171.19,180.9 172.43,181.44 173.7,181.93 C 173.67,179.3 172.83,176.81 171.87,174.4 C 173.91,160.92 180.69,148.77 182.74,135.34 C 189.77,129.88 190.4,119.4 197.9,114.11 C 197.29,113.04 196.7,111.97 196.1,110.89 C 198.67,107.61 202.68,105.18 203.34,100.73 C 204.12,100.64 204.9,100.55 205.68,100.46 C 206.34,98.51 206.81,96.5 207.44,94.54 C 215.02,91.36 212.36,79.06 219.38,73.83 C 219.56,60.92 230.88,51.78 233.93,39.55 C 239.29,48.59 225.58,54.83 224.71,63.81 C 223.72,72.48 216.93,78.85 216.46,87.4 C 212.33,89.39 214.36,96.09 208.95,96.99 C 208.79,101.92 203.92,103.81 202.21,107.94 C 202.69,108.92 203.17,109.9 203.66,110.89 C 202.65,111.42 201.64,111.97 200.65,112.52 C 185.89,133.96 173.06,160.31 175.66,187.57 C 174.74,188.44 173.82,189.32 172.91,190.2 C 180.38,191.38 175.72,196.51 177.02,200.69 C 180.72,197.88 185.44,200.64 189.43,198.53 C 190,197.37 190.62,196.25 191.3,195.17 C 193.12,195.24 194.88,195.78 196.7,195.83 C 206.83,183.49 216.34,171.13 221.73,155.74 C 232.27,147.43 231.21,131.34 239.59,120.51 C 246.62,112.17 246.95,97.1 259.03,93.99 C 263.78,83.35 280.99,81.31 283.33,70.42 C 284.76,70.16 286.19,69.9 287.63,69.63 C 291.12,65.46 295.39,61.44 300.47,59.44 C 300.81,58.15 301.15,56.86 301.51,55.58 C 312.04,44.73 320.97,31.54 337.15,28.54 z"
       id="path140"
       style="opacity:1;fill:#d8d8db" />
  </g>
  <g
     id="#ebebebff">
    <path
       d="M 154.46,41.1 C 165.42,36.78 175.66,30.72 186.78,26.64 C 189.73,27.92 192.78,28.98 195.73,30.28 C 194.95,31.37 193.94,32.26 192.97,33.18 C 197.35,38.9 191.23,46.27 186.95,50.21 C 186.89,51.89 187.92,53.28 188.61,54.73 C 187.8,54.66 186.99,54.6 186.19,54.54 C 177.94,64.38 174.8,77.61 163.84,84.91 C 151.4,102.96 131.62,114.46 125.47,136.44 C 124.47,136.81 123.46,137.18 122.45,137.54 C 120.86,140.03 121.7,142.7 122.25,145.31 C 121.42,145.15 119.75,144.84 118.92,144.68 C 116.81,143.58 114.15,143.27 112.13,144.76 L 111.06,144.92 L 109.99,145.04 C 107.56,145.21 105.31,146.18 103.09,147.08 C 104.41,143.94 107.96,143.37 110.49,141.58 C 113.61,129.71 121.38,119.23 130.39,111.39 C 133.54,102.86 143.73,100.94 147.62,92.63 C 156.33,84.4 161.5,73.67 171.47,66.53 C 172.6,55.16 185.8,47.57 182.29,35.66 C 158.64,34.83 138.43,56.26 117.42,62.86 C 129.55,54.43 141.91,46.33 154.57,38.73 C 154.54,39.32 154.48,40.5 154.46,41.1 z"
       id="path143"
       style="opacity:1;fill:#ebebeb" />
    <path
       d="M 358.49,61.6 C 362.84,50.32 381.87,45.78 388.87,57.16 C 392,62.38 396.68,67.03 398.13,73.03 C 392.84,67.51 389.53,59.77 383.16,55.93 C 380.11,61.64 372.73,58.4 368.83,63.69 C 365.47,62.56 364.18,65.63 363.19,68.2 C 353.59,69.41 350.33,79.94 341.31,82.35 C 335.14,86.44 331.55,95.52 324.28,95.59 C 324.89,95.79 326.1,96.2 326.71,96.4 C 322.68,103.94 312.59,106.01 309.1,114.14 C 300.04,116.26 300.15,127.9 291.63,130.55 C 290.89,132.36 289.87,134.03 288.5,135.44 C 288.5,136.51 288.52,137.59 288.56,138.67 C 262.81,173.18 242.8,215.86 204.97,239.1 C 206.21,236.34 208.24,234.1 211.12,233.04 C 211.62,231.9 212.12,230.76 212.62,229.62 C 236.37,205.05 257.2,176.88 273.84,146.86 C 280.71,133 294.71,123.85 301.19,109.2 C 311.22,106.09 315.86,94.6 324.13,90.62 C 325.62,86.59 330.91,85.5 331.31,80.7 C 335.29,81.38 338.68,78.45 339.84,74.81 C 345.3,71.86 350.91,68.58 353.45,62.42 C 355.12,62.12 356.8,61.86 358.49,61.6 z"
       id="path145"
       style="opacity:1;fill:#ebebeb" />
    <path
       d="M 105.1,167.1 L 105.79,166.91 C 106.33,166.98 107.42,167.12 107.97,167.19 C 109.31,168.77 111.65,168.76 112.98,167.17 C 114.41,167.02 115.84,166.88 117.28,166.75 C 117.46,167.09 117.81,167.77 117.99,168.11 C 110.33,169.88 114.59,178.36 111.21,183.42 C 109.36,190.56 104.77,197.21 105.61,204.73 C 106.42,204.66 107.23,204.6 108.05,204.54 C 107.66,207.82 105.42,210.73 102.62,212.38 C 102.99,212.93 103.37,213.49 103.74,214.05 C 94.68,224.35 106.03,239.06 99.43,250.2 C 101.2,260.31 92.39,266.21 86.66,272.67 C 80.78,273.78 74.49,274.33 68.79,272.14 C 72.99,271.69 77.2,271.2 81.43,271.55 C 83.76,267.06 87.69,262.85 92.65,261.46 C 91.46,229.99 92.15,195.52 105.1,167.1 z"
       id="path147"
       style="opacity:1;fill:#ebebeb" />
  </g>
  <g
     id="#d6d7d9ff">
    <path
       d="M 314.59,35.58 C 322.05,33.09 328.92,27.85 337.15,28.54 C 320.97,31.54 312.04,44.73 301.51,55.58 C 301.15,56.86 300.81,58.15 300.47,59.44 C 295.39,61.44 291.12,65.46 287.63,69.63 C 286.19,69.9 284.76,70.16 283.33,70.42 C 280.99,81.31 263.78,83.35 259.03,93.99 C 246.95,97.1 246.62,112.17 239.59,120.51 C 231.21,131.34 232.27,147.43 221.73,155.74 C 216.34,171.13 206.83,183.49 196.7,195.83 C 194.88,195.78 193.12,195.24 191.3,195.17 C 190.62,196.25 190,197.37 189.43,198.53 C 185.44,200.64 180.72,197.88 177.02,200.69 C 175.72,196.51 180.38,191.38 172.91,190.2 C 173.82,189.32 174.74,188.44 175.66,187.57 C 173.06,160.31 185.89,133.96 200.65,112.52 C 201.64,111.97 202.65,111.42 203.66,110.89 C 203.17,109.9 202.69,108.92 202.21,107.94 C 203.92,103.81 208.79,101.92 208.95,96.99 C 214.36,96.09 212.33,89.39 216.46,87.4 C 216.93,78.85 223.72,72.48 224.71,63.81 C 225.58,54.83 239.29,48.59 233.93,39.55 C 236.93,36.23 241.91,38.79 245.46,39.84 C 233.02,47.91 227.69,63.27 225.49,77.32 C 219.42,81.8 219.09,89.84 221.1,96.56 C 220.43,96.22 219.76,95.87 219.09,95.52 C 218.87,99.95 215.29,102.48 212.03,104.78 C 212.66,105.58 213.29,106.39 213.93,107.19 C 213.29,107.93 212.12,107.43 211.26,107.58 C 211.38,108.38 211.52,109.18 211.66,109.99 C 206.28,114.82 206.14,122.75 203.05,128.99 C 199.59,130.18 197.48,133.21 198.62,136.88 C 196.15,137.2 193.74,136.42 191.33,136.01 C 191.88,137.96 192.5,139.9 192.92,141.88 C 185.17,148.52 191.77,157.66 185.09,165.21 C 185.37,166.28 186.13,167.14 186.7,168.08 C 186.08,169.32 185.48,170.57 184.94,171.85 C 186.27,173.16 187.92,174.21 188.88,175.85 C 187.06,178.91 186.99,183.04 186.81,186.02 C 188.82,184.48 190.77,182.86 192.47,180.98 C 192.17,180.36 191.88,179.74 191.58,179.12 C 194.02,176.78 197.25,172.99 200.23,176.91 C 202.17,175.23 203.79,173.11 206.39,172.39 C 212.45,168.1 208.85,155.17 216.62,154.66 C 213.83,149.52 215.95,145.43 220.64,142.64 C 220.86,140.95 221.07,139.26 221.46,137.6 C 221.97,137.3 222.97,136.72 223.47,136.42 C 222.73,130.37 228.1,126.02 231.84,122 C 231.27,120.97 230.69,119.93 230.12,118.91 C 233.88,115.06 234.46,109.78 236.92,105.21 C 236.27,104.39 235.62,103.57 234.99,102.75 C 238.16,101.36 245.27,101.34 243.51,96.19 C 244.63,96.42 245.75,96.65 246.88,96.88 C 252.97,90.85 260.39,86.7 266.36,80.35 C 285.9,69.86 300.49,51.87 314.59,35.58 z"
       id="path150"
       style="opacity:1;fill:#d6d7d9" />
    <path
       d="M 262.17,250.16 C 262.1,248.57 263.5,247.6 264.99,247.97 C 264.88,249.41 263.52,250.24 262.17,250.16 z"
       id="path152"
       style="opacity:1;fill:#d6d7d9" />
    <path
       d="M 72.36,283.08 C 93.76,284.04 115.83,284.57 136.19,277.2 C 158.2,280.6 180.7,285.39 203,279.96 C 205.83,280.48 210.43,276.34 211.51,280.21 C 209.64,281.14 207.61,281.67 205.59,282.13 C 183.81,284.87 160.93,285.38 138.61,282.5 C 118.44,286.88 96.35,283.47 76.42,286.22 C 75.22,285.85 74.02,285.5 72.8,285.18 C 72.69,284.65 72.47,283.6 72.36,283.08 z"
       id="path154"
       style="opacity:1;fill:#d6d7d9" />
  </g>
  <g
     id="#edededff">
    <path
       d="M 117.42,62.86 C 138.43,56.26 158.64,34.83 182.29,35.66 C 185.8,47.57 172.6,55.16 171.47,66.53 C 161.5,73.67 156.33,84.4 147.62,92.63 C 143.73,100.94 133.54,102.86 130.39,111.39 C 121.38,119.23 113.61,129.71 110.49,141.58 C 107.96,143.37 104.41,143.94 103.09,147.08 C 102.05,148.17 100.99,149.24 99.9,150.28 C 98.67,147.92 98.4,145.21 97.17,142.84 C 98.79,141.31 100.75,140.23 102.56,138.96 C 102.16,138.28 101.76,137.61 101.36,136.94 C 105.91,121.44 118.68,111.61 130.23,101.16 C 130.6,95.85 135.68,94.47 139.78,92.76 C 149.8,80.18 160.44,67.02 168.34,53.49 C 176.16,41.95 157.93,41.32 151.58,47.56 C 132.41,56.94 114.48,68.69 96.24,79.67 C 96.14,79.28 95.94,78.5 95.84,78.1 C 103.18,73.23 109.92,67.47 117.42,62.86 z"
       id="path157"
       style="opacity:1;fill:#ededed" />
  </g>
  <g
     id="#e5e5e6ff">
    <path
       d="M 338.88,52.9 C 350.69,45.46 364.49,35.64 379.21,41.87 C 384.79,47.28 390.94,52.88 394.08,60.07 C 389.89,56.6 386.86,51.93 382.95,48.13 C 370.82,35.12 351.99,46.69 341.66,55.66 C 322.56,73.09 301.58,87.21 286.23,107.9 C 286.63,108.82 287.03,109.75 287.42,110.68 C 286.4,112.23 285.54,113.88 284.86,115.61 C 283.65,115.21 282.45,114.81 281.25,114.43 C 250.52,147.97 236.6,193.91 202.25,224.25 C 194.39,236.7 181.8,246.14 177.4,261.11 C 182.18,280.37 207.72,273.82 220.97,268.78 C 226.48,267.14 231.23,262.76 237.23,263.1 C 232.03,267.52 225.31,269.5 219.12,272.12 C 204.84,274.03 186.67,280.9 175.47,267.56 C 169.27,250.25 189.77,240.64 195.99,226.97 C 226.02,199.24 245.14,162.31 266.12,128.13 C 272.95,122.81 273.2,109.17 283.62,109.68 C 294.65,85.17 321.91,73.13 338.88,52.9 z"
       id="path160"
       style="opacity:1;fill:#e5e5e6" />
  </g>
  <g
     id="#eeeeeeff">
    <path
       d="M 151.58,47.56 C 157.93,41.32 176.16,41.95 168.34,53.49 C 160.44,67.02 149.8,80.18 139.78,92.76 C 135.68,94.47 130.6,95.85 130.23,101.16 C 118.68,111.61 105.91,121.44 101.36,136.94 C 101.76,137.61 102.16,138.28 102.56,138.96 C 100.75,140.23 98.79,141.31 97.17,142.84 C 98.4,145.21 98.67,147.92 99.9,150.28 L 100.26,151.01 C 99.16,152.04 98.48,153.42 98.26,154.9 L 97.99,155.93 C 96.28,156.86 96.4,158.98 97.78,160.16 L 98.34,161.19 C 98.4,161.3 98.53,161.52 98.59,161.62 C 99.42,162.95 100.41,164.16 101.35,165.42 C 101.18,165.71 100.84,166.28 100.67,166.57 C 89.53,163.98 91.48,183.11 86.23,190.2 C 87.75,201.52 80.41,212.26 85.76,223.18 C 86.98,239.46 89.71,261.89 71.64,269.68 C 57.1,269.07 39.09,267.63 29.03,255.84 C 39.9,263.48 53.59,267.31 66.85,266.84 C 72.16,263.59 78.98,257.87 76.21,250.99 C 79.9,234.83 76.6,218.28 72.23,202.84 C 76.59,190.03 82.4,177.15 81.58,163.01 C 82.62,148.08 94.16,136 94.63,120.91 C 99.33,120.56 99.11,114.91 100.4,111.53 C 101.16,111.45 101.92,111.37 102.68,111.29 C 109.32,102.9 120.13,96.13 129.71,90.51 C 130.29,88.96 128.8,87.51 128.36,86.07 C 136.1,81.8 141.84,75.16 148.26,69.43 C 148.63,67.69 149.7,66.29 150.95,65.07 C 150.16,64.32 149.38,63.55 148.6,62.78 C 148.68,61.3 148.94,59.81 148.72,58.33 C 118.4,62.98 92.66,86.39 65.77,101.81 C 75.13,93.16 85.71,85.86 95.84,78.1 C 95.94,78.5 96.14,79.28 96.24,79.67 C 114.48,68.69 132.41,56.94 151.58,47.56 z"
       id="path163"
       style="opacity:1;fill:#eeeeee" />
  </g>
  <g
     id="#e8e8e9ff">
    <path
       d="M 334.34,66.3 C 347.94,57.35 364.05,37.87 382.95,48.13 C 386.86,51.93 389.89,56.6 394.08,60.07 C 396.37,63.11 397.24,66.97 399.73,69.87 C 399.89,69.34 400.21,68.28 400.37,67.76 C 414.85,101.82 394.66,138.36 371.45,163.03 C 369.67,161.07 368.13,163.7 366.64,164.63 C 350.33,179.1 333.26,192.81 315.74,205.81 C 316.07,204.59 316.33,203.35 316.54,202.1 C 341.41,180.17 370.97,162.74 389.78,134.79 C 401.31,116.85 407.15,93.38 398.13,73.03 C 396.68,67.03 392,62.38 388.87,57.16 C 381.87,45.78 362.84,50.32 358.49,61.6 C 356.8,61.86 355.12,62.12 353.45,62.42 C 350.91,68.58 345.3,71.86 339.84,74.81 C 338.68,78.45 335.29,81.38 331.31,80.7 C 330.91,85.5 325.62,86.59 324.13,90.62 C 315.86,94.6 311.22,106.09 301.19,109.2 C 294.71,123.85 280.71,133 273.84,146.86 C 257.2,176.88 236.37,205.05 212.62,229.62 C 212.12,230.76 211.62,231.9 211.12,233.04 C 208.24,234.1 206.21,236.34 204.97,239.1 C 199.24,241.93 192.85,243.71 188.05,248.14 C 200.28,235.08 212.9,219.45 225.15,205.13 C 229.05,201.17 230.29,193.23 237.45,194.24 C 238.61,192.48 236.95,190.73 236.37,189.08 C 245.12,183.41 245.66,171.25 253.66,165.05 C 253.49,163.85 253.33,162.67 253.17,161.48 C 254.06,161.43 254.94,161.4 255.83,161.37 C 261,157.03 260.99,149.25 265.77,144.81 C 271.21,144.44 274.06,138.66 271.04,134.12 C 274.69,127.96 280.69,123.72 284.55,117.64 C 289.58,117.58 294.69,113.61 290.12,108.88 C 298.41,101.81 304.06,91.95 314.48,87.46 C 314.91,86.21 315.34,84.95 315.75,83.7 C 322.69,81.71 326.07,74.99 330.87,70.18 C 331.85,71.86 332.19,74.09 334,75.13 C 337.93,73.22 336.66,68.93 334.34,66.3 z"
       id="path166"
       style="opacity:1;fill:#e8e8e9" />
  </g>
  <g
     id="#ecececff">
    <path
       d="M 368.83,63.69 C 372.73,58.4 380.11,61.64 383.16,55.93 C 389.53,59.77 392.84,67.51 398.13,73.03 C 407.15,93.38 401.31,116.85 389.78,134.79 C 370.97,162.74 341.41,180.17 316.54,202.1 C 316.14,201.07 315.7,200.07 315.21,199.09 C 314.89,198.58 314.24,197.56 313.92,197.05 C 313.69,196.55 313.24,195.54 313.02,195.04 C 320.53,198.93 323.65,186.74 330.57,185.55 C 357.71,162.81 391.13,140.94 400.24,104.32 C 402.79,91.78 400.55,77.24 390.99,68.02 C 387.49,61.98 377.98,64.12 374.95,69.59 C 374.28,69.14 373.61,68.68 372.95,68.23 C 341,90.48 310.35,116.49 287.64,148.16 C 286.17,157.72 274.92,163.26 273.4,173.42 C 267.47,176.61 268.97,185.14 261.77,186.77 C 252.79,202.8 239.3,215.8 226.13,228.29 C 214.74,235.58 201.6,241.74 193.58,252.23 C 192.77,252.33 191.97,252.43 191.16,252.53 C 191.16,253.09 191.15,254.21 191.14,254.77 C 198.71,255.75 205.85,252.39 212.78,249.85 C 217.23,250.57 221.81,245.89 225.21,250.9 C 226.32,250.59 227.23,249.83 228.21,249.24 C 235.94,252.4 242.73,244.05 250.14,246.01 C 250.05,246.45 249.87,247.32 249.77,247.75 C 248.48,249.8 247.11,251.81 245.97,253.95 C 234.2,255.42 216.91,271.48 205.88,258.61 C 204.74,258.65 203.6,258.65 202.47,258.64 C 201.57,257.76 200.67,256.89 199.79,256 C 194.85,257.74 189.54,258.07 184.67,259.89 C 184.04,259.85 182.78,259.76 182.15,259.72 C 181.72,255.03 186.71,252.31 188.05,248.14 C 192.85,243.71 199.24,241.93 204.97,239.1 C 242.8,215.86 262.81,173.18 288.56,138.67 C 288.52,137.59 288.5,136.51 288.5,135.44 C 289.87,134.03 290.89,132.36 291.63,130.55 C 300.15,127.9 300.04,116.26 309.1,114.14 C 312.59,106.01 322.68,103.94 326.71,96.4 C 326.1,96.2 324.89,95.79 324.28,95.59 C 331.55,95.52 335.14,86.44 341.31,82.35 C 350.33,79.94 353.59,69.41 363.19,68.2 C 364.18,65.63 365.47,62.56 368.83,63.69 z"
       id="path169"
       style="opacity:1;fill:#ececec" />
  </g>
  <g
     id="#efefefff">
    <path
       d="M 374.95,69.59 C 377.98,64.12 387.49,61.98 390.99,68.02 C 400.55,77.24 402.79,91.78 400.24,104.32 C 399.78,93.03 400.12,78.74 389.06,72.12 C 386.04,74.73 381.92,74.65 378.54,76.31 C 377.36,84.48 362.76,79.03 360.43,88.49 C 348.05,98.26 335.51,106.86 324.11,118.07 C 324.3,119.07 324.51,120.08 324.73,121.09 C 322.19,123.95 318.49,125.73 314.65,125.78 C 314.93,130.79 310.97,133.78 307.17,136.14 C 299.71,145.34 293.93,156.33 288.72,166.34 C 288,166.39 287.28,166.44 286.57,166.5 C 278.81,180.15 268.22,192.3 259.09,205.18 C 248.38,213.27 237.49,221.16 226.13,228.29 C 239.3,215.8 252.79,202.8 261.77,186.77 C 268.97,185.14 267.47,176.61 273.4,173.42 C 274.92,163.26 286.17,157.72 287.64,148.16 C 310.35,116.49 341,90.48 372.95,68.23 C 373.61,68.68 374.28,69.14 374.95,69.59 z"
       id="path172"
       style="opacity:1;fill:#efefef" />
    <path
       d="M 251.88,225.76 C 255.37,222.56 258.97,219.35 263.2,217.16 C 260.15,224.13 256.4,230.79 253.92,238.01 C 253.73,238.48 253.35,239.44 253.16,239.92 C 252.76,240.86 252.34,241.79 251.9,242.72 C 251.33,243.82 250.7,244.9 250.14,246.01 C 242.73,244.05 235.94,252.4 228.21,249.24 C 227.23,249.83 226.32,250.59 225.21,250.9 C 221.81,245.89 217.23,250.57 212.78,249.85 C 226.52,243.5 241.45,236.2 251.88,225.76 z"
       id="path174"
       style="opacity:1;fill:#efefef" />
  </g>
  <g
     id="#dcdddfff">
    <path
       d="M 271.77,91.77 C 282.62,84.99 290.38,72.19 302.15,66.77 C 295.13,76.15 282.07,81.22 277.14,92.88 C 276.37,92.32 275.61,91.77 274.85,91.21 C 269.86,96.04 266.58,102.64 261.59,107.58 C 248.47,119.74 248.65,139.41 236.41,152.18 C 236.86,153.11 237.3,154.05 237.75,154.99 C 232.71,159.39 232.41,166.93 227.34,171.32 C 219.59,174.39 222.24,185.98 213.65,188.52 C 210.56,197.07 201.16,201.32 198.42,210.39 C 190.62,216.64 180.61,221.5 175.47,229.72 C 175.22,229.13 174.72,227.95 174.47,227.36 C 173.93,227.33 172.84,227.27 172.3,227.23 C 171.8,230.34 172.99,237.73 166.4,234.69 C 163.96,229.02 148.1,234.21 157.5,227.9 C 157.28,226.07 157.03,224.23 157.13,222.38 C 158.09,222.4 159.04,222.41 160.01,222.43 C 159.63,221.42 159.2,220.43 158.67,219.51 C 154.37,220.05 151.77,217.07 150.96,213.15 C 157.16,210.29 156,202.9 156.79,197.29 C 155.77,196.72 154.72,196.21 153.65,195.74 C 155.6,190.93 154.2,184.65 158.44,180.74 C 158.11,173.17 158.16,162.93 161.82,157.08 C 161.3,156.08 160.8,155.09 160.3,154.09 C 160.76,153.36 161.21,152.64 161.67,151.92 C 161.29,151.06 160.9,150.21 160.51,149.36 C 172.2,136.82 178.03,115.31 192.46,104.75 C 192.14,103.89 191.82,103.03 191.5,102.17 C 196.54,98.02 197.7,90.91 203.55,87.64 C 203.91,85.23 203.4,82.27 205.82,80.81 C 205.22,84.42 206.08,89.21 202.18,91.18 C 195.29,95.27 197.77,106.57 189.23,108.27 C 183.49,122.74 167.46,133.52 167.97,149.87 C 162.15,152.76 164.26,158.85 161.31,163.67 C 163.07,164.08 164.84,164.47 166.54,165.1 C 166.35,167.19 166.22,169.37 165.17,171.24 C 164.41,170.13 163.66,169.01 162.92,167.89 C 158.29,170.91 159.39,177.21 160.15,181.83 C 159.25,182.68 158.36,183.55 157.47,184.42 C 158.69,188.02 156.89,191.17 156.3,194.55 C 157.39,195.4 158.45,196.28 159.52,197.15 C 158.65,203.92 155.01,210.69 155.59,217.27 C 165.89,216.36 160.58,235.96 170.66,232.97 C 167.55,229.48 170.17,225.92 174.14,225.02 C 182.72,217.07 196.6,213.98 199.69,200.99 C 209.75,193.57 218.39,184.24 221.68,171.78 C 230.8,169.72 231.43,157.5 235.45,150.45 C 241.27,145.63 242.63,137.69 246.4,131.45 C 249.1,115.47 262.22,104.22 271.77,91.77 z"
       id="path177"
       style="opacity:1;fill:#dcdddf" />
    <path
       d="M 246.16,261.08 C 246.67,260.82 247.68,260.31 248.19,260.05 C 247.68,260.31 246.67,260.82 246.16,261.08 z"
       id="path179"
       style="opacity:1;fill:#dcdddf" />
  </g>
  <g
     id="#f0f0f0ff">
    <path
       d="M 378.54,76.31 C 381.92,74.65 386.04,74.73 389.06,72.12 C 400.12,78.74 399.78,93.03 400.24,104.32 C 391.13,140.94 357.71,162.81 330.57,185.55 C 323.65,186.74 320.53,198.93 313.02,195.04 C 311.98,194.29 310.93,193.57 309.89,192.84 L 309.7,191.95 C 319.99,188.27 327.58,180.48 336.34,174.32 C 359.03,158.69 382.32,140.71 393.98,114.9 C 398.72,104.37 398.98,90.69 392.72,80.56 C 390.31,80.65 387.24,80.69 386.41,83.47 C 377.48,81.7 375.67,96 366.29,93.47 C 359.12,102.19 348.07,110.17 338.8,115.73 C 322.1,133.33 305.38,153.05 292.38,171.88 C 284.75,185.82 271.48,195.55 259.09,205.18 C 268.22,192.3 278.81,180.15 286.57,166.5 C 287.28,166.44 288,166.39 288.72,166.34 C 293.93,156.33 299.71,145.34 307.17,136.14 C 310.97,133.78 314.93,130.79 314.65,125.78 C 318.49,125.73 322.19,123.95 324.73,121.09 C 324.51,120.08 324.3,119.07 324.11,118.07 C 335.51,106.86 348.05,98.26 360.43,88.49 C 362.76,79.03 377.36,84.48 378.54,76.31 z"
       id="path182"
       style="opacity:1;fill:#f0f0f0" />
  </g>
  <g
     id="#f3f3f3ff">
    <path
       d="M 386.41,83.47 C 387.24,80.69 390.31,80.65 392.72,80.56 C 398.98,90.69 398.72,104.37 393.98,114.9 C 382.32,140.71 359.03,158.69 336.34,174.32 C 327.58,180.48 319.99,188.27 309.7,191.95 C 309.24,191.95 308.34,191.94 307.88,191.93 L 307.03,191.64 C 306.09,191.3 305.17,190.97 304.24,190.66 C 300.89,189.09 297.25,190.49 293.81,190.86 C 294.86,189.96 295.88,189.01 296.9,188.07 C 303.44,184.56 308.6,178.45 314.46,173.71 C 323.94,172.23 337.41,172.03 342.46,162.5 C 352.61,160.63 358.38,151.03 366.23,145.23 C 382.16,132.63 395.87,113.5 393.79,92.17 C 380.97,90.97 377.04,105.71 365.72,106.81 C 362.11,110.65 359.06,115.97 353.28,116.46 C 353.29,117.88 353.48,119.28 353.64,120.69 C 343.28,125.72 336.58,132.57 329.98,142.02 C 325.9,141.63 323.93,144.29 325.68,148.2 C 317.55,155.26 308.48,162.96 302.04,171.14 C 282.86,187.67 264.27,205.15 242.85,218.89 C 233.61,224.25 227.12,232.55 219.98,240.15 C 220.17,241.42 220.66,242.61 221.29,243.73 C 232.42,239.74 241.19,230.78 251.88,225.76 C 241.45,236.2 226.52,243.5 212.78,249.85 C 205.85,252.39 198.71,255.75 191.14,254.77 C 191.15,254.21 191.16,253.09 191.16,252.53 C 191.97,252.43 192.77,252.33 193.58,252.23 C 201.6,241.74 214.74,235.58 226.13,228.29 C 237.49,221.16 248.38,213.27 259.09,205.18 C 271.48,195.55 284.75,185.82 292.38,171.88 C 305.38,153.05 322.1,133.33 338.8,115.73 C 348.07,110.17 359.12,102.19 366.29,93.47 C 375.67,96 377.48,81.7 386.41,83.47 z"
       id="path185"
       style="opacity:1;fill:#f3f3f3" />
  </g>
  <g
     id="#f2f2f2ff">
    <path
       d="M 99.18,83.48 C 101.24,84.66 103.54,84.52 105.82,84.23 C 106.58,86.18 103.69,87.95 104.94,89.64 C 105.69,89.15 106.44,88.66 107.18,88.17 C 109.53,88.77 109.21,91.83 108.75,93.65 C 96.49,98.59 85.96,109.41 83.73,122.71 C 79.37,134.48 69.79,145.91 72.66,159.03 C 72.02,159.62 71.35,160.14 70.62,160.61 C 64.83,189.06 67.09,218.76 70.71,247.19 C 73.58,250.85 75.45,256.51 70.2,259.13 C 53.67,270.43 33.9,258.43 20.64,247.21 C 16.68,243.12 13.97,237.85 9.67,234.15 C 1.29,219.3 -0.89,201.58 1.92,184.95 C 7.77,156.88 28.13,135.19 48.8,116.89 C 65.04,105.82 82.2,93.23 99.18,83.48 M 56.34,114.34 C 51.21,119.88 42.19,122.14 39.31,129.39 C 12.9,153.65 -7.07,193.11 10.14,227.8 C 18.39,247.81 41.43,265.9 63.97,258.07 C 79.88,257.89 63.84,244.76 61.22,238.08 C 62.79,235.19 60.61,231.86 62.62,229.18 C 59.25,224.35 58.87,217.77 59.93,212.16 C 55.22,204.08 57.66,193.63 58.26,184.66 C 54.98,178.16 58.49,171.53 58.75,164.99 C 56.44,163.26 56.7,160.56 58.88,158.86 C 57.79,150.7 65.23,144.22 62.08,136.16 C 65.43,133.25 64.28,128.44 66.75,125.05 C 66.5,123.77 65.99,122.52 66.03,121.2 C 68.61,119.03 67.69,115.34 69.95,112.93 C 66.75,107.5 59.73,110.76 56.34,114.34 z"
       id="path188"
       style="opacity:1;fill:#f2f2f2" />
  </g>
  <g
     id="#f4f4f4ff">
    <path
       d="M 365.72,106.81 C 377.04,105.71 380.97,90.97 393.79,92.17 C 395.87,113.5 382.16,132.63 366.23,145.23 C 358.38,151.03 352.61,160.63 342.46,162.5 C 337.41,172.03 323.94,172.23 314.46,173.71 C 308.6,178.45 303.44,184.56 296.9,188.07 C 316.55,166.55 342.54,151.66 362.12,129.99 C 361.27,128.39 358.95,128.98 357.66,129.66 C 337.88,141.75 320.43,157.11 302.04,171.14 C 308.48,162.96 317.55,155.26 325.68,148.2 C 323.93,144.29 325.9,141.63 329.98,142.02 C 336.58,132.57 343.28,125.72 353.64,120.69 C 353.48,119.28 353.29,117.88 353.28,116.46 C 359.06,115.97 362.11,110.65 365.72,106.81 z"
       id="path191"
       style="opacity:1;fill:#f4f4f4" />
    <path
       d="M 56.34,114.34 C 59.73,110.76 66.75,107.5 69.95,112.93 C 67.69,115.34 68.61,119.03 66.03,121.2 C 65.99,122.52 66.5,123.77 66.75,125.05 C 64.28,128.44 65.43,133.25 62.08,136.16 C 65.23,144.22 57.79,150.7 58.88,158.86 C 56.7,160.56 56.44,163.26 58.75,164.99 C 58.49,171.53 54.98,178.16 58.26,184.66 C 57.66,193.63 55.22,204.08 59.93,212.16 C 58.87,217.77 59.25,224.35 62.62,229.18 C 60.61,231.86 62.79,235.19 61.22,238.08 C 63.84,244.76 79.88,257.89 63.97,258.07 C 41.43,265.9 18.39,247.81 10.14,227.8 C 19.6,239.69 31.45,255.5 47.99,255.77 C 53.75,252.64 61.13,253.86 66.88,256.81 C 71.87,249.31 60.4,243.71 55.92,239.06 C 55.86,236.27 53.88,234.25 52.23,232.23 C 53.13,232.32 54.03,232.42 54.93,232.53 C 51.52,225.04 50.99,216.97 52.66,209.01 C 46.54,198.33 49.54,185.76 47.56,174 C 41.75,169.49 46.11,163.76 48.76,159.08 C 41.65,149.41 56.44,137.19 47.25,129.1 C 48.69,127.33 50.54,129.09 52.11,129.66 C 51.3,126.77 48.36,125.46 45.98,124.07 C 43.66,125.74 41.86,128.04 39.31,129.39 C 42.19,122.14 51.21,119.88 56.34,114.34 z"
       id="path193"
       style="opacity:1;fill:#f4f4f4" />
  </g>
  <g
     id="#f8f8f8ff">
    <path
       d="M 39.31,129.39 C 41.86,128.04 43.66,125.74 45.98,124.07 C 48.36,125.46 51.3,126.77 52.11,129.66 C 50.54,129.09 48.69,127.33 47.25,129.1 C 56.44,137.19 41.65,149.41 48.76,159.08 C 46.11,163.76 41.75,169.49 47.56,174 C 49.54,185.76 46.54,198.33 52.66,209.01 C 50.99,216.97 51.52,225.04 54.93,232.53 C 54.03,232.42 53.13,232.32 52.23,232.23 C 53.88,234.25 55.86,236.27 55.92,239.06 C 52.96,236.04 47.71,231.22 51.63,226.99 C 50.19,226.35 48.73,225.73 47.39,224.9 C 47.81,221.67 49.37,218.35 47.62,215.25 C 54.65,207.71 44.36,201.12 42.86,193.7 C 41.52,193.4 39.44,194.01 39.13,192.17 C 41.27,190.43 44.21,190.79 46.67,189.79 C 48.94,182.75 39.93,181.82 39.24,175.11 C 39.6,174.91 40.32,174.5 40.68,174.29 C 41.84,175.67 42.75,177.42 44.5,178.15 C 39.23,168.74 46.78,162.21 44.93,152.77 C 43.92,152.39 42.42,152.52 42.22,151.17 C 43.24,150.71 44.32,150.41 45.41,150.15 C 45.68,146.07 47.79,141.54 45.16,137.86 C 45.68,136.4 47.4,136.17 48.58,135.45 C 48.66,134.94 48.81,133.92 48.89,133.41 C 47.72,133.46 46.56,133.51 45.39,133.55 C 34.86,126.63 31.5,148.27 22.3,151.32 C 22.47,154.14 22.07,156.96 20.74,159.48 C 19.87,159.14 18.99,158.79 18.12,158.45 C 8.81,175.29 2.97,194.64 8.02,214.02 C 8.34,222.82 13.11,233.6 22.06,236.9 C 28.98,246.53 41.45,259.64 54.09,250.22 C 57.34,253.44 62.18,252.5 65.98,254.68 C 68.4,247.92 57.13,245.43 55.92,239.06 C 60.4,243.71 71.87,249.31 66.88,256.81 C 61.13,253.86 53.75,252.64 47.99,255.77 C 31.45,255.5 19.6,239.69 10.14,227.8 C -7.07,193.11 12.9,153.65 39.31,129.39 z"
       id="path196"
       style="opacity:1;fill:#f8f8f8" />
  </g>
  <g
     id="#fafafaff">
    <path
       d="M 357.66,129.66 C 358.95,128.98 361.27,128.39 362.12,129.99 C 342.54,151.66 316.55,166.55 296.9,188.07 C 295.88,189.01 294.86,189.96 293.81,190.86 L 292.9,191.09 C 281.43,193.92 272.32,202.82 266.59,212.84 C 265.51,214.31 264.34,215.73 263.2,217.16 C 258.97,219.35 255.37,222.56 251.88,225.76 C 241.19,230.78 232.42,239.74 221.29,243.73 C 220.66,242.61 220.17,241.42 219.98,240.15 C 227.12,232.55 233.61,224.25 242.85,218.89 C 264.27,205.15 282.86,187.67 302.04,171.14 C 320.43,157.11 337.88,141.75 357.66,129.66 z"
       id="path199"
       style="opacity:1;fill:#fafafa" />
    <path
       d="M 22.3,151.32 C 31.5,148.27 34.86,126.63 45.39,133.55 C 46.56,133.51 47.72,133.46 48.89,133.41 C 48.81,133.92 48.66,134.94 48.58,135.45 C 47.4,136.17 45.68,136.4 45.16,137.86 C 47.79,141.54 45.68,146.07 45.41,150.15 C 44.32,150.41 43.24,150.71 42.22,151.17 C 42.42,152.52 43.92,152.39 44.93,152.77 C 46.78,162.21 39.23,168.74 44.5,178.15 C 42.75,177.42 41.84,175.67 40.68,174.29 C 40.32,174.5 39.6,174.91 39.24,175.11 C 39.93,181.82 48.94,182.75 46.67,189.79 C 44.21,190.79 41.27,190.43 39.13,192.17 C 39.44,194.01 41.52,193.4 42.86,193.7 C 44.36,201.12 54.65,207.71 47.62,215.25 C 49.37,218.35 47.81,221.67 47.39,224.9 C 48.73,225.73 50.19,226.35 51.63,226.99 C 47.71,231.22 52.96,236.04 55.92,239.06 C 57.13,245.43 68.4,247.92 65.98,254.68 C 62.18,252.5 57.34,253.44 54.09,250.22 C 41.45,259.64 28.98,246.53 22.06,236.9 C 13.11,233.6 8.34,222.82 8.02,214.02 C 2.97,194.64 8.81,175.29 18.12,158.45 C 18.99,158.79 19.87,159.14 20.74,159.48 C 22.07,156.96 22.47,154.14 22.3,151.32 M 16.25,191.07 C 16.76,192.06 17.31,193.03 17.86,194 C 17.31,194.97 16.76,195.95 16.23,196.94 C 18.87,201.42 15,204.67 14.03,208.49 C 14.85,208.36 15.66,208.35 16.47,208.45 C 19.53,216.33 24.97,222.98 28.68,230.29 C 29.65,230.67 30.61,231.06 31.57,231.46 C 31.84,232.49 32.12,233.54 32.4,234.58 C 38.68,236.83 43.21,242.74 49.01,245.97 C 53.52,244.71 51.2,239.7 48,243.73 C 47.36,240.86 51.15,240.53 51.78,238.19 C 50.9,238.31 50.02,238.44 49.15,238.58 C 49.48,237.16 49.78,235.74 49.99,234.3 C 47.34,237.76 44.23,234.19 48.58,232.62 C 48.07,228.47 44.6,227.56 42.16,230.75 C 43.38,219.81 33.26,211.55 32.37,200.66 C 31.62,200.58 30.86,200.5 30.11,200.42 C 29.39,197.29 31.77,194.36 30.78,191.26 C 23.33,193.22 28.02,188.83 30.98,186 C 30.39,181.74 25.96,183.06 23.09,183.94 C 22.05,183.32 21.01,182.69 19.98,182.05 C 16.5,183.87 17.02,187.81 16.25,191.07 z"
       id="path201"
       style="opacity:1;fill:#fafafa" />
  </g>
  <g
     id="#cfd0d1ff">
    <path
       d="M 112.13,144.76 C 114.15,143.27 116.81,143.58 118.92,144.68 C 117.58,144.95 116.24,145.18 114.89,145.39 L 113.75,145.34 C 113.34,145.2 112.54,144.91 112.13,144.76 z"
       id="path204"
       style="opacity:1;fill:#cfd0d1" />
  </g>
  <g
     id="#d2d3d4ff">
    <path
       d="M 109.99,145.04 L 111.06,144.92 C 107.23,150.97 112.16,161.14 105.97,164.99 C 107.62,158.45 106.25,150.82 109.99,145.04 z"
       id="path207"
       style="opacity:1;fill:#d2d3d4" />
  </g>
  <g
     id="#c9c9cbff">
    <path
       d="M 111.06,144.92 L 112.13,144.76 C 109.68,151.64 113.34,160.21 109.01,166.09 C 107.91,166.24 106.84,166.52 105.79,166.91 L 105.1,167.1 C 104.8,166.94 104.19,166.62 103.89,166.46 C 104.2,166.16 104.82,165.57 105.13,165.27 L 105.97,164.99 C 112.16,161.14 107.23,150.97 111.06,144.92 z"
       id="path210"
       style="opacity:1;fill:#c9c9cb" />
  </g>
  <g
     id="#bfc0c2ff">
    <path
       d="M 112.13,144.76 C 112.54,144.91 113.34,145.2 113.75,145.34 C 110.11,151.64 118.21,164.58 109.01,166.09 C 113.34,160.21 109.68,151.64 112.13,144.76 z"
       id="path213"
       style="opacity:1;fill:#bfc0c2" />
    <path
       d="M 123.32,146.36 L 123.85,146.31 L 123.86,146.75 C 123.72,146.65 123.45,146.46 123.32,146.36 z"
       id="path215"
       style="opacity:1;fill:#bfc0c2" />
    <path
       d="M 98.34,161.19 C 98.4,161.3 98.53,161.52 98.59,161.62 C 98.53,161.52 98.4,161.3 98.34,161.19 z"
       id="path217"
       style="opacity:1;fill:#bfc0c2" />
    <path
       d="M 124.28,162.53 C 124.46,162.38 124.82,162.09 125,161.94 C 124.82,162.09 124.46,162.38 124.28,162.53 z"
       id="path219"
       style="opacity:1;fill:#bfc0c2" />
  </g>
  <g
     id="#b2b3b6ff">
    <path
       d="M 113.75,145.34 L 114.89,145.39 C 115.34,149.69 114.38,154.2 115.68,158.36 C 121.21,160.81 120.89,148.64 126.19,151.96 C 126.63,154.04 125.7,156.04 125.02,157.96 C 124.7,158.54 124.05,159.7 123.73,160.28 C 123.55,160.46 123.18,160.8 123,160.98 C 122.75,161.13 122.25,161.42 122,161.57 C 119.65,162.91 117.3,164.26 115.06,165.79 C 115.51,165.84 116.41,165.94 116.86,165.99 L 117.28,166.75 C 115.84,166.88 114.41,167.02 112.98,167.17 C 111.33,166.77 109.61,166.78 107.97,167.19 C 107.42,167.12 106.33,166.98 105.79,166.91 C 106.84,166.52 107.91,166.24 109.01,166.09 C 118.21,164.58 110.11,151.64 113.75,145.34 z"
       id="path222"
       style="opacity:1;fill:#b2b3b6" />
  </g>
  <g
     id="#a8a9acff">
    <path
       d="M 114.89,145.39 C 116.24,145.18 117.58,144.95 118.92,144.68 C 119.75,144.84 121.42,145.15 122.25,145.31 L 122.35,146.11 C 120.37,145.92 118.39,145.85 116.4,145.96 C 116.69,148.31 116.69,150.89 118.14,152.89 C 120.27,151.33 122.15,149.37 124.73,148.53 C 125.22,149.67 125.71,150.81 126.19,151.96 C 120.89,148.64 121.21,160.81 115.68,158.36 C 114.38,154.2 115.34,149.69 114.89,145.39 z"
       id="path225"
       style="opacity:1;fill:#a8a9ac" />
  </g>
  <g
     id="#9c9c9dff">
    <path
       d="M 116.4,145.96 C 118.39,145.85 120.37,145.92 122.35,146.11 L 123.32,146.36 C 123.45,146.46 123.72,146.65 123.86,146.75 C 124.33,147.08 125.28,147.75 125.75,148.08 L 124.73,148.53 C 122.15,149.37 120.27,151.33 118.14,152.89 C 116.69,150.89 116.69,148.31 116.4,145.96 z"
       id="path228"
       style="opacity:1;fill:#9c9c9d" />
  </g>
  <g
     id="#7f8081ff">
    <path
       d="M 125.75,148.08 L 126.32,148.42 C 126.45,148.5 126.71,148.66 126.84,148.74 C 127.11,149.26 127.64,150.32 127.91,150.84 C 126.31,152.99 126.74,155.88 125.88,158.33 L 125.02,157.96 C 125.7,156.04 126.63,154.04 126.19,151.96 C 125.71,150.81 125.22,149.67 124.73,148.53 L 125.75,148.08 z"
       id="path231"
       style="opacity:1;fill:#7f8081" />
  </g>
  <g
     id="#c4c5c7ff">
    <path
       d="M 126.32,148.42 C 126.45,148.5 126.71,148.66 126.84,148.74 C 126.71,148.66 126.45,148.5 126.32,148.42 z"
       id="path234"
       style="opacity:1;fill:#c4c5c7" />
  </g>
  <g
     id="#e1e1e3ff">
    <path
       d="M 101.1,151.98 C 102.5,150.81 103.66,148.64 105.78,149.12 C 103.92,153.35 105.9,160.33 101.05,162.36 C 100.7,161.77 100,160.59 99.65,160 C 100.18,158.38 100.3,156.59 99.58,155 C 100.14,154.02 100.64,153.01 101.1,151.98 z"
       id="path237"
       style="opacity:1;fill:#e1e1e3" />
    <path
       d="M 90.84,290.14 C 91.39,290.36 92.49,290.78 93.04,291 C 92.49,290.78 91.39,290.36 90.84,290.14 z"
       id="path239"
       style="opacity:1;fill:#e1e1e3" />
    <path
       d="M 161.99,293.91 C 163.03,293.1 164.2,292.64 165.51,292.53 L 166.17,293.09 C 165.38,294.69 163.36,293.98 161.99,293.91 z"
       id="path241"
       style="opacity:1;fill:#e1e1e3" />
    <path
       d="M 122.59,295.04 C 132.22,295.57 141.85,295.04 151.48,295.03 C 142.53,296.66 131.51,296.64 122.59,295.04 z"
       id="path243"
       style="opacity:1;fill:#e1e1e3" />
  </g>
  <g
     id="#b2b3b5ff">
    <path
       d="M 100.26,151.01 C 100.47,151.25 100.89,151.74 101.1,151.98 C 100.64,153.01 100.14,154.02 99.58,155 L 98.94,155.16 L 98.26,154.9 C 98.48,153.42 99.16,152.04 100.26,151.01 z"
       id="path246"
       style="opacity:1;fill:#b2b3b5" />
  </g>
  <g
     id="#3f4041ff">
    <path
       d="M 125.88,158.33 C 126.74,155.88 126.31,152.99 127.91,150.84 C 127.98,151.38 128.11,152.44 128.18,152.98 C 128.18,153.77 128.18,155.37 128.18,156.17 L 128.3,156.86 L 127.6,158.17 C 127.51,158.36 127.34,158.73 127.25,158.91 C 126.9,158.77 126.22,158.48 125.88,158.33 z"
       id="path249"
       style="opacity:1;fill:#3f4041" />
  </g>
  <g
     id="#a4a5a6ff">
    <path
       d="M 127.91,150.84 C 128.17,151.39 128.69,152.47 128.94,153.01 L 128.18,152.98 C 128.11,152.44 127.98,151.38 127.91,150.84 z"
       id="path252"
       style="opacity:1;fill:#a4a5a6" />
  </g>
  <g
     id="#7a7c7eff">
    <path
       d="M 128.18,152.98 L 128.94,153.01 C 128.88,153.77 128.74,155.3 128.67,156.06 L 128.18,156.17 C 128.18,155.37 128.18,153.77 128.18,152.98 z"
       id="path255"
       style="opacity:1;fill:#7a7c7e" />
  </g>
  <g
     id="#939394ff">
    <path
       d="M 98.26,154.9 L 98.94,155.16 C 98.41,156.78 98.63,158.61 99.65,160 C 100,160.59 100.7,161.77 101.05,162.36 C 101.64,163.01 102.27,163.63 102.94,164.21 C 102.67,164.42 102.14,164.85 101.87,165.07 L 101.35,165.42 C 100.41,164.16 99.42,162.95 98.59,161.62 C 98.53,161.52 98.4,161.3 98.34,161.19 L 97.78,160.16 C 98.18,158.76 98.25,157.35 97.99,155.93 L 98.26,154.9 z"
       id="path258"
       style="opacity:1;fill:#939394" />
  </g>
  <g
     id="#c8c9cbff">
    <path
       d="M 98.94,155.16 L 99.58,155 C 100.3,156.59 100.18,158.38 99.65,160 C 98.63,158.61 98.41,156.78 98.94,155.16 z"
       id="path261"
       style="opacity:1;fill:#c8c9cb" />
  </g>
  <g
     id="#ceced0ff">
    <path
       d="M 97.78,160.16 C 96.4,158.98 96.28,156.86 97.99,155.93 C 98.25,157.35 98.18,158.76 97.78,160.16 z"
       id="path264"
       style="opacity:1;fill:#ceced0" />
  </g>
  <g
     id="#a7a8aaff">
    <path
       d="M 128.18,156.17 L 128.67,156.06 C 128.58,156.26 128.39,156.66 128.3,156.86 L 128.18,156.17 z"
       id="path267"
       style="opacity:1;fill:#a7a8aa" />
  </g>
  <g
     id="#909192ff">
    <path
       d="M 123.73,160.28 C 124.05,159.7 124.7,158.54 125.02,157.96 C 124.7,158.54 124.05,159.7 123.73,160.28 z"
       id="path270"
       style="opacity:1;fill:#909192" />
  </g>
  <g
     id="#626364ff">
    <path
       d="M 125.02,157.96 L 125.88,158.33 C 126.22,158.48 126.9,158.77 127.25,158.91 L 126.7,160.08 C 126.52,160.31 126.16,160.77 125.98,161 C 125.74,161.23 125.25,161.7 125,161.94 C 124.82,162.09 124.46,162.38 124.28,162.53 L 123.27,163.33 C 122.95,162.89 122.32,162.01 122,161.57 C 122.25,161.42 122.75,161.13 123,160.98 C 123.18,160.8 123.55,160.46 123.73,160.28 C 124.05,159.7 124.7,158.54 125.02,157.96 z"
       id="path273"
       style="opacity:1;fill:#626364" />
  </g>
  <g
     id="#999999ff">
    <path
       d="M 127.25,158.91 C 127.34,158.73 127.51,158.36 127.6,158.17 C 127.51,158.36 127.34,158.73 127.25,158.91 z"
       id="path276"
       style="opacity:1;fill:#999999" />
  </g>
  <g
     id="#88898bff">
    <path
       d="M 123,160.98 C 123.18,160.8 123.55,160.46 123.73,160.28 C 123.55,160.46 123.18,160.8 123,160.98 z"
       id="path279"
       style="opacity:1;fill:#88898b" />
    <path
       d="M 122,161.57 C 122.25,161.42 122.75,161.13 123,160.98 C 122.75,161.13 122.25,161.42 122,161.57 z"
       id="path281"
       style="opacity:1;fill:#88898b" />
  </g>
  <g
     id="#bcbdbfff">
    <path
       d="M 125.98,161 C 126.16,160.77 126.52,160.31 126.7,160.08 C 126.52,160.31 126.16,160.77 125.98,161 z"
       id="path284"
       style="opacity:1;fill:#bcbdbf" />
  </g>
  <g
     id="#b7b8baff">
    <path
       d="M 125,161.94 C 125.25,161.7 125.74,161.23 125.98,161 C 125.74,161.23 125.25,161.7 125,161.94 z"
       id="path287"
       style="opacity:1;fill:#b7b8ba" />
  </g>
  <g
     id="#909092ff">
    <path
       d="M 115.06,165.79 C 117.3,164.26 119.65,162.91 122,161.57 C 122.32,162.01 122.95,162.89 123.27,163.33 C 122.85,163.6 122.03,164.15 121.61,164.43 C 121.5,164.49 121.27,164.63 121.15,164.69 L 119.93,165.32 C 119.75,165.39 119.38,165.52 119.19,165.58 C 118.61,165.68 117.45,165.89 116.86,165.99 C 116.41,165.94 115.51,165.84 115.06,165.79 z"
       id="path290"
       style="opacity:1;fill:#909092" />
  </g>
  <g
     id="#b3b4b6ff">
    <path
       d="M 102.94,164.21 C 103.48,164.47 104.58,165.01 105.13,165.27 C 104.82,165.57 104.2,166.16 103.89,166.46 C 103.38,166.11 102.37,165.42 101.87,165.07 C 102.14,164.85 102.67,164.42 102.94,164.21 z"
       id="path293"
       style="opacity:1;fill:#b3b4b6" />
  </g>
  <g
     id="#b4b5b7ff">
    <path
       d="M 121.15,164.69 C 121.27,164.63 121.5,164.49 121.61,164.43 C 121.5,164.49 121.27,164.63 121.15,164.69 z"
       id="path296"
       style="opacity:1;fill:#b4b5b7" />
  </g>
  <g
     id="#ececedff">
    <path
       d="M 86.23,190.2 C 91.48,183.11 89.53,163.98 100.67,166.57 C 100.84,166.28 101.18,165.71 101.35,165.42 L 101.87,165.07 C 102.37,165.42 103.38,166.11 103.89,166.46 C 104.19,166.62 104.8,166.94 105.1,167.1 C 92.15,195.52 91.46,229.99 92.65,261.46 C 87.69,262.85 83.76,267.06 81.43,271.55 C 77.2,271.2 72.99,271.69 68.79,272.14 C 58.13,271.9 47.19,268.78 37.5,265.89 C 25.95,257.72 16.18,246.84 9.67,234.15 C 13.97,237.85 16.68,243.12 20.64,247.21 C 22.37,250.97 26.07,253.15 29.03,255.84 C 39.09,267.63 57.1,269.07 71.64,269.68 C 89.71,261.89 86.98,239.46 85.76,223.18 C 80.41,212.26 87.75,201.52 86.23,190.2 z"
       id="path299"
       style="opacity:1;fill:#ececed" />
  </g>
  <g
     id="#bdbec0ff">
    <path
       d="M 119.19,165.58 C 119.38,165.52 119.75,165.39 119.93,165.32 C 119.75,165.39 119.38,165.52 119.19,165.58 z"
       id="path302"
       style="opacity:1;fill:#bdbec0" />
  </g>
  <g
     id="#dadbddff">
    <path
       d="M 107.97,167.19 C 109.61,166.78 111.33,166.77 112.98,167.17 C 111.65,168.76 109.31,168.77 107.97,167.19 z"
       id="path305"
       style="opacity:1;fill:#dadbdd" />
  </g>
  <g
     id="#fefefeff">
    <path
       d="M 16.25,191.07 C 17.02,187.81 16.5,183.87 19.98,182.05 C 21.01,182.69 22.05,183.32 23.09,183.94 C 25.96,183.06 30.39,181.74 30.98,186 C 28.02,188.83 23.33,193.22 30.78,191.26 C 31.77,194.36 29.39,197.29 30.11,200.42 C 30.86,200.5 31.62,200.58 32.37,200.66 C 33.26,211.55 43.38,219.81 42.16,230.75 C 44.6,227.56 48.07,228.47 48.58,232.62 C 44.23,234.19 47.34,237.76 49.99,234.3 C 49.78,235.74 49.48,237.16 49.15,238.58 C 50.02,238.44 50.9,238.31 51.78,238.19 C 51.15,240.53 47.36,240.86 48,243.73 C 51.2,239.7 53.52,244.71 49.01,245.97 C 43.21,242.74 38.68,236.83 32.4,234.58 C 32.12,233.54 31.84,232.49 31.57,231.46 C 30.61,231.06 29.65,230.67 28.68,230.29 C 24.97,222.98 19.53,216.33 16.47,208.45 C 15.66,208.35 14.85,208.36 14.03,208.49 C 15,204.67 18.87,201.42 16.23,196.94 C 16.76,195.95 17.31,194.97 17.86,194 C 17.31,193.03 16.76,192.06 16.25,191.07 z"
       id="path308"
       style="opacity:1;fill:#fefefe" />
  </g>
  <g
     id="#dddee0ff">
    <path
       d="M 293.81,190.86 C 297.25,190.49 300.89,189.09 304.24,190.66 C 302.78,190.8 301.33,190.98 299.89,191.19 C 302.08,192.29 304.38,193.17 306.63,194.15 C 307.93,195.04 309.16,196.03 310.35,197.07 C 305.54,200.79 296.64,199.96 293.03,206.85 C 292.29,206.26 291.56,205.66 290.83,205.06 C 288.9,206.19 287.71,208.15 286.21,209.74 C 285.4,208.57 284.59,207.4 283.78,206.24 C 280.56,208.49 279.58,212.45 277.56,215.6 C 275.33,216.73 272.9,216.5 270.8,215.24 C 265.01,222.19 259.45,229.83 254.85,237.89 L 253.92,238.01 C 256.4,230.79 260.15,224.13 263.2,217.16 C 264.34,215.73 265.51,214.31 266.59,212.84 C 267.16,213.01 268.29,213.35 268.86,213.52 C 272.08,212.06 275.19,210.02 277.04,206.93 C 277.31,206.75 277.84,206.4 278.11,206.22 C 283.56,202.13 292.54,198.86 292.9,191.09 L 293.81,190.86 z"
       id="path311"
       style="opacity:1;fill:#dddee0" />
  </g>
  <g
     id="#cacbcdff">
    <path
       d="M 299.89,191.19 C 301.33,190.98 302.78,190.8 304.24,190.66 C 305.17,190.97 306.09,191.3 307.03,191.64 C 306.51,192.36 306.37,193.2 306.63,194.15 C 304.38,193.17 302.08,192.29 299.89,191.19 z"
       id="path314"
       style="opacity:1;fill:#cacbcd" />
  </g>
  <g
     id="#a8a9aaff">
    <path
       d="M 306.63,194.15 C 306.37,193.2 306.51,192.36 307.03,191.64 L 307.88,191.93 C 308.38,192.16 309.39,192.61 309.89,192.84 C 310.93,193.57 311.98,194.29 313.02,195.04 C 313.24,195.54 313.69,196.55 313.92,197.05 C 314.24,197.56 314.89,198.58 315.21,199.09 C 314.73,201.38 314.77,203.75 315.36,206.02 C 314.64,207.45 313.9,208.88 313.31,210.38 C 312.72,210.48 311.54,210.7 310.95,210.81 C 311.29,209.54 311.65,208.28 312.03,207.02 C 312.77,205.02 313,202.85 312.33,200.79 C 311.99,199.4 311.28,198.14 310.35,197.07 C 309.16,196.03 307.93,195.04 306.63,194.15 z"
       id="path317"
       style="opacity:1;fill:#a8a9aa" />
  </g>
  <g
     id="#eeeeefff">
    <path
       d="M 271.17,210.04 C 274.77,203.19 281.54,197.26 289.1,195.29 C 286.7,200.02 280.37,201.3 278.11,206.22 C 277.84,206.4 277.31,206.75 277.04,206.93 C 275.02,207.84 273.13,209 271.17,210.04 z"
       id="path320"
       style="opacity:1;fill:#eeeeef" />
  </g>
  <g
     id="#c5c6c8ff">
    <path
       d="M 313.92,197.05 C 314.24,197.56 314.89,198.58 315.21,199.09 C 314.89,198.58 314.24,197.56 313.92,197.05 z"
       id="path323"
       style="opacity:1;fill:#c5c6c8" />
    <path
       d="M 90.36,287.96 C 117.15,290.13 144.19,288.63 171.03,288.99 C 174.28,289.85 179.84,285.74 181.25,289.99 L 180.19,290.04 C 178.87,289.48 177.8,289.78 176.99,290.96 L 176.16,290.98 C 174.83,290.49 173.77,290.82 172.99,291.97 C 172.53,291.98 171.61,292 171.15,292.01 C 169.85,291.52 168.78,291.83 167.94,292.94 C 167.5,292.98 166.61,293.05 166.17,293.09 L 165.51,292.53 C 165.22,292.24 164.65,291.67 164.37,291.38 C 144.9,292.41 124.98,291.16 105.59,292.67 L 104.79,292.99 C 104.35,292.98 103.48,292.97 103.04,292.96 C 102.23,291.82 101.17,291.5 99.86,292 C 99.4,292 98.48,291.98 98.02,291.98 C 97.25,290.81 96.19,290.48 94.86,291 C 94.41,291 93.5,291 93.04,291 C 92.49,290.78 91.39,290.36 90.84,290.14 C 90.72,289.59 90.48,288.5 90.36,287.96 z"
       id="path325"
       style="opacity:1;fill:#c5c6c8" />
  </g>
  <g
     id="#cbcbcdff">
    <path
       d="M 254.13,246.12 C 274.71,235.13 292.05,218.89 312.03,207.02 C 311.65,208.28 311.29,209.54 310.95,210.81 C 311.54,210.7 312.72,210.48 313.31,210.38 L 313.17,211.32 C 301.5,221.87 288.73,231.65 275.74,240.4 C 277.83,236.06 283.06,234.78 285.82,231.1 C 285.36,230.78 284.45,230.13 283.99,229.81 C 272.59,235.14 263.57,244.69 252.04,249.94 C 251.28,249.21 250.52,248.48 249.77,247.75 C 249.87,247.32 250.05,246.45 250.14,246.01 C 250.7,244.9 251.33,243.82 251.9,242.72 C 252.56,243.9 253.19,245.12 254.13,246.12 z"
       id="path328"
       style="opacity:1;fill:#cbcbcd" />
  </g>
  <g
     id="#c3c4c6ff">
    <path
       d="M 252.04,249.94 C 263.57,244.69 272.59,235.14 283.99,229.81 C 284.45,230.13 285.36,230.78 285.82,231.1 C 283.06,234.78 277.83,236.06 275.74,240.4 C 275.58,240.57 275.27,240.9 275.12,241.07 C 274.91,241.28 274.5,241.71 274.3,241.92 C 273.72,242.17 272.56,242.66 271.99,242.91 C 270.49,242.63 269.12,243.57 269.18,245.15 C 268.93,245.4 268.42,245.89 268.16,246.14 C 266.72,245.64 265.19,246.4 264.99,247.97 C 263.5,247.6 262.1,248.57 262.17,250.16 C 261.92,250.41 261.41,250.9 261.16,251.15 C 259.74,250.69 258.15,251.34 257.98,252.94 C 256.48,252.6 255.04,253.61 255.24,255.22 C 253.19,257.23 250.64,258.6 248.19,260.05 C 247.68,260.31 246.67,260.82 246.16,261.08 C 245.93,261.34 245.46,261.86 245.23,262.13 C 244.72,262.39 243.7,262.91 243.18,263.18 C 242.18,263.88 241.18,264.59 240.15,265.27 C 239.7,265.14 238.79,264.89 238.34,264.77 C 238.47,264.34 238.74,263.49 238.88,263.06 C 241.67,260.39 244.2,257.4 245.97,253.95 C 247.11,251.81 248.48,249.8 249.77,247.75 C 250.52,248.48 251.28,249.21 252.04,249.94 z"
       id="path331"
       style="opacity:1;fill:#c3c4c6" />
  </g>
  <g
     id="#dbdbddff">
    <path
       d="M 275.12,241.07 C 275.27,240.9 275.58,240.57 275.74,240.4 C 275.58,240.57 275.27,240.9 275.12,241.07 z"
       id="path334"
       style="opacity:1;fill:#dbdbdd" />
    <path
       d="M 257.98,252.94 C 258.15,251.34 259.74,250.69 261.16,251.15 C 260.58,252.35 259.42,253.52 257.98,252.94 z"
       id="path336"
       style="opacity:1;fill:#dbdbdd" />
    <path
       d="M 153.06,294.86 C 154.87,293.67 157.09,293.38 159.15,294.07 C 157.82,296.06 155.01,294.82 153.06,294.86 z"
       id="path338"
       style="opacity:1;fill:#dbdbdd" />
  </g>
  <g
     id="#dedfe0ff">
    <path
       d="M 271.99,242.91 C 272.56,242.66 273.72,242.17 274.3,241.92 C 273.72,242.17 272.56,242.66 271.99,242.91 z"
       id="path341"
       style="opacity:1;fill:#dedfe0" />
  </g>
  <g
     id="#d8d8daff">
    <path
       d="M 269.18,245.15 C 269.12,243.57 270.49,242.63 271.99,242.91 C 271.96,244.38 270.52,245.22 269.18,245.15 z"
       id="path344"
       style="opacity:1;fill:#d8d8da" />
  </g>
  <g
     id="#dadadcff">
    <path
       d="M 264.99,247.97 C 265.19,246.4 266.72,245.64 268.16,246.14 C 267.6,247.36 266.44,248.49 264.99,247.97 z"
       id="path347"
       style="opacity:1;fill:#dadadc" />
  </g>
  <g
     id="#d8d9dbff">
    <path
       d="M 255.24,255.22 C 255.04,253.61 256.48,252.6 257.98,252.94 C 257.93,254.38 256.54,255.17 255.24,255.22 z"
       id="path350"
       style="opacity:1;fill:#d8d9db" />
  </g>
  <g
     id="#e1e2e4ff">
    <path
       d="M 243.18,263.18 C 243.7,262.91 244.72,262.39 245.23,262.13 C 244.72,262.39 243.7,262.91 243.18,263.18 z"
       id="path353"
       style="opacity:1;fill:#e1e2e4" />
  </g>
  <g
     id="#dadbdcff">
    <path
       d="M 109.13,280.12 C 127.44,273.26 148.09,270.09 166.38,278.62 C 185.04,282.96 204.75,279.44 222.56,272.91 C 222.52,273.51 222.46,274.71 222.43,275.31 C 218.96,277.33 215.04,278.33 211.51,280.21 C 210.43,276.34 205.83,280.48 203,279.96 C 180.7,285.39 158.2,280.6 136.19,277.2 C 115.83,284.57 93.76,284.04 72.36,283.08 C 72.47,283.6 72.69,284.65 72.8,285.18 C 69.89,284.76 67.34,283.2 64.58,282.27 C 64.54,281.71 64.46,280.59 64.42,280.04 C 79.18,280.92 94.6,284.93 109.13,280.12 z"
       id="path356"
       style="opacity:1;fill:#dadbdc" />
  </g>
  <g
     id="#cdcecfff">
    <path
       d="M 160.79,286.3 C 171.97,289.14 183.86,283.5 194.6,286.2 C 190.28,287.84 185.86,289.48 181.25,289.99 C 179.84,285.74 174.28,289.85 171.03,288.99 C 144.19,288.63 117.15,290.13 90.36,287.96 C 90.48,288.5 90.72,289.59 90.84,290.14 C 87.99,289.97 85.24,289.15 82.52,288.35 C 82.51,287.81 82.47,286.71 82.46,286.17 C 108.56,288.63 134.64,284.72 160.79,286.3 z"
       id="path359"
       style="opacity:1;fill:#cdcecf" />
  </g>
  <g
     id="#dcdcdeff">
    <path
       d="M 176.99,290.96 C 177.8,289.78 178.87,289.48 180.19,290.04 C 179.46,291.18 178.4,291.48 176.99,290.96 z"
       id="path362"
       style="opacity:1;fill:#dcdcde" />
  </g>
  <g
     id="#bcbcbfff">
    <path
       d="M 105.59,292.67 C 124.98,291.16 144.9,292.41 164.37,291.38 C 164.65,291.67 165.22,292.24 165.51,292.53 C 164.2,292.64 163.03,293.1 161.99,293.91 C 161.28,293.95 159.86,294.03 159.15,294.07 C 157.09,293.38 154.87,293.67 153.06,294.86 C 152.67,294.9 151.87,294.99 151.48,295.03 C 141.85,295.04 132.22,295.57 122.59,295.04 C 121.36,295 120.14,294.95 118.92,294.9 C 116.78,293.64 114.19,293.28 111.82,294.14 C 111.36,294.07 110.45,293.94 109.99,293.87 C 108.65,293.1 107.17,292.48 105.59,292.67 z"
       id="path365"
       style="opacity:1;fill:#bcbcbf" />
  </g>
</svg>
