<?xml version="1.0" encoding="UTF-8" standalone="no"?>
<svg
   xmlns:dc="http://purl.org/dc/elements/1.1/"
   xmlns:cc="http://creativecommons.org/ns#"
   xmlns:rdf="http://www.w3.org/1999/02/22-rdf-syntax-ns#"
   xmlns:svg="http://www.w3.org/2000/svg"
   xmlns="http://www.w3.org/2000/svg"
   xmlns:sodipodi="http://sodipodi.sourceforge.net/DTD/sodipodi-0.dtd"
   xmlns:inkscape="http://www.inkscape.org/namespaces/inkscape"
   width="130"
   height="130"
   viewBox="0 0 186 297"
   version="1.0"
   id="svg2"
   sodipodi:version="0.32"
   inkscape:version="0.46"
   sodipodi:docname="IPhone.svg"
   inkscape:output_extension="org.inkscape.output.svg.inkscape">
  <metadata
     id="metadata589">
    <rdf:RDF>
      <cc:Work
         rdf:about="">
        <dc:format>image/svg+xml</dc:format>
        <dc:type
           rdf:resource="http://purl.org/dc/dcmitype/StillImage" />
      </cc:Work>
    </rdf:RDF>
  </metadata>
  <defs
     id="defs587">
    <inkscape:perspective
       sodipodi:type="inkscape:persp3d"
       inkscape:vp_x="0 : 185.625 : 1"
       inkscape:vp_y="0 : 1000 : 0"
       inkscape:vp_z="232.5 : 185.625 : 1"
       inkscape:persp3d-origin="116.25 : 123.75 : 1"
       id="perspective591" />
  </defs>
  <sodipodi:namedview
     inkscape:window-height="773"
     inkscape:window-width="904"
     inkscape:pageshadow="2"
     inkscape:pageopacity="0.0"
     guidetolerance="10.0"
     gridtolerance="10.0"
     objecttolerance="10.0"
     borderopacity="1.0"
     bordercolor="#666666"
     pagecolor="#ffffff"
     id="base"
     showgrid="false"
     inkscape:zoom="1.3414141"
     inkscape:cx="116.25"
     inkscape:cy="178.25039"
     inkscape:window-x="0"
     inkscape:window-y="0"
     inkscape:current-layer="svg2" />
  <g
     id="g2964">
    <g
       id="#8d8d8dff">
      <path
         id="path5"
         d="M 38,1 C 73.33,1 108.67,1 144,1 L 144.07,1.78 C 149.46,2.94 154.21,6.11 158.28,9.73 L 159,10 C 159,10.5 159,11.5 159,12 L 160,12 L 160.3,12.7 C 162.29,15.05 163.66,17.9 164.22,20.93 L 165,21 C 165,22.66 165,24.33 165,26 C 164.99,101 165.02,176 164.99,251 C 164.99,251.5 164.98,252.5 164.98,253 C 164.99,253.53 165,254.58 165.01,255.1 L 164.22,255.09 C 164.19,255.55 164.13,256.48 164.1,256.94 C 162.65,261.69 160.24,266.24 156.16,269.22 L 156,270 L 155.3,270.3 C 153.19,272.1 150.63,273.17 148.09,274.18 L 148.04,274.97 C 134.33,278.68 120.01,276.39 106,277 C 97,277 88,277 79,277 C 66.67,277 54.33,277 42,277 C 41.5,277 40.5,277 40,277 L 40.01,275.96 C 39.24,275.97 37.68,275.99 36.9,276 L 36.92,275.2 C 36.47,275.15 35.56,275.04 35.1,274.99 C 34.58,275.01 33.52,275.05 32.99,275.07 L 32.84,274.23 C 28.2,272.07 24.69,268.36 21.16,264.79 C 21.11,264.35 21.02,263.47 20.97,263.03 L 20,263 L 20,262 L 19,262 C 19,261.25 19,259.75 19,259 L 18,259 C 18,258.25 18,256.75 18,256 L 16.98,256 C 16.98,255.46 16.97,254.39 16.97,253.86 C 16.97,253.39 16.98,252.46 16.98,252 C 16.97,176.98 17.09,101.95 16.93,26.93 C 16.94,26.47 16.96,25.55 16.97,25.09 C 16.97,23.72 16.97,22.36 16.99,20.99 L 17.78,20.93 C 18.36,17.88 19.67,14.95 21.82,12.68 L 22.05,11.8 L 22.77,11.85 L 22.85,11.15 L 22.98,10.09 L 24,10 L 24,9 L 25,9 L 25,8 L 26,8 L 26.08,6.95 L 27.14,6.86 L 27.86,6.81 L 27.86,6.14 L 28.92,6.05 L 29.08,4.96 L 30.16,4.85 L 30.89,4.78 L 30.91,4.08 L 32.09,3.92 L 32.84,3.82 L 32.84,3.16 C 33.38,3.11 34.46,3.02 35,2.98 L 35,2 C 35.75,2 37.25,2 38,2 L 38,1 M 42,7 L 42.01,8 C 41.21,8.03 39.62,8.09 38.82,8.12 C 38.65,8.31 38.32,8.68 38.15,8.87 C 37.57,8.94 36.4,9.08 35.82,9.15 C 35.65,9.33 35.31,9.69 35.13,9.87 L 34.08,9.95 L 34,11 C 33.5,11 32.5,11 32,11 L 31.87,11.81 C 29.92,13.63 27.46,15.11 26.82,17.9 L 25.95,18.08 L 25.87,19.13 C 25.69,19.31 25.33,19.65 25.16,19.82 C 25.11,20.37 25.02,21.47 24.97,22.02 L 23.94,21.99 C 23.95,22.52 23.97,23.59 23.99,24.12 L 23.28,24.12 C 23.25,24.8 23.19,26.18 23.16,26.87 C 22.89,101.61 22.9,176.38 23.15,251.13 C 23.19,251.82 23.26,253.2 23.3,253.89 L 24.02,253.9 L 24.09,255.16 C 24.28,255.33 24.65,255.68 24.84,255.86 C 24.89,256.39 24.97,257.46 25.02,258 L 26,258 C 26,258.5 26,259.5 26,260 L 27,260 L 27,261 L 28,261 L 28,262 L 29,262 L 29.17,263.12 C 29.34,263.3 29.7,263.66 29.88,263.83 L 31,264 L 31,265 L 32,265 L 32,266 L 33,266 L 33,267 C 33.5,267 34.5,267 35,267 L 35,267.98 C 35.53,268.03 36.6,268.11 37.14,268.15 C 37.31,268.33 37.65,268.7 37.82,268.88 C 38.39,268.91 39.55,268.96 40.13,268.99 C 40.56,269.22 41.43,269.68 41.86,269.92 C 74.62,270.05 107.38,270.06 140.13,269.91 C 140.57,269.68 141.44,269.22 141.88,268.99 C 142.45,268.96 143.61,268.91 144.18,268.88 C 144.35,268.7 144.69,268.33 144.86,268.15 C 145.4,268.11 146.47,268.03 147,267.98 L 147,267 L 148.19,266.84 C 148.36,266.65 148.68,266.28 148.84,266.09 L 149.76,265.94 C 151.19,263.65 154.2,262.33 155.12,259.83 C 155.31,259.67 155.71,259.33 155.91,259.16 L 156.11,257.87 C 156.3,257.69 156.68,257.33 156.88,257.15 L 157.1,255.87 C 157.3,255.7 157.69,255.37 157.89,255.2 C 157.92,254.62 157.99,253.46 158.02,252.88 C 158.23,252.44 158.65,251.55 158.86,251.11 C 159.02,177.04 159.23,102.95 158.76,28.89 C 159.42,27.62 159.4,26.36 158.68,25.12 L 158.04,25.12 C 158.01,24.55 157.95,23.42 157.92,22.86 C 157.69,22.42 157.24,21.55 157.01,21.12 L 157.1,20.04 L 156,20 C 156,19.5 156,18.5 156,18 L 155.18,17.9 C 154.29,15.37 152.26,12.93 149.85,11.9 C 149.69,11.71 149.37,11.32 149.22,11.13 L 148,11 L 148,10 C 147.5,10 146.5,10 146,10 L 146.01,8.94 C 145.48,8.96 144.41,8.99 143.88,9.01 C 143.45,8.78 142.57,8.32 142.14,8.09 C 141.6,8.07 140.53,8.04 139.99,8.02 L 140,7 C 107.33,7 74.67,7 42,7 z"
         style="opacity:1;fill:#8d8d8d" />
      <path
         id="path7"
         d="M 30,60 C 39,60 48,60 57,60 L 57,61 C 48,61 39,61 30,61 L 30,60 z"
         style="opacity:1;fill:#8d8d8d" />
      <path
         id="path9"
         d="M 71.2,162.13 L 71.97,162.11 L 71.97,162.71 C 71.78,162.56 71.39,162.27 71.2,162.13 z"
         style="opacity:1;fill:#8d8d8d" />
    </g>
    <g
       id="#ccccccff">
      <path
         id="path12"
         d="M 32.11,3.22 L 32.84,3.16 L 32.84,3.82 L 32.09,3.92 L 32.11,3.22 z"
         style="opacity:1;fill:#cccccc" />
      <path
         id="path14"
         d="M 30.16,4.18 L 30.91,4.08 L 30.89,4.78 L 30.16,4.85 L 30.16,4.18 z"
         style="opacity:1;fill:#cccccc" />
      <path
         id="path16"
         d="M 27.14,6.19 L 27.86,6.14 L 27.86,6.81 L 27.14,6.86 L 27.14,6.19 z"
         style="opacity:1;fill:#cccccc" />
      <path
         id="path18"
         d="M 22.21,11.13 L 22.85,11.15 L 22.77,11.85 L 22.05,11.8 L 22.21,11.13 z"
         style="opacity:1;fill:#cccccc" />
      <path
         id="path20"
         d="M 105,157 C 106.33,157 107.67,157 109,157 L 109,158 C 109.5,158 110.5,158 111,158 L 111,159 L 112,159 L 112,160 L 113,160 L 113,161 L 114,161 C 114,161.75 114,163.25 114,164 C 109.33,163.99 104.67,164 100,164 L 100,163 L 101,163 C 101,162.25 101,160.75 101,160 L 102,160 L 102,159 L 103,159 L 103,158 C 103.5,158 104.5,158 105,158 L 105,157 z"
         style="opacity:1;fill:#cccccc" />
      <path
         id="path22"
         d="M 106,277 C 120.01,276.39 134.33,278.68 148.04,274.97 L 147.98,275.96 C 147.48,275.97 146.5,276 146,276.01 L 146,277 C 145.5,277 144.5,277 144,277 L 144,278 L 143,278 L 143,279 C 141.67,279 140.33,279 139,279 L 139,280 L 138,280 L 138,281 L 133,281 L 133,282 C 132.25,282 130.75,282 130,282 L 130,283 C 128.67,283 127.33,283 126,283 L 126,284 C 124.5,284 121.5,284 120,284 L 120,285 C 118.5,285 115.5,285 114,285 L 114.01,286 C 113.5,286 112.5,286 111.99,286 L 112,285 L 111,285 L 111,286 C 108.33,286 105.67,286 103,286 L 103,287 L 102,287 L 102,286 C 101.25,286 99.75,286 99,286 L 98.89,287.22 C 98.61,286.94 98.06,286.39 97.78,286.11 L 97,286 L 97,287 C 94.33,287 91.67,287 89,287 L 89,286 L 88.22,286.11 C 87.94,286.39 87.39,286.94 87.11,287.22 L 87.01,286 C 86.5,286 85.5,286 84.99,286 L 85.01,287 C 84.5,287 83.5,287 82.99,287 L 83,286 C 80.01,286.01 76.99,285.96 74,286 L 74,285 L 73.22,285.11 C 72.94,285.39 72.39,285.94 72.11,286.22 L 72,285 C 70.5,285 67.5,285 66,285 L 66,284 L 65.22,284.11 C 64.94,284.39 64.39,284.94 64.11,285.22 L 64,284 C 63.25,284 61.75,284 61,284 L 61,283.08 C 56.58,283.19 52.34,281.74 48.05,280.93 L 48,280 C 47.25,280 45.75,280 45,280 L 45,279 C 44.5,279 43.5,279 43,279 L 43,278 L 42,278 L 42,277 C 54.33,277 66.67,277 79,277 L 79,278 C 88,278 97,278 106,278 L 106,277 z"
         style="opacity:1;fill:#cccccc" />
    </g>
    <g
       id="#414141ff">
      <path
         id="path25"
         d="M 42,7 C 74.67,7 107.33,7 140,7 L 139.99,8.02 C 107.33,7.97 74.67,8.01 42.01,8 L 42,7 z"
         style="opacity:1;fill:#414141" />
      <path
         id="path27"
         d="M 93.19,240.12 C 93.36,240.31 93.7,240.7 93.87,240.9 L 93.16,240.78 L 93.19,240.12 z"
         style="opacity:1;fill:#414141" />
      <path
         id="path29"
         d="M 101.22,257.15 L 101.88,257.19 C 101.68,257.36 101.29,257.7 101.1,257.87 L 101.22,257.15 z"
         style="opacity:1;fill:#414141" />
    </g>
    <g
       id="#404040ff">
      <path
         id="path32"
         d="M 38.15,8.87 C 38.32,8.68 38.65,8.31 38.82,8.12 L 38.85,8.79 L 38.15,8.87 z"
         style="opacity:1;fill:#404040" />
      <path
         id="path34"
         d="M 148.16,266.19 L 148.84,266.09 C 148.68,266.28 148.36,266.65 148.19,266.84 L 148.16,266.19 z"
         style="opacity:1;fill:#404040" />
      <path
         id="path36"
         d="M 37.14,268.15 L 37.84,268.2 L 37.82,268.88 C 37.65,268.7 37.31,268.33 37.14,268.15 z"
         style="opacity:1;fill:#404040" />
    </g>
    <g
       id="#000000ff">
      <path
         id="path39"
         d="M 38.82,8.12 C 39.62,8.09 41.21,8.03 42.01,8 C 74.67,8.01 107.33,7.97 139.99,8.02 C 140.53,8.04 141.6,8.07 142.14,8.09 L 142.12,8.85 C 142.56,8.89 143.44,8.97 143.88,9.01 C 144.41,8.99 145.48,8.96 146.01,8.94 L 146,10 C 146.5,10 147.5,10 148,10 L 148,11 L 149.22,11.13 L 149.18,11.75 L 149.85,11.9 C 152.26,12.93 154.29,15.37 155.18,17.9 L 156,18 C 156,18.5 156,19.5 156,20 L 157.1,20.04 L 157.01,21.12 C 157.05,21.56 157.11,22.44 157.15,22.88 L 157.92,22.86 C 157.95,23.42 158.01,24.55 158.04,25.12 C 157.94,26.38 157.95,27.64 158.08,28.9 C 157.93,102.96 157.98,177.03 158.05,251.09 C 158.05,251.54 158.03,252.43 158.02,252.88 C 157.99,253.46 157.92,254.62 157.89,255.2 L 157.22,255.16 L 157.1,255.87 L 156.88,257.15 L 156.21,257.14 L 156.11,257.87 L 155.91,259.16 L 155.27,259.15 L 155.12,259.83 C 154.2,262.33 151.19,263.65 149.76,265.94 L 148.84,266.09 L 148.16,266.19 L 148.19,266.84 L 147,267 L 147,267.98 C 146.47,268.03 145.4,268.11 144.86,268.15 L 144.16,268.2 L 144.18,268.88 C 143.61,268.91 142.45,268.96 141.88,268.99 C 141.43,269.03 140.55,269.11 140.11,269.15 L 140.13,269.91 C 107.38,270.06 74.62,270.05 41.86,269.92 L 41.89,269.15 C 41.45,269.11 40.57,269.03 40.13,268.99 C 39.55,268.96 38.39,268.91 37.82,268.88 L 37.84,268.2 L 37.14,268.15 C 36.6,268.11 35.53,268.03 35,267.98 L 35,267 C 34.5,267 33.5,267 33,267 L 33,266 L 32,266 L 32,265 L 31,265 L 31,264 L 29.88,263.83 C 29.7,263.66 29.34,263.3 29.17,263.12 L 29,262 L 28,262 L 28,261 L 27,261 L 27,260 L 26,260 C 26,259.5 26,258.5 26,258 L 25.02,258 C 24.97,257.46 24.89,256.39 24.84,255.86 L 24.79,255.15 L 24.09,255.16 L 24.02,253.9 C 23.97,253.2 23.87,251.82 23.82,251.13 L 23.15,251.13 C 22.9,176.38 22.89,101.61 23.16,26.87 L 23.83,26.87 C 23.87,26.18 23.95,24.81 23.99,24.12 C 23.97,23.59 23.95,22.52 23.94,21.99 L 24.97,22.02 C 25.02,21.47 25.11,20.37 25.16,19.82 L 25.82,19.84 L 25.87,19.13 L 25.95,18.08 L 26.82,17.9 C 27.46,15.11 29.92,13.63 31.87,11.81 L 32,11 C 32.5,11 33.5,11 34,11 L 34.08,9.95 L 35.13,9.87 L 35.84,9.81 L 35.82,9.15 C 36.4,9.08 37.57,8.94 38.15,8.87 L 38.85,8.79 L 38.82,8.12 M 42,10 L 42,11 C 41.25,11 39.75,11 39,11 L 39,12 C 38.5,12 37.5,12 37,12 L 37,13 L 36,13 L 36,14 L 35,14 L 35,15 C 34.5,15 33.5,15 33,15 L 33,16 L 32,16 C 32,16.5 32,17.5 32,18 L 31,18 L 31,19 L 30,19 L 30,20 L 29,20 C 29,20.5 29,21.5 29,22 L 28,22 C 28,22.75 28,24.25 28,25 L 27,25 C 27,34 27,43 27,52 C 27,52.5 27,53.5 27,54 L 26,54 C 26,103 26,152 26,201 L 26,202 C 26,212 26,222 26,232 C 26,239 26,246 26,253 C 26.5,253 27.5,253 28,253 L 28,252 C 28.5,252 29.5,252 30,252 L 30.08,251.16 C 32.56,250.11 35.42,249.32 37.28,247.27 C 41.99,245.12 45.5,241.35 49.77,238.76 C 50.01,238.5 50.5,237.99 50.75,237.73 C 52.59,235.89 54.6,234.14 56.12,232.04 L 57.03,232.03 C 90.02,231.95 123.01,232.03 156,232 L 156,231 C 156,221.33 156,211.66 156,202 L 156,201 C 156,152 156,103 156,54 L 155,54 L 155,53 C 146,53 137,53 128,53 L 127.98,51.99 L 128.88,51.97 C 130.54,47.21 136.21,44.21 138.87,39.79 L 139.15,39.2 C 143.39,32.34 154.79,29.61 155.05,21 L 154.02,20.98 C 153.99,20.53 153.92,19.64 153.88,19.19 C 150.34,15.95 147.12,11.63 142.01,11 L 142,10 C 108.67,10 75.33,10 42,10 M 86.12,239.34 L 86.11,239.95 C 85.33,239.96 83.77,239.97 82.99,239.98 L 83,241 C 82.5,241 81.5,241 81,241 L 81,242 L 79.81,242.17 C 79.64,242.34 79.3,242.69 79.13,242.87 L 78.08,242.95 L 78,244 L 76.95,244.08 L 76.87,245.13 C 76.69,245.3 76.34,245.64 76.17,245.81 L 76,247 L 75,247 C 75,247.5 75,248.5 75,249 L 74,249 C 74,251.66 74,254.33 74,257 L 75,257 C 75,257.5 75,258.5 75,259 L 76,259 L 76.17,260.19 C 76.34,260.36 76.69,260.7 76.87,260.87 L 76.95,261.92 L 78,262 L 78.08,263.05 L 79.13,263.13 C 79.3,263.31 79.64,263.66 79.81,263.83 L 81,264 L 81,265 C 81.5,265 82.5,265 83,265 L 82.99,266.02 C 83.77,266.03 85.33,266.05 86.12,266.06 L 86.12,266.66 C 87.53,267.4 89.48,267.41 90.89,266.65 L 90.9,266.02 L 92.12,265.96 C 92.56,265.71 93.45,265.21 93.89,264.96 L 95.16,264.9 C 95.33,264.71 95.68,264.34 95.86,264.15 L 96.92,264.05 L 97.1,263.21 C 97.38,262.93 97.93,262.38 98.21,262.1 L 99,262 L 99,261 L 100.05,260.92 L 100.14,259.85 C 100.33,259.67 100.69,259.32 100.87,259.14 L 101.1,257.87 C 101.29,257.7 101.68,257.36 101.88,257.19 C 101.89,255.36 101.9,251.69 101.91,249.86 C 101.67,249.42 101.19,248.54 100.95,248.11 L 100.9,246.84 C 100.72,246.67 100.34,246.32 100.15,246.14 L 100.05,245.08 L 99.21,244.9 C 98.93,244.62 98.38,244.07 98.1,243.79 L 98,243 L 97,243 L 96.92,241.94 L 95.85,241.86 C 95.67,241.67 95.32,241.31 95.14,241.13 L 93.87,240.9 C 93.7,240.7 93.36,240.31 93.19,240.12 C 92.62,240.07 91.46,239.99 90.88,239.94 L 90.88,239.33 C 89.47,238.58 87.52,238.58 86.12,239.34 z"
         style="opacity:1;fill:#000000" />
    </g>
    <g
       id="#353535ff">
      <path
         id="path42"
         d="M 142.14,8.09 C 142.57,8.32 143.45,8.78 143.88,9.01 C 143.44,8.97 142.56,8.89 142.12,8.85 L 142.14,8.09 z"
         style="opacity:1;fill:#353535" />
    </g>
    <g
       id="#4f4f4fff">
      <path
         id="path45"
         d="M 35.13,9.87 C 35.31,9.69 35.65,9.33 35.82,9.15 L 35.84,9.81 L 35.13,9.87 z"
         style="opacity:1;fill:#4f4f4f" />
      <path
         id="path47"
         d="M 39.8,117.78 L 41,118 C 41,119.33 41,120.67 41,122 L 40,122 L 40,123 L 35,123 L 34.85,121.85 C 36.23,121.93 37.62,121.99 39.01,122.04 L 39,121 L 40.05,121.02 C 39.99,120.21 39.86,118.59 39.8,117.78 z"
         style="opacity:1;fill:#4f4f4f" />
      <path
         id="path49"
         d="M 79.13,242.87 C 79.3,242.69 79.64,242.34 79.81,242.17 L 79.83,242.82 L 79.13,242.87 z"
         style="opacity:1;fill:#4f4f4f" />
      <path
         id="path51"
         d="M 76.17,245.81 C 76.34,245.64 76.69,245.3 76.87,245.13 L 76.82,245.83 L 76.17,245.81 z"
         style="opacity:1;fill:#4f4f4f" />
      <path
         id="path53"
         d="M 157.22,255.16 L 157.89,255.2 C 157.69,255.37 157.3,255.7 157.1,255.87 L 157.22,255.16 z"
         style="opacity:1;fill:#4f4f4f" />
    </g>
    <g
       id="#242424ff">
      <path
         id="path56"
         d="M 42,10 C 75.33,10 108.67,10 142,10 L 142.01,11 C 108.68,11 75.34,11 42,11 L 42,10 z"
         style="opacity:1;fill:#242424" />
      <path
         id="path58"
         d="M 26,232 L 27,232 C 27,238.66 27,245.33 27,252 L 28,252 L 28,253 C 27.5,253 26.5,253 26,253 C 26,246 26,239 26,232 z"
         style="opacity:1;fill:#242424" />
    </g>
    <g
       id="#393939ff">
      <path
         id="path61"
         d="M 39,11 C 39.75,11 41.25,11 42,11 C 75.34,11 108.68,11 142.01,11 C 147.12,11.63 150.34,15.95 153.88,19.19 C 153.92,19.64 153.99,20.53 154.02,20.98 L 155.05,21 C 154.79,29.61 143.39,32.34 139.15,39.2 L 138.87,39.79 C 136.21,44.21 130.54,47.21 128.88,51.97 L 127.98,51.99 L 127.01,52 L 127,53 C 126.5,53 125.5,53 125,53 L 125,52 C 92.33,52 59.67,52 27,52 C 27,43 27,34 27,25 L 28,25 C 28,24.25 28,22.75 28,22 L 29,22 C 29,21.5 29,20.5 29,20 L 30,20 L 30,19 L 31,19 L 31,18 L 32,18 C 32,17.5 32,16.5 32,16 L 33,16 L 33,15 C 33.5,15 34.5,15 35,15 L 35,14 L 36,14 L 36,13 L 37,13 L 37,12 C 37.5,12 38.5,12 39,12 L 39,11 M 77.95,29.01 C 77.73,29.24 77.28,29.7 77.05,29.93 L 76.4,30.05 C 75.71,31.34 75.71,32.63 76.37,33.93 L 77,34.03 C 77.19,34.22 77.57,34.62 77.76,34.82 L 78.96,34.91 L 79,36 C 87.05,35.97 95.1,36.14 103.15,35.83 C 103.33,35.65 103.69,35.29 103.87,35.11 L 105.06,35.06 L 105.03,33.9 L 105.68,33.89 C 106.4,32.63 106.4,31.37 105.68,30.11 L 105.03,30.1 L 105.06,28.94 L 103.87,28.89 C 103.69,28.71 103.33,28.35 103.15,28.17 C 95.04,27.76 86.89,27.95 78.78,28.24 C 78.58,28.43 78.16,28.82 77.95,29.01 z"
         style="opacity:1;fill:#393939" />
    </g>
    <g
       id="#464646ff">
      <path
         id="path64"
         d="M 149.22,11.13 C 149.37,11.32 149.69,11.71 149.85,11.9 L 149.18,11.75 L 149.22,11.13 z"
         style="opacity:1;fill:#464646" />
      <path
         id="path66"
         d="M 25.16,19.82 C 25.33,19.65 25.69,19.31 25.87,19.13 L 25.82,19.84 L 25.16,19.82 z"
         style="opacity:1;fill:#464646" />
      <path
         id="path68"
         d="M 155,54 L 156,54 C 156,103 156,152 156,201 L 155,201 C 155,152 155,103 155,54 z"
         style="opacity:1;fill:#464646" />
      <path
         id="path70"
         d="M 76.17,260.19 L 76.82,260.17 L 76.87,260.87 C 76.69,260.7 76.34,260.36 76.17,260.19 z"
         style="opacity:1;fill:#464646" />
      <path
         id="path72"
         d="M 79.13,263.13 L 79.83,263.18 L 79.81,263.83 C 79.64,263.66 79.3,263.31 79.13,263.13 z"
         style="opacity:1;fill:#464646" />
      <path
         id="path74"
         d="M 144.16,268.2 L 144.86,268.15 C 144.69,268.33 144.35,268.7 144.18,268.88 L 144.16,268.2 z"
         style="opacity:1;fill:#464646" />
    </g>
    <g
       id="#494949ff">
      <path
         id="path77"
         d="M 157.01,21.12 C 157.24,21.55 157.69,22.42 157.92,22.86 L 157.15,22.88 C 157.11,22.44 157.05,21.56 157.01,21.12 z"
         style="opacity:1;fill:#494949" />
    </g>
    <g
       id="#3c3c3cff">
      <path
         id="path80"
         d="M 23.28,24.12 L 23.99,24.12 C 23.95,24.81 23.87,26.18 23.83,26.87 L 23.16,26.87 C 23.19,26.18 23.25,24.8 23.28,24.12 z"
         style="opacity:1;fill:#3c3c3c" />
    </g>
    <g
       id="#bfc0c1ff">
      <path
         id="path83"
         d="M 16.19,25.08 L 16.97,25.09 C 16.96,25.55 16.94,26.47 16.93,26.93 L 16.06,26.93 C 16.09,26.46 16.16,25.54 16.19,25.08 z"
         style="opacity:1;fill:#bfc0c1" />
      <path
         id="path85"
         d="M 84.14,97.12 L 84.9,97.14 C 84.68,97.58 84.23,98.45 84.01,98.89 C 84.04,98.44 84.1,97.56 84.14,97.12 z"
         style="opacity:1;fill:#bfc0c1" />
      <path
         id="path87"
         d="M 164.22,255.09 L 165.01,255.1 C 164.98,255.56 164.92,256.49 164.89,256.95 L 164.1,256.94 C 164.13,256.48 164.19,255.55 164.22,255.09 z"
         style="opacity:1;fill:#bfc0c1" />
      <path
         id="path89"
         d="M 35.1,274.99 C 35.56,275.04 36.47,275.15 36.92,275.2 L 36.9,276 C 36.44,275.95 35.53,275.84 35.08,275.79 L 35.1,274.99 z"
         style="opacity:1;fill:#bfc0c1" />
    </g>
    <g
       id="#313131ff">
      <path
         id="path92"
         d="M 158.04,25.12 L 158.68,25.12 C 159.4,26.36 159.42,27.62 158.76,28.89 L 158.08,28.9 C 157.95,27.64 157.94,26.38 158.04,25.12 z"
         style="opacity:1;fill:#313131" />
      <path
         id="path94"
         d="M 86.12,239.34 C 87.52,238.58 89.47,238.58 90.88,239.33 L 90.88,239.94 C 89.29,240.06 87.7,240.07 86.11,239.95 L 86.12,239.34 z"
         style="opacity:1;fill:#313131" />
    </g>
    <g
       id="#a0a1a1ff">
      <path
         id="path97"
         d="M 165,26 L 166,26 C 166,101 166,176 166,251 L 164.99,251 C 165.02,176 164.99,101 165,26 z"
         style="opacity:1;fill:#a0a1a1" />
      <path
         id="path99"
         d="M 103.15,28.17 C 103.33,28.35 103.69,28.71 103.87,28.89 L 103.12,28.88 L 103.15,28.17 z"
         style="opacity:1;fill:#a0a1a1" />
      <path
         id="path101"
         d="M 30,58 L 31,58 C 39.67,58 48.33,58 57,58 C 57,58.5 57,59.5 57,60 C 48,60 39,60 30,60 C 30,59.5 30,58.5 30,58 z"
         style="opacity:1;fill:#a0a1a1" />
      <path
         id="path103"
         d="M 80,58 C 86.67,58 93.33,58 100,58 C 100,58.5 100,59.5 100,60 C 93.33,60 86.67,60 80,60 C 80,59.5 80,58.5 80,58 z"
         style="opacity:1;fill:#a0a1a1" />
      <path
         id="path105"
         d="M 71.13,150.92 C 71.3,150.72 71.63,150.31 71.8,150.11 L 71.85,150.77 L 71.13,150.92 z"
         style="opacity:1;fill:#a0a1a1" />
      <path
         id="path107"
         d="M 106,155 C 106.5,155 107.5,155 108,155 L 108,156 C 108.75,156 110.25,156 111,156 L 111,157 C 111.5,157 112.5,157 113,157 L 113,158 L 114,158 L 114,159 L 115,159 C 115,159.5 115,160.5 115,161 L 116,161 C 116,162.33 116,163.66 116,165 C 110.33,165 104.67,165 99,165 L 98,165 C 98,164.5 98,163.5 98,163 L 98.89,162.98 C 99,159.43 102.24,155.49 105.99,155.92 L 106,155 M 105,157 L 105,158 C 104.5,158 103.5,158 103,158 L 103,159 L 102,159 L 102,160 L 101,160 C 101,160.75 101,162.25 101,163 L 100,163 L 100,164 C 104.67,164 109.33,163.99 114,164 C 114,163.25 114,161.75 114,161 L 113,161 L 113,160 L 112,160 L 112,159 L 111,159 L 111,158 C 110.5,158 109.5,158 109,158 L 109,157 C 107.67,157 106.33,157 105,157 z"
         style="opacity:1;fill:#a0a1a1" />
      <path
         id="path109"
         d="M 76,202 L 77,202 C 103,202 129,202 155,202 L 155,203 C 128.67,203 102.33,203 76,203 L 76,202 z"
         style="opacity:1;fill:#a0a1a1" />
    </g>
    <g
       id="#949495ff">
      <path
         id="path112"
         d="M 16.06,26.93 L 16.93,26.93 C 17.09,101.95 16.97,176.98 16.98,252 L 16,252 C 16.04,176.98 15.92,101.95 16.06,26.93 z"
         style="opacity:1;fill:#949495" />
    </g>
    <g
       id="#8f8f90ff">
      <path
         id="path115"
         d="M 77.95,29.01 C 78.16,28.82 78.58,28.43 78.78,28.24 L 78.76,28.99 L 77.95,29.01 z"
         style="opacity:1;fill:#8f8f90" />
      <path
         id="path117"
         d="M 155,202 L 156,202 C 156,211.66 156,221.33 156,231 L 155,231 C 155,221.66 155,212.33 155,203 L 155,202 z"
         style="opacity:1;fill:#8f8f90" />
    </g>
    <g
       id="#e8e8e8ff">
      <path
         id="path120"
         d="M 78.78,28.24 C 86.89,27.95 95.04,27.76 103.15,28.17 L 103.12,28.88 C 95,29.05 86.88,28.98 78.76,28.99 L 78.78,28.24 z"
         style="opacity:1;fill:#e8e8e8" />
    </g>
    <g
       id="#b2b4b5ff">
      <path
         id="path123"
         d="M 77.05,29.93 C 77.28,29.7 77.73,29.24 77.95,29.01 L 77.83,29.8 L 77.05,29.93 z"
         style="opacity:1;fill:#b2b4b5" />
      <path
         id="path125"
         d="M 76.2,150.11 C 76.37,150.31 76.7,150.72 76.87,150.92 L 76.15,150.77 L 76.2,150.11 z"
         style="opacity:1;fill:#b2b4b5" />
      <path
         id="path127"
         d="M 99,165 C 104.67,165 110.33,165 116,165 L 116,166 C 110.33,166 104.67,166 99,166 L 99,165 z"
         style="opacity:1;fill:#b2b4b5" />
      <path
         id="path129"
         d="M 27,202 C 43.33,202 59.66,202 76,202 L 76,203 C 59.67,203 43.33,203 27,203 L 27,202 z"
         style="opacity:1;fill:#b2b4b5" />
      <path
         id="path131"
         d="M 76,203 C 102.33,203 128.67,203 155,203 C 155,212.33 155,221.66 155,231 C 122.62,230.98 90.23,231.04 57.85,230.97 C 58.28,227.93 61.6,226.54 63.1,224.08 L 64,224 C 64,224.5 64,225.5 64,226 L 65,226 L 65,227 C 70.67,226.99 76.33,227 82,227 L 82,226 L 83,226 L 83,225 L 84,225 C 84,218.99 84,213 84,207 L 83,207 L 83,206 L 82,206 L 82,205 C 80.25,205 76.75,205 75,205 L 75,204 L 76,204 L 76,203 M 98,205 L 98,206 C 97.5,206 96.5,206 96,206 C 96,206.5 96,207.5 96,208 L 95,208 C 95,213.66 95,219.33 95,225 L 96,225 L 96,226 L 97,226 L 97,227 C 102.67,227 108.33,226.99 114,227 L 114,226 L 115,226 L 115,225 L 116,225 C 116,219 116,212.99 116,207 L 115,207 L 115,206 L 114,206 L 114,205 C 108.66,205 103.33,205 98,205 M 129,205 L 129,206 L 129,207 L 128,207 L 127,207 C 127,213 127,218.99 127,225 L 128,225 L 128,226 L 129,226 L 129,227 C 134.66,227 140.33,226.99 146,227 L 146,226 L 147,226 L 147,225 L 148,225 C 148.03,219.62 148,214.24 147.9,208.86 C 147.68,208.43 147.23,207.55 147.01,207.11 L 147.09,206.02 L 146.02,206.01 L 146,205 C 140.33,205 134.66,205 129,205 z"
         style="opacity:1;fill:#b2b4b5" />
      <path
         id="path133"
         d="M 85.13,254.17 C 87.35,253.8 89.65,253.8 91.88,254.18 L 91.85,254.71 C 89.74,255.32 87.26,255.32 85.15,254.71 L 85.13,254.17 z"
         style="opacity:1;fill:#b2b4b5" />
      <path
         id="path135"
         d="M 79,277 C 88,277 97,277 106,277 L 106,278 C 97,278 88,278 79,278 L 79,277 z"
         style="opacity:1;fill:#b2b4b5" />
    </g>
    <g
       id="#ffffffff">
      <path
         id="path138"
         d="M 77.95,29.01 L 78.76,28.99 C 86.88,28.98 95,29.05 103.12,28.88 L 103.87,28.89 L 105.06,28.94 L 105.03,30.1 C 104.93,31.37 104.93,32.63 105.03,33.9 L 105.06,35.06 L 103.87,35.11 L 103.12,35.12 C 95.07,34.89 87.01,35.17 78.96,34.91 L 77.76,34.82 L 77.74,34.11 L 77,34.03 C 77.11,32.66 77.13,31.29 77.05,29.93 L 77.83,29.8 L 77.95,29.01 z"
         style="opacity:1;fill:#ffffff" />
      <path
         id="path140"
         d="M 164.98,253 C 165.74,253 167.25,253 168.01,253 L 168,254 C 168.5,254 169.5,254 170,254 L 170.11,254.8 C 172.64,255.83 175.21,256.89 177.28,258.74 C 177.7,258.82 178.54,258.97 178.96,259.05 L 179.16,259.77 C 181.09,261.6 183.3,263.24 184.24,265.85 L 185.09,266.03 C 186.16,276.13 175.39,281.84 167.07,284.22 L 167,285 C 166.5,285 165.5,285 165,285 L 165,286 C 164.25,286 162.75,286 162,286 L 162,287 C 161.25,287 159.75,287 159,287 L 158.95,287.93 C 155.31,288.65 151.71,289.57 148.04,290.15 L 148,291 L 143,291 L 143,292 L 138,292 L 138,293 C 136.25,293 132.75,293 131,293 L 131,294 C 128.33,294 125.67,294 123,294 L 123,295 C 120.25,295 114.75,295 112,295 L 112,296 C 99.33,296 86.67,296 74,296 L 74,295 C 70,294.99 66,294.99 62,295 L 62,294 C 59.33,294 56.67,293.99 54,294 L 54,293 C 52.5,293 49.5,293 48,293 L 48,292 C 46.5,292 43.5,292 42,292 L 42,291 L 37,291 L 37,290 C 35.67,290 34.33,290 33,290 L 32.95,289.08 C 29.65,288.35 26.35,287.63 23.05,286.92 L 23,286 C 22.25,286 20.75,286 20,286 L 19.9,285.18 C 15.35,283.21 10.7,281.28 6.71,278.3 L 6,278 L 6,277 C 5.5,277 4.5,277 4,277 C 4,276.5 4,275.5 4,275 L 3,275 L 3,274 L 2,274 L 2,273 C 1.5,273 0.5,273 0,273 L 0,265 C 0.5,265 1.5,265 2,265 L 2,264 L 3,264 C 3,263.5 3,262.5 3,262 L 4,262 L 4,261 C 4.5,261 5.5,261 6,261 L 6,260 L 7,260 L 7,259 L 8,259 L 8.04,258.05 C 8.46,257.97 9.3,257.82 9.72,257.74 C 11.79,255.86 14.38,254.79 16.97,253.86 C 16.97,254.39 16.98,255.46 16.98,256 C 16.99,256.75 17,258.25 17.01,259 C 16.5,259 15.5,259 15,259 L 15,260 C 14.5,260 13.5,260 13,260 L 13,261 L 12,261 C 12,261.5 12,262.5 12,263 C 11.5,263 10.5,263 10,263 C 10,264.33 10,265.66 10,267 C 9.5,267 8.5,267 8,267 L 8,268 L 9,268 C 9,268.75 9,270.25 9,271 L 10.22,271.11 C 9.94,271.39 9.39,271.94 9.11,272.22 L 9,273 L 10,273 L 10,274 L 11,274 C 11,274.5 11,275.5 11,276 L 12,276 L 12.16,276.75 C 14.88,278.02 16.75,280.96 19.93,281.22 L 20,282 L 21,282 L 21.07,282.78 C 23.9,283.32 26.43,284.76 29.03,285.93 L 29,285 L 30,285 L 30,286 C 30.5,286 31.5,286 32,286 L 32,287 C 32.75,287 34.25,287 35,287 L 35,288 L 40,288 L 40,289 C 40.75,289 42.25,289 43,289 L 43,290 C 44.33,290 45.67,290 47,290 L 47.11,291.22 C 47.39,290.94 47.94,290.39 48.22,290.11 L 49,290 L 49,291 C 50.75,291 54.25,291 56,291 L 56,292 C 57.5,292 60.5,292 62,292 L 62,293 C 66,292.99 70,292.99 74,293 L 74,294 C 87.33,294 100.67,294 114,294 L 114,293 C 116.98,292.95 120.01,293.02 123,293 L 123.11,291.78 C 123.39,292.06 123.94,292.61 124.22,292.89 L 125,293 L 125,292 L 130,292 L 130,291 C 131.5,291 134.5,291 136,291 L 136,290 C 137.75,290 141.25,290 143,290 L 143,289 C 143.75,289 145.25,289 146,289 L 146,288 C 146.75,288 148.25,288 149,288 L 149,287 L 149.81,287.12 C 150.02,287.33 150.43,287.75 150.63,287.96 C 153.39,286.54 156.28,285.32 159.27,284.31 C 159.89,284.16 161.11,283.86 161.72,283.71 C 165.63,280.91 170.38,279.27 173.22,275.16 L 174,275 L 174,274 C 174.5,274 175.5,274 176,274 L 176,273 L 175,273 L 175,272 C 175.5,272 176.5,272 177,272 C 177,270.66 177,269.33 177,268 L 176,268 C 176,267.25 176,265.75 176,265 L 175,265 C 175,264.5 175,263.5 175,263 C 174.5,263 173.5,263 173,263 C 173,262.25 173,260.75 173,260 L 172,260 L 172,261 L 171,261 L 171,260 L 170,260 L 170,259 L 169,259 L 169,258 C 168.5,258 167.5,258 167,258 L 167,257 C 166.47,256.99 165.42,256.97 164.89,256.95 C 164.92,256.49 164.98,255.56 165.01,255.1 C 165,254.58 164.99,253.53 164.98,253 z"
         style="opacity:1;fill:#ffffff" />
    </g>
    <g
       id="#111111ff">
      <path
         id="path143"
         d="M 158.08,28.9 L 158.76,28.89 C 159.23,102.95 159.02,177.04 158.86,251.11 L 158.05,251.09 C 157.98,177.03 157.93,102.96 158.08,28.9 z"
         style="opacity:1;fill:#111111" />
    </g>
    <g
       id="#8c8d8dff">
      <path
         id="path146"
         d="M 76.4,30.05 L 77.05,29.93 C 77.13,31.29 77.11,32.66 77,34.03 L 76.37,33.93 C 75.71,32.63 75.71,31.34 76.4,30.05 z"
         style="opacity:1;fill:#8c8d8d" />
    </g>
    <g
       id="#b2b2b2ff">
      <path
         id="path149"
         d="M 105.03,30.1 L 105.68,30.11 C 106.4,31.37 106.4,32.63 105.68,33.89 L 105.03,33.9 C 104.93,32.63 104.93,31.37 105.03,30.1 z"
         style="opacity:1;fill:#b2b2b2" />
    </g>
    <g
       id="#9a9a9aff">
      <path
         id="path152"
         d="M 77,34.03 L 77.74,34.11 L 77.76,34.82 C 77.57,34.62 77.19,34.22 77,34.03 z"
         style="opacity:1;fill:#9a9a9a" />
    </g>
    <g
       id="#cacacaff">
      <path
         id="path155"
         d="M 78.96,34.91 C 87.01,35.17 95.07,34.89 103.12,35.12 L 103.15,35.83 C 95.1,36.14 87.05,35.97 79,36 L 78.96,34.91 z"
         style="opacity:1;fill:#cacaca" />
    </g>
    <g
       id="#828383ff">
      <path
         id="path158"
         d="M 103.12,35.12 L 103.87,35.11 C 103.69,35.29 103.33,35.65 103.15,35.83 L 103.12,35.12 z"
         style="opacity:1;fill:#828383" />
    </g>
    <g
       id="#3e3e3eff">
      <path
         id="path161"
         d="M 27,52 C 59.67,52 92.33,52 125,52 L 125,53 C 125.5,53 126.5,53 127,53 L 127,54 L 126,54 C 93,54 60,54 27,54 C 27,53.5 27,52.5 27,52 z"
         style="opacity:1;fill:#3e3e3e" />
    </g>
    <g
       id="#121212ff">
      <path
         id="path164"
         d="M 127.01,52 L 127.98,51.99 L 128,53 C 137,53 146,53 155,53 L 155,54 C 145.66,54 136.33,54 127,54 L 127,53 L 127.01,52 z"
         style="opacity:1;fill:#121212" />
    </g>
    <g
       id="#5a5a5aff">
      <path
         id="path167"
         d="M 26,54 L 27,54 C 27,103 27,152 27,201 L 26,201 C 26,152 26,103 26,54 z"
         style="opacity:1;fill:#5a5a5a" />
      <path
         id="path169"
         d="M 35.08,116.36 C 36.37,115.69 37.65,115.69 38.93,116.37 L 39.02,117.01 C 37.68,117.12 36.34,117.12 35.01,117 L 35.08,116.36 z"
         style="opacity:1;fill:#5a5a5a" />
      <path
         id="path171"
         d="M 44,117.96 C 44.23,117.74 44.69,117.3 44.92,117.07 L 44.79,117.84 L 44,117.96 z"
         style="opacity:1;fill:#5a5a5a" />
      <path
         id="path173"
         d="M 49.15,121.19 L 49.91,121.07 C 49.7,121.29 49.26,121.74 49.04,121.96 L 49.15,121.19 z"
         style="opacity:1;fill:#5a5a5a" />
      <path
         id="path175"
         d="M 48.29,122.07 L 49.04,121.96 C 48.85,122.17 48.46,122.57 48.27,122.78 L 48.29,122.07 z"
         style="opacity:1;fill:#5a5a5a" />
    </g>
    <g
       id="#787878ff">
      <path
         id="path178"
         d="M 27,54 C 60,54 93,54 126,54 L 126,55 L 125,55 L 125,56 L 124.25,56.16 C 123.08,58.6 121,60.39 119.66,62.71 C 117.89,64.92 116.09,67.1 114.27,69.26 C 112.74,71.77 111.26,74.31 109.82,76.88 L 109,77 L 109,78 L 108,78 L 108,79 C 109.75,79 113.25,79 115,79 L 115,80 C 109.33,80 103.66,80 98,80 L 98,81 L 97,81 C 97,87.01 96.98,93.02 97.02,99.03 L 96.12,99.07 C 95.03,102.03 93.43,104.82 92.78,107.93 L 92.21,108.08 C 89.73,115.91 85.78,123.59 85.92,132 L 85,132 C 85,126.33 85,120.66 85,115 L 84,115 L 84,114 C 83.5,114 82.5,114 82,114 L 82,113 C 76.67,113 71.33,113 66,113 L 66,114 L 65,114 L 65,115 L 64,115 C 64,121 64,127 64,133 L 65,133 L 65,134 C 71.33,134 77.67,134 84,134 C 84,133.5 84,132.5 84,132 L 85,132 C 85,137.66 85,143.33 85,149 L 84,149 L 84,148 L 83,148 L 83,147 C 77.33,147 71.66,147 66,147 L 66,148 L 65,148 L 65,149 L 64,149 C 64,154.66 64,160.33 64,166 L 65,166 L 65,167 L 66,167 L 66,168 C 71.67,168 77.33,168 83,168 L 83,167 L 84,167 L 84,166 L 85,166 C 85,168.66 85,171.33 85,174 L 84,174 C 84,175.5 84,178.5 84,180 L 83,180 L 83,185 L 82.11,185 C 82.26,190.31 78.98,194.87 77.79,199.92 L 77,200 C 77,200.5 77,201.5 77,202 L 76,202 C 59.66,202 43.33,202 27,202 L 26,202 L 26,201 L 27,201 C 27,152 27,103 27,54 M 31,57 L 31,58 L 30,58 C 30,58.5 30,59.5 30,60 L 30,61 C 39,61 48,61 57,61 L 57,60 C 57,59.5 57,58.5 57,58 L 57,57 C 48.33,57 39.67,57 31,57 M 80,57 L 80,58 C 80,58.5 80,59.5 80,60 L 80,61 C 86.67,61 93.33,61 100,61 L 100,60 C 100,59.5 100,58.5 100,58 L 100,57 C 93.33,57 86.67,57 80,57 M 35,79 L 35,80 C 34.5,80 33.5,80 33,80 L 33,81 L 32,81 L 32,82 L 31,82 C 31,87.33 31,92.67 31,98 L 32,98 L 32,99 L 33,99 L 33,100 L 34,100 L 34,101 C 39.33,101 44.67,101 50,101 L 50,100 C 50.5,100 51.5,100 52,100 C 52,99.5 52,98.5 52,98 L 53,98 C 53,94.25 53,86.75 53,83 L 52,83 C 52,82.5 52,81.5 52,81 L 51,81 L 51,80 L 50,80 L 50,79 C 46.25,79 38.75,79 35,79 M 66,79 L 66,80 C 65.5,80 64.5,80 64,80 C 64,81.75 64,85.25 64,87 C 64,91 64,95 64,99 L 65,99 L 65,100 L 66,100 L 66,101 C 71.67,101 77.33,101 83,101 L 83.02,99.99 L 84.09,99.98 L 84.01,98.89 C 84.23,98.45 84.68,97.58 84.9,97.14 C 85.07,93.76 84.99,90.37 85,87 C 85,85.5 85,82.5 85,81 L 84,81 L 84,80 C 83.5,80 82.5,80 82,80 L 82,79 C 76.67,79 71.33,79 66,79 M 34,113 L 34,114 C 33.5,114 32.5,114 32,114 C 32,114.75 32,116.25 32,117 L 31,117 C 31,121.33 31,125.66 31,130 L 32,130 C 32,130.75 32,132.25 32,133 L 33,133 L 33,134 C 39,134 45,134 51,134 L 51,133 L 52,133 L 52,132 L 53,132 C 53,126.66 53,121.33 53,116 L 52,116 C 52,115.5 52,114.5 52,114 C 51.5,114 50.5,114 50,114 L 50,113 C 44.67,113 39.33,113 34,113 M 32,147 C 32,147.5 32,148.5 32,149 L 31,149 C 31,154.33 31,159.66 31,165 L 32.01,165 C 32.01,165.52 32.02,166.57 32.03,167.09 L 33.12,167.01 C 33.55,167.23 34.42,167.68 34.86,167.9 C 39.62,168.12 44.38,167.98 49.14,167.9 C 49.57,167.68 50.45,167.23 50.88,167.01 L 51.97,167.1 L 51.99,166.02 L 53,166 C 53,161.66 53,157.33 53,153 C 53,151.33 53,149.66 53,148 L 52,148 L 52,147 C 45.33,147 38.67,147 32,147 z"
         style="opacity:1;fill:#787878" />
    </g>
    <g
       id="#585858ff">
      <path
         id="path181"
         d="M 126,54 L 127,54 C 136.33,54 145.66,54 155,54 C 155,103 155,152 155,201 L 156,201 L 156,202 L 155,202 C 129,202 103,202 77,202 C 77,201.5 77,200.5 77,200 L 77.79,199.92 C 78.98,194.87 82.26,190.31 82.11,185 L 83,185 L 83,180 L 84,180 C 84,178.5 84,175.5 84,174 L 85,174 C 85,171.33 85,168.66 85,166 L 84,166 L 84,165 L 85,165 L 85,164 L 86,164 C 86,160.25 86,152.75 86,149 L 85,149 C 85,143.33 85,137.66 85,132 L 85.92,132 C 85.78,123.59 89.73,115.91 92.21,108.08 L 92.78,107.93 C 93.43,104.82 95.03,102.03 96.12,99.07 L 97.02,99.03 L 97.98,98.98 L 98,100 L 99,100 L 99,101 C 104.33,101 109.67,101 115,101 L 115,100 C 115.5,100 116.5,100 117,100 L 117,99 L 118,99 C 118,93.33 118,87.66 118,82 L 117,82 L 117,81 L 116,81 L 116,80 L 115,80 L 115,79 C 113.25,79 109.75,79 108,79 L 108,78 L 109,78 L 109,77 L 109.82,76.88 C 111.26,74.31 112.74,71.77 114.27,69.26 C 116.09,67.1 117.89,64.92 119.66,62.71 C 121,60.39 123.08,58.6 124.25,56.16 L 125,56 L 125,55 L 126,55 L 126,54 M 139,58 C 139,58.75 139,60.25 139,61 C 141.75,61 147.25,61 150,61 C 150,60.25 150,58.75 150,58 C 147.25,58 141.75,58 139,58 M 133,79 L 133,80 C 132.5,80 131.5,80 131,80 L 131,81 L 130,81 C 130,81.5 130,82.5 130,83 L 129,83 C 129,87.67 128.99,92.33 129,97 L 130,97 C 130,97.5 130,98.5 130,99 L 131,99 L 131,100 L 132,100 L 132,101 C 137.66,101 143.33,101 149,101 L 149,100 L 150,100 L 150,99 L 151,99 C 151,93.33 151,87.66 151,82 L 150,82 L 150,81 L 149,81 L 149,80 L 148,80 L 148,79 C 144.25,79 136.75,79 133,79 M 99,113 L 99,114 L 98,114 L 98,115 L 97,115 C 97,115.5 97,116.5 97,117 L 96,117 C 96,121.67 96,126.33 96,131 L 97,131 C 97,131.5 97,132.5 97,133 L 98,133 L 98,134 C 98.5,134 99.5,134 100,134 L 100,135 C 103.75,135 111.25,135 115,135 L 115,134 L 116,134 L 116,133 L 117,133 L 117,132 L 118,132 C 118,126.33 118,120.66 118,115 L 117,115 L 117,114 L 116,114 L 116,113 C 110.33,113 104.66,113 99,113 M 132,113 L 132,114 L 131,114 L 131,115 L 130,115 C 130,115.5 130,116.5 130,117 L 129,117 C 129,121.67 128.99,126.33 129,131 L 130,131 C 130,131.5 130,132.5 130,133 L 131,133 L 131,134 C 131.5,134 132.5,134 133,134 L 133,135 C 136.75,135 144.25,135 148,135 L 148,134 L 149,134 L 149,133 L 150,133 L 150,132 L 151,132 C 151,126.66 151,121.33 151,116 L 150,116 C 150,115.5 150,114.5 150,114 C 149.5,114 148.5,114 148,114 L 148,113 C 142.66,113 137.33,113 132,113 M 98.13,147.86 L 97.05,147.95 C 97.04,148.47 97.02,149.49 97.01,150 L 96,150 C 96,153.75 96,161.25 96,165 L 97,165 L 97,166 L 98,166 L 98,167 L 99,167 L 99,168 C 104.67,168 110.33,168 116,168 L 116,167 L 117,167 L 117,166 L 118,166 C 118,160.33 118,154.66 118,149 L 117,149 L 117,148 L 116,148 L 116,147 C 110.27,147 104.55,146.94 98.82,147.13 C 98.65,147.31 98.31,147.68 98.13,147.86 z"
         style="opacity:1;fill:#585858" />
      <path
         id="path183"
         d="M 35.07,125.36 C 36.37,124.7 37.66,124.71 38.95,125.39 L 39.06,126.05 C 37.7,126.12 36.34,126.1 34.98,125.98 L 35.07,125.36 z"
         style="opacity:1;fill:#585858" />
      <path
         id="path185"
         d="M 45.07,125.37 C 46.37,124.7 47.66,124.71 48.95,125.39 L 49.06,126.05 C 47.7,126.12 46.34,126.11 44.98,126 L 45.07,125.37 z"
         style="opacity:1;fill:#585858" />
    </g>
    <g
       id="#8c8c8cff">
      <path
         id="path188"
         d="M 31,57 C 39.67,57 48.33,57 57,57 L 57,58 C 48.33,58 39.67,58 31,58 L 31,57 z"
         style="opacity:1;fill:#8c8c8c" />
      <path
         id="path190"
         d="M 80,57 C 86.67,57 93.33,57 100,57 L 100,58 C 93.33,58 86.67,58 80,58 L 80,57 z"
         style="opacity:1;fill:#8c8c8c" />
      <path
         id="path192"
         d="M 80,60 C 86.67,60 93.33,60 100,60 L 100,61 C 93.33,61 86.67,61 80,61 L 80,60 z"
         style="opacity:1;fill:#8c8c8c" />
    </g>
    <g
       id="#999a9aff">
      <path
         id="path195"
         d="M 139,58 C 141.75,58 147.25,58 150,58 C 150,58.75 150,60.25 150,61 C 147.25,61 141.75,61 139,61 C 139,60.25 139,58.75 139,58 z"
         style="opacity:1;fill:#999a9a" />
    </g>
    <g
       id="#999966ff">
      <path
         id="path198"
         d="M 35,79 C 38.75,79 46.25,79 50,79 L 50,80 C 45,80 40,80 35,80 L 35,79 z"
         style="opacity:1;fill:#999966" />
      <path
         id="path200"
         d="M 31,82 L 32,82 C 32,87.33 32,92.66 32,98 L 31,98 C 31,92.67 31,87.33 31,82 z"
         style="opacity:1;fill:#999966" />
    </g>
    <g
       id="#c79a94ff">
      <path
         id="path203"
         d="M 66,79 C 71.33,79 76.67,79 82,79 L 82,80 C 76.66,80 71.33,80 66,80 L 66,79 z"
         style="opacity:1;fill:#c79a94" />
    </g>
    <g
       id="#777777ff">
      <path
         id="path206"
         d="M 133,79 C 136.75,79 144.25,79 148,79 L 148,80 C 142.99,80 138,80 133,80 L 133,79 z"
         style="opacity:1;fill:#777777" />
    </g>
    <g
       id="#d8e63fff">
      <path
         id="path209"
         d="M 33,80 C 33.5,80 34.5,80 35,80 C 40,80 45,80 50,80 L 51,80 L 51,81 L 52,81 C 52,81.5 52,82.5 52,83 C 52,88 52,93 52,98 C 52,98.5 52,99.5 52,100 C 51.5,100 50.5,100 50,100 C 44.66,100 39.33,100 34,100 L 33,100 L 33,99 L 32,99 L 32,98 C 32,92.66 32,87.33 32,82 L 32,81 L 33,81 L 33,80 z"
         style="opacity:1;fill:#d8e63f" />
    </g>
    <g
       id="#fe9a66ff">
      <path
         id="path212"
         d="M 64,80 C 64.5,80 65.5,80 66,80 C 71.33,80 76.66,80 82,80 C 82.5,80 83.5,80 84,80 L 84,81 L 85,81 C 85,82.5 85,85.5 85,87 L 84,87 C 77.66,87 71.33,87 65,87 L 64,87 C 64,85.25 64,81.75 64,80 z"
         style="opacity:1;fill:#fe9a66" />
    </g>
    <g
       id="#87afd9ff">
      <path
         id="path215"
         d="M 98,80 C 103.66,80 109.33,80 115,80 L 116,80 L 116,81 L 117,81 L 117,82 C 117,87.67 117,93.33 117,99 L 117,100 C 116.5,100 115.5,100 115,100 C 109.66,100 104.33,100 99,100 L 98,100 L 97.98,98.98 L 97.02,99.03 C 96.98,93.02 97,87.01 97,81 L 98,81 L 98,80 M 107.01,84.01 L 106.43,83.61 L 105.88,83.19 L 105.22,83.21 L 104.66,83.64 C 104.3,83.8 103.57,84.12 103.21,84.28 L 103.21,84.83 L 103.95,85.1 L 104.03,85.85 C 103.57,85.93 102.63,86.1 102.17,86.19 L 102.17,86.81 C 102.63,86.9 103.57,87.07 104.03,87.15 L 104,88 C 103.5,88 102.5,88 102,88 L 102,89 C 102.5,89 103.5,89 104,89 L 104.02,89.87 L 103.27,90.09 L 103.15,90.72 L 103.55,91.33 C 103.73,91.7 104.09,92.45 104.27,92.82 L 104.87,92.8 L 105.15,92.03 L 106,92 C 106,92.5 106,93.5 106,94 L 107,94 C 107,93.5 107,92.5 107,92 L 108,92 C 108,92.5 108,93.5 108,94 L 109.07,93.92 L 109.14,92.9 C 109.4,93.13 109.91,93.59 110.17,93.83 L 110.75,93.77 C 110.9,93.41 111.21,92.68 111.36,92.32 L 111.85,91.71 C 111.85,91.34 111.85,90.59 111.85,90.21 L 113,90 C 113,89.5 113,88.5 113,88 L 114,88 L 114,87 L 113,87 L 113,86 L 114,86 L 114,85 C 113.5,85 112.5,85 112,85 L 112,84 C 111.5,84 110.5,84 110,84 L 110,83 L 109,83 L 108.93,83.92 L 107.83,83.97 C 109.3,81.76 105.71,81.78 107.01,84.01 z"
         style="opacity:1;fill:#87afd9" />
    </g>
    <g
       id="#b0b2b3ff">
      <path
         id="path218"
         d="M 131,80 C 131.5,80 132.5,80 133,80 C 138,80 142.99,80 148,80 L 149,80 L 149,81 L 150,81 L 150,82 C 150,87.67 150,93.33 150,99 L 150,100 L 149,100 C 143.33,100 137.66,100 132,100 L 131,100 L 131,99 L 130,99 C 130,98.5 130,97.5 130,97 C 129.99,92.33 130,87.67 130,83 C 130,82.5 130,81.5 130,81 L 131,81 L 131,80 M 132.96,92.99 L 134,93 C 134,93.5 134,94.5 134,95 L 135,95 L 135,96 C 135.5,96 136.5,96 137,96 L 137,97 C 138.75,97 142.25,97 144,97 L 144,96 L 145,96 L 145,95 L 146,95 L 146,94 L 147.06,94.01 C 147.06,93.48 147.05,92.42 147.04,91.89 L 147.69,91.89 C 148.41,90.63 148.41,89.37 147.69,88.11 L 147.04,88.11 C 147.05,87.58 147.06,86.52 147.06,85.99 L 146,86 L 146,85 L 145,85 L 145,84 C 144.5,84 143.5,84 143,84 L 142.99,82.97 C 137.16,80.93 131.06,87.1 132.96,92.99 z"
         style="opacity:1;fill:#b0b2b3" />
      <path
         id="path220"
         d="M 117,149 L 118,149 C 118,154.66 118,160.33 118,166 L 117,166 C 117,160.33 117,154.66 117,149 z"
         style="opacity:1;fill:#b0b2b3" />
      <path
         id="path222"
         d="M 85,246 C 86.75,246 90.25,246 92,246 L 92,247 L 93,247 L 93,248 C 93,249.5 93,252.5 93,254 L 91.88,254.18 L 91.93,253.03 C 91.99,251.35 92,249.67 92.02,248 L 91.34,247.74 C 90,247.54 87.34,247.12 86.01,246.91 L 86,248 L 84.98,248 C 84.99,249.33 85.01,250.66 85.03,251.99 C 85.06,252.54 85.1,253.63 85.13,254.17 L 84,254 C 84,252.5 84,249.5 84,248 L 84,247 L 85,247 L 85,246 z"
         style="opacity:1;fill:#b0b2b3" />
    </g>
    <g
       id="#bfc0a7ff">
      <path
         id="path225"
         d="M 107.01,84.01 C 105.71,81.78 109.3,81.76 107.83,83.97 L 107.01,84.01 z"
         style="opacity:1;fill:#bfc0a7" />
      <path
         id="path227"
         d="M 140.11,126.04 C 141.37,125.91 142.63,125.92 143.89,126.06 L 143.89,126.7 C 142.62,127.41 141.37,127.4 140.11,126.69 L 140.11,126.04 z"
         style="opacity:1;fill:#bfc0a7" />
    </g>
    <g
       id="#7b97b6ff">
      <path
         id="path230"
         d="M 117,82 L 118,82 C 118,87.66 118,93.33 118,99 L 117,99 C 117,93.33 117,87.67 117,82 z"
         style="opacity:1;fill:#7b97b6" />
      <path
         id="path232"
         d="M 99,100 C 104.33,100 109.66,100 115,100 L 115,101 C 109.67,101 104.33,101 99,101 L 99,100 z"
         style="opacity:1;fill:#7b97b6" />
      <path
         id="path234"
         d="M 132,113 C 137.33,113 142.66,113 148,113 L 148,114 C 142.66,114 137.33,114 132,114 L 132,113 z"
         style="opacity:1;fill:#7b97b6" />
      <path
         id="path236"
         d="M 150,116 L 151,116 C 151,121.33 151,126.66 151,132 L 150,132 C 150,126.67 150,121.33 150,116 z"
         style="opacity:1;fill:#7b97b6" />
    </g>
    <g
       id="#969696ff">
      <path
         id="path239"
         d="M 150,82 L 151,82 C 151,87.66 151,93.33 151,99 L 150,99 C 150,93.33 150,87.67 150,82 z"
         style="opacity:1;fill:#969696" />
    </g>
    <g
       id="#c5cc66ff">
      <path
         id="path242"
         d="M 52,83 L 53,83 C 53,86.75 53,94.25 53,98 L 52,98 C 52,93 52,88 52,83 z"
         style="opacity:1;fill:#c5cc66" />
    </g>
    <g
       id="#c1baa8ff">
      <path
         id="path245"
         d="M 105.22,83.21 L 105.88,83.19 L 106.43,83.61 L 107.01,84.01 L 106.87,84.72 C 106.14,84.81 104.68,85 103.95,85.1 L 103.21,84.83 L 103.21,84.28 C 103.57,84.12 104.3,83.8 104.66,83.64 L 105.22,83.21 z"
         style="opacity:1;fill:#c1baa8" />
    </g>
    <g
       id="#f8cc6aff">
      <path
         id="path248"
         d="M 109,83 L 110,83 L 110,84 L 110,85 L 111,85 L 111,86 L 112.04,85.99 C 112,87.4 111.93,88.81 111.85,90.21 L 111.27,90.16 C 110.57,90.84 109.87,91.52 109.18,92.21 L 109.14,92.9 L 109.07,93.92 L 108,94 C 108,93.5 108,92.5 108,92 L 107,92 C 107,92.5 107,93.5 107,94 L 106,94 C 106,93.5 106,92.5 106,92 L 105.15,92.03 C 105.06,91.56 104.89,90.62 104.8,90.15 L 104.02,89.87 L 104,89 C 103.5,89 102.5,89 102,89 L 102,88 C 102.5,88 103.5,88 104,88 L 104.03,87.15 L 104.83,86.81 L 104.83,86.19 L 104.03,85.85 L 103.95,85.1 C 104.68,85 106.14,84.81 106.87,84.72 L 107.01,84.01 L 107.83,83.97 L 108.93,83.92 L 109,83 z"
         style="opacity:1;fill:#f8cc6a" />
    </g>
    <g
       id="#6e6d6eff">
      <path
         id="path251"
         d="M 129,83 L 130,83 C 130,87.67 129.99,92.33 130,97 L 129,97 C 128.99,92.33 129,87.67 129,83 z"
         style="opacity:1;fill:#6e6d6e" />
      <path
         id="path253"
         d="M 85,149 L 86,149 C 86,152.75 86,160.25 86,164 L 85,164 C 85,159 85,153.99 85,149 z"
         style="opacity:1;fill:#6e6d6e" />
    </g>
    <g
       id="#6d6d6eff">
      <path
         id="path256"
         d="M 132.96,92.99 C 131.06,87.1 137.16,80.93 142.99,82.97 L 143,84 C 143.5,84 144.5,84 145,84 L 145,85 L 146,85 L 146,86 L 147.06,85.99 C 147.06,86.52 147.05,87.58 147.04,88.11 C 146.93,89.37 146.93,90.63 147.04,91.89 C 147.05,92.42 147.06,93.48 147.06,94.01 L 146,94 L 146,95 L 145,95 L 145,96 L 144,96 L 144,97 C 142.25,97 138.75,97 137,97 L 137,96 C 136.5,96 135.5,96 135,96 L 135,95 L 134,95 C 134,94.5 134,93.5 134,93 L 132.96,92.99 M 137,85 L 137,86 L 136,86 L 136,87 L 135,87 C 135,88.5 135,91.5 135,93 L 136,93 L 136,94 L 137,94 L 137.05,95.12 L 138.11,95.06 L 138.11,95.7 C 139.37,96.41 140.63,96.4 141.89,95.69 L 141.89,95.04 C 142.42,95.04 143.48,95.06 144.01,95.06 L 144,94 L 145.06,94.01 C 145.06,93.48 145.04,92.42 145.04,91.89 L 145.69,91.89 C 146.4,90.63 146.41,89.37 145.7,88.11 L 145.06,88.11 L 145.12,87.05 L 144,87 L 144,86 L 143,86 L 143,85 C 141.5,85 138.5,85 137,85 z"
         style="opacity:1;fill:#6d6d6e" />
    </g>
    <g
       id="#bdc2a9ff">
      <path
         id="path259"
         d="M 110,84 C 110.5,84 111.5,84 112,84 L 112,85 C 112.5,85 113.5,85 114,85 L 114,86 L 113,86 L 113,87 L 114,87 L 114,88 L 113,88 C 113,88.5 113,89.5 113,90 L 111.85,90.21 C 111.93,88.81 112,87.4 112.04,85.99 L 111,86 L 111,85 L 110,85 L 110,84 z"
         style="opacity:1;fill:#bdc2a9" />
    </g>
    <g
       id="#bce1ebff">
      <path
         id="path262"
         d="M 137,85 C 138.5,85 141.5,85 143,85 L 143,86 L 144,86 L 144,87 L 145.12,87.05 L 145.06,88.11 C 144.92,89.37 144.91,90.63 145.04,91.89 C 145.04,92.42 145.06,93.48 145.06,94.01 L 144,94 L 144.01,95.06 C 143.48,95.06 142.42,95.04 141.89,95.04 C 140.63,94.91 139.37,94.92 138.11,95.06 L 137.05,95.12 L 137,94 L 136,94 L 136,93 L 135,93 C 135,91.5 135,88.5 135,87 L 136,87 L 136,86 L 137,86 L 137,85 z"
         style="opacity:1;fill:#bce1eb" />
    </g>
    <g
       id="#c3c4a2ff">
      <path
         id="path265"
         d="M 102.17,86.19 C 102.63,86.1 103.57,85.93 104.03,85.85 L 104.83,86.19 L 104.83,86.81 L 104.03,87.15 C 103.57,87.07 102.63,86.9 102.17,86.81 L 102.17,86.19 z"
         style="opacity:1;fill:#c3c4a2" />
    </g>
    <g
       id="#eaeaeaff">
      <path
         id="path268"
         d="M 64,87 L 65,87 L 65,88 C 71.33,88 77.67,88 84,88 L 84,87 L 85,87 C 84.99,90.37 85.07,93.76 84.9,97.14 L 84.14,97.12 C 84.1,97.56 84.04,98.44 84.01,98.89 L 84.09,99.98 L 83.02,99.99 C 77.34,100.01 71.67,100 66,100 L 65,100 L 65,99 L 64,99 C 64,95 64,91 64,87 z"
         style="opacity:1;fill:#eaeaea" />
      <path
         id="path270"
         d="M 16.98,256 L 18,256 C 18,256.75 18,258.25 18,259 L 19,259 C 19,259.75 19,261.25 19,262 L 20,262 L 20,263 L 20.97,263.03 C 21.02,263.47 21.11,264.35 21.16,264.79 C 24.69,268.36 28.2,272.07 32.84,274.23 L 32.99,275.07 C 33.52,275.05 34.58,275.01 35.1,274.99 L 35.08,275.79 C 35.53,275.84 36.44,275.95 36.9,276 C 37.68,275.99 39.24,275.97 40.01,275.96 L 40,277 C 40.5,277 41.5,277 42,277 L 42,278 L 43,278 L 43,279 C 43.5,279 44.5,279 45,279 L 45,280 C 45.75,280 47.25,280 48,280 L 48.05,280.93 C 52.34,281.74 56.58,283.19 61,283.08 L 61,284 C 61.75,284 63.25,284 64,284 L 64.11,285.22 C 64.39,284.94 64.94,284.39 65.22,284.11 L 66,284 L 66,285 C 67.5,285 70.5,285 72,285 L 72.11,286.22 C 72.39,285.94 72.94,285.39 73.22,285.11 L 74,285 L 74,286 C 76.99,285.96 80.01,286.01 83,286 L 82.99,287 C 83.5,287 84.5,287 85.01,287 L 84.99,286 C 85.5,286 86.5,286 87.01,286 L 87.11,287.22 C 87.39,286.94 87.94,286.39 88.22,286.11 L 89,286 L 89,287 C 91.67,287 94.33,287 97,287 L 97,286 L 97.78,286.11 C 98.06,286.39 98.61,286.94 98.89,287.22 L 99,286 C 99.75,286 101.25,286 102,286 L 102,287 L 103,287 L 103,286 C 105.67,286 108.33,286 111,286 L 111,285 L 112,285 L 111.99,286 C 112.5,286 113.5,286 114.01,286 L 114,285 C 115.5,285 118.5,285 120,285 L 120,284 C 121.5,284 124.5,284 126,284 L 126,283 C 127.33,283 128.67,283 130,283 L 130,282 C 130.75,282 132.25,282 133,282 L 133,281 L 138,281 L 138,280 L 139,280 L 139,279 C 140.33,279 141.67,279 143,279 L 143,278 L 144,278 L 144,277 C 144.5,277 145.5,277 146,277 L 146,276.01 C 146.5,276 147.48,275.97 147.98,275.96 L 148.04,274.97 L 148.09,274.18 C 150.63,273.17 153.19,272.1 155.3,270.3 L 156,270 L 156.16,269.22 C 160.24,266.24 162.65,261.69 164.1,256.94 L 164.89,256.95 C 165.42,256.97 166.47,256.99 167,257 L 167,258 C 167.5,258 168.5,258 169,258 L 169,259 L 170,259 L 170,260 L 171,260 L 171,261 L 172,261 L 172,260 L 173,260 C 173,260.75 173,262.25 173,263 C 173.5,263 174.5,263 175,263 C 175,263.5 175,264.5 175,265 L 176,265 C 176,265.75 176,267.25 176,268 L 177,268 C 177,269.33 177,270.66 177,272 C 176.5,272 175.5,272 175,272 L 175,273 L 176,273 L 176,274 C 175.5,274 174.5,274 174,274 L 174,275 L 173.22,275.16 C 170.38,279.27 165.63,280.91 161.72,283.71 C 161.11,283.86 159.89,284.16 159.27,284.31 C 156.28,285.32 153.39,286.54 150.63,287.96 C 150.43,287.75 150.02,287.33 149.81,287.12 L 149,287 L 149,288 C 148.25,288 146.75,288 146,288 L 146,289 C 145.25,289 143.75,289 143,289 L 143,290 C 141.25,290 137.75,290 136,290 L 136,291 C 134.5,291 131.5,291 130,291 L 130,292 L 125,292 L 125,293 L 124.22,292.89 C 123.94,292.61 123.39,292.06 123.11,291.78 L 123,293 C 120.01,293.02 116.98,292.95 114,293 L 114,294 C 100.67,294 87.33,294 74,294 L 74,293 C 70,292.99 66,292.99 62,293 L 62,292 C 60.5,292 57.5,292 56,292 L 56,291 C 54.25,291 50.75,291 49,291 L 49,290 L 48.22,290.11 C 47.94,290.39 47.39,290.94 47.11,291.22 L 47,290 C 45.67,290 44.33,290 43,290 L 43,289 C 42.25,289 40.75,289 40,289 L 40,288 L 35,288 L 35,287 C 34.25,287 32.75,287 32,287 L 32,286 C 31.5,286 30.5,286 30,286 L 30,285 L 29,285 L 29.03,285.93 C 26.43,284.76 23.9,283.32 21.07,282.78 L 21,282 L 20,282 L 19.93,281.22 C 16.75,280.96 14.88,278.02 12.16,276.75 L 12,276 L 11,276 C 11,275.5 11,274.5 11,274 L 10,274 L 10,273 L 9,273 L 9.11,272.22 C 9.39,271.94 9.94,271.39 10.22,271.11 L 9,271 C 9,270.25 9,268.75 9,268 L 8,268 L 8,267 C 8.5,267 9.5,267 10,267 C 10,265.66 10,264.33 10,263 C 10.5,263 11.5,263 12,263 C 12,262.5 12,261.5 12,261 L 13,261 L 13,260 C 13.5,260 14.5,260 15,260 L 15,259 C 15.5,259 16.5,259 17.01,259 C 17,258.25 16.99,256.75 16.98,256 z"
         style="opacity:1;fill:#eaeaea" />
    </g>
    <g
       id="#fdcb70ff">
      <path
         id="path273"
         d="M 65,87 C 71.33,87 77.66,87 84,87 L 84,88 C 77.67,88 71.33,88 65,88 L 65,87 z"
         style="opacity:1;fill:#fdcb70" />
    </g>
    <g
       id="#a1bbbbff">
      <path
         id="path276"
         d="M 145.06,88.11 L 145.7,88.11 C 146.41,89.37 146.4,90.63 145.69,91.89 L 145.04,91.89 C 144.91,90.63 144.92,89.37 145.06,88.11 z"
         style="opacity:1;fill:#a1bbbb" />
    </g>
    <g
       id="#929292ff">
      <path
         id="path279"
         d="M 147.04,88.11 L 147.69,88.11 C 148.41,89.37 148.41,90.63 147.69,91.89 L 147.04,91.89 C 146.93,90.63 146.93,89.37 147.04,88.11 z"
         style="opacity:1;fill:#929292" />
    </g>
    <g
       id="#c6c6a0ff">
      <path
         id="path282"
         d="M 103.27,90.09 L 104.02,89.87 L 104.8,90.15 C 104.89,90.62 105.06,91.56 105.15,92.03 L 104.87,92.8 L 104.27,92.82 C 104.09,92.45 103.73,91.7 103.55,91.33 L 103.15,90.72 L 103.27,90.09 z"
         style="opacity:1;fill:#c6c6a0" />
      <path
         id="path284"
         d="M 147.04,119.11 L 147.69,119.11 C 148.4,120.37 148.41,121.62 147.7,122.89 L 147.06,122.89 C 146.92,121.63 146.91,120.37 147.04,119.11 z"
         style="opacity:1;fill:#c6c6a0" />
    </g>
    <g
       id="#bfc09fff">
      <path
         id="path287"
         d="M 111.27,90.16 L 111.85,90.21 C 111.85,90.59 111.85,91.34 111.85,91.71 L 111.36,92.32 C 111.21,92.68 110.9,93.41 110.75,93.77 L 110.17,93.83 C 109.91,93.59 109.4,93.13 109.14,92.9 L 109.18,92.21 C 109.87,91.52 110.57,90.84 111.27,90.16 z"
         style="opacity:1;fill:#bfc09f" />
    </g>
    <g
       id="#a1aeafff">
      <path
         id="path290"
         d="M 138.11,95.06 C 139.37,94.92 140.63,94.91 141.89,95.04 L 141.89,95.69 C 140.63,96.4 139.37,96.41 138.11,95.7 L 138.11,95.06 z"
         style="opacity:1;fill:#a1aeaf" />
    </g>
    <g
       id="#c6cc66ff">
      <path
         id="path293"
         d="M 34,100 C 39.33,100 44.66,100 50,100 L 50,101 C 44.67,101 39.33,101 34,101 L 34,100 z"
         style="opacity:1;fill:#c6cc66" />
    </g>
    <g
       id="#c8c8c8ff">
      <path
         id="path296"
         d="M 66,100 C 71.67,100 77.34,100.01 83.02,99.99 L 83,101 C 77.33,101 71.67,101 66,101 L 66,100 z"
         style="opacity:1;fill:#c8c8c8" />
    </g>
    <g
       id="#959595ff">
      <path
         id="path299"
         d="M 132,100 C 137.66,100 143.33,100 149,100 L 149,101 C 143.33,101 137.66,101 132,101 L 132,100 z"
         style="opacity:1;fill:#959595" />
    </g>
    <g
       id="#989999ff">
      <path
         id="path302"
         d="M 34,113 C 39.33,113 44.67,113 50,113 L 50,114 C 50.5,114 51.5,114 52,114 C 52,114.5 52,115.5 52,116 L 53,116 C 53,121.33 53,126.66 53,132 L 52,132 L 52,133 L 51,133 L 51,134 C 45,134 39,134 33,134 L 33,133 L 32,133 C 32,132.25 32,130.75 32,130 L 31,130 C 31,125.66 31,121.33 31,117 L 32,117 C 32,116.25 32,114.75 32,114 C 32.5,114 33.5,114 34,114 L 34,113 M 35.08,116.36 L 35.01,117 L 34.39,117.11 C 34.2,117.5 33.83,118.28 33.65,118.67 L 33.22,119.2 L 33.22,119.81 L 33.65,120.34 C 33.82,120.71 34.15,121.45 34.32,121.82 L 34.85,121.85 L 35,123 L 40,123 L 40,122 L 41,122 C 41,120.67 41,119.33 41,118 L 39.8,117.78 C 39.6,117.58 39.22,117.2 39.02,117.01 L 38.93,116.37 C 37.65,115.69 36.37,115.69 35.08,116.36 M 45.04,116.39 L 44.92,117.07 C 44.69,117.3 44.23,117.74 44,117.96 L 43.38,118.07 C 42.78,119.28 42.72,120.53 43.18,121.81 L 43.73,122.33 L 44.28,122.85 C 44.64,122.86 45.37,122.86 45.74,122.86 C 46.37,122.84 47.63,122.8 48.27,122.78 C 48.46,122.57 48.85,122.17 49.04,121.96 C 49.26,121.74 49.7,121.29 49.91,121.07 L 50.65,120.95 C 50.68,120.25 50.75,118.85 50.78,118.15 L 50.16,118.16 L 49,118 L 48.85,116.83 L 48.85,116.26 C 47.56,115.64 46.29,115.68 45.04,116.39 M 35.07,125.36 L 34.98,125.98 L 34.38,126.08 C 33.68,127.55 33.68,129.47 34.39,130.95 L 35,131.07 L 35.09,131.63 C 36.54,132.23 38.4,132.37 39.83,131.66 C 39.88,131.27 39.98,130.48 40.04,130.08 L 40.69,129.96 C 40.67,129.23 40.65,127.78 40.63,127.06 L 39.94,126.95 C 39.72,126.72 39.28,126.27 39.06,126.05 L 38.95,125.39 C 37.66,124.71 36.37,124.7 35.07,125.36 M 45.07,125.37 L 44.98,126 C 44.78,126.2 44.4,126.58 44.2,126.77 L 43,127 C 43,128.33 43,129.67 43,131 L 44,131 L 44,132 L 49,132 L 49.23,130.81 C 49.42,130.61 49.79,130.21 49.98,130.01 L 50.66,129.92 C 50.65,129.21 50.64,127.78 50.64,127.06 L 49.94,126.95 C 49.72,126.72 49.28,126.27 49.06,126.05 L 48.95,125.39 C 47.66,124.71 46.37,124.7 45.07,125.37 z"
         style="opacity:1;fill:#989999" />
    </g>
    <g
       id="#7b98b8ff">
      <path
         id="path305"
         d="M 66,113 C 71.33,113 76.67,113 82,113 L 82,114 C 76.66,113.99 71.33,114 66,114 L 66,113 z"
         style="opacity:1;fill:#7b98b8" />
    </g>
    <g
       id="#c8b196ff">
      <path
         id="path308"
         d="M 99,113 C 104.66,113 110.33,113 116,113 L 116,114 C 112.66,113.99 109.33,114 106,114 C 104.66,114 103.33,114 102,114 C 101.25,114 99.75,114 99,114 L 99,113 z"
         style="opacity:1;fill:#c8b196" />
    </g>
    <g
       id="#86afd9ff">
      <path
         id="path311"
         d="M 65,114 L 66,114 C 71.33,114 76.66,113.99 82,114 C 82.5,114 83.5,114 84,114 L 84,115 L 85,115 C 85,120.66 85,126.33 85,132 L 84,132 C 84,132.5 84,133.5 84,134 C 77.67,134 71.33,134 65,134 L 65,133 L 64,133 C 64,127 64,121 64,115 L 65,115 L 65,114 z"
         style="opacity:1;fill:#86afd9" />
      <path
         id="path313"
         d="M 131,114 L 132,114 C 137.33,114 142.66,114 148,114 C 148.5,114 149.5,114 150,114 C 150,114.5 150,115.5 150,116 C 150,121.33 150,126.67 150,132 L 150,133 L 149,133 L 149,134 L 148,134 C 142.99,133.99 138,134 133,134 C 132.5,134 131.5,134 131,134 L 131,133 L 130,133 C 130,132.5 130,131.5 130,131 C 129.99,126.33 130,121.67 130,117 C 130,116.5 130,115.5 130,115 L 131,115 L 131,114 M 139.12,115.33 L 139.11,115.93 L 138.06,115.87 L 138,117 L 136.87,117.06 L 136.93,118.11 L 136.33,118.12 C 135.6,119.53 135.59,121.47 136.34,122.88 L 136.95,122.88 C 136.94,123.41 136.94,124.47 136.94,125.01 L 138,125 L 137.99,126.06 C 138.52,126.06 139.58,126.04 140.11,126.04 L 140.11,126.69 C 141.37,127.4 142.62,127.41 143.89,126.7 L 143.89,126.06 L 144.95,126.12 L 145,125 L 146,125 L 146,124 L 147.12,123.95 L 147.06,122.89 L 147.7,122.89 C 148.41,121.62 148.4,120.37 147.69,119.11 L 147.04,119.11 C 147.04,118.58 147.06,117.52 147.06,116.99 L 146,117 L 146.01,115.94 C 145.47,115.94 144.41,115.94 143.88,115.95 L 143.88,115.34 C 142.47,114.59 140.53,114.6 139.12,115.33 z"
         style="opacity:1;fill:#86afd9" />
    </g>
    <g
       id="#eacfb8ff">
      <path
         id="path316"
         d="M 98,114 L 99,114 C 99.75,114 101.25,114 102,114 C 102,114.75 102,116.25 102,117 C 100.33,117 98.66,117 97,117 C 97,116.5 97,115.5 97,115 L 98,115 L 98,114 z"
         style="opacity:1;fill:#eacfb8" />
    </g>
    <g
       id="#ffff99ff">
      <path
         id="path319"
         d="M 102,114 C 103.33,114 104.66,114 106,114 C 106,114.75 106,116.25 106,117 C 104.67,117 103.33,117 102,117 C 102,116.25 102,114.75 102,114 z"
         style="opacity:1;fill:#ffff99" />
      <path
         id="path321"
         d="M 102,122 C 103.33,122 104.67,122 106,122 C 106,126 106,130 106,134 C 104.67,134 103.33,134 102,134 C 102,130 102,126 102,122 z"
         style="opacity:1;fill:#ffff99" />
      <path
         id="path323"
         d="M 32,153 L 33,153 L 33,154 C 39,154 45,154 51,154 L 51,153 L 52,153 C 51.99,157.33 52.02,161.68 51.99,166.02 L 51.97,167.1 L 50.88,167.01 C 50.44,167.04 49.56,167.11 49.12,167.14 L 49.14,167.9 C 44.38,167.98 39.62,168.12 34.86,167.9 L 34.88,167.14 C 34.44,167.1 33.56,167.04 33.12,167.01 L 32.03,167.09 C 32.02,166.57 32.01,165.52 32.01,165 C 32,160.99 31.99,157 32,153 z"
         style="opacity:1;fill:#ffff99" />
    </g>
    <g
       id="#edd1b9ff">
      <path
         id="path326"
         d="M 106,114 C 109.33,114 112.66,113.99 116,114 L 117,114 L 117,115 C 117,120.66 117,126.33 117,132 L 117,133 L 116,133 L 116,134 L 115,134 C 111.99,133.99 109,134 106,134 C 106,130 106,126 106,122 C 104.67,122 103.33,122 102,122 C 102,126 102,130 102,134 C 101.5,134 100.5,134 100,134 C 99.5,134 98.5,134 98,134 L 98,133 L 97,133 C 97,132.5 97,131.5 97,131 C 96.99,127.66 97,124.34 97,121 C 102.33,121 107.67,121 113,121 L 114,121 C 114,119.67 114,118.33 114,117 C 111.33,117 108.67,117 106,117 C 106,116.25 106,114.75 106,114 z"
         style="opacity:1;fill:#edd1b9" />
    </g>
    <g
       id="#c4b19bff">
      <path
         id="path329"
         d="M 117,115 L 118,115 C 118,120.66 118,126.33 118,132 L 117,132 C 117,126.33 117,120.66 117,115 z"
         style="opacity:1;fill:#c4b19b" />
    </g>
    <g
       id="#c7c78aff">
      <path
         id="path332"
         d="M 139.12,115.33 C 140.53,114.6 142.47,114.59 143.88,115.34 L 143.88,115.95 C 142.29,116.08 140.7,116.09 139.11,115.93 L 139.12,115.33 z"
         style="opacity:1;fill:#c7c78a" />
    </g>
    <g
       id="#5b5b5bff">
      <path
         id="path335"
         d="M 45.04,116.39 C 46.29,115.68 47.56,115.64 48.85,116.26 L 48.85,116.83 C 47.55,117.1 46.24,117.18 44.92,117.07 L 45.04,116.39 z"
         style="opacity:1;fill:#5b5b5b" />
      <path
         id="path337"
         d="M 43.38,118.07 L 44,117.96 C 44.06,118.65 44.19,120.04 44.26,120.74 C 44.64,121.13 45.4,121.92 45.79,122.31 L 45.74,122.86 C 45.37,122.86 44.64,122.86 44.28,122.85 L 43.73,122.33 L 43.18,121.81 C 42.72,120.53 42.78,119.28 43.38,118.07 z"
         style="opacity:1;fill:#5b5b5b" />
    </g>
    <g
       id="#fccc69ff">
      <path
         id="path340"
         d="M 138.06,115.87 L 139.11,115.93 C 140.7,116.09 142.29,116.08 143.88,115.95 C 144.41,115.94 145.47,115.94 146.01,115.94 L 146,117 L 147.06,116.99 C 147.06,117.52 147.04,118.58 147.04,119.11 C 146.91,120.37 146.92,121.63 147.06,122.89 L 147.12,123.95 L 146,124 L 146,125 L 145,125 L 144.95,126.12 L 143.89,126.06 C 142.63,125.92 141.37,125.91 140.11,126.04 C 139.58,126.04 138.52,126.06 137.99,126.06 L 138,125 L 136.94,125.01 C 136.94,124.47 136.94,123.41 136.95,122.88 C 137.08,121.3 137.09,119.7 136.93,118.11 L 136.87,117.06 L 138,117 L 138.06,115.87 z"
         style="opacity:1;fill:#fccc69" />
    </g>
    <g
       id="#4a4a4aff">
      <path
         id="path343"
         d="M 34.39,117.11 L 35.01,117 C 35.12,118.62 35.12,120.25 34.85,121.85 L 34.32,121.82 C 34.15,121.45 33.82,120.71 33.65,120.34 L 33.22,119.81 L 33.22,119.2 L 33.65,118.67 C 33.83,118.28 34.2,117.5 34.39,117.11 z"
         style="opacity:1;fill:#4a4a4a" />
    </g>
    <g
       id="#020202ff">
      <path
         id="path346"
         d="M 35.01,117 C 36.34,117.12 37.68,117.12 39.02,117.01 L 39.1,117.75 L 39.8,117.78 C 39.86,118.59 39.99,120.21 40.05,121.02 L 39,121 L 39.01,122.04 C 37.62,121.99 36.23,121.93 34.85,121.85 C 35.12,120.25 35.12,118.62 35.01,117 z"
         style="opacity:1;fill:#020202" />
    </g>
    <g
       id="#525252ff">
      <path
         id="path349"
         d="M 39.02,117.01 C 39.22,117.2 39.6,117.58 39.8,117.78 L 39.1,117.75 L 39.02,117.01 z"
         style="opacity:1;fill:#525252" />
      <path
         id="path351"
         d="M 44.2,126.77 C 44.4,126.58 44.78,126.2 44.98,126 L 44.9,126.74 L 44.2,126.77 z"
         style="opacity:1;fill:#525252" />
      <path
         id="path353"
         d="M 29.17,263.12 C 29.34,263.3 29.7,263.66 29.88,263.83 C 29.7,263.66 29.34,263.3 29.17,263.12 z"
         style="opacity:1;fill:#525252" />
    </g>
    <g
       id="#070707ff">
      <path
         id="path356"
         d="M 44.92,117.07 C 46.24,117.18 47.55,117.1 48.85,116.83 L 49,118 L 50.16,118.16 C 50.1,118.89 49.98,120.34 49.91,121.07 L 49.15,121.19 L 49.04,121.96 L 48.29,122.07 L 48.27,122.78 C 47.63,122.8 46.37,122.84 45.74,122.86 L 45.79,122.31 C 45.4,121.92 44.64,121.13 44.26,120.74 C 44.19,120.04 44.06,118.65 44,117.96 L 44.79,117.84 L 44.92,117.07 z"
         style="opacity:1;fill:#070707" />
    </g>
    <g
       id="#767372ff">
      <path
         id="path359"
         d="M 96,117 L 97,117 L 97,118 C 97,118.75 97,120.25 97,121 C 97,124.34 96.99,127.66 97,131 L 96,131 C 96,126.33 96,121.67 96,117 z"
         style="opacity:1;fill:#767372" />
    </g>
    <g
       id="#d8a08dff">
      <path
         id="path362"
         d="M 97,117 C 98.66,117 100.33,117 102,117 C 103.33,117 104.67,117 106,117 C 108.67,117 111.33,117 114,117 C 114,118.33 114,119.67 114,121 L 113,121 C 113,120.25 113,118.75 113,118 C 107.66,118 102.33,118 97,118 L 97,117 z"
         style="opacity:1;fill:#d8a08d" />
    </g>
    <g
       id="#657180ff">
      <path
         id="path365"
         d="M 129,117 L 130,117 C 130,121.67 129.99,126.33 130,131 L 129,131 C 128.99,126.33 129,121.67 129,117 z"
         style="opacity:1;fill:#657180" />
      <path
         id="path367"
         d="M 133,134 C 138,134 142.99,133.99 148,134 L 148,135 C 144.25,135 136.75,135 133,135 L 133,134 z"
         style="opacity:1;fill:#657180" />
    </g>
    <g
       id="#707070ff">
      <path
         id="path370"
         d="M 50.16,118.16 L 50.78,118.15 C 50.75,118.85 50.68,120.25 50.65,120.95 L 49.91,121.07 C 49.98,120.34 50.1,118.89 50.16,118.16 z"
         style="opacity:1;fill:#707070" />
    </g>
    <g
       id="#cc6666ff">
      <path
         id="path373"
         d="M 97,118 C 102.33,118 107.66,118 113,118 C 113,118.75 113,120.25 113,121 C 107.67,121 102.33,121 97,121 C 97,120.25 97,118.75 97,118 z"
         style="opacity:1;fill:#cc6666" />
    </g>
    <g
       id="#cbc493ff">
      <path
         id="path376"
         d="M 136.33,118.12 L 136.93,118.11 C 137.09,119.7 137.08,121.3 136.95,122.88 L 136.34,122.88 C 135.59,121.47 135.6,119.53 136.33,118.12 z"
         style="opacity:1;fill:#cbc493" />
    </g>
    <g
       id="#424242ff">
      <path
         id="path379"
         d="M 34.38,126.08 L 34.98,125.98 C 35.1,127.67 35.1,129.38 35,131.07 L 34.39,130.95 C 33.68,129.47 33.68,127.55 34.38,126.08 z"
         style="opacity:1;fill:#424242" />
    </g>
    <g
       id="#010101ff">
      <path
         id="path382"
         d="M 34.98,125.98 C 36.34,126.1 37.7,126.12 39.06,126.05 L 39.17,126.82 L 39.94,126.95 C 39.97,127.73 40.01,129.3 40.04,130.08 L 39.42,130.17 L 38.83,130.69 C 37.56,130.87 36.28,131 35,131.07 C 35.1,129.38 35.1,127.67 34.98,125.98 z"
         style="opacity:1;fill:#010101" />
    </g>
    <g
       id="#474747ff">
      <path
         id="path385"
         d="M 39.06,126.05 C 39.28,126.27 39.72,126.72 39.94,126.95 L 39.17,126.82 L 39.06,126.05 z"
         style="opacity:1;fill:#474747" />
    </g>
    <g
       id="#050505ff">
      <path
         id="path388"
         d="M 44.98,126 C 46.34,126.11 47.7,126.12 49.06,126.05 L 49.17,126.82 L 49.94,126.95 C 49.95,127.71 49.97,129.25 49.98,130.01 L 49.25,130.1 L 49.23,130.81 C 47.82,130.91 46.41,130.99 44.99,131.05 L 45,130 L 43.95,130.02 C 44.01,129.21 44.14,127.59 44.2,126.77 L 44.9,126.74 L 44.98,126 z"
         style="opacity:1;fill:#050505" />
    </g>
    <g
       id="#5e5e5eff">
      <path
         id="path391"
         d="M 49.06,126.05 C 49.28,126.27 49.72,126.72 49.94,126.95 L 49.17,126.82 L 49.06,126.05 z"
         style="opacity:1;fill:#5e5e5e" />
    </g>
    <g
       id="#5c5c5cff">
      <path
         id="path394"
         d="M 39.94,126.95 L 40.63,127.06 C 40.65,127.78 40.67,129.23 40.69,129.96 L 40.04,130.08 C 40.01,129.3 39.97,127.73 39.94,126.95 z"
         style="opacity:1;fill:#5c5c5c" />
      <path
         id="path396"
         d="M 49.25,130.1 L 49.98,130.01 C 49.79,130.21 49.42,130.61 49.23,130.81 L 49.25,130.1 z"
         style="opacity:1;fill:#5c5c5c" />
    </g>
    <g
       id="#575757ff">
      <path
         id="path399"
         d="M 43,127 L 44.2,126.77 C 44.14,127.59 44.01,129.21 43.95,130.02 L 45,130 L 44.99,131.05 C 46.41,130.99 47.82,130.91 49.23,130.81 L 49,132 L 44,132 L 44,131 L 43,131 C 43,129.67 43,128.33 43,127 z"
         style="opacity:1;fill:#575757" />
    </g>
    <g
       id="#727272ff">
      <path
         id="path402"
         d="M 49.94,126.95 L 50.64,127.06 C 50.64,127.78 50.65,129.21 50.66,129.92 L 49.98,130.01 C 49.97,129.25 49.95,127.71 49.94,126.95 z"
         style="opacity:1;fill:#727272" />
    </g>
    <g
       id="#4b4b4bff">
      <path
         id="path405"
         d="M 39.42,130.17 L 40.04,130.08 C 39.98,130.48 39.88,131.27 39.83,131.66 C 38.4,132.37 36.54,132.23 35.09,131.63 L 35,131.07 C 36.28,131 37.56,130.87 38.83,130.69 L 39.42,130.17 z"
         style="opacity:1;fill:#4b4b4b" />
    </g>
    <g
       id="#888272ff">
      <path
         id="path408"
         d="M 100,134 C 100.5,134 101.5,134 102,134 C 103.33,134 104.67,134 106,134 C 109,134 111.99,133.99 115,134 L 115,135 C 111.25,135 103.75,135 100,135 L 100,134 z"
         style="opacity:1;fill:#888272" />
    </g>
    <g
       id="#e1ba91ff">
      <path
         id="path411"
         d="M 32,147 C 38.67,147 45.33,147 52,147 L 52,148 L 53,148 C 53,149.66 53,151.33 53,153 L 52,153 L 51,153 C 45,153 39,153 33,153 L 32,153 C 32,151.67 32,150.33 32,149 C 32,148.5 32,147.5 32,147 z"
         style="opacity:1;fill:#e1ba91" />
    </g>
    <g
       id="#262626ff">
      <path
         id="path414"
         d="M 66,147 C 71.66,147 77.33,147 83,147 L 83,148 L 84,148 L 84,149 L 85,149 C 85,153.99 85,159 85,164 L 85,165 L 84,165 L 84,166 L 84,167 L 83,167 L 83,168 C 77.33,168 71.67,168 66,168 L 66,167 L 65,167 L 65,166 L 64,166 C 64,160.33 64,154.66 64,149 L 65,149 L 65,148 L 66,148 L 66,147 M 71.13,150.92 L 69.8,151.2 C 69.6,151.4 69.2,151.8 69,152 C 68.79,152.19 68.37,152.58 68.17,152.78 L 67.98,154.09 L 67.35,154.11 C 66.59,155.52 66.61,157.45 67.33,158.88 L 67.93,158.89 L 67.87,159.94 L 69,160 L 69,161 L 70,161 L 70.08,162.12 L 71.2,162.13 C 71.39,162.27 71.78,162.56 71.97,162.71 C 73.33,163.36 74.68,163.36 76.03,162.7 C 76.23,162.55 76.62,162.23 76.82,162.07 L 78.21,161.83 C 78.41,161.62 78.8,161.21 79,161.01 C 79.21,160.81 79.62,160.42 79.83,160.22 L 80.03,158.91 L 80.65,158.89 C 81.41,157.47 81.41,155.52 80.65,154.11 L 80.03,154.09 L 79.83,152.78 C 79.63,152.58 79.21,152.19 79,152 C 78.8,151.8 78.4,151.4 78.2,151.2 L 76.87,150.92 C 76.7,150.72 76.37,150.31 76.2,150.11 C 74.73,150.05 73.27,150.05 71.8,150.11 C 71.63,150.31 71.3,150.72 71.13,150.92 z"
         style="opacity:1;fill:#262626" />
    </g>
    <g
       id="#919192ff">
      <path
         id="path417"
         d="M 98.13,147.86 C 98.31,147.68 98.65,147.31 98.82,147.13 L 98.84,147.8 L 98.13,147.86 z"
         style="opacity:1;fill:#919192" />
    </g>
    <g
       id="#cbccccff">
      <path
         id="path420"
         d="M 98.82,147.13 C 104.55,146.94 110.27,147 116,147 L 116,148 L 117,148 L 117,149 C 117,154.66 117,160.33 117,166 L 117,167 L 116,167 L 116,168 C 110.33,168 104.67,168 99,168 L 99,167 L 98,167 L 98,166 L 97,166 L 97,165 C 97.01,159.99 96.97,155 97.01,150 C 97.02,149.49 97.04,148.47 97.05,147.95 L 98.13,147.86 L 98.84,147.8 L 98.82,147.13 M 106,155 L 105.99,155.92 C 102.24,155.49 99,159.43 98.89,162.98 L 98,163 C 98,163.5 98,164.5 98,165 L 99,165 L 99,166 C 104.67,166 110.33,166 116,166 L 116,165 C 116,163.66 116,162.33 116,161 L 115,161 C 115,160.5 115,159.5 115,159 L 114,159 L 114,158 L 113,158 L 113,157 C 112.5,157 111.5,157 111,157 L 111,156 C 110.25,156 108.75,156 108,156 L 108,155 C 107.5,155 106.5,155 106,155 z"
         style="opacity:1;fill:#cbcccc" />
      <path
         id="path422"
         d="M 27,203 C 43.33,203 59.67,203 76,203 L 76,204 L 75,204 L 75,205 C 71.99,204.98 69,205 66,205 L 66,206 L 65,206 L 65,207 L 64,207 L 64,208 L 62.99,208 C 63,213.36 63.03,218.71 63.1,224.08 C 61.6,226.54 58.28,227.93 57.85,230.97 L 56.95,230.98 C 46.97,231.04 36.98,230.97 27,231 C 27,221.67 27,212.33 27,203 M 34,205 L 34,206 L 34,207 L 33,207 L 32,207 C 32,213 32,218.99 32,225 L 33,225 L 34,225 L 34,226 L 35,226 L 35,227 C 40.67,227 46.33,226.99 52,227 L 52.17,225.87 C 52.34,225.69 52.69,225.34 52.87,225.17 L 54,225 C 54,219.33 54,213.66 54,208 L 53,208 L 53,207 L 52,207 L 52,206 L 52,205 C 46,205 40,204.99 34,205 z"
         style="opacity:1;fill:#cbcccc" />
    </g>
    <g
       id="#aea486ff">
      <path
         id="path425"
         d="M 31,149 L 32,149 C 32,150.33 32,151.67 32,153 C 31.99,157 32,160.99 32.01,165 L 31,165 C 31,159.66 31,154.33 31,149 z"
         style="opacity:1;fill:#aea486" />
    </g>
    <g
       id="#fdfdfdff">
      <path
         id="path428"
         d="M 71.8,150.11 C 73.27,150.05 74.73,150.05 76.2,150.11 L 76.15,150.77 L 76.87,150.92 L 78.2,151.2 L 78.25,151.91 L 79,152 L 79.11,152.74 L 79.83,152.78 L 80.03,154.09 C 79.94,155.69 79.94,157.3 80.03,158.91 L 79.83,160.22 L 79.11,160.26 L 79,161.01 L 78.25,161.11 L 78.21,161.83 L 76.82,162.07 L 76.02,162.1 C 74.67,161.96 73.32,161.96 71.97,162.11 L 71.2,162.13 L 70.08,162.12 L 70,161 L 69,161 L 69,160 L 67.87,159.94 L 67.93,158.89 C 68.08,157.29 68.07,155.69 67.98,154.09 L 68.17,152.78 L 68.89,152.74 L 69,152 L 69.75,151.91 L 69.8,151.2 L 71.13,150.92 L 71.85,150.77 L 71.8,150.11 z"
         style="opacity:1;fill:#fdfdfd" />
    </g>
    <g
       id="#727172ff">
      <path
         id="path431"
         d="M 96,150 L 97.01,150 C 96.97,155 97.01,159.99 97,165 L 96,165 C 96,161.25 96,153.75 96,150 z"
         style="opacity:1;fill:#727172" />
    </g>
    <g
       id="#6b6a6bff">
      <path
         id="path434"
         d="M 69,152 C 69.2,151.8 69.6,151.4 69.8,151.2 L 69.75,151.91 L 69,152 z"
         style="opacity:1;fill:#6b6a6b" />
    </g>
    <g
       id="#7f8080ff">
      <path
         id="path437"
         d="M 78.2,151.2 C 78.4,151.4 78.8,151.8 79,152 L 78.25,151.91 L 78.2,151.2 z"
         style="opacity:1;fill:#7f8080" />
    </g>
    <g
       id="#636363ff">
      <path
         id="path440"
         d="M 68.17,152.78 C 68.37,152.58 68.79,152.19 69,152 L 68.89,152.74 L 68.17,152.78 z"
         style="opacity:1;fill:#636363" />
    </g>
    <g
       id="#7a7b7bff">
      <path
         id="path443"
         d="M 79,152 C 79.21,152.19 79.63,152.58 79.83,152.78 L 79.11,152.74 L 79,152 z"
         style="opacity:1;fill:#7a7b7b" />
    </g>
    <g
       id="#ffcc99ff">
      <path
         id="path446"
         d="M 33,153 C 39,153 45,153 51,153 L 51,154 C 45,154 39,154 33,154 L 33,153 z"
         style="opacity:1;fill:#ffcc99" />
    </g>
    <g
       id="#c7c897ff">
      <path
         id="path449"
         d="M 52,153 L 53,153 C 53,157.33 53,161.66 53,166 L 51.99,166.02 C 52.02,161.68 51.99,157.33 52,153 z"
         style="opacity:1;fill:#c7c897" />
    </g>
    <g
       id="#888889ff">
      <path
         id="path452"
         d="M 67.35,154.11 L 67.98,154.09 C 68.07,155.69 68.08,157.29 67.93,158.89 L 67.33,158.88 C 66.61,157.45 66.59,155.52 67.35,154.11 z"
         style="opacity:1;fill:#888889" />
    </g>
    <g
       id="#a2a3a3ff">
      <path
         id="path455"
         d="M 80.03,154.09 L 80.65,154.11 C 81.41,155.52 81.41,157.47 80.65,158.89 L 80.03,158.91 C 79.94,157.3 79.94,155.69 80.03,154.09 z"
         style="opacity:1;fill:#a2a3a3" />
    </g>
    <g
       id="#686768ff">
      <path
         id="path458"
         d="M 79.11,160.26 L 79.83,160.22 C 79.62,160.42 79.21,160.81 79,161.01 L 79.11,160.26 z"
         style="opacity:1;fill:#686768" />
    </g>
    <g
       id="#6c6c6cff">
      <path
         id="path461"
         d="M 78.25,161.11 L 79,161.01 C 78.8,161.21 78.41,161.62 78.21,161.83 L 78.25,161.11 z"
         style="opacity:1;fill:#6c6c6c" />
    </g>
    <g
       id="#dbdbdbff">
      <path
         id="path464"
         d="M 71.97,162.11 C 73.32,161.96 74.67,161.96 76.02,162.1 L 76.03,162.7 C 74.68,163.36 73.33,163.36 71.97,162.71 L 71.97,162.11 z"
         style="opacity:1;fill:#dbdbdb" />
    </g>
    <g
       id="#999999ff">
      <path
         id="path467"
         d="M 76.02,162.1 L 76.82,162.07 C 76.62,162.23 76.23,162.55 76.03,162.7 L 76.02,162.1 z"
         style="opacity:1;fill:#999999" />
    </g>
    <g
       id="#bdb890ff">
      <path
         id="path470"
         d="M 33.12,167.01 C 33.56,167.04 34.44,167.1 34.88,167.14 L 34.86,167.9 C 34.42,167.68 33.55,167.23 33.12,167.01 z"
         style="opacity:1;fill:#bdb890" />
    </g>
    <g
       id="#bdc694ff">
      <path
         id="path473"
         d="M 49.12,167.14 C 49.56,167.11 50.44,167.04 50.88,167.01 C 50.45,167.23 49.57,167.68 49.14,167.9 L 49.12,167.14 z"
         style="opacity:1;fill:#bdc694" />
    </g>
    <g
       id="#9c9c9cff">
      <path
         id="path476"
         d="M 26,202 L 27,202 L 27,203 C 27,212.33 27,221.67 27,231 C 36.98,230.97 46.97,231.04 56.95,230.98 L 57.03,232.03 L 56.12,232.04 C 46.41,231.97 36.71,232 27,232 L 26,232 C 26,222 26,212 26,202 z"
         style="opacity:1;fill:#9c9c9c" />
    </g>
    <g
       id="#aebe93ff">
      <path
         id="path479"
         d="M 34,205 C 40,204.99 46,205 52,205 L 52,206 C 46,206 40,206 34,206 L 34,205 z"
         style="opacity:1;fill:#aebe93" />
    </g>
    <g
       id="#87aed9ff">
      <path
         id="path482"
         d="M 66,205 C 69,205 71.99,204.98 75,205 C 76.75,205 80.25,205 82,205 L 82,206 C 76.66,205.99 71.33,206 66,206 L 66,205 z"
         style="opacity:1;fill:#87aed9" />
      <path
         id="path484"
         d="M 98,205 C 103.33,205 108.66,205 114,205 L 114,206 C 108.66,205.99 103.33,206 98,206 L 98,205 z"
         style="opacity:1;fill:#87aed9" />
    </g>
    <g
       id="#c8b49dff">
      <path
         id="path487"
         d="M 129,205 C 134.66,205 140.33,205 146,205 L 146.02,206.01 C 140.34,205.99 134.67,206 129,206 L 129,205 z"
         style="opacity:1;fill:#c8b49d" />
    </g>
    <g
       id="#99cc00ff">
      <path
         id="path490"
         d="M 34,206 C 40,206 46,206 52,206 L 52,207 L 53,207 L 53,208 C 53,213.72 53.02,219.44 52.87,225.17 L 52.18,225.18 L 52.17,225.87 C 46.45,226.02 40.72,226 35,226 L 34,226 L 34,225 L 33,225 C 33,218.99 33,213 33,207 L 34,207 L 34,206 z"
         style="opacity:1;fill:#99cc00" />
    </g>
    <g
       id="#1ca6e7ff">
      <path
         id="path493"
         d="M 65,206 L 66,206 C 71.33,206 76.66,205.99 82,206 L 83,206 L 83,207 L 84,207 C 84,213 84,218.99 84,225 L 83,225 L 83,226 L 82,226 C 76.33,226 70.67,226 65,226 L 64,226 C 64,225.5 64,224.5 64,224 C 64,218.66 64,213.33 64,208 L 64,207 L 65,207 L 65,206 z"
         style="opacity:1;fill:#1ca6e7" />
    </g>
    <g
       id="#1da6e6ff">
      <path
         id="path496"
         d="M 96,206 C 96.5,206 97.5,206 98,206 C 103.33,206 108.66,205.99 114,206 L 115,206 L 115,207 L 116,207 C 116,212.99 116,219 116,225 L 115,225 L 115,226 L 114,226 C 108.33,226 102.67,226 97,226 L 96,226 L 96,225 L 95,225 C 95,219.33 95,213.66 95,208 L 96,208 C 96,207.5 96,206.5 96,206 z"
         style="opacity:1;fill:#1da6e6" />
    </g>
    <g
       id="#ffcc34ff">
      <path
         id="path499"
         d="M 129,206 C 134.67,206 140.34,205.99 146.02,206.01 L 147.09,206.02 L 147.01,207.11 C 147.04,207.56 147.11,208.44 147.14,208.88 L 147.9,208.86 C 148,214.24 148.03,219.62 148,225 L 147,225 L 147,226 L 146,226 C 140.33,226 134.66,226 129,226 L 128,226 L 128,225 C 128,218.99 128,213 128,207 L 129,207 L 129,206 z"
         style="opacity:1;fill:#ffcc34" />
    </g>
    <g
       id="#aebd95ff">
      <path
         id="path502"
         d="M 32,207 L 33,207 C 33,213 33,218.99 33,225 L 32,225 C 32,218.99 32,213 32,207 z"
         style="opacity:1;fill:#aebd95" />
    </g>
    <g
       id="#fcca6bff">
      <path
         id="path505"
         d="M 127,207 L 128,207 C 128,213 128,218.99 128,225 L 127,225 C 127,218.99 127,213 127,207 z"
         style="opacity:1;fill:#fcca6b" />
    </g>
    <g
       id="#f0c37cff">
      <path
         id="path508"
         d="M 147.01,207.11 C 147.23,207.55 147.68,208.43 147.9,208.86 L 147.14,208.88 C 147.11,208.44 147.04,207.56 147.01,207.11 z"
         style="opacity:1;fill:#f0c37c" />
    </g>
    <g
       id="#9bca6bff">
      <path
         id="path511"
         d="M 53,208 L 54,208 C 54,213.66 54,219.33 54,225 L 52.87,225.17 C 53.02,219.44 53,213.72 53,208 z"
         style="opacity:1;fill:#9bca6b" />
      <path
         id="path513"
         d="M 35,226 C 40.72,226 46.45,226.02 52.17,225.87 L 52,227 C 46.33,226.99 40.67,227 35,227 L 35,226 z"
         style="opacity:1;fill:#9bca6b" />
    </g>
    <g
       id="#3999ccff">
      <path
         id="path516"
         d="M 62.99,208 L 64,208 C 64,213.33 64,218.66 64,224 L 63.1,224.08 C 63.03,218.71 63,213.36 62.99,208 z"
         style="opacity:1;fill:#3999cc" />
    </g>
    <g
       id="#99cc66ff">
      <path
         id="path519"
         d="M 52.18,225.18 L 52.87,225.17 C 52.69,225.34 52.34,225.69 52.17,225.87 L 52.18,225.18 z"
         style="opacity:1;fill:#99cc66" />
    </g>
    <g
       id="#6a9cceff">
      <path
         id="path522"
         d="M 65,226 C 70.67,226 76.33,226 82,226 L 82,227 C 76.33,227 70.67,226.99 65,227 L 65,226 z"
         style="opacity:1;fill:#6a9cce" />
      <path
         id="path524"
         d="M 97,226 C 102.67,226 108.33,226 114,226 L 114,227 C 108.33,226.99 102.67,227 97,227 L 97,226 z"
         style="opacity:1;fill:#6a9cce" />
    </g>
    <g
       id="#dfb992ff">
      <path
         id="path527"
         d="M 129,226 C 134.66,226 140.33,226 146,226 L 146,227 C 140.33,226.99 134.66,227 129,227 L 129,226 z"
         style="opacity:1;fill:#dfb992" />
    </g>
    <g
       id="#818282ff">
      <path
         id="path530"
         d="M 56.95,230.98 L 57.85,230.97 C 90.23,231.04 122.62,230.98 155,231 L 156,231 L 156,232 C 123.01,232.03 90.02,231.95 57.03,232.03 L 56.95,230.98 z"
         style="opacity:1;fill:#818282" />
    </g>
    <g
       id="#383838ff">
      <path
         id="path533"
         d="M 27,232 C 36.71,232 46.41,231.97 56.12,232.04 C 54.6,234.14 52.59,235.89 50.75,237.73 C 50.5,237.99 50.01,238.5 49.77,238.76 C 45.5,241.35 41.99,245.12 37.28,247.27 C 35.42,249.32 32.56,250.11 30.08,251.16 L 30,252 C 29.5,252 28.5,252 28,252 L 27,252 C 27,245.33 27,238.66 27,232 z"
         style="opacity:1;fill:#383838" />
    </g>
    <g
       id="#8d8d8eff">
      <path
         id="path536"
         d="M 82.99,239.98 C 83.77,239.97 85.33,239.96 86.11,239.95 C 87.7,240.07 89.29,240.06 90.88,239.94 C 91.46,239.99 92.62,240.07 93.19,240.12 L 93.16,240.78 L 93.87,240.9 L 95.14,241.13 L 95.14,241.8 L 95.85,241.86 L 96.92,241.94 L 97,243 L 98,243 L 98.1,243.79 C 98.38,244.07 98.93,244.62 99.21,244.9 L 100.05,245.08 L 100.15,246.14 L 100.22,246.85 L 100.9,246.84 L 100.95,248.11 C 101.01,248.55 101.11,249.44 101.16,249.88 L 101.91,249.86 C 101.9,251.69 101.89,255.36 101.88,257.19 L 101.22,257.15 L 101.1,257.87 L 100.87,259.14 L 100.2,259.14 L 100.14,259.85 L 100.05,260.92 L 99,261 L 99,262 L 98.21,262.1 C 97.93,262.38 97.38,262.93 97.1,263.21 L 96.92,264.05 L 95.86,264.15 L 95.15,264.22 L 95.16,264.9 L 93.89,264.96 C 93.44,265.02 92.55,265.13 92.11,265.19 L 92.12,265.96 L 90.9,266.02 C 89.31,265.93 87.71,265.93 86.12,266.06 C 85.33,266.05 83.77,266.03 82.99,266.02 L 83,265 C 82.5,265 81.5,265 81,265 L 81,264 L 79.81,263.83 L 79.83,263.18 L 79.13,263.13 L 78.08,263.05 L 78,262 L 76.95,261.92 L 76.87,260.87 L 76.82,260.17 L 76.17,260.19 L 76,259 L 75,259 C 75,258.5 75,257.5 75,257 C 75,254.33 75,251.66 75,249 C 75,248.5 75,247.5 75,247 L 76,247 L 76.17,245.81 L 76.82,245.83 L 76.87,245.13 L 76.95,244.08 L 78,244 L 78.08,242.95 L 79.13,242.87 L 79.83,242.82 L 79.81,242.17 L 81,242 L 81,241 C 81.5,241 82.5,241 83,241 L 82.99,239.98 M 85,241 L 85,242 C 84.25,242 82.75,242 82,242 L 81.87,242.81 C 79.92,244.63 77.46,246.1 76.82,248.9 L 76,249 C 76,250.33 76,251.66 76,253 C 77.75,253 81.25,253 83,253 L 83,248 L 84,248 C 84,249.5 84,252.5 84,254 L 85.13,254.17 L 85.15,254.71 C 87.26,255.32 89.74,255.32 91.85,254.71 L 91.88,254.18 L 93,254 C 93,252.5 93,249.5 93,248 L 94,248 L 94,253 L 95,253 C 95,250.5 95,245.5 95,243 L 94,243 L 94,242 C 93.25,242 91.75,242 91,242 L 91,241 C 89.5,241 86.5,241 85,241 z"
         style="opacity:1;fill:#8d8d8e" />
    </g>
    <g
       id="#706f70ff">
      <path
         id="path539"
         d="M 85,241 C 86.5,241 89.5,241 91,241 L 91,242 C 91.75,242 93.25,242 94,242 L 94,243 L 95,243 C 95,245.5 95,250.5 95,253 L 94,253 L 94,248 L 93,248 L 93,247 L 92,247 L 92,246 C 90.25,246 86.75,246 85,246 L 85,247 L 84,247 L 84,248 L 83,248 L 83,253 C 81.25,253 77.75,253 76,253 C 76,251.66 76,250.33 76,249 L 76.82,248.9 C 77.46,246.1 79.92,244.63 81.87,242.81 L 82,242 C 82.75,242 84.25,242 85,242 L 85,241 z"
         style="opacity:1;fill:#706f70" />
    </g>
    <g
       id="#454545ff">
      <path
         id="path542"
         d="M 95.14,241.13 C 95.32,241.31 95.67,241.67 95.85,241.86 L 95.14,241.8 L 95.14,241.13 z"
         style="opacity:1;fill:#454545" />
      <path
         id="path544"
         d="M 100.15,246.14 C 100.34,246.32 100.72,246.67 100.9,246.84 L 100.22,246.85 L 100.15,246.14 z"
         style="opacity:1;fill:#454545" />
      <path
         id="path546"
         d="M 100.2,259.14 L 100.87,259.14 C 100.69,259.32 100.33,259.67 100.14,259.85 L 100.2,259.14 z"
         style="opacity:1;fill:#454545" />
      <path
         id="path548"
         d="M 155.27,259.15 L 155.91,259.16 C 155.71,259.33 155.31,259.67 155.12,259.83 L 155.27,259.15 z"
         style="opacity:1;fill:#454545" />
    </g>
    <g
       id="#747374ff">
      <path
         id="path551"
         d="M 86.01,246.91 C 87.34,247.12 90,247.54 91.34,247.74 L 92.02,248 C 92,249.67 91.99,251.35 91.93,253.03 C 90.45,253.02 87.49,253 86,253 L 86,252 L 85.03,251.99 C 85.01,250.66 84.99,249.33 84.98,248 L 86,248 L 86.01,246.91 z"
         style="opacity:1;fill:#747374" />
    </g>
    <g
       id="#585758ff">
      <path
         id="path554"
         d="M 100.95,248.11 C 101.19,248.54 101.67,249.42 101.91,249.86 L 101.16,249.88 C 101.11,249.44 101.01,248.55 100.95,248.11 z"
         style="opacity:1;fill:#585758" />
    </g>
    <g
       id="#616161ff">
      <path
         id="path557"
         d="M 74,249 L 75,249 C 75,251.66 75,254.33 75,257 L 74,257 C 74,254.33 74,251.66 74,249 z"
         style="opacity:1;fill:#616161" />
    </g>
    <g
       id="#515151ff">
      <path
         id="path560"
         d="M 23.15,251.13 L 23.82,251.13 C 23.87,251.82 23.97,253.2 24.02,253.9 L 23.3,253.89 C 23.26,253.2 23.19,251.82 23.15,251.13 z"
         style="opacity:1;fill:#515151" />
      <path
         id="path562"
         d="M 158.05,251.09 L 158.86,251.11 C 158.65,251.55 158.23,252.44 158.02,252.88 C 158.03,252.43 158.05,251.54 158.05,251.09 z"
         style="opacity:1;fill:#515151" />
    </g>
    <g
       id="#929393ff">
      <path
         id="path565"
         d="M 85.03,251.99 L 86,252 L 86,253 C 87.49,253 90.45,253.02 91.93,253.03 L 91.88,254.18 C 89.65,253.8 87.35,253.8 85.13,254.17 C 85.1,253.63 85.06,252.54 85.03,251.99 z"
         style="opacity:1;fill:#929393" />
    </g>
    <g
       id="#3f3f3fff">
      <path
         id="path568"
         d="M 24.09,255.16 L 24.79,255.15 L 24.84,255.86 C 24.65,255.68 24.28,255.33 24.09,255.16 z"
         style="opacity:1;fill:#3f3f3f" />
      <path
         id="path570"
         d="M 95.15,264.22 L 95.86,264.15 C 95.68,264.34 95.33,264.71 95.16,264.9 L 95.15,264.22 z"
         style="opacity:1;fill:#3f3f3f" />
    </g>
    <g
       id="#3a3a3aff">
      <path
         id="path573"
         d="M 156.21,257.14 L 156.88,257.15 C 156.68,257.33 156.3,257.69 156.11,257.87 L 156.21,257.14 z"
         style="opacity:1;fill:#3a3a3a" />
    </g>
    <g
       id="#505050ff">
      <path
         id="path576"
         d="M 92.11,265.19 C 92.55,265.13 93.44,265.02 93.89,264.96 C 93.45,265.21 92.56,265.71 92.12,265.96 L 92.11,265.19 z"
         style="opacity:1;fill:#505050" />
    </g>
    <g
       id="#2b2b2bff">
      <path
         id="path579"
         d="M 86.12,266.06 C 87.71,265.93 89.31,265.93 90.9,266.02 L 90.89,266.65 C 89.48,267.41 87.53,267.4 86.12,266.66 L 86.12,266.06 z"
         style="opacity:1;fill:#2b2b2b" />
    </g>
    <g
       id="#484848ff">
      <path
         id="path582"
         d="M 40.13,268.99 C 40.57,269.03 41.45,269.11 41.89,269.15 L 41.86,269.92 C 41.43,269.68 40.56,269.22 40.13,268.99 z"
         style="opacity:1;fill:#484848" />
      <path
         id="path584"
         d="M 140.11,269.15 C 140.55,269.11 141.43,269.03 141.88,268.99 C 141.44,269.22 140.57,269.68 140.13,269.91 L 140.11,269.15 z"
         style="opacity:1;fill:#484848" />
    </g>
  </g>
</svg>
