<?xml version="1.0" encoding="UTF-8" standalone="no"?>
<svg
   xmlns:dc="http://purl.org/dc/elements/1.1/"
   xmlns:cc="http://creativecommons.org/ns#"
   xmlns:rdf="http://www.w3.org/1999/02/22-rdf-syntax-ns#"
   xmlns:svg="http://www.w3.org/2000/svg"
   xmlns="http://www.w3.org/2000/svg"
   xmlns:sodipodi="http://sodipodi.sourceforge.net/DTD/sodipodi-0.dtd"
   xmlns:inkscape="http://www.inkscape.org/namespaces/inkscape"
   width="120"
   height="120"
   viewBox="0 0 381 269"
   version="1.0"
   id="svg2"
   sodipodi:version="0.32"
   inkscape:version="0.46"
   sodipodi:docname="ipod.svg"
   inkscape:output_extension="org.inkscape.output.svg.inkscape">
  <metadata
     id="metadata604">
    <rdf:RDF>
      <cc:Work
         rdf:about="">
        <dc:format>image/svg+xml</dc:format>
        <dc:type
           rdf:resource="http://purl.org/dc/dcmitype/StillImage" />
      </cc:Work>
    </rdf:RDF>
  </metadata>
  <defs
     id="defs602">
    <inkscape:perspective
       sodipodi:type="inkscape:persp3d"
       inkscape:vp_x="0 : 168.125 : 1"
       inkscape:vp_y="0 : 1000 : 0"
       inkscape:vp_z="476.25 : 168.125 : 1"
       inkscape:persp3d-origin="238.125 : 112.08333 : 1"
       id="perspective606" />
  </defs>
  <sodipodi:namedview
     inkscape:window-height="713"
     inkscape:window-width="640"
     inkscape:pageshadow="2"
     inkscape:pageopacity="0.0"
     guidetolerance="10.0"
     gridtolerance="10.0"
     objecttolerance="10.0"
     borderopacity="1.0"
     bordercolor="#666666"
     pagecolor="#ffffff"
     id="base"
     showgrid="false"
     inkscape:zoom="1.1401575"
     inkscape:cx="238.125"
     inkscape:cy="168.125"
     inkscape:window-x="0"
     inkscape:window-y="0"
     inkscape:current-layer="svg2" />
  <g
     id="#fffffeff">
    <path
       d="M 128.1,0 L 129.9,0 C 129.3,1.65 128.7,1.65 128.1,0 z"
       id="path5"
       style="opacity:1;fill:#fffffe" />
    <path
       d="M 25.26,91.1 C 28.31,89.57 25.45,94.36 25.26,91.1 z"
       id="path7"
       style="opacity:1;fill:#fffffe" />
  </g>
  <g
     id="#f8f4ecff">
    <path
       d="M 131,1.76 C 137.79,0.34 145.65,2.76 151.4,6.68 C 145.12,5.59 139.42,2.13 132.99,1.89 C 132.49,1.85 131.5,1.79 131,1.76 z"
       id="path10"
       style="opacity:1;fill:#f8f4ec" />
  </g>
  <g
     id="#281b13ff">
    <path
       d="M 128.79,2.78 C 129.34,2.53 130.45,2.02 131,1.76 C 131.5,1.79 132.49,1.85 132.99,1.89 C 129.95,5.14 126.54,8 123.52,11.26 C 123.33,11.46 122.96,11.85 122.78,12.04 C 122.61,12.22 122.27,12.58 122.1,12.76 C 121.89,12.95 121.46,13.33 121.25,13.51 C 120.14,14.76 119.11,16.07 118.05,17.35 C 117.87,17.52 117.52,17.86 117.35,18.03 C 116.27,18.4 115.52,19.1 115.09,20.14 C 112.89,21.53 110.82,23.14 109.06,25.06 C 108.38,25.73 107.72,26.4 107.06,27.07 C 106.39,27.73 105.71,28.38 105.03,29.02 C 102.91,30.54 100.85,32.16 99.02,34.02 C 91.39,41.14 83.69,48.2 75.81,55.05 C 75.63,55.22 75.27,55.55 75.08,55.72 C 62.64,67.92 49.13,78.96 36.63,91.09 C 30.22,96.65 24.07,102.5 17.65,108.04 C 16.84,108.77 16.05,109.51 15.26,110.26 C 15.16,111.68 15.04,113.1 14.86,114.51 C 12.94,113.69 10.98,112.77 9.67,111.08 C 44.73,80.04 79.31,48.44 114.15,17.15 C 118.7,12.05 124.93,8.47 128.79,2.78 z"
       id="path13"
       style="opacity:1;fill:#281b13" />
  </g>
  <g
     id="#d7c094ff">
    <path
       d="M 132.99,1.89 C 139.42,2.13 145.12,5.59 151.4,6.68 C 155.09,7.67 158.59,9.27 161.91,11.18 C 164.71,12.94 167.76,14.34 171.04,14.96 L 171.88,15.12 C 174.59,18.17 178.8,18.81 181.97,21.16 C 180.35,24.91 178.33,28.59 175.56,31.63 C 175.12,38.99 174.9,46.38 173.76,53.67 C 172.03,57.58 174.71,60.95 176.13,64.32 C 170.52,66.66 165.11,69.43 159.69,72.18 C 159.37,72.28 158.74,72.48 158.43,72.58 L 157.67,72.71 L 156.81,72.84 L 156.92,72.06 C 157.14,71.85 157.57,71.43 157.78,71.22 C 158.38,70.63 158.38,70.63 157.78,71.22 C 157.57,71.43 157.14,71.85 156.92,72.06 C 156.39,72.05 155.32,72.02 154.78,72.01 L 154.84,71.09 L 155.53,70.78 C 155.3,70.68 154.85,70.48 154.62,70.37 C 154.46,70.15 154.12,69.71 153.96,69.49 C 153.81,69.44 153.51,69.35 153.36,69.31 C 152.62,69.5 152.62,69.5 153.36,69.31 L 153.96,69.49 C 154.12,69.71 154.46,70.15 154.62,70.37 L 154.84,71.09 C 154.64,71.37 154.22,71.92 154.01,72.2 C 153.49,72.27 152.45,72.42 151.93,72.5 C 151.74,71.39 151.74,71.39 151.93,72.5 L 152.07,73.19 C 151.05,72.73 150.02,72.31 148.98,71.93 C 148.35,71.7 148.35,71.7 148.98,71.93 C 148.51,72.97 148.64,74.23 149.57,74.97 C 148.72,74.96 147.01,74.93 146.15,74.91 C 145.87,74.42 145.29,73.42 145.01,72.92 C 148.83,70.17 141.82,69.56 145.01,72.92 C 143.22,72.68 141.42,72.52 139.63,72.41 C 140.82,71.54 142.01,70.66 143.18,69.76 C 143.35,69.62 143.67,69.35 143.83,69.22 C 144.32,68.77 144.32,68.77 143.83,69.22 C 143.67,69.35 143.35,69.62 143.18,69.76 C 140.99,69.66 139.55,68.39 139.29,66.22 C 138.91,65.94 138.16,65.37 137.78,65.09 C 141.04,64.6 136.84,61.86 137.78,65.09 C 136.93,64.62 136.08,64.17 135.22,63.73 C 135.09,62.97 134.82,61.45 134.69,60.69 C 135.88,60.64 135.88,60.64 134.69,60.69 L 133.88,60.93 C 134.57,59.71 134.32,58.84 133.12,58.34 C 133.11,58.98 133.08,60.25 133.06,60.89 C 132.58,61.04 131.62,61.33 131.13,61.47 C 131.47,60.34 131.78,59.2 132.08,58.06 C 131.53,58.25 130.44,58.64 129.9,58.84 C 129.85,58.8 129.76,58.72 129.71,58.68 C 129.76,58.72 129.85,58.8 129.9,58.84 C 129.15,59.54 128.42,60.26 127.7,60.99 C 128.49,59.83 128.3,58.96 127.13,58.38 C 127.06,59.01 126.91,60.28 126.84,60.92 L 125.67,61.02 L 125.88,60.47 C 125.62,60.59 125.08,60.81 124.81,60.92 L 124.06,61.17 C 123.81,61.17 123.3,61.17 123.05,61.17 L 122.3,60.94 C 122.08,60.96 121.65,61 121.43,61.03 L 120.63,61.1 C 119.4,60.67 119.4,60.67 120.63,61.1 C 119.28,62.72 117.26,62.72 115.34,62.64 C 114.67,61.32 113.95,60.03 113.16,58.78 C 113.36,58.62 113.36,58.62 113.16,58.78 C 112.62,58.49 111.54,57.9 111,57.61 C 111.23,57.11 111.71,56.12 111.95,55.62 L 112.71,55.58 C 113.48,56.54 113.48,56.54 112.71,55.58 L 112.48,54.97 C 112.51,54.81 112.57,54.49 112.59,54.33 C 112.45,54.11 112.16,53.69 112.01,53.47 C 113.2,50.43 109.04,52.16 112.01,53.47 L 111.97,54.23 C 111.75,54.44 111.31,54.86 111.09,55.07 L 110.31,55.04 C 111.22,52.84 107.63,53.24 109.44,55.04 C 107.34,53.66 105.06,52.58 102.98,51.17 C 102.19,49.25 101.49,47.31 100.73,45.39 L 101.14,45.56 C 101.05,45.38 100.88,45.02 100.79,44.84 L 100.83,44.29 C 101.02,44.17 101.39,43.92 101.57,43.79 L 100.98,43.64 C 100.61,42.14 100.31,40.62 99.93,39.11 C 103.54,36.4 105.87,32.28 109.85,29.99 C 109.98,29.89 110.25,29.69 110.38,29.6 C 110.25,29.69 109.98,29.89 109.85,29.99 C 108.88,26.07 114.88,24.56 116.12,21 C 116.6,20.85 117.57,20.56 118.06,20.41 C 118.32,21.67 118.32,21.67 118.06,20.41 C 118.07,20 118.08,19.18 118.09,18.77 C 118.24,18.56 118.55,18.15 118.7,17.94 C 119.74,17.26 120.79,16.6 121.84,15.93 C 121.69,15.33 121.4,14.12 121.25,13.51 C 121.46,13.33 121.89,12.95 122.1,12.76 C 122.27,12.58 122.61,12.22 122.78,12.04 C 122.96,11.85 123.33,11.46 123.52,11.26 C 126.54,8 129.95,5.14 132.99,1.89 M 123.25,14.25 C 123.8,14.8 123.8,14.8 123.25,14.25 M 111.25,32.25 C 111.8,32.8 111.8,32.8 111.25,32.25 M 109.93,47.12 L 109.89,47.76 C 109.9,47.6 109.92,47.28 109.93,47.12 C 111.55,44.09 106.76,46.45 109.93,47.12 M 103.1,47.26 C 101.57,50.31 106.36,47.45 103.1,47.26 M 109.89,47.76 C 109.39,48.53 109.39,48.53 109.89,47.76 M 107.25,50.25 C 107.8,50.8 107.8,50.8 107.25,50.25 M 109.25,50.25 C 109.8,50.8 109.8,50.8 109.25,50.25 M 119.25,54.25 C 119.8,54.8 119.8,54.8 119.25,54.25 M 121.25,54.25 C 121.8,54.8 121.8,54.8 121.25,54.25 M 115.25,58.25 C 115.8,58.8 115.8,58.8 115.25,58.25 M 145,59 C 144.38,59.62 144.38,59.62 145,59 C 145.62,58.38 145.62,58.38 145,59 M 149.25,59.25 C 149.8,59.8 149.8,59.8 149.25,59.25 M 151.83,60.23 L 151.8,60.88 C 151.81,60.72 151.82,60.39 151.83,60.23 C 151.37,59.46 151.37,59.46 151.83,60.23 M 117.25,60.25 C 117.8,60.8 117.8,60.8 117.25,60.25 M 148.26,61.83 C 148.72,63.33 149.27,63.36 149.91,61.92 C 149.5,61.89 148.68,61.85 148.26,61.83 C 149.18,58.59 144.95,61.98 148.26,61.83 M 154.25,60.25 C 154.8,60.8 154.8,60.8 154.25,60.25 M 149.91,61.92 C 150.42,63.56 152.99,62.19 151.8,60.88 C 151.33,61.14 150.39,61.66 149.91,61.92 M 153.25,62.25 C 153.8,62.8 153.8,62.8 153.25,62.25 M 155.25,62.25 C 155.8,62.8 155.8,62.8 155.25,62.25 M 140.1,63.26 C 138.57,66.31 143.36,63.45 140.1,63.26 M 144.25,64.25 C 144.8,64.8 144.8,64.8 144.25,64.25 M 154.25,64.25 C 154.8,64.8 154.8,64.8 154.25,64.25 M 142,67 C 142.62,67.62 142.62,67.62 142,67 C 141.38,66.38 141.38,66.38 142,67 M 147.25,66.25 C 147.8,66.8 147.8,66.8 147.25,66.25 M 160.26,66.1 C 160.45,69.36 163.31,64.57 160.26,66.1 M 162.25,68.25 C 162.8,68.8 162.8,68.8 162.25,68.25 z"
       id="path16"
       style="opacity:1;fill:#d7c094" />
    <path
       d="M 118.05,17.35 C 118.21,17.5 118.54,17.8 118.7,17.94 L 118.05,18.03 L 118.05,17.35 z"
       id="path18"
       style="opacity:1;fill:#d7c094" />
    <path
       d="M 117.35,18.03 L 118.05,18.03 L 118.09,18.77 C 117.9,18.58 117.53,18.22 117.35,18.03 z"
       id="path20"
       style="opacity:1;fill:#d7c094" />
    <path
       d="M 115.09,20.14 C 115.35,20.35 115.86,20.78 116.12,21 C 115.86,20.78 115.35,20.35 115.09,20.14 z"
       id="path22"
       style="opacity:1;fill:#d7c094" />
    <path
       d="M 109.06,25.06 C 109.34,25.35 109.34,25.35 109.06,25.06 z"
       id="path24"
       style="opacity:1;fill:#d7c094" />
    <path
       d="M 107.06,27.07 C 107.33,27.34 107.33,27.34 107.06,27.07 z"
       id="path26"
       style="opacity:1;fill:#d7c094" />
    <path
       d="M 105.03,29.02 C 105.38,29.38 105.38,29.38 105.03,29.02 z"
       id="path28"
       style="opacity:1;fill:#d7c094" />
    <path
       d="M 101.25,33.25 C 101.8,33.8 101.8,33.8 101.25,33.25 z"
       id="path30"
       style="opacity:1;fill:#d7c094" />
    <path
       d="M 99.02,34.02 C 99.35,34.35 99.35,34.35 99.02,34.02 z"
       id="path32"
       style="opacity:1;fill:#d7c094" />
    <path
       d="M 99.93,39.11 C 99.79,38.55 99.79,38.55 99.93,39.11 z"
       id="path34"
       style="opacity:1;fill:#d7c094" />
    <path
       d="M 100.6,43.45 L 100.98,43.64 L 100.83,44.29 C 100.77,44.08 100.66,43.66 100.6,43.45 z"
       id="path36"
       style="opacity:1;fill:#d7c094" />
    <path
       d="M 96.25,45.25 C 96.8,45.8 96.8,45.8 96.25,45.25 z"
       id="path38"
       style="opacity:1;fill:#d7c094" />
    <path
       d="M 100.34,45.7 C 100.45,45.49 100.67,45.06 100.79,44.84 L 100.73,45.39 L 100.34,45.7 z"
       id="path40"
       style="opacity:1;fill:#d7c094" />
    <path
       d="M 100.34,45.7 C 99.78,46.28 99.78,46.28 100.34,45.7 z"
       id="path42"
       style="opacity:1;fill:#d7c094" />
    <path
       d="M 102.13,54.03 C 101.33,52.68 101.61,51.72 102.98,51.17 C 103.47,52.34 103.19,53.3 102.13,54.03 z"
       id="path44"
       style="opacity:1;fill:#d7c094" />
    <path
       d="M 102.13,54.03 C 101.15,54.45 101.15,54.45 102.13,54.03 z"
       id="path46"
       style="opacity:1;fill:#d7c094" />
    <path
       d="M 111.97,54.23 L 112.59,54.33 L 112.48,54.97 L 111.84,54.96 L 111.97,54.23 z"
       id="path48"
       style="opacity:1;fill:#d7c094" />
    <path
       d="M 109.44,55.04 L 110.31,55.04 L 110.35,55.66 C 110.12,55.51 109.67,55.2 109.44,55.04 z"
       id="path50"
       style="opacity:1;fill:#d7c094" />
    <path
       d="M 111.09,55.07 L 111.84,54.96 L 111.95,55.62 L 111.15,55.72 L 111.09,55.07 z"
       id="path52"
       style="opacity:1;fill:#d7c094" />
    <path
       d="M 110.35,55.66 L 111.15,55.72 C 111.11,56.19 111.03,57.14 111,57.61 C 110.83,57.13 110.51,56.15 110.35,55.66 z"
       id="path54"
       style="opacity:1;fill:#d7c094" />
    <path
       d="M 121.43,61.03 L 122.3,60.94 C 123.47,63.04 119.72,62.96 121.43,61.03 z"
       id="path56"
       style="opacity:1;fill:#d7c094" />
    <path
       d="M 123.05,61.17 L 124.06,61.17 C 125.19,63.15 121.81,63.11 123.05,61.17 z"
       id="path58"
       style="opacity:1;fill:#d7c094" />
    <path
       d="M 124.81,60.92 L 125.67,61.02 C 127.21,63.23 123.6,62.99 124.81,60.92 z"
       id="path60"
       style="opacity:1;fill:#d7c094" />
    <path
       d="M 126.84,60.92 L 127.7,60.99 C 129.02,63.1 125.46,62.91 126.84,60.92 z"
       id="path62"
       style="opacity:1;fill:#d7c094" />
    <path
       d="M 130.31,62.14 C 130.52,61.98 130.93,61.64 131.13,61.47 L 130.75,62.17 L 130.31,62.14 z"
       id="path64"
       style="opacity:1;fill:#d7c094" />
    <path
       d="M 133.06,60.89 L 133.88,60.93 C 135.37,62.99 131.6,62.93 133.06,60.89 z"
       id="path66"
       style="opacity:1;fill:#d7c094" />
    <path
       d="M 130.31,62.14 C 129.68,62.43 129.68,62.43 130.31,62.14 z"
       id="path68"
       style="opacity:1;fill:#d7c094" />
    <path
       d="M 130.75,62.17 C 131.31,62.21 131.31,62.21 130.75,62.17 z"
       id="path70"
       style="opacity:1;fill:#d7c094" />
    <path
       d="M 154.01,72.2 L 154.78,72.01 L 154.78,72.78 L 154.06,72.96 L 154.01,72.2 z"
       id="path72"
       style="opacity:1;fill:#d7c094" />
    <path
       d="M 152.07,73.19 C 152.57,73.13 153.56,73.01 154.06,72.96 L 154.02,73.81 C 153.54,73.85 152.58,73.93 152.11,73.98 L 152.07,73.19 z"
       id="path74"
       style="opacity:1;fill:#d7c094" />
    <path
       d="M 154.78,72.78 C 155.29,72.79 156.3,72.82 156.81,72.84 L 156.83,73.55 C 156.33,73.88 155.34,74.54 154.84,74.88 L 154.08,74.72 L 154.02,73.81 C 154.21,73.55 154.59,73.04 154.78,72.78 z"
       id="path76"
       style="opacity:1;fill:#d7c094" />
    <path
       d="M 151.39,74.73 C 151.57,74.54 151.93,74.17 152.11,73.98 L 152.04,74.7 L 151.39,74.73 z"
       id="path78"
       style="opacity:1;fill:#d7c094" />
    <path
       d="M 144.57,75.51 C 144.66,75.61 144.85,75.83 144.94,75.94 C 144.85,75.83 144.66,75.61 144.57,75.51 z"
       id="path80"
       style="opacity:1;fill:#d7c094" />
    <path
       d="M 149.57,74.97 C 150.03,74.91 150.94,74.79 151.39,74.73 L 151.13,75.49 C 149.66,76.44 148.88,78.04 148.73,79.75 L 148.14,80.2 C 147.25,78.7 146.5,78.82 145.89,80.56 C 145.52,80.39 144.79,80.05 144.42,79.87 C 144.6,78.56 144.77,77.25 144.94,75.94 C 145.5,76.61 146.06,77.27 146.62,77.95 C 147.59,76.95 148.56,75.94 149.57,74.97 z"
       id="path82"
       style="opacity:1;fill:#d7c094" />
    <path
       d="M 152.04,74.7 C 152.55,74.71 153.57,74.72 154.08,74.72 L 154.04,75.47 C 153.55,75.81 152.57,76.5 152.08,76.84 C 151.84,76.5 151.37,75.83 151.13,75.49 C 151.36,75.29 151.81,74.9 152.04,74.7 z"
       id="path84"
       style="opacity:1;fill:#d7c094" />
    <path
       d="M 139.25,79.25 C 139.8,79.8 139.8,79.8 139.25,79.25 z"
       id="path86"
       style="opacity:1;fill:#d7c094" />
    <path
       d="M 145.89,80.56 C 146.14,80.7 146.65,80.97 146.9,81.11 L 146.27,81.21 L 145.89,80.56 z"
       id="path88"
       style="opacity:1;fill:#d7c094" />
    <path
       d="M 145.61,81.7 C 145.77,81.58 146.11,81.33 146.27,81.21 L 146.14,81.79 L 145.61,81.7 z"
       id="path90"
       style="opacity:1;fill:#d7c094" />
    <path
       d="M 144.03,83.89 C 143.68,83.63 143.68,83.63 144.03,83.89 z"
       id="path92"
       style="opacity:1;fill:#d7c094" />
    <path
       d="M 141,85 C 141.62,84.38 141.62,84.38 141,85 z"
       id="path94"
       style="opacity:1;fill:#d7c094" />
    <path
       d="M 141,85 C 140.38,85.62 140.38,85.62 141,85 z"
       id="path96"
       style="opacity:1;fill:#d7c094" />
    <path
       d="M 139.2,88.25 C 139.34,88.13 139.6,87.89 139.74,87.77 L 139.79,88.18 L 139.2,88.25 z"
       id="path98"
       style="opacity:1;fill:#d7c094" />
    <path
       d="M 138.68,88.73 C 138.81,88.61 139.07,88.37 139.2,88.25 L 139.07,88.83 L 138.68,88.73 z"
       id="path100"
       style="opacity:1;fill:#d7c094" />
    <path
       d="M 136.22,91.17 C 136.34,91.04 136.58,90.78 136.7,90.65 L 136.8,91.03 L 136.22,91.17 z"
       id="path102"
       style="opacity:1;fill:#d7c094" />
    <path
       d="M 135.74,91.71 C 135.86,91.58 136.1,91.31 136.22,91.17 L 136.15,91.77 L 135.74,91.71 z"
       id="path104"
       style="opacity:1;fill:#d7c094" />
  </g>
  <g
     id="#e1dcd6fd">
    <path
       d="M 103.51,23.89 C 113.23,18.48 119.04,8.17 128.79,2.78 C 124.93,8.47 118.7,12.05 114.15,17.15 C 79.31,48.44 44.73,80.04 9.67,111.08 C 3.94,113.49 0.13,118.67 0.98,125.08 L 0,124.93 L 0,119.37 C 1,116.41 2.9,113.93 4.82,111.53 C 12.05,107.63 17.44,101.04 23.76,95.87 C 23.67,95.51 23.5,94.78 23.41,94.41 C 26.26,93.57 28.72,91.91 30.71,89.72 C 44.74,77.48 57.88,64.07 72.64,52.72 C 72.57,52.35 72.42,51.59 72.35,51.22 C 72.92,51.1 74.06,50.88 74.63,50.77 C 74.61,50.45 74.57,49.83 74.55,49.52 C 80.09,44.42 87.36,40.95 91.54,34.57 C 91.83,34.58 92.42,34.62 92.71,34.63 C 96.11,30.85 100.33,27.88 103.51,23.89 z"
       id="path107"
       style="opacity:1;fill:#e1dcd6" />
  </g>
  <g
     id="#b8a47dff">
    <path
       d="M 122.78,12.04 C 122.96,11.85 123.33,11.46 123.52,11.26 C 123.33,11.46 122.96,11.85 122.78,12.04 z"
       id="path110"
       style="opacity:1;fill:#b8a47d" />
    <path
       d="M 122.1,12.76 C 122.27,12.58 122.61,12.22 122.78,12.04 C 122.61,12.22 122.27,12.58 122.1,12.76 z"
       id="path112"
       style="opacity:1;fill:#b8a47d" />
    <path
       d="M 121.25,13.51 C 121.46,13.33 121.89,12.95 122.1,12.76 C 121.89,12.95 121.46,13.33 121.25,13.51 z"
       id="path114"
       style="opacity:1;fill:#b8a47d" />
    <path
       d="M 118.05,17.35 C 119.11,16.07 120.14,14.76 121.25,13.51 C 121.4,14.12 121.69,15.33 121.84,15.93 C 120.79,16.6 119.74,17.26 118.7,17.94 C 118.54,17.8 118.21,17.5 118.05,17.35 z"
       id="path116"
       style="opacity:1;fill:#b8a47d" />
    <path
       d="M 123.25,14.25 C 123.8,14.8 123.8,14.8 123.25,14.25 z"
       id="path118"
       style="opacity:1;fill:#b8a47d" />
    <path
       d="M 117.35,18.03 C 117.52,17.86 117.87,17.52 118.05,17.35 L 118.05,18.03 L 117.35,18.03 z"
       id="path120"
       style="opacity:1;fill:#b8a47d" />
    <path
       d="M 115.09,20.14 C 115.52,19.1 116.27,18.4 117.35,18.03 C 117.53,18.22 117.9,18.58 118.09,18.77 C 118.08,19.18 118.07,20 118.06,20.41 C 117.57,20.56 116.6,20.85 116.12,21 C 115.86,20.78 115.35,20.35 115.09,20.14 z"
       id="path122"
       style="opacity:1;fill:#b8a47d" />
    <path
       d="M 118.05,18.03 L 118.7,17.94 C 118.55,18.15 118.24,18.56 118.09,18.77 L 118.05,18.03 z"
       id="path124"
       style="opacity:1;fill:#b8a47d" />
    <path
       d="M 118.06,20.41 C 118.32,21.67 118.32,21.67 118.06,20.41 z"
       id="path126"
       style="opacity:1;fill:#b8a47d" />
    <path
       d="M 111.25,32.25 C 111.8,32.8 111.8,32.8 111.25,32.25 z"
       id="path128"
       style="opacity:1;fill:#b8a47d" />
    <path
       d="M 109.93,47.12 C 106.76,46.45 111.55,44.09 109.93,47.12 z"
       id="path130"
       style="opacity:1;fill:#b8a47d" />
    <path
       d="M 109.93,47.12 C 109.92,47.28 109.9,47.6 109.89,47.76 L 109.93,47.12 z"
       id="path132"
       style="opacity:1;fill:#b8a47d" />
    <path
       d="M 109.89,47.76 C 109.39,48.53 109.39,48.53 109.89,47.76 z"
       id="path134"
       style="opacity:1;fill:#b8a47d" />
    <path
       d="M 107.25,50.25 C 107.8,50.8 107.8,50.8 107.25,50.25 z"
       id="path136"
       style="opacity:1;fill:#b8a47d" />
    <path
       d="M 109.25,50.25 C 109.8,50.8 109.8,50.8 109.25,50.25 z"
       id="path138"
       style="opacity:1;fill:#b8a47d" />
    <path
       d="M 112.01,53.47 C 113.2,50.43 109.04,52.16 112.01,53.47 z"
       id="path140"
       style="opacity:1;fill:#b8a47d" />
    <path
       d="M 112.01,53.47 C 112.16,53.69 112.45,54.11 112.59,54.33 L 111.97,54.23 L 112.01,53.47 z"
       id="path142"
       style="opacity:1;fill:#b8a47d" />
    <path
       d="M 112.59,54.33 C 112.57,54.49 112.51,54.81 112.48,54.97 L 112.59,54.33 z"
       id="path144"
       style="opacity:1;fill:#b8a47d" />
    <path
       d="M 119.25,54.25 C 119.8,54.8 119.8,54.8 119.25,54.25 z"
       id="path146"
       style="opacity:1;fill:#b8a47d" />
    <path
       d="M 121.25,54.25 C 121.8,54.8 121.8,54.8 121.25,54.25 z"
       id="path148"
       style="opacity:1;fill:#b8a47d" />
    <path
       d="M 111.84,54.96 L 112.48,54.97 L 112.71,55.58 L 111.95,55.62 L 111.84,54.96 z"
       id="path150"
       style="opacity:1;fill:#b8a47d" />
    <path
       d="M 145,59 C 145.62,58.38 145.62,58.38 145,59 z"
       id="path152"
       style="opacity:1;fill:#b8a47d" />
    <path
       d="M 145,59 C 144.38,59.62 144.38,59.62 145,59 z"
       id="path154"
       style="opacity:1;fill:#b8a47d" />
    <path
       d="M 149.25,59.25 C 149.8,59.8 149.8,59.8 149.25,59.25 z"
       id="path156"
       style="opacity:1;fill:#b8a47d" />
    <path
       d="M 151.83,60.23 C 151.37,59.46 151.37,59.46 151.83,60.23 z"
       id="path158"
       style="opacity:1;fill:#b8a47d" />
    <path
       d="M 120.63,61.1 C 119.4,60.67 119.4,60.67 120.63,61.1 z"
       id="path160"
       style="opacity:1;fill:#b8a47d" />
    <path
       d="M 121.43,61.03 C 121.65,61 122.08,60.96 122.3,60.94 L 121.43,61.03 z"
       id="path162"
       style="opacity:1;fill:#b8a47d" />
    <path
       d="M 123.05,61.17 C 123.3,61.17 123.81,61.17 124.06,61.17 L 123.05,61.17 z"
       id="path164"
       style="opacity:1;fill:#b8a47d" />
    <path
       d="M 124.81,60.92 C 125.08,60.81 125.62,60.59 125.88,60.47 L 125.67,61.02 L 124.81,60.92 z"
       id="path166"
       style="opacity:1;fill:#b8a47d" />
    <path
       d="M 148.26,61.83 C 144.95,61.98 149.18,58.59 148.26,61.83 z"
       id="path168"
       style="opacity:1;fill:#b8a47d" />
    <path
       d="M 151.83,60.23 C 151.82,60.39 151.81,60.72 151.8,60.88 L 151.83,60.23 z"
       id="path170"
       style="opacity:1;fill:#b8a47d" />
    <path
       d="M 154.25,60.25 C 154.8,60.8 154.8,60.8 154.25,60.25 z"
       id="path172"
       style="opacity:1;fill:#b8a47d" />
    <path
       d="M 149.91,61.92 C 150.39,61.66 151.33,61.14 151.8,60.88 C 152.99,62.19 150.42,63.56 149.91,61.92 z"
       id="path174"
       style="opacity:1;fill:#b8a47d" />
    <path
       d="M 148.26,61.83 C 148.68,61.85 149.5,61.89 149.91,61.92 C 149.27,63.36 148.72,63.33 148.26,61.83 z"
       id="path176"
       style="opacity:1;fill:#b8a47d" />
    <path
       d="M 153.25,62.25 C 153.8,62.8 153.8,62.8 153.25,62.25 z"
       id="path178"
       style="opacity:1;fill:#b8a47d" />
    <path
       d="M 155.25,62.25 C 155.8,62.8 155.8,62.8 155.25,62.25 z"
       id="path180"
       style="opacity:1;fill:#b8a47d" />
    <path
       d="M 154.25,64.25 C 154.8,64.8 154.8,64.8 154.25,64.25 z"
       id="path182"
       style="opacity:1;fill:#b8a47d" />
    <path
       d="M 147.25,66.25 C 147.8,66.8 147.8,66.8 147.25,66.25 z"
       id="path184"
       style="opacity:1;fill:#b8a47d" />
    <path
       d="M 160.26,66.1 C 163.31,64.57 160.45,69.36 160.26,66.1 z"
       id="path186"
       style="opacity:1;fill:#b8a47d" />
    <path
       d="M 153.36,69.31 C 153.51,69.35 153.81,69.44 153.96,69.49 L 153.36,69.31 z"
       id="path188"
       style="opacity:1;fill:#b8a47d" />
    <path
       d="M 162.25,68.25 C 162.8,68.8 162.8,68.8 162.25,68.25 z"
       id="path190"
       style="opacity:1;fill:#b8a47d" />
    <path
       d="M 153.36,69.31 C 152.62,69.5 152.62,69.5 153.36,69.31 z"
       id="path192"
       style="opacity:1;fill:#b8a47d" />
    <path
       d="M 153.96,69.49 C 154.12,69.71 154.46,70.15 154.62,70.37 C 154.46,70.15 154.12,69.71 153.96,69.49 z"
       id="path194"
       style="opacity:1;fill:#b8a47d" />
    <path
       d="M 154.62,70.37 C 154.85,70.48 155.3,70.68 155.53,70.78 L 154.84,71.09 L 154.62,70.37 z"
       id="path196"
       style="opacity:1;fill:#b8a47d" />
    <path
       d="M 157.78,71.22 C 158.38,70.63 158.38,70.63 157.78,71.22 z"
       id="path198"
       style="opacity:1;fill:#b8a47d" />
    <path
       d="M 151.93,72.5 C 151.74,71.39 151.74,71.39 151.93,72.5 z"
       id="path200"
       style="opacity:1;fill:#b8a47d" />
    <path
       d="M 156.92,72.06 C 157.14,71.85 157.57,71.43 157.78,71.22 C 157.57,71.43 157.14,71.85 156.92,72.06 z"
       id="path202"
       style="opacity:1;fill:#b8a47d" />
    <path
       d="M 154.78,72.01 C 155.32,72.02 156.39,72.05 156.92,72.06 L 156.81,72.84 C 156.3,72.82 155.29,72.79 154.78,72.78 L 154.78,72.01 z"
       id="path204"
       style="opacity:1;fill:#b8a47d" />
    <path
       d="M 158.43,72.58 C 158.74,72.48 159.37,72.28 159.69,72.18 C 159.37,72.28 158.74,72.48 158.43,72.58 z"
       id="path206"
       style="opacity:1;fill:#b8a47d" />
    <path
       d="M 156.81,72.84 L 157.67,72.71 C 157.46,72.92 157.04,73.34 156.83,73.55 L 156.81,72.84 z"
       id="path208"
       style="opacity:1;fill:#b8a47d" />
    <path
       d="M 154.08,74.72 L 154.84,74.88 L 154.68,75.5 L 154.04,75.47 L 154.08,74.72 z"
       id="path210"
       style="opacity:1;fill:#b8a47d" />
  </g>
  <g
     id="#faf6f0ff">
    <path
       d="M 161.91,11.18 C 163.35,11.14 166.25,11.07 167.7,11.03 C 167.57,11.5 167.32,12.45 167.2,12.92 C 167.83,12.99 169.1,13.14 169.74,13.21 C 170.06,13.65 170.71,14.52 171.04,14.96 C 167.76,14.34 164.71,12.94 161.91,11.18 z"
       id="path213"
       style="opacity:1;fill:#faf6f0" />
  </g>
  <g
     id="#decea2ff">
    <path
       d="M 171.88,15.12 C 179.05,16.29 185.91,19.11 192.05,22.95 C 205.59,28.68 219.14,35.01 233.39,38.7 C 237.16,39.46 241.07,40.43 244.21,42.79 C 251.54,47.43 260.07,49.61 268,53.01 C 267.78,53.47 267.34,54.37 267.11,54.83 C 268.1,55.5 269.08,56.17 270.07,56.85 C 269.36,56.87 267.96,56.9 267.26,56.91 C 267.57,58.58 267.84,60.26 268.07,61.94 C 262.99,60.86 258.05,57.51 252.73,58.75 C 249.36,58.75 246.06,57.97 242.76,57.41 C 243.97,57.11 245.18,56.78 246.38,56.43 C 222.8,52.87 198.33,55.65 176.13,64.32 C 174.71,60.95 172.03,57.58 173.76,53.67 C 174.9,46.38 175.12,38.99 175.56,31.63 C 178.33,28.59 180.35,24.91 181.97,21.16 C 178.8,18.81 174.59,18.17 171.88,15.12 z"
       id="path216"
       style="opacity:1;fill:#decea2" />
  </g>
  <g
     id="#ffffffff">
    <path
       d="M 107.25,19.25 C 107.8,19.8 107.8,19.8 107.25,19.25 z"
       id="path219"
       style="opacity:1;fill:#ffffff" />
    <path
       d="M 365.25,142.25 C 365.8,142.8 365.8,142.8 365.25,142.25 z"
       id="path221"
       style="opacity:1;fill:#ffffff" />
    <path
       d="M 365.25,158.25 C 365.8,158.8 365.8,158.8 365.25,158.25 z"
       id="path223"
       style="opacity:1;fill:#ffffff" />
    <path
       d="M 31.25,180.25 C 31.8,180.8 31.8,180.8 31.25,180.25 z"
       id="path225"
       style="opacity:1;fill:#ffffff" />
  </g>
  <g
     id="#b69d71ff">
    <path
       d="M 109.06,25.06 C 110.82,23.14 112.89,21.53 115.09,20.14 C 115.35,20.35 115.86,20.78 116.12,21 C 114.88,24.56 108.88,26.07 109.85,29.99 C 105.87,32.28 103.54,36.4 99.93,39.11 C 99.79,38.55 99.79,38.55 99.93,39.11 C 100.31,40.62 100.61,42.14 100.98,43.64 L 100.6,43.45 C 100.66,43.66 100.77,44.08 100.83,44.29 L 100.79,44.84 C 100.67,45.06 100.45,45.49 100.34,45.7 C 99.78,46.28 99.78,46.28 100.34,45.7 L 100.73,45.39 C 101.49,47.31 102.19,49.25 102.98,51.17 C 101.61,51.72 101.33,52.68 102.13,54.03 C 101.15,54.45 101.15,54.45 102.13,54.03 C 103.19,53.3 103.47,52.34 102.98,51.17 C 105.06,52.58 107.34,53.66 109.44,55.04 C 109.67,55.2 110.12,55.51 110.35,55.66 C 110.51,56.15 110.83,57.13 111,57.61 C 111.54,57.9 112.62,58.49 113.16,58.78 C 113.95,60.03 114.67,61.32 115.34,62.64 C 117.26,62.72 119.28,62.72 120.63,61.1 L 121.43,61.03 C 119.72,62.96 123.47,63.04 122.3,60.94 L 123.05,61.17 C 121.81,63.11 125.19,63.15 124.06,61.17 L 124.81,60.92 C 123.6,62.99 127.21,63.23 125.67,61.02 L 126.84,60.92 C 125.46,62.91 129.02,63.1 127.7,60.99 C 128.42,60.26 129.15,59.54 129.9,58.84 C 130.44,58.64 131.53,58.25 132.08,58.06 C 131.78,59.2 131.47,60.34 131.13,61.47 C 130.93,61.64 130.52,61.98 130.31,62.14 C 129.68,62.43 129.68,62.43 130.31,62.14 L 130.75,62.17 C 131.31,62.21 131.31,62.21 130.75,62.17 L 131.13,61.47 C 131.62,61.33 132.58,61.04 133.06,60.89 C 131.6,62.93 135.37,62.99 133.88,60.93 L 134.69,60.69 C 134.82,61.45 135.09,62.97 135.22,63.73 C 136.08,64.17 136.93,64.62 137.78,65.09 C 138.16,65.37 138.91,65.94 139.29,66.22 C 139.55,68.39 140.99,69.66 143.18,69.76 C 142.01,70.66 140.82,71.54 139.63,72.41 C 141.42,72.52 143.22,72.68 145.01,72.92 C 145.29,73.42 145.87,74.42 146.15,74.91 C 147.01,74.93 148.72,74.96 149.57,74.97 C 148.56,75.94 147.59,76.95 146.62,77.95 C 146.06,77.27 145.5,76.61 144.94,75.94 C 144.85,75.83 144.66,75.61 144.57,75.51 C 144.66,75.61 144.85,75.83 144.94,75.94 C 144.77,77.25 144.6,78.56 144.42,79.87 C 144.79,80.05 145.52,80.39 145.89,80.56 L 146.27,81.21 C 146.11,81.33 145.77,81.58 145.61,81.7 L 146.14,81.79 C 145.43,82.48 144.72,83.18 144.03,83.89 C 143.68,83.63 143.68,83.63 144.03,83.89 C 142.72,85.42 141.3,86.85 139.79,88.18 L 139.74,87.77 C 139.6,87.89 139.34,88.13 139.2,88.25 C 139.07,88.37 138.81,88.61 138.68,88.73 L 139.07,88.83 C 138.3,89.55 137.54,90.29 136.8,91.03 L 136.7,90.65 C 136.58,90.78 136.34,91.04 136.22,91.17 C 136.1,91.31 135.86,91.58 135.74,91.71 L 136.15,91.77 C 131.82,98.6 127.91,105.77 125.63,113.58 C 124.99,116.26 124.28,119.21 122.04,121.04 C 112.94,125.4 103.91,130.22 94.3,133.36 C 81.65,133.73 68.91,132.33 56.92,128.16 C 52.84,125.98 51.35,121.52 50.77,117.22 C 50.22,112.57 45.7,110.1 43.99,105.98 C 41.17,101.17 42.91,95.5 42.12,90.27 C 40.35,90.88 38.52,91.66 36.63,91.09 C 49.13,78.96 62.64,67.92 75.08,55.72 C 75.27,55.55 75.63,55.22 75.81,55.05 C 83.69,48.2 91.39,41.14 99.02,34.02 C 99.35,34.35 99.35,34.35 99.02,34.02 C 100.85,32.16 102.91,30.54 105.03,29.02 C 105.38,29.38 105.38,29.38 105.03,29.02 C 105.71,28.38 106.39,27.73 107.06,27.07 C 107.33,27.34 107.33,27.34 107.06,27.07 C 107.72,26.4 108.38,25.73 109.06,25.06 C 109.34,25.35 109.34,25.35 109.06,25.06 M 101.25,33.25 C 101.8,33.8 101.8,33.8 101.25,33.25 M 96.25,45.25 C 96.8,45.8 96.8,45.8 96.25,45.25 M 139.25,79.25 C 139.8,79.8 139.8,79.8 139.25,79.25 M 141,85 C 140.38,85.62 140.38,85.62 141,85 C 141.62,84.38 141.62,84.38 141,85 z"
       id="path228"
       style="opacity:1;fill:#b69d71" />
    <path
       d="M 109.85,29.99 C 109.98,29.89 110.25,29.69 110.38,29.6 C 110.25,29.69 109.98,29.89 109.85,29.99 z"
       id="path230"
       style="opacity:1;fill:#b69d71" />
    <path
       d="M 100.98,43.64 L 101.57,43.79 C 101.39,43.92 101.02,44.17 100.83,44.29 L 100.98,43.64 z"
       id="path232"
       style="opacity:1;fill:#b69d71" />
    <path
       d="M 100.79,44.84 C 100.88,45.02 101.05,45.38 101.14,45.56 L 100.73,45.39 L 100.79,44.84 z"
       id="path234"
       style="opacity:1;fill:#b69d71" />
    <path
       d="M 103.1,47.26 C 106.36,47.45 101.57,50.31 103.1,47.26 z"
       id="path236"
       style="opacity:1;fill:#b69d71" />
    <path
       d="M 109.44,55.04 C 107.63,53.24 111.22,52.84 110.31,55.04 L 109.44,55.04 z"
       id="path238"
       style="opacity:1;fill:#b69d71" />
    <path
       d="M 111.09,55.07 C 111.31,54.86 111.75,54.44 111.97,54.23 L 111.84,54.96 L 111.09,55.07 z"
       id="path240"
       style="opacity:1;fill:#b69d71" />
    <path
       d="M 110.31,55.04 L 111.09,55.07 L 111.15,55.72 L 110.35,55.66 L 110.31,55.04 z"
       id="path242"
       style="opacity:1;fill:#b69d71" />
    <path
       d="M 111.15,55.72 L 111.95,55.62 C 111.71,56.12 111.23,57.11 111,57.61 C 111.03,57.14 111.11,56.19 111.15,55.72 z"
       id="path244"
       style="opacity:1;fill:#b69d71" />
    <path
       d="M 112.71,55.58 C 113.48,56.54 113.48,56.54 112.71,55.58 z"
       id="path246"
       style="opacity:1;fill:#b69d71" />
    <path
       d="M 113.16,58.78 C 113.36,58.62 113.36,58.62 113.16,58.78 z"
       id="path248"
       style="opacity:1;fill:#b69d71" />
    <path
       d="M 115.25,58.25 C 115.8,58.8 115.8,58.8 115.25,58.25 z"
       id="path250"
       style="opacity:1;fill:#b69d71" />
    <path
       d="M 127.13,58.38 C 128.3,58.96 128.49,59.83 127.7,60.99 L 126.84,60.92 C 126.91,60.28 127.06,59.01 127.13,58.38 z"
       id="path252"
       style="opacity:1;fill:#b69d71" />
    <path
       d="M 129.71,58.68 C 129.76,58.72 129.85,58.8 129.9,58.84 C 129.85,58.8 129.76,58.72 129.71,58.68 z"
       id="path254"
       style="opacity:1;fill:#b69d71" />
    <path
       d="M 133.12,58.34 C 134.32,58.84 134.57,59.71 133.88,60.93 L 133.06,60.89 C 133.08,60.25 133.11,58.98 133.12,58.34 z"
       id="path256"
       style="opacity:1;fill:#b69d71" />
    <path
       d="M 117.25,60.25 C 117.8,60.8 117.8,60.8 117.25,60.25 z"
       id="path258"
       style="opacity:1;fill:#b69d71" />
    <path
       d="M 134.69,60.69 C 135.88,60.64 135.88,60.64 134.69,60.69 z"
       id="path260"
       style="opacity:1;fill:#b69d71" />
    <path
       d="M 137.78,65.09 C 141.04,64.6 136.84,61.86 137.78,65.09 z"
       id="path262"
       style="opacity:1;fill:#b69d71" />
    <path
       d="M 140.1,63.26 C 143.36,63.45 138.57,66.31 140.1,63.26 z"
       id="path264"
       style="opacity:1;fill:#b69d71" />
    <path
       d="M 144.25,64.25 C 144.8,64.8 144.8,64.8 144.25,64.25 z"
       id="path266"
       style="opacity:1;fill:#b69d71" />
    <path
       d="M 142,67 C 141.38,66.38 141.38,66.38 142,67 z"
       id="path268"
       style="opacity:1;fill:#b69d71" />
    <path
       d="M 142,67 C 142.62,67.62 142.62,67.62 142,67 z"
       id="path270"
       style="opacity:1;fill:#b69d71" />
    <path
       d="M 143.83,69.22 C 144.32,68.77 144.32,68.77 143.83,69.22 z"
       id="path272"
       style="opacity:1;fill:#b69d71" />
    <path
       d="M 143.18,69.76 C 143.35,69.62 143.67,69.35 143.83,69.22 C 143.67,69.35 143.35,69.62 143.18,69.76 z"
       id="path274"
       style="opacity:1;fill:#b69d71" />
    <path
       d="M 145.01,72.92 C 148.83,70.17 141.82,69.56 145.01,72.92 z"
       id="path276"
       style="opacity:1;fill:#b69d71" />
    <path
       d="M 148.98,71.93 C 148.35,71.7 148.35,71.7 148.98,71.93 z"
       id="path278"
       style="opacity:1;fill:#b69d71" />
    <path
       d="M 154.01,72.2 C 154.22,71.92 154.64,71.37 154.84,71.09 L 154.78,72.01 L 154.01,72.2 z"
       id="path280"
       style="opacity:1;fill:#b69d71" />
    <path
       d="M 148.98,71.93 C 150.02,72.31 151.05,72.73 152.07,73.19 L 152.11,73.98 C 151.93,74.17 151.57,74.54 151.39,74.73 C 150.94,74.79 150.03,74.91 149.57,74.97 C 148.64,74.23 148.51,72.97 148.98,71.93 z"
       id="path282"
       style="opacity:1;fill:#b69d71" />
    <path
       d="M 151.93,72.5 C 152.45,72.42 153.49,72.27 154.01,72.2 L 154.06,72.96 C 153.56,73.01 152.57,73.13 152.07,73.19 L 151.93,72.5 z"
       id="path284"
       style="opacity:1;fill:#b69d71" />
    <path
       d="M 154.06,72.96 L 154.78,72.78 C 154.59,73.04 154.21,73.55 154.02,73.81 L 154.06,72.96 z"
       id="path286"
       style="opacity:1;fill:#b69d71" />
    <path
       d="M 152.11,73.98 C 152.58,73.93 153.54,73.85 154.02,73.81 L 154.08,74.72 C 153.57,74.72 152.55,74.71 152.04,74.7 L 152.11,73.98 z"
       id="path288"
       style="opacity:1;fill:#b69d71" />
    <path
       d="M 151.39,74.73 L 152.04,74.7 C 151.81,74.9 151.36,75.29 151.13,75.49 L 151.39,74.73 z"
       id="path290"
       style="opacity:1;fill:#b69d71" />
    <path
       d="M 148.73,79.75 C 148.88,78.04 149.66,76.44 151.13,75.49 C 151.37,75.83 151.84,76.5 152.08,76.84 C 151.53,78.34 150.25,79.34 148.73,79.75 z"
       id="path292"
       style="opacity:1;fill:#b69d71" />
    <path
       d="M 145.89,80.56 C 146.5,78.82 147.25,78.7 148.14,80.2 C 147.83,80.43 147.21,80.88 146.9,81.11 C 146.65,80.97 146.14,80.7 145.89,80.56 z"
       id="path294"
       style="opacity:1;fill:#b69d71" />
    <path
       d="M 146.27,81.21 L 146.9,81.11 C 146.71,81.28 146.33,81.62 146.14,81.79 L 146.27,81.21 z"
       id="path296"
       style="opacity:1;fill:#b69d71" />
    <path
       d="M 139.2,88.25 L 139.79,88.18 C 139.61,88.34 139.25,88.67 139.07,88.83 L 139.2,88.25 z"
       id="path298"
       style="opacity:1;fill:#b69d71" />
    <path
       d="M 136.22,91.17 L 136.8,91.03 C 136.64,91.22 136.31,91.58 136.15,91.77 L 136.22,91.17 z"
       id="path300"
       style="opacity:1;fill:#b69d71" />
  </g>
  <g
     id="#f5f3ecfb">
    <path
       d="M 192.05,22.95 C 193.74,22.96 197.12,22.98 198.81,22.99 C 198.67,23.44 198.39,24.32 198.25,24.76 C 204.8,27.07 211.55,28.95 217.75,32.14 C 222.86,34.58 228.83,35.15 233.39,38.7 C 219.14,35.01 205.59,28.68 192.05,22.95 z"
       id="path303"
       style="opacity:1;fill:#f5f3ec" />
  </g>
  <g
     id="#fbf9f2ff">
    <path
       d="M 244.21,42.79 C 257.64,47.8 271.61,51.99 284.27,58.8 C 278.52,57.84 273.51,54.71 268,53.01 C 260.07,49.61 251.54,47.43 244.21,42.79 z"
       id="path306"
       style="opacity:1;fill:#fbf9f2" />
  </g>
  <g
     id="#f0dfb1ff">
    <path
       d="M 268,53.01 C 273.51,54.71 278.52,57.84 284.27,58.8 C 287.58,59.66 290.87,60.59 294.12,61.7 C 294.42,61.94 295.01,62.42 295.31,62.66 L 295.88,63.14 C 299.98,66.65 305.47,67.58 310.29,69.71 C 322.75,74.97 335.63,79.23 347.81,85.15 C 350.13,86.31 352.76,86.46 355.3,86.72 C 358.87,87.76 362.37,89.03 366.12,89.37 C 365.6,89.57 364.56,89.97 364.05,90.16 C 367.37,92.92 370.95,95.33 374.88,97.14 C 374.63,97.59 374.14,98.48 373.89,98.92 C 372.93,98.68 371.97,98.44 371.01,98.19 C 371,99.6 370.98,102.44 370.96,103.85 C 370.52,103.7 369.63,103.38 369.19,103.23 C 361.36,114.86 349.64,123.04 340.95,133.95 C 334.66,139.53 329.77,146.68 322.96,151.65 C 320.12,155.52 315.6,157.72 312.25,161.09 C 312.38,161.53 312.62,162.43 312.74,162.87 C 297.85,174.18 286.78,189.5 272.95,201.95 C 268.36,207.7 261.48,211.64 258.19,218.29 C 257.85,218.49 257.18,218.89 256.85,219.09 C 253.17,219.66 251.04,216.3 248.07,214.91 C 247.11,214.49 246.16,214.09 245.19,213.73 C 246.2,212.6 247.19,211.46 248.2,210.34 C 272.83,185.59 297.58,160.96 322.25,136.26 C 335.84,121.49 349.82,107.07 364.06,92.95 C 353.41,96.73 346.41,106.52 336.29,111.37 C 327.52,111.94 318.72,112.04 309.94,112.1 C 308.83,105.05 308.3,97.58 304.77,91.24 C 297.38,76.69 282.79,67.75 268.07,61.94 C 267.84,60.26 267.57,58.58 267.26,56.91 C 267.96,56.9 269.36,56.87 270.07,56.85 C 269.08,56.17 268.1,55.5 267.11,54.83 C 267.34,54.37 267.78,53.47 268,53.01 z"
       id="path309"
       style="opacity:1;fill:#f0dfb1" />
  </g>
  <g
     id="#57401eff">
    <path
       d="M 75.08,55.72 C 75.27,55.55 75.63,55.22 75.81,55.05 C 75.63,55.22 75.27,55.55 75.08,55.72 z"
       id="path312"
       style="opacity:1;fill:#57401e" />
    <path
       d="M 176.13,64.32 C 198.33,55.65 222.8,52.87 246.38,56.43 C 245.18,56.78 243.97,57.11 242.76,57.41 C 222.57,53.96 201.93,57.67 182.59,63.6 C 166.27,68.67 151.39,78.27 140.41,91.4 C 134.02,99.89 128.75,110.01 129.88,120.98 C 128.93,131.37 134.33,140.89 140.08,149.11 L 139.85,149.91 C 128.92,140.47 127.12,125.16 128.56,111.64 C 126.06,116.38 125.89,121.82 125.82,127.07 C 125.56,125.57 125.03,122.58 124.76,121.09 C 124.08,121.08 122.72,121.06 122.04,121.04 C 124.28,119.21 124.99,116.26 125.63,113.58 C 127.91,105.77 131.82,98.6 136.15,91.77 C 136.31,91.58 136.64,91.22 136.8,91.03 C 137.54,90.29 138.3,89.55 139.07,88.83 C 139.25,88.67 139.61,88.34 139.79,88.18 C 141.3,86.85 142.72,85.42 144.03,83.89 C 144.72,83.18 145.43,82.48 146.14,81.79 C 146.33,81.62 146.71,81.28 146.9,81.11 C 147.21,80.88 147.83,80.43 148.14,80.2 L 148.73,79.75 C 150.25,79.34 151.53,78.34 152.08,76.84 C 152.57,76.5 153.55,75.81 154.04,75.47 L 154.68,75.5 L 154.84,74.88 C 155.34,74.54 156.33,73.88 156.83,73.55 C 157.04,73.34 157.46,72.92 157.67,72.71 L 158.43,72.58 C 158.74,72.48 159.37,72.28 159.69,72.18 C 165.11,69.43 170.52,66.66 176.13,64.32 z"
       id="path314"
       style="opacity:1;fill:#57401e" />
  </g>
  <g
     id="#fefdfcff">
    <path
       d="M 182.59,63.6 C 201.93,57.67 222.57,53.96 242.76,57.41 C 246.06,57.97 249.36,58.75 252.73,58.75 C 268.25,62.72 283.99,68.88 295.1,80.89 C 296.93,85.72 300.55,89.59 302.71,94.27 C 303.47,95.86 304.21,97.46 305.02,99.03 C 309.57,116.93 301.3,135.27 287.66,146.82 C 267.92,163.92 241.8,172.11 216.09,174.02 C 189,175.64 159.84,168.74 140.08,149.11 C 134.33,140.89 128.93,131.37 129.88,120.98 C 128.75,110.01 134.02,99.89 140.41,91.4 C 151.39,78.27 166.27,68.67 182.59,63.6 M 204.93,79.88 C 188.68,82.92 171.33,92.33 165.83,108.91 C 159.08,120.22 168.03,135.89 178.82,140.46 C 186.9,147.11 198.18,148.18 208.09,149.95 C 225.77,150.11 244.45,145.93 258.19,134.21 C 273.3,126.01 277.05,102.49 262.63,91.69 C 262.59,90.34 261.08,89.64 260.22,88.8 C 244.5,77.61 223.24,74.38 204.93,79.88 M 153.1,84.01 C 153.07,84.47 153,85.4 152.97,85.86 C 153.86,85.61 154.75,85.36 155.64,85.13 C 156.42,86.44 157.26,87.71 158.11,88.97 C 162.33,86.4 164.06,91.13 166.22,94.12 C 167.38,93.03 169.7,90.84 170.86,89.75 C 172.04,86.38 165.91,86.71 164.56,86.67 C 162.77,81.84 156.86,84.85 153.1,84.01 M 268.17,131.07 C 267.08,132.35 265.97,133.63 264.89,134.92 C 267.59,134.96 270.3,134.98 273.01,134.99 C 272.77,135.52 272.28,136.59 272.03,137.12 C 274.45,138.34 277.13,138.8 279.8,139.09 C 279.62,140.45 279.34,141.8 279.17,143.17 C 282.54,142.48 286.35,139.93 286.02,136.11 C 284.43,136.29 282.86,136.62 281.27,136.67 C 279.26,134.71 277.18,131.98 274.08,133.7 C 273.32,132.84 272.57,131.99 271.83,131.13 C 270.61,131.1 269.39,131.08 268.17,131.07 z"
       id="path317"
       style="opacity:1;fill:#fefdfc" />
  </g>
  <g
     id="#bea87bff">
    <path
       d="M 252.73,58.75 C 258.05,57.51 262.99,60.86 268.07,61.94 C 282.79,67.75 297.38,76.69 304.77,91.24 C 308.3,97.58 308.83,105.05 309.94,112.1 C 318.72,112.04 327.52,111.94 336.29,111.37 C 334.09,112.67 331.78,114 329.17,114.2 C 322.9,114.33 316.4,113.43 310.29,115.26 C 310.16,115.65 309.91,116.42 309.78,116.81 C 307.88,122.75 306.11,128.84 302.72,134.14 C 305.67,123.09 312.42,109.8 305.02,99.03 C 304.21,97.46 303.47,95.86 302.71,94.27 C 302.99,93.74 303.56,92.69 303.85,92.17 C 301.25,88.17 298.89,83.9 295.1,80.89 C 283.99,68.88 268.25,62.72 252.73,58.75 z"
       id="path320"
       style="opacity:1;fill:#bea87b" />
  </g>
  <g
     id="#fcf8efff">
    <path
       d="M 295.31,62.66 C 315.49,70.23 335.54,78.09 355.3,86.72 C 352.76,86.46 350.13,86.31 347.81,85.15 C 335.63,79.23 322.75,74.97 310.29,69.71 C 305.47,67.58 299.98,66.65 295.88,63.14 L 295.31,62.66 z"
       id="path323"
       style="opacity:1;fill:#fcf8ef" />
  </g>
  <g
     id="#e0cba1ff">
    <path
       d="M 204.93,79.88 C 223.24,74.38 244.5,77.61 260.22,88.8 C 261.08,89.64 262.59,90.34 262.63,91.69 C 262.65,92 262.69,92.62 262.71,92.94 C 267.3,98.92 270.18,106.71 267.66,114.19 C 267.34,112.59 266.69,109.41 266.36,107.82 C 264.18,104.03 260.35,101.68 257.04,98.98 C 246.95,92.88 234.28,94.06 222.95,92.98 C 212.43,93.39 200.87,92.42 191.08,97.04 C 183.4,100.33 174.74,102.96 169.67,110.09 C 168.49,104.86 172.52,100.37 175.9,96.9 C 184.18,87.91 196.21,84.67 207.12,80.16 C 206.57,80.09 205.48,79.95 204.93,79.88 z"
       id="path326"
       style="opacity:1;fill:#e0cba1" />
  </g>
  <g
     id="#41311fff">
    <path
       d="M 165.83,108.91 C 171.33,92.33 188.68,82.92 204.93,79.88 C 205.48,79.95 206.57,80.09 207.12,80.16 C 196.21,84.67 184.18,87.91 175.9,96.9 C 172.52,100.37 168.49,104.86 169.67,110.09 C 168.13,112.87 166.79,115.83 166.66,119.07 C 166.25,117.98 165.87,116.88 165.54,115.76 C 165.61,114.05 165.75,110.62 165.83,108.91 z"
       id="path329"
       style="opacity:1;fill:#41311f" />
  </g>
  <g
     id="#d2c8afff">
    <path
       d="M 295.1,80.89 C 298.89,83.9 301.25,88.17 303.85,92.17 C 303.56,92.69 302.99,93.74 302.71,94.27 C 300.55,89.59 296.93,85.72 295.1,80.89 z"
       id="path332"
       style="opacity:1;fill:#d2c8af" />
  </g>
  <g
     id="#dfd9d8ff">
    <path
       d="M 153.1,84.01 C 156.86,84.85 162.77,81.84 164.56,86.67 C 165.91,86.71 172.04,86.38 170.86,89.75 C 169.7,90.84 167.38,93.03 166.22,94.12 C 164.06,91.13 162.33,86.4 158.11,88.97 C 157.26,87.71 156.42,86.44 155.64,85.13 C 154.75,85.36 153.86,85.61 152.97,85.86 C 153,85.4 153.07,84.47 153.1,84.01 z"
       id="path335"
       style="opacity:1;fill:#dfd9d8" />
  </g>
  <g
     id="#b09363ff">
    <path
       d="M 36.63,91.09 C 38.52,91.66 40.35,90.88 42.12,90.27 C 42.91,95.5 41.17,101.17 43.99,105.98 C 45.7,110.1 50.22,112.57 50.77,117.22 C 51.35,121.52 52.84,125.98 56.92,128.16 C 50.92,126.8 45.11,124.79 39.27,122.9 C 33.34,119.19 26.28,116.02 22.79,109.62 C 20.97,109.63 18.38,110.35 17.65,108.04 C 24.07,102.5 30.22,96.65 36.63,91.09 z"
       id="path338"
       style="opacity:1;fill:#b09363" />
  </g>
  <g
     id="#a69582ff">
    <path
       d="M 262.71,92.94 C 262.69,92.62 262.65,92 262.63,91.69 C 277.05,102.49 273.3,126.01 258.19,134.21 C 261.2,130.47 264.01,126.56 266.23,122.3 C 265.69,122.5 264.61,122.91 264.08,123.11 C 263.88,122.82 263.5,122.24 263.3,121.95 C 265.44,117.53 265.9,112.64 266.36,107.82 C 266.69,109.41 267.34,112.59 267.66,114.19 C 270.18,106.71 267.3,98.92 262.71,92.94 z"
       id="path341"
       style="opacity:1;fill:#a69582" />
  </g>
  <g
     id="#ae9369ff">
    <path
       d="M 191.08,97.04 C 200.87,92.42 212.43,93.39 222.95,92.98 C 234.28,94.06 246.95,92.88 257.04,98.98 C 255.78,98.92 254.52,98.85 253.27,98.78 C 242.31,94.79 230.41,96.28 219.01,95.96 C 209.71,96.23 200.27,95.17 191.08,97.04 z"
       id="path344"
       style="opacity:1;fill:#ae9369" />
  </g>
  <g
     id="#1a1712ff">
    <path
       d="M 336.29,111.37 C 346.41,106.52 353.41,96.73 364.06,92.95 C 349.82,107.07 335.84,121.49 322.25,136.26 C 297.58,160.96 272.83,185.59 248.2,210.34 C 243.18,210.56 238.34,209.32 233.88,207.1 C 194.84,190.48 155.75,173.92 116.68,157.36 C 116.15,156.19 115.6,155.03 115.05,153.87 C 118.82,152.46 122.64,153.78 125.99,155.58 C 126.31,152.68 126.88,149.82 127.79,147.05 C 128.85,147.41 129.9,147.76 130.96,148.11 C 131.74,147.07 132.53,146.04 133.24,144.95 C 135.12,147.42 137.1,149.8 139.11,152.16 C 158.79,171.7 188.19,177 214.94,176.08 C 242.1,175.58 269.43,165.94 290.38,148.52 C 295.03,144.26 299.54,139.63 302.72,134.14 C 306.11,128.84 307.88,122.75 309.78,116.81 C 316.02,114.72 322.72,115.12 329.17,114.2 C 331.78,114 334.09,112.67 336.29,111.37 z"
       id="path347"
       style="opacity:1;fill:#1a1712" />
  </g>
  <g
     id="#fefefeff">
    <path
       d="M 21.25,95.25 C 21.8,95.8 21.8,95.8 21.25,95.25 z"
       id="path350"
       style="opacity:1;fill:#fefefe" />
  </g>
  <g
     id="#211c19ff">
    <path
       d="M 191.08,97.04 C 200.27,95.17 209.71,96.23 219.01,95.96 C 230.41,96.28 242.31,94.79 253.27,98.78 C 244.63,98.25 235.94,98.99 227.34,97.96 C 227.44,98.53 227.64,99.67 227.75,100.24 C 217.21,95.61 206.03,100.89 195.34,98.11 C 190.64,102.83 185.93,107.54 181.27,112.29 C 180.95,116.18 180.52,120.06 180.1,123.95 C 180.88,123.6 181.66,123.24 182.44,122.89 C 182.66,121.83 182.89,120.78 183.15,119.73 C 185.67,121.38 184.39,124.4 184.08,126.79 C 184.82,126.88 186.32,127.07 187.06,127.16 C 186.65,128.4 186.23,129.65 185.83,130.89 C 184.58,130.93 183.34,130.97 182.1,131.01 C 183.52,132.91 184.76,134.98 185.31,137.33 C 188.6,137.38 191.72,138.46 194.89,139.22 C 194.32,139.75 193.72,140.26 193.1,140.73 C 194.69,141.53 196.28,142.33 197.86,143.18 C 184.3,140.93 170.87,132.87 166.66,119.07 C 166.79,115.83 168.13,112.87 169.67,110.09 C 174.74,102.96 183.4,100.33 191.08,97.04 z"
       id="path353"
       style="opacity:1;fill:#211c19" />
  </g>
  <g
     id="#161311ff">
    <path
       d="M 195.34,98.11 C 206.03,100.89 217.21,95.61 227.75,100.24 C 227.64,99.67 227.44,98.53 227.34,97.96 C 235.94,98.99 244.63,98.25 253.27,98.78 C 254.52,98.85 255.78,98.92 257.04,98.98 C 260.35,101.68 264.18,104.03 266.36,107.82 C 265.9,112.64 265.44,117.53 263.3,121.95 C 255.64,131.4 244.5,136.76 233.6,141.54 C 225.97,142.7 218.35,143.93 210.67,144.76 C 206.3,145.38 201.89,144.94 197.86,143.18 C 196.28,142.33 194.69,141.53 193.1,140.73 C 193.72,140.26 194.32,139.75 194.89,139.22 C 191.72,138.46 188.6,137.38 185.31,137.33 C 184.76,134.98 183.52,132.91 182.1,131.01 C 183.34,130.97 184.58,130.93 185.83,130.89 C 186.23,129.65 186.65,128.4 187.06,127.16 C 186.32,127.07 184.82,126.88 184.08,126.79 C 184.39,124.4 185.67,121.38 183.15,119.73 C 182.89,120.78 182.66,121.83 182.44,122.89 C 181.66,123.24 180.88,123.6 180.1,123.95 C 180.52,120.06 180.95,116.18 181.27,112.29 C 185.93,107.54 190.64,102.83 195.34,98.11 z"
       id="path356"
       style="opacity:1;fill:#161311" />
  </g>
  <g
     id="#c3a97bff">
    <path
       d="M 371.01,98.19 C 371.97,98.44 372.93,98.68 373.89,98.92 C 374.21,99.36 374.85,100.24 375.17,100.68 C 352.45,126.89 326.26,150.12 302.41,175.41 C 294.07,185.04 284.63,193.63 275.76,202.76 C 270.16,208.19 265.08,214.41 258.19,218.29 C 261.48,211.64 268.36,207.7 272.95,201.95 C 286.78,189.5 297.85,174.18 312.74,162.87 C 312.62,162.43 312.38,161.53 312.25,161.09 C 315.6,157.72 320.12,155.52 322.96,151.65 C 329.77,146.68 334.66,139.53 340.95,133.95 C 349.64,123.04 361.36,114.86 369.19,103.23 C 369.63,103.38 370.52,103.7 370.96,103.85 C 370.98,102.44 371,99.6 371.01,98.19 z"
       id="path359"
       style="opacity:1;fill:#c3a97b" />
  </g>
  <g
     id="#554631ff">
    <path
       d="M 305.02,99.03 C 312.42,109.8 305.67,123.09 302.72,134.14 C 299.54,139.63 295.03,144.26 290.38,148.52 C 289.7,148.09 288.34,147.25 287.66,146.82 C 301.3,135.27 309.57,116.93 305.02,99.03 z"
       id="path362"
       style="opacity:1;fill:#554631" />
  </g>
  <g
     id="#070405ff">
    <path
       d="M 302.41,175.41 C 326.26,150.12 352.45,126.89 375.17,100.68 C 375.38,101.21 375.78,102.27 375.99,102.8 C 376.46,104.75 376.78,106.73 377.03,108.72 C 348.14,133.05 319.45,158.25 295.74,187.78 C 292.69,191.08 289.76,194.48 287.05,198.06 C 278.05,209.35 269.48,221 261.57,233.07 C 258.22,229.44 256.49,224.69 254.15,220.43 C 255.06,220 255.96,219.55 256.85,219.09 C 257.18,218.89 257.85,218.49 258.19,218.29 C 265.08,214.41 270.16,208.19 275.76,202.76 C 284.63,193.63 294.07,185.04 302.41,175.41 z"
       id="path365"
       style="opacity:1;fill:#070405" />
  </g>
  <g
     id="#a6a09cff">
    <path
       d="M 375.17,100.68 C 375.38,101.21 375.78,102.27 375.99,102.8 C 375.78,102.27 375.38,101.21 375.17,100.68 z"
       id="path368"
       style="opacity:1;fill:#a6a09c" />
  </g>
  <g
     id="#d2aa6eff">
    <path
       d="M 375.99,102.8 C 376.43,103.2 377.31,104 377.75,104.4 C 377.85,105.02 378.05,106.25 378.15,106.86 C 381.67,117.64 371.71,124.78 367.17,133.19 C 364.75,136.08 362.31,139.03 359.22,141.22 C 358.1,141.76 356.97,142.26 355.84,142.75 C 355.9,142.37 356.03,141.59 356.1,141.2 C 355.05,141.79 354.02,142.42 353,143.05 C 353.04,143.8 353.11,145.32 353.14,146.07 C 352.11,147.27 351.08,148.46 350.01,149.62 C 336.65,163.98 322.97,178.03 309.33,192.13 C 309.44,187.83 308.09,183.69 306.89,179.62 C 302.87,181.92 299.78,185.49 295.74,187.78 C 319.45,158.25 348.14,133.05 377.03,108.72 C 376.78,106.73 376.46,104.75 375.99,102.8 z"
       id="path371"
       style="opacity:1;fill:#d2aa6e" />
  </g>
  <g
     id="#f8f3e9ff">
    <path
       d="M 378.15,106.86 C 379.05,108.34 380.01,109.78 381,111.21 L 381,112.78 C 379.18,117.57 376.55,121.98 374.14,126.49 C 371.81,128.71 369.57,131.04 367.17,133.19 C 371.71,124.78 381.67,117.64 378.15,106.86 z"
       id="path374"
       style="opacity:1;fill:#f8f3e9" />
  </g>
  <g
     id="#9a7a50ff">
    <path
       d="M 15.26,110.26 C 16.05,109.51 16.84,108.77 17.65,108.04 C 18.38,110.35 20.97,109.63 22.79,109.62 C 26.28,116.02 33.34,119.19 39.27,122.9 C 38.92,123.13 38.21,123.59 37.85,123.81 C 30.19,120.71 22.57,117.5 14.86,114.51 C 15.04,113.1 15.16,111.68 15.26,110.26 z"
       id="path377"
       style="opacity:1;fill:#9a7a50" />
  </g>
  <g
     id="#908472ff">
    <path
       d="M 178.82,140.46 C 168.03,135.89 159.08,120.22 165.83,108.91 C 165.75,110.62 165.61,114.05 165.54,115.76 C 163.85,126.07 171.91,135.08 180.15,140.1 C 179.82,140.19 179.15,140.37 178.82,140.46 z"
       id="path380"
       style="opacity:1;fill:#908472" />
  </g>
  <g
     id="#ccae79ff">
    <path
       d="M 0.98,125.08 C 0.13,118.67 3.94,113.49 9.67,111.08 C 10.98,112.77 12.94,113.69 14.86,114.51 C 22.57,117.5 30.19,120.71 37.85,123.81 C 42.3,126.26 47.01,128.18 51.87,129.65 C 73.3,139.27 94.99,148.34 116.68,157.36 C 155.75,173.92 194.84,190.48 233.88,207.1 C 238.34,209.32 243.18,210.56 248.2,210.34 C 247.19,211.46 246.2,212.6 245.19,213.73 C 246.16,214.09 247.11,214.49 248.07,214.91 L 247.39,214.58 C 248.9,217.42 252.57,219.53 252.34,223.06 C 247.23,218.76 242.64,210.68 234.87,212.73 C 199.63,199.64 165.92,182.82 130.96,169.04 C 100.51,155.67 69.8,142.91 39.26,129.75 C 29.31,125.83 20.01,119.24 9,118.79 C 9.22,118.29 9.65,117.29 9.86,116.79 C 8.18,117.52 6.52,118.3 4.87,119.09 C 5.14,119.61 5.69,120.67 5.97,121.2 C 0.83,131 10.83,141.22 19.1,145.86 C 18.56,146.03 17.48,146.38 16.94,146.55 C 17.91,147.38 18.88,148.21 19.85,149.05 L 19.1,148.93 C 14.36,147.05 9.57,144.25 7.78,139.21 C 6.7,137.04 5.39,134.99 3.87,133.11 C 3.65,132.82 3.21,132.24 2.99,131.96 C 2.64,130.26 2.74,127.86 0.88,127.05 C 0.9,126.56 0.95,125.58 0.98,125.08 z"
       id="path383"
       style="opacity:1;fill:#ccae79" />
  </g>
  <g
     id="#d6be90ff">
    <path
       d="M 125.82,127.07 C 125.89,121.82 126.06,116.38 128.56,111.64 C 127.12,125.16 128.92,140.47 139.85,149.91 C 139.67,150.47 139.3,151.6 139.11,152.16 C 137.1,149.8 135.12,147.42 133.24,144.95 C 129.27,139.73 127.13,133.44 125.82,127.07 z"
       id="path386"
       style="opacity:1;fill:#d6be90" />
  </g>
  <g
     id="#746041ff">
    <path
       d="M 310.29,115.26 C 316.4,113.43 322.9,114.33 329.17,114.2 C 322.72,115.12 316.02,114.72 309.78,116.81 C 309.91,116.42 310.16,115.65 310.29,115.26 z"
       id="path389"
       style="opacity:1;fill:#746041" />
  </g>
  <g
     id="#fbfadfff">
    <path
       d="M 180.15,140.1 C 171.91,135.08 163.85,126.07 165.54,115.76 C 165.87,116.88 166.25,117.98 166.66,119.07 C 170.87,132.87 184.3,140.93 197.86,143.18 C 201.89,144.94 206.3,145.38 210.67,144.76 C 214.11,144.8 217.59,144.94 221.05,145.02 L 220.89,145.85 C 215.16,145.8 209.5,146.73 203.82,147.3 C 195.53,146.56 187.59,143.71 180.15,140.1 z"
       id="path392"
       style="opacity:1;fill:#fbfadf" />
  </g>
  <g
     id="#896f4bff">
    <path
       d="M 4.87,119.09 C 6.52,118.3 8.18,117.52 9.86,116.79 C 9.65,117.29 9.22,118.29 9,118.79 C 7.99,119.58 6.96,120.37 5.97,121.2 C 5.69,120.67 5.14,119.61 4.87,119.09 z"
       id="path395"
       style="opacity:1;fill:#896f4b" />
  </g>
  <g
     id="#fcf8f5ff">
    <path
       d="M 5.97,121.2 C 6.96,120.37 7.99,119.58 9,118.79 C 20.01,119.24 29.31,125.83 39.26,129.75 C 69.8,142.91 100.51,155.67 130.96,169.04 C 165.92,182.82 199.63,199.64 234.87,212.73 C 245.73,217.39 255.63,227.11 254.12,239.84 C 251.69,242.08 248.87,244.12 245.23,242.82 C 232.82,239.18 221.04,233.71 209.13,228.71 C 152.21,203.39 94.91,178.98 37.71,154.29 C 31.31,151.92 25.19,148.91 19.1,145.86 C 10.83,141.22 0.83,131 5.97,121.2 M 13.92,130.01 C 15.85,132.08 19.34,133.01 20.16,135.93 C 17.98,135.45 15.84,134.81 13.7,134.21 C 17.33,138.11 25.05,137.33 28.37,142.71 C 29.07,142.75 30.49,142.84 31.19,142.89 C 30.29,138.69 23.31,139.64 22.91,134.96 C 24.71,135.35 26.56,135.93 27.42,137.72 C 28.05,137.8 29.31,137.96 29.94,138.03 C 29.93,137.31 29.91,135.87 29.9,135.15 C 27.03,134.8 24.18,134.22 21.33,133.69 C 19.33,131.7 16.93,129.78 13.92,130.01 M 36.91,137.09 C 34.08,145.63 41.27,155.45 50.12,155.88 C 51.09,156.34 52.1,156.69 53.15,156.94 L 53.18,157.86 C 56.74,158.83 60.38,158.82 63.93,157.79 C 63.74,152.79 62.05,147.22 57.98,144.01 L 57.97,143.04 C 54.91,141.85 52.16,139.74 48.95,139.08 L 48.87,138.17 C 44.87,137.92 40.88,137.62 36.91,137.09 M 189,200.97 C 187.88,203.8 185.92,207.11 187.95,210.02 C 191.91,221.03 204.9,225.81 215.73,223.39 L 215.18,222.9 L 215.74,223.39 C 216,218.94 215.21,213.64 211.22,210.95 C 206.11,205.75 198.25,202.17 190.76,202.75 C 191.28,202.49 192.31,201.97 192.83,201.71 L 192.98,200.97 C 191.65,200.97 190.32,200.97 189,200.97 M 236.86,226.11 C 237.24,229.53 239.05,234.39 243.95,232.03 C 243.92,231.33 243.86,229.92 243.83,229.21 C 242.81,228.2 241.81,227.17 240.83,226.13 C 239.5,226.11 238.18,226.1 236.86,226.11 z"
       id="path398"
       style="opacity:1;fill:#fcf8f5" />
  </g>
  <g
     id="#110f0eff">
    <path
       d="M 94.3,133.36 C 103.91,130.22 112.94,125.4 122.04,121.04 C 122.72,121.06 124.08,121.08 124.76,121.09 C 125.03,122.58 125.56,125.57 125.82,127.07 C 127.13,133.44 129.27,139.73 133.24,144.95 C 132.53,146.04 131.74,147.07 130.96,148.11 C 129.9,147.76 128.85,147.41 127.79,147.05 C 126.88,149.82 126.31,152.68 125.99,155.58 C 122.64,153.78 118.82,152.46 115.05,153.87 C 115.6,155.03 116.15,156.19 116.68,157.36 C 94.99,148.34 73.3,139.27 51.87,129.65 C 65.91,131.58 79.93,136.61 94.3,133.36 z"
       id="path401"
       style="opacity:1;fill:#110f0e" />
  </g>
  <g
     id="#d8ccafff">
    <path
       d="M 263.3,121.95 C 263.5,122.24 263.88,122.82 264.08,123.11 C 257.47,133.06 246.74,141.22 234.42,141.84 L 233.6,141.54 C 244.5,136.76 255.64,131.4 263.3,121.95 z"
       id="path404"
       style="opacity:1;fill:#d8ccaf" />
  </g>
  <g
     id="#554021ff">
    <path
       d="M 264.08,123.11 C 264.61,122.91 265.69,122.5 266.23,122.3 C 264.01,126.56 261.2,130.47 258.19,134.21 C 244.45,145.93 225.77,150.11 208.09,149.95 C 198.18,148.18 186.9,147.11 178.82,140.46 C 179.15,140.37 179.82,140.19 180.15,140.1 C 187.59,143.71 195.53,146.56 203.82,147.3 C 214.71,150.4 224.8,146.24 234.42,141.84 C 246.74,141.22 257.47,133.06 264.08,123.11 z"
       id="path407"
       style="opacity:1;fill:#554021" />
  </g>
  <g
     id="#6b573bff">
    <path
       d="M 37.85,123.81 C 38.21,123.59 38.92,123.13 39.27,122.9 C 45.11,124.79 50.92,126.8 56.92,128.16 C 68.91,132.33 81.65,133.73 94.3,133.36 C 79.93,136.61 65.91,131.58 51.87,129.65 C 47.01,128.18 42.3,126.26 37.85,123.81 z"
       id="path410"
       style="opacity:1;fill:#6b573b" />
  </g>
  <g
     id="#fcfbf8ff">
    <path
       d="M 0.88,127.05 C 2.74,127.86 2.64,130.26 2.99,131.96 C 0.98,131.16 0.37,129.01 0.88,127.05 z"
       id="path413"
       style="opacity:1;fill:#fcfbf8" />
  </g>
  <g
     id="#dfdad6ff">
    <path
       d="M 13.92,130.01 C 16.93,129.78 19.33,131.7 21.33,133.69 C 24.18,134.22 27.03,134.8 29.9,135.15 C 29.91,135.87 29.93,137.31 29.94,138.03 C 29.31,137.96 28.05,137.8 27.42,137.72 C 26.56,135.93 24.71,135.35 22.91,134.96 C 23.31,139.64 30.29,138.69 31.19,142.89 C 30.49,142.84 29.07,142.75 28.37,142.71 C 25.05,137.33 17.33,138.11 13.7,134.21 C 15.84,134.81 17.98,135.45 20.16,135.93 C 19.34,133.01 15.85,132.08 13.92,130.01 z"
       id="path416"
       style="opacity:1;fill:#dfdad6" />
  </g>
  <g
     id="#e2e0e0ff">
    <path
       d="M 268.17,131.07 C 269.39,131.08 270.61,131.1 271.83,131.13 C 272.57,131.99 273.32,132.84 274.08,133.7 C 277.18,131.98 279.26,134.71 281.27,136.67 C 282.86,136.62 284.43,136.29 286.02,136.11 C 286.35,139.93 282.54,142.48 279.17,143.17 C 279.34,141.8 279.62,140.45 279.8,139.09 C 277.13,138.8 274.45,138.34 272.03,137.12 C 272.28,136.59 272.77,135.52 273.01,134.99 C 270.3,134.98 267.59,134.96 264.89,134.92 C 265.97,133.63 267.08,132.35 268.17,131.07 z"
       id="path419"
       style="opacity:1;fill:#e2e0e0" />
  </g>
  <g
     id="#f6f0eaff">
    <path
       d="M 3.87,133.11 C 5.39,134.99 6.7,137.04 7.78,139.21 C 7.14,139.11 5.86,138.9 5.22,138.8 C 4.8,136.9 4.36,134.99 3.87,133.11 z"
       id="path422"
       style="opacity:1;fill:#f6f0ea" />
  </g>
  <g
     id="#998d86ff">
    <path
       d="M 36.91,137.09 C 40.88,137.62 44.87,137.92 48.87,138.17 L 48.95,139.08 C 46.92,139.3 44.78,139.31 42.93,140.28 C 44.38,144.79 46.01,149.24 47.14,153.86 C 48.13,154.54 49.12,155.22 50.12,155.88 C 41.27,155.45 34.08,145.63 36.91,137.09 z"
       id="path425"
       style="opacity:1;fill:#998d86" />
  </g>
  <g
     id="#81736bff">
    <path
       d="M 42.93,140.28 C 44.78,139.31 46.92,139.3 48.95,139.08 C 52.16,139.74 54.91,141.85 57.97,143.04 L 57.98,144.01 C 58.02,145.72 57.99,147.44 57.97,149.16 C 57.65,148.64 57.01,147.62 56.68,147.11 C 55.97,147.13 54.53,147.16 53.82,147.18 C 54.11,148.79 54.46,150.4 54.82,152 C 56.13,151.6 57.44,151.21 58.76,150.84 C 58.54,151.8 58.31,152.77 58.1,153.73 C 59.51,154.73 60.91,155.75 62.28,156.8 C 59.23,156.84 56.2,157.08 53.15,156.94 C 52.1,156.69 51.09,156.34 50.12,155.88 C 49.12,155.22 48.13,154.54 47.14,153.86 C 46.01,149.24 44.38,144.79 42.93,140.28 z"
       id="path428"
       style="opacity:1;fill:#81736b" />
  </g>
  <g
     id="#a58e68ff">
    <path
       d="M 210.67,144.76 C 218.35,143.93 225.97,142.7 233.6,141.54 L 234.42,141.84 C 224.8,146.24 214.71,150.4 203.82,147.3 C 209.5,146.73 215.16,145.8 220.89,145.85 L 221.05,145.02 C 217.59,144.94 214.11,144.8 210.67,144.76 z"
       id="path431"
       style="opacity:1;fill:#a58e68" />
  </g>
  <g
     id="#b8965dff">
    <path
       d="M 353,143.05 C 354.02,142.42 355.05,141.79 356.1,141.2 C 356.03,141.59 355.9,142.37 355.84,142.75 C 355.71,143.3 355.46,144.38 355.33,144.93 C 356.64,145.48 357.95,146.04 359.25,146.64 C 359.52,146.88 360.07,147.35 360.34,147.58 C 360.6,147.84 361.12,148.37 361.39,148.63 C 362.5,153.38 363.14,158.32 362.3,163.16 C 362.05,163.69 361.57,164.76 361.33,165.3 C 359.88,165.15 359.19,165.8 359.26,167.25 C 358.99,167.51 358.46,168.03 358.19,168.29 C 357.92,168.52 357.38,168.98 357.11,169.21 C 354.85,170.56 353.22,172.61 351.89,174.84 C 351.65,175.12 351.15,175.68 350.9,175.96 C 345.22,180.18 340.34,185.39 336.07,191.02 C 335.84,191.55 335.38,192.61 335.15,193.14 C 333.68,192.85 332.96,193.45 333,194.94 L 332.37,195.34 C 329.96,196.58 328.33,198.76 327.04,201.07 C 325.84,202.52 324.55,203.88 323.24,205.23 C 321.86,205.13 321.16,205.77 321.14,207.16 C 318.29,210.92 314.95,214.28 311.32,217.3 C 309.31,218.97 307.42,220.79 305.86,222.89 C 304.03,225.03 302.18,227.17 300.21,229.18 C 294.2,232.26 290.34,238.07 286.13,243.11 C 284.9,244.55 283.66,245.98 282.35,247.34 C 277.79,251.7 271.8,255.21 269.17,261.19 C 268.51,261.87 267.85,262.55 267.19,263.22 C 262.03,266.11 256.42,267.99 250.6,269 L 247.25,269 C 242.82,267.52 238.39,266 233.79,265.13 L 233.05,264.84 C 229.16,261.89 224.49,260.32 219.78,259.22 L 219.02,259.01 C 216.68,256.89 213.85,255.43 210.67,255.2 L 209.85,255.06 C 209.53,253.33 207.47,253.03 206.02,253.04 L 205.22,252.88 C 198.28,248.61 190.64,245.37 182.78,243.21 L 182.02,243 C 179.87,241.13 177.38,239.67 174.49,239.37 C 174.08,239.29 173.25,239.13 172.84,239.06 C 172.72,237.63 171.09,236.99 169.85,237.07 L 169.12,237.03 C 168.04,235.9 166.64,235.07 165.04,235.06 L 164.24,234.92 C 161.71,233.01 158.89,231.45 155.67,231.2 L 154.86,231.05 C 154.5,229.34 152.48,229.02 151.02,229 L 150.19,228.88 C 146.93,226.35 143.03,224.91 139.06,223.93 C 138.45,223.78 137.25,223.48 136.65,223.33 C 136.52,221.57 134.45,220.61 132.88,221.02 L 131.98,221.11 C 131.4,219.51 129.45,218.8 127.87,219.04 L 127.01,219.08 C 127.04,217.55 125.36,216.88 124.06,217.02 L 123.22,216.93 C 119.25,214 114.65,212.07 109.8,211.21 L 109.05,210.98 C 106.72,208.87 103.85,207.61 100.74,207.23 C 98.82,206.52 96.94,205.74 95.04,205 C 91.38,202.21 87.29,199.68 82.6,199.27 L 81.77,199.14 C 81.86,197.58 80.04,197.17 78.84,197.18 C 78.43,197.11 77.61,196.98 77.2,196.92 C 73.85,194.67 70.28,192.78 66.51,191.36 C 72.9,192.64 80.06,193.5 85.18,197.98 C 86.18,197.32 87.19,196.66 88.19,195.99 C 124.62,211.22 160.32,228.17 196.9,243.09 C 192.48,236.35 190.37,228.08 185.01,222.02 C 186.32,221.66 187.64,221.28 188.96,220.92 C 191.64,224.05 194.46,227.39 198.66,228.41 C 198.83,229.58 199,230.75 199.17,231.93 C 201.53,230.81 204.05,230.01 206.7,230.28 C 207.5,229.75 208.32,229.23 209.13,228.71 C 221.04,233.71 232.82,239.18 245.23,242.82 C 248.87,244.12 251.69,242.08 254.12,239.84 C 255.63,227.11 245.73,217.39 234.87,212.73 C 242.64,210.68 247.23,218.76 252.34,223.06 C 252.57,219.53 248.9,217.42 247.39,214.58 L 248.07,214.91 C 251.04,216.3 253.17,219.66 256.85,219.09 C 255.96,219.55 255.06,220 254.15,220.43 C 256.49,224.69 258.22,229.44 261.57,233.07 C 259.93,236.2 260.15,239.87 260.89,243.22 C 257.15,248.89 249.77,248.38 243.88,247.15 C 236.08,244.06 228.52,240.43 220.81,237.14 C 225.22,244.64 226.16,255.3 233.81,260.29 C 236.05,261.22 238.38,261.93 240.74,262.52 C 246.46,264.16 252.51,264.38 258.41,263.7 C 267.26,259.21 272.92,250.64 279.86,243.85 C 301.95,221.92 322.42,198.44 344.46,176.48 C 350.66,167.46 354.86,157.16 355.92,146.23 C 355.23,146.19 353.84,146.11 353.14,146.07 C 353.11,145.32 353.04,143.8 353,143.05 M 210.16,233.05 C 208.12,237.69 205.83,242.22 203.96,246.94 C 211.65,249.08 211.49,238.79 215.05,234.25 C 213.41,233.86 211.79,233.45 210.16,233.05 z"
       id="path434"
       style="opacity:1;fill:#b8965d" />
  </g>
  <g
     id="#f9f1e8ff">
    <path
       d="M 355.84,142.75 C 356.97,142.26 358.1,141.76 359.22,141.22 C 358.8,142.17 358.37,143.11 357.95,144.06 C 358.37,144.93 358.8,145.79 359.25,146.64 C 357.95,146.04 356.64,145.48 355.33,144.93 C 355.46,144.38 355.71,143.3 355.84,142.75 z"
       id="path437"
       style="opacity:1;fill:#f9f1e8" />
  </g>
  <g
     id="#b7adaaff">
    <path
       d="M 57.98,144.01 C 62.05,147.22 63.74,152.79 63.93,157.79 C 60.38,158.82 56.74,158.83 53.18,157.86 L 53.15,156.94 C 56.2,157.08 59.23,156.84 62.28,156.8 C 60.91,155.75 59.51,154.73 58.1,153.73 C 58.31,152.77 58.54,151.8 58.76,150.84 C 57.44,151.21 56.13,151.6 54.82,152 C 54.46,150.4 54.11,148.79 53.82,147.18 C 54.53,147.16 55.97,147.13 56.68,147.11 C 57.01,147.62 57.65,148.64 57.97,149.16 C 57.99,147.44 58.02,145.72 57.98,144.01 z"
       id="path440"
       style="opacity:1;fill:#b7adaa" />
  </g>
  <g
     id="#cca262ff">
    <path
       d="M 16.94,146.55 C 17.48,146.38 18.56,146.03 19.1,145.86 C 25.19,148.91 31.31,151.92 37.71,154.29 C 94.91,178.98 152.21,203.39 209.13,228.71 C 208.32,229.23 207.5,229.75 206.7,230.28 C 204.05,230.01 201.53,230.81 199.17,231.93 C 199,230.75 198.83,229.58 198.66,228.41 C 194.46,227.39 191.64,224.05 188.96,220.92 C 187.64,221.28 186.32,221.66 185.01,222.02 C 149.33,205.84 113.57,189.74 77.29,174.94 C 77.72,179.75 77.03,186.55 71.13,187.49 C 76.22,191.41 82.28,193.63 88.19,195.99 C 87.19,196.66 86.18,197.32 85.18,197.98 C 80.06,193.5 72.9,192.64 66.51,191.36 C 66.07,191.3 65.18,191.18 64.74,191.12 L 63.9,191.02 C 63.34,189.44 61.43,188.74 59.87,189.01 L 59,189.06 C 58.31,187.55 56.47,186.76 54.88,187.04 L 54.01,187.1 C 53.51,185.39 51.46,185.14 49.96,185.15 C 48.18,184.68 46.57,183.79 45.01,182.84 C 44.29,181.87 43.23,180.99 41.94,181.07 L 41.13,180.98 C 38.74,178.94 35.89,177.64 32.79,177.15 C 32.4,177.04 31.63,176.83 31.24,176.72 C 31.16,176.32 30.99,175.51 30.91,175.11 C 30.83,174.68 30.68,173.83 30.6,173.41 C 38.23,174.49 44.77,178.96 52.11,180.99 C 50.81,179.91 49.44,178.89 48.08,177.89 C 41.86,171.21 39.76,161.17 32.46,155.65 C 29.42,153.67 26.06,152.24 22.57,151.31 L 21.87,151.02 C 21.25,150.31 20.57,149.65 19.85,149.05 C 18.88,148.21 17.91,147.38 16.94,146.55 z"
       id="path443"
       style="opacity:1;fill:#cca262" />
  </g>
  <g
     id="#a4814eff">
    <path
       d="M 353.14,146.07 C 353.84,146.11 355.23,146.19 355.92,146.23 C 354.86,157.16 350.66,167.46 344.46,176.48 C 322.42,198.44 301.95,221.92 279.86,243.85 C 272.92,250.64 267.26,259.21 258.41,263.7 C 252.51,264.38 246.46,264.16 240.74,262.52 C 247.11,260.36 252.31,255.62 257.26,251.26 C 265.41,248.45 270.21,240.91 276.67,235.69 C 283.42,227.24 291.31,219.75 299.32,212.5 C 300.2,212.6 301.09,212.7 301.98,212.81 C 301.4,211.2 300.81,209.6 300.18,208.01 C 301.34,208.26 302.49,208.53 303.65,208.79 C 318.86,191.92 332.63,173.73 348.52,157.51 C 350.03,155.18 351.74,152.33 350.01,149.62 C 351.08,148.46 352.11,147.27 353.14,146.07 z"
       id="path446"
       style="opacity:1;fill:#a4814e" />
  </g>
  <g
     id="#817063ff">
    <path
       d="M 216.09,174.02 C 241.8,172.11 267.92,163.92 287.66,146.82 C 288.34,147.25 289.7,148.09 290.38,148.52 C 269.43,165.94 242.1,175.58 214.94,176.08 C 215.23,175.57 215.8,174.53 216.09,174.02 z"
       id="path449"
       style="opacity:1;fill:#817063" />
  </g>
  <g
     id="#fdf9f3ff">
    <path
       d="M 19.1,148.93 L 19.85,149.05 C 20.57,149.65 21.25,150.31 21.87,151.02 C 20.69,151.24 19.53,151.21 18.38,150.92 C 18.56,150.42 18.92,149.43 19.1,148.93 z"
       id="path452"
       style="opacity:1;fill:#fdf9f3" />
  </g>
  <g
     id="#b29f7fff">
    <path
       d="M 140.08,149.11 C 159.84,168.74 189,175.64 216.09,174.02 C 215.8,174.53 215.23,175.57 214.94,176.08 C 188.19,177 158.79,171.7 139.11,152.16 C 139.3,151.6 139.67,150.47 139.85,149.91 L 140.08,149.11 z"
       id="path455"
       style="opacity:1;fill:#b29f7f" />
  </g>
  <g
     id="#f7f3e8ff">
    <path
       d="M 361.39,148.63 C 365.78,152.04 364.33,158.69 362.3,163.16 C 363.14,158.32 362.5,153.38 361.39,148.63 z"
       id="path458"
       style="opacity:1;fill:#f7f3e8" />
  </g>
  <g
     id="#927043ff">
    <path
       d="M 309.33,192.13 C 322.97,178.03 336.65,163.98 350.01,149.62 C 351.74,152.33 350.03,155.18 348.52,157.51 C 332.63,173.73 318.86,191.92 303.65,208.79 C 302.49,208.53 301.34,208.26 300.18,208.01 C 300.81,209.6 301.4,211.2 301.98,212.81 C 301.09,212.7 300.2,212.6 299.32,212.5 C 291.31,219.75 283.42,227.24 276.67,235.69 C 270.21,240.91 265.41,248.45 257.26,251.26 C 252.31,255.62 247.11,260.36 240.74,262.52 C 238.38,261.93 236.05,261.22 233.81,260.29 C 235.09,260.08 236.37,259.87 237.65,259.66 C 240,255.69 242.81,251.98 246.18,248.81 C 245.41,248.25 244.64,247.69 243.88,247.15 C 249.77,248.38 257.15,248.89 260.89,243.22 C 270.39,233.26 279.58,222.99 289.25,213.2 C 296.16,206.38 302.23,198.76 309.33,192.13 z"
       id="path461"
       style="opacity:1;fill:#927043" />
  </g>
  <g
     id="#f1e8d7ff">
    <path
       d="M 22.57,151.31 C 26.06,152.24 29.42,153.67 32.46,155.65 C 31.65,156.36 30.84,157.08 30.03,157.8 C 29.94,157.21 29.76,156.03 29.66,155.44 C 27.1,154.44 24.72,153.02 22.57,151.31 z"
       id="path464"
       style="opacity:1;fill:#f1e8d7" />
  </g>
  <g
     id="#826034ff">
    <path
       d="M 32.46,155.65 C 39.76,161.17 41.86,171.21 48.08,177.89 C 41.05,174.51 32.56,172.8 27.9,165.94 C 27.8,164.28 27.73,162.63 27.7,160.97 C 27.81,159.55 29.17,158.76 30.03,157.8 C 30.84,157.08 31.65,156.36 32.46,155.65 z"
       id="path467"
       style="opacity:1;fill:#826034" />
  </g>
  <g
     id="#f3eee6ff">
    <path
       d="M 30.91,175.11 C 27.47,171.16 25.65,166.15 27.7,160.97 C 27.73,162.63 27.8,164.28 27.9,165.94 C 28.29,168.59 29.54,170.98 30.6,173.41 C 30.68,173.83 30.83,174.68 30.91,175.11 z"
       id="path470"
       style="opacity:1;fill:#f3eee6" />
  </g>
  <g
     id="#f4f2edff">
    <path
       d="M 359.26,167.25 C 359.19,165.8 359.88,165.15 361.33,165.3 C 361.27,166.62 360.58,167.28 359.26,167.25 z"
       id="path473"
       style="opacity:1;fill:#f4f2ed" />
  </g>
  <g
     id="#ddbe8aff">
    <path
       d="M 27.9,165.94 C 32.56,172.8 41.05,174.51 48.08,177.89 C 49.44,178.89 50.81,179.91 52.11,180.99 C 44.77,178.96 38.23,174.49 30.6,173.41 C 29.54,170.98 28.29,168.59 27.9,165.94 z"
       id="path476"
       style="opacity:1;fill:#ddbe8a" />
  </g>
  <g
     id="#f4efe4ff">
    <path
       d="M 351.89,174.84 C 353.22,172.61 354.85,170.56 357.11,169.21 C 356.05,171 355.05,172.82 354.24,174.74 C 353.66,174.76 352.48,174.81 351.89,174.84 z"
       id="path479"
       style="opacity:1;fill:#f4efe4" />
  </g>
  <g
     id="#2a190bff">
    <path
       d="M 77.29,174.94 C 113.57,189.74 149.33,205.84 185.01,222.02 C 190.37,228.08 192.48,236.35 196.9,243.09 C 160.32,228.17 124.62,211.22 88.19,195.99 C 82.28,193.63 76.22,191.41 71.13,187.49 C 77.03,186.55 77.72,179.75 77.29,174.94 z"
       id="path482"
       style="opacity:1;fill:#2a190b" />
  </g>
  <g
     id="#f2ede0ff">
    <path
       d="M 336.07,191.02 C 340.34,185.39 345.22,180.18 350.9,175.96 C 350.79,176.57 350.57,177.78 350.47,178.39 C 345.86,181.58 341.6,185.63 339.29,190.84 C 338.22,190.9 337.14,190.96 336.07,191.02 z"
       id="path485"
       style="opacity:1;fill:#f2ede0" />
  </g>
  <g
     id="#e3ddd0eb">
    <path
       d="M 32.79,177.15 C 35.89,177.64 38.74,178.94 41.13,180.98 C 39.47,180.93 37.81,180.93 36.16,180.93 C 36.28,180.54 36.52,179.76 36.65,179.38 C 35.34,178.66 34.07,177.9 32.79,177.15 z"
       id="path488"
       style="opacity:0.92000002;fill:#e3ddd0" />
  </g>
  <g
     id="#d7b484ff">
    <path
       d="M 295.74,187.78 C 299.78,185.49 302.87,181.92 306.89,179.62 C 308.09,183.69 309.44,187.83 309.33,192.13 C 302.23,198.76 296.16,206.38 289.25,213.2 C 288.96,208.04 288.64,202.89 288.54,197.73 C 288.16,197.81 287.42,197.98 287.05,198.06 C 289.76,194.48 292.69,191.08 295.74,187.78 z"
       id="path491"
       style="opacity:1;fill:#d7b484" />
  </g>
  <g
     id="#fefbf3ff">
    <path
       d="M 41.94,181.07 C 43.23,180.99 44.29,181.87 45.01,182.84 C 43.72,183.74 41.51,182.81 41.94,181.07 z"
       id="path494"
       style="opacity:1;fill:#fefbf3" />
  </g>
  <g
     id="#fdfbf8ff">
    <path
       d="M 49.96,185.15 C 51.46,185.14 53.51,185.39 54.01,187.1 C 52.43,187.45 50.37,186.93 49.96,185.15 z"
       id="path497"
       style="opacity:1;fill:#fdfbf8" />
  </g>
  <g
     id="#fcf6ebff">
    <path
       d="M 54.88,187.04 C 56.47,186.76 58.31,187.55 59,189.06 C 57.39,189.36 55.37,188.79 54.88,187.04 z"
       id="path500"
       style="opacity:1;fill:#fcf6eb" />
  </g>
  <g
     id="#f2ebe3ff">
    <path
       d="M 59.87,189.01 C 61.43,188.74 63.34,189.44 63.9,191.02 C 62.35,191.16 60.24,190.86 59.87,189.01 z"
       id="path503"
       style="opacity:1;fill:#f2ebe3" />
  </g>
  <g
     id="#e4ddd3f0">
    <path
       d="M 64.74,191.12 C 65.18,191.18 66.07,191.3 66.51,191.36 C 70.28,192.78 73.85,194.67 77.2,196.92 C 72.54,196.34 68.68,193.4 64.74,191.12 z"
       id="path506"
       style="opacity:0.93999999;fill:#e4ddd3" />
  </g>
  <g
     id="#fffef6ff">
    <path
       d="M 333,194.94 C 332.96,193.45 333.68,192.85 335.15,193.14 C 335.01,194.44 334.29,195.03 333,194.94 z"
       id="path509"
       style="opacity:1;fill:#fffef6" />
  </g>
  <g
     id="#ebe2d6ff">
    <path
       d="M 327.04,201.07 C 328.33,198.76 329.96,196.58 332.37,195.34 C 330.58,197.24 328.82,199.17 327.04,201.07 z"
       id="path512"
       style="opacity:1;fill:#ebe2d6" />
  </g>
  <g
     id="#f2efdbff">
    <path
       d="M 78.84,197.18 C 80.04,197.17 81.86,197.58 81.77,199.14 C 80.49,199.34 78.57,198.87 78.84,197.18 z"
       id="path515"
       style="opacity:1;fill:#f2efdb" />
  </g>
  <g
     id="#dcc5a2ff">
    <path
       d="M 287.05,198.06 C 287.42,197.98 288.16,197.81 288.54,197.73 C 288.64,202.89 288.96,208.04 289.25,213.2 C 279.58,222.99 270.39,233.26 260.89,243.22 C 260.15,239.87 259.93,236.2 261.57,233.07 C 269.48,221 278.05,209.35 287.05,198.06 z"
       id="path518"
       style="opacity:1;fill:#dcc5a2" />
  </g>
  <g
     id="#f3ede3ff">
    <path
       d="M 82.6,199.27 C 87.29,199.68 91.38,202.21 95.04,205 C 90.46,204.22 86.45,201.71 82.6,199.27 z"
       id="path521"
       style="opacity:1;fill:#f3ede3" />
  </g>
  <g
     id="#8d7f79ff">
    <path
       d="M 189,200.97 C 190.32,200.97 191.65,200.97 192.98,200.97 L 192.83,201.71 C 192.31,201.97 191.28,202.49 190.76,202.75 C 198.25,202.17 206.11,205.75 211.22,210.95 C 211.58,213.82 211.34,216.71 211.14,219.58 C 212.51,220.65 213.87,221.74 215.18,222.9 L 215.73,223.39 C 204.9,225.81 191.91,221.03 187.95,210.02 C 185.92,207.11 187.88,203.8 189,200.97 z"
       id="path524"
       style="opacity:1;fill:#8d7f79" />
  </g>
  <g
     id="#fdf8f2ff">
    <path
       d="M 321.14,207.16 C 321.16,205.77 321.86,205.13 323.24,205.23 C 323.22,206.62 322.52,207.26 321.14,207.16 z"
       id="path527"
       style="opacity:1;fill:#fdf8f2" />
  </g>
  <g
     id="#f4efe7ff">
    <path
       d="M 100.74,207.23 C 103.85,207.61 106.72,208.87 109.05,210.98 C 106.03,210.38 103.25,208.98 100.74,207.23 z"
       id="path530"
       style="opacity:1;fill:#f4efe7" />
  </g>
  <g
     id="#f0e9dbff">
    <path
       d="M 109.8,211.21 C 114.65,212.07 119.25,214 123.22,216.93 C 118.23,216.7 113.8,213.98 109.8,211.21 z"
       id="path533"
       style="opacity:1;fill:#f0e9db" />
  </g>
  <g
     id="#b3a9a5ff">
    <path
       d="M 211.22,210.95 C 215.21,213.64 216,218.94 215.74,223.39 L 215.18,222.9 C 213.87,221.74 212.51,220.65 211.14,219.58 C 211.34,216.71 211.58,213.82 211.22,210.95 z"
       id="path536"
       style="opacity:1;fill:#b3a9a5" />
  </g>
  <g
     id="#f5f3ebff">
    <path
       d="M 124.06,217.02 C 125.36,216.88 127.04,217.55 127.01,219.08 C 125.67,219.43 124.05,218.48 124.06,217.02 z"
       id="path539"
       style="opacity:1;fill:#f5f3eb" />
  </g>
  <g
     id="#eee8deff">
    <path
       d="M 305.86,222.89 C 307.42,220.79 309.31,218.97 311.32,217.3 C 309.5,219.17 307.68,221.03 305.86,222.89 z"
       id="path542"
       style="opacity:1;fill:#eee8de" />
  </g>
  <g
     id="#f6f3e9ff">
    <path
       d="M 127.87,219.04 C 129.45,218.8 131.4,219.51 131.98,221.11 C 130.41,221.47 127.75,221.22 127.87,219.04 z"
       id="path545"
       style="opacity:1;fill:#f6f3e9" />
  </g>
  <g
     id="#f3efe2ff">
    <path
       d="M 132.88,221.02 C 134.45,220.61 136.52,221.57 136.65,223.33 C 135.17,223.14 133.27,222.72 132.88,221.02 z"
       id="path548"
       style="opacity:1;fill:#f3efe2" />
  </g>
  <g
     id="#f7f2e7ff">
    <path
       d="M 139.06,223.93 C 143.03,224.91 146.93,226.35 150.19,228.88 C 146.67,228.12 143.26,226.81 139.59,226.8 C 139.42,225.84 139.24,224.88 139.06,223.93 z"
       id="path551"
       style="opacity:1;fill:#f7f2e7" />
  </g>
  <g
     id="#90837dff">
    <path
       d="M 236.86,226.11 C 238.18,226.1 239.5,226.11 240.83,226.13 C 241.81,227.17 242.81,228.2 243.83,229.21 C 243.86,229.92 243.92,231.33 243.95,232.03 C 239.05,234.39 237.24,229.53 236.86,226.11 z"
       id="path554"
       style="opacity:1;fill:#90837d" />
  </g>
  <g
     id="#faf5eeff">
    <path
       d="M 151.02,229 C 152.48,229.02 154.5,229.34 154.86,231.05 C 153.33,231.26 151.15,230.91 151.02,229 z"
       id="path557"
       style="opacity:1;fill:#faf5ee" />
  </g>
  <g
     id="#f3efe4ff">
    <path
       d="M 286.13,243.11 C 290.34,238.07 294.2,232.26 300.21,229.18 C 298.47,231.4 296.58,233.5 294.49,235.39 C 294.55,235.74 294.67,236.44 294.74,236.79 C 294.02,236.9 292.59,237.11 291.88,237.21 C 292.41,237.48 293.47,238.02 294,238.3 C 291.34,239.85 288.72,241.45 286.13,243.11 z"
       id="path560"
       style="opacity:1;fill:#f3efe4" />
  </g>
  <g
     id="#f2e9ddff">
    <path
       d="M 155.67,231.2 C 158.89,231.45 161.71,233.01 164.24,234.92 C 161.04,234.66 158.28,232.92 155.67,231.2 z"
       id="path563"
       style="opacity:1;fill:#f2e9dd" />
  </g>
  <g
     id="#231309ff">
    <path
       d="M 210.16,233.05 C 211.79,233.45 213.41,233.86 215.05,234.25 C 211.49,238.79 211.65,249.08 203.96,246.94 C 205.83,242.22 208.12,237.69 210.16,233.05 z"
       id="path566"
       style="opacity:1;fill:#231309" />
  </g>
  <g
     id="#f3efe7ff">
    <path
       d="M 165.04,235.06 C 166.64,235.07 168.04,235.9 169.12,237.03 C 168.13,237.32 167.13,237.53 166.12,237.66 C 165.58,236.86 165.22,236 165.04,235.06 z"
       id="path569"
       style="opacity:1;fill:#f3efe7" />
  </g>
  <g
     id="#fbf9f4ff">
    <path
       d="M 169.85,237.07 C 171.09,236.99 172.72,237.63 172.84,239.06 C 171.52,239.3 169.58,238.79 169.85,237.07 z"
       id="path572"
       style="opacity:1;fill:#fbf9f4" />
  </g>
  <g
     id="#745a38ff">
    <path
       d="M 220.81,237.14 C 228.52,240.43 236.08,244.06 243.88,247.15 C 244.64,247.69 245.41,248.25 246.18,248.81 C 242.81,251.98 240,255.69 237.65,259.66 C 236.37,259.87 235.09,260.08 233.81,260.29 C 226.16,255.3 225.22,244.64 220.81,237.14 z"
       id="path575"
       style="opacity:1;fill:#745a38" />
  </g>
  <g
     id="#f2ebddff">
    <path
       d="M 174.49,239.37 C 177.38,239.67 179.87,241.13 182.02,243 C 179.21,242.53 176.69,241.14 174.49,239.37 z"
       id="path578"
       style="opacity:1;fill:#f2ebdd" />
  </g>
  <g
     id="#ede8ddf8">
    <path
       d="M 182.78,243.21 C 190.64,245.37 198.28,248.61 205.22,252.88 C 200.44,251.97 196.09,249.58 191.29,248.73 C 191.39,248.37 191.6,247.64 191.7,247.28 C 188.54,246.67 184.8,246.05 182.78,243.21 z"
       id="path581"
       style="opacity:0.97000002;fill:#ede8dd" />
  </g>
  <g
     id="#f3f0e6ff">
    <path
       d="M 269.17,261.19 C 271.8,255.21 277.79,251.7 282.35,247.34 C 280.82,249.41 279.28,251.48 277.57,253.4 C 277.64,254.16 277.71,254.92 277.78,255.69 C 277.12,256.34 276.46,257 275.82,257.66 C 275.05,257.57 274.28,257.48 273.52,257.4 C 272.12,258.72 270.65,259.96 269.17,261.19 z"
       id="path584"
       style="opacity:1;fill:#f3f0e6" />
  </g>
  <g
     id="#f4eee6ff">
    <path
       d="M 206.02,253.04 C 207.47,253.03 209.53,253.33 209.85,255.06 C 208.34,255.28 206.18,254.93 206.02,253.04 z"
       id="path587"
       style="opacity:1;fill:#f4eee6" />
  </g>
  <g
     id="#f1ebe4ff">
    <path
       d="M 210.67,255.2 C 213.85,255.43 216.68,256.89 219.02,259.01 C 215.97,258.4 213.22,256.92 210.67,255.2 z"
       id="path590"
       style="opacity:1;fill:#f1ebe4" />
  </g>
  <g
     id="#f4f0e5ff">
    <path
       d="M 219.78,259.22 C 224.49,260.32 229.16,261.89 233.05,264.84 C 231.91,264.69 230.76,264.56 229.62,264.43 C 226.25,262.88 222.14,262.35 219.78,259.22 z"
       id="path593"
       style="opacity:1;fill:#f4f0e5" />
  </g>
  <g
     id="#f2ebe0ff">
    <path
       d="M 250.6,269 C 256.42,267.99 262.03,266.11 267.19,263.22 C 266.48,264.07 265.79,264.94 265.1,265.81 C 265.61,266.02 266.61,266.46 267.12,266.67 C 264.37,267.13 261.62,267.51 259.24,269 L 250.6,269 z"
       id="path596"
       style="opacity:1;fill:#f2ebe0" />
  </g>
  <g
     id="#f4ebddff">
    <path
       d="M 233.79,265.13 C 238.39,266 242.82,267.52 247.25,269 L 239.76,269 C 238.54,268.3 236.11,266.91 234.89,266.21 C 234.61,265.94 234.06,265.4 233.79,265.13 z"
       id="path599"
       style="opacity:1;fill:#f4ebdd" />
  </g>
</svg>
