<?xml version="1.0" encoding="UTF-8" standalone="no"?>
<svg
   xmlns:dc="http://purl.org/dc/elements/1.1/"
   xmlns:cc="http://creativecommons.org/ns#"
   xmlns:rdf="http://www.w3.org/1999/02/22-rdf-syntax-ns#"
   xmlns:svg="http://www.w3.org/2000/svg"
   xmlns="http://www.w3.org/2000/svg"
   xmlns:xlink="http://www.w3.org/1999/xlink"
   xmlns:sodipodi="http://sodipodi.sourceforge.net/DTD/sodipodi-0.dtd"
   xmlns:inkscape="http://www.inkscape.org/namespaces/inkscape"
   width="120"
   height="120"
   viewBox="0 0 450 330"
   version="1.0"
   id="svg2"
   sodipodi:version="0.32"
   inkscape:version="0.46"
   sodipodi:docname="notebook.svg"
   inkscape:output_extension="org.inkscape.output.svg.inkscape">
  <metadata
     id="metadata2333">
    <rdf:RDF>
      <cc:Work
         rdf:about="">
        <dc:format>image/svg+xml</dc:format>
        <dc:type
           rdf:resource="http://purl.org/dc/dcmitype/StillImage" />
      </cc:Work>
    </rdf:RDF>
  </metadata>
  <defs
     id="defs2331">
    <linearGradient
       inkscape:collect="always"
       id="linearGradient3233">
      <stop
         style="stop-color:#748890;stop-opacity:1;"
         offset="0"
         id="stop3235" />
      <stop
         style="stop-color:#748890;stop-opacity:0;"
         offset="1"
         id="stop3237" />
    </linearGradient>
    <inkscape:perspective
       sodipodi:type="inkscape:persp3d"
       inkscape:vp_x="0 : 206.25 : 1"
       inkscape:vp_y="0 : 1000 : 0"
       inkscape:vp_z="562.5 : 206.25 : 1"
       inkscape:persp3d-origin="281.25 : 137.5 : 1"
       id="perspective2335" />
    <linearGradient
       inkscape:collect="always"
       xlink:href="#linearGradient3233"
       id="linearGradient3239"
       x1="451.10556"
       y1="68.365517"
       x2="336.48148"
       y2="-35.23719"
       gradientUnits="userSpaceOnUse"
       gradientTransform="translate(-270.28193,77.739613)" />
  </defs>
  <sodipodi:namedview
     inkscape:window-height="802"
     inkscape:window-width="1440"
     inkscape:pageshadow="2"
     inkscape:pageopacity="0.0"
     guidetolerance="10.0"
     gridtolerance="10.0"
     objecttolerance="10.0"
     borderopacity="1.0"
     bordercolor="#666666"
     pagecolor="#ffffff"
     id="base"
     showgrid="false"
     inkscape:zoom="0.98839118"
     inkscape:cx="663.9362"
     inkscape:cy="211.15707"
     inkscape:window-x="0"
     inkscape:window-y="0"
     inkscape:current-layer="svg2" />
  <g
     id="#efefefff">
    <path
       d="M 54,2 C 56.99,2 60,2 63,2 L 62.95,2.89 L 62.01,3.17 C 61.53,3.13 60.58,3.05 60.1,3.01 C 58.32,3.04 56.55,3.05 54.78,3.16 L 54.01,3.22 L 54,2 z"
       id="path135"
       style="opacity:1;fill:#efefef" />
    <path
       d="M 74.02,4.37 C 75.49,3.69 77.34,3.69 78.86,4.23 L 78.89,4.78 L 78.13,5.14 C 76.75,5.1 75.38,5.02 74.01,4.9 L 74.02,4.37 z"
       id="path137"
       style="opacity:1;fill:#efefef" />
    <path
       d="M 195.01,18.38 C 196.82,17.67 199,17.73 200.85,18.24 L 200.88,18.77 L 200.13,19.13 C 198.42,19.1 196.71,19.01 195.01,18.89 L 195.01,18.38 z"
       id="path139"
       style="opacity:1;fill:#efefef" />
    <path
       d="M 254.22,181.07 L 254.71,181.1 C 255.22,182.67 255.16,184.43 255,186.07 L 254.33,186.01 C 254.2,185.48 253.96,184.4 253.83,183.86 L 253.78,183 C 253.89,182.52 254.11,181.55 254.22,181.07 z"
       id="path141"
       style="opacity:1;fill:#efefef" />
    <path
       d="M 258.88,188.78 L 260,189 C 260,189.75 260,191.25 260,192 L 265,192 L 265,193 C 263.01,193 261.03,193 259.04,193 C 259,191.59 258.94,190.19 258.88,188.78 z"
       id="path143"
       style="opacity:1;fill:#efefef" />
    <path
       d="M 265,193 C 268.31,192.99 271.67,193 275,193 L 275,194 C 271.67,194.01 268.31,193.98 265,194 L 265,193 z"
       id="path145"
       style="opacity:1;fill:#efefef" />
    <path
       d="M 327,199 C 330.31,198.99 333.67,199 337,199 L 337,200 C 339.95,199.97 343.02,200.01 346,200 L 346,201 C 342.68,201 339.31,200.99 336,201 L 336,200 C 333.02,200.01 329.95,199.97 327,200 L 327,199 z"
       id="path147"
       style="opacity:1;fill:#efefef" />
    <path
       d="M 78.27,216.99 L 78.91,216.99 C 78.97,217.51 79.1,218.56 79.16,219.08 L 78.8,219.88 L 78.19,219.84 C 78.21,219.13 78.25,217.7 78.27,216.99 z"
       id="path149"
       style="opacity:1;fill:#efefef" />
    <path
       d="M 99.03,276.21 C 99.52,276.11 100.5,275.93 100.99,275.83 L 101.98,276.06 L 102.01,276.73 C 101.28,276.74 99.82,276.78 99.09,276.79 L 99.03,276.21 z"
       id="path151"
       style="opacity:1;fill:#efefef" />
    <path
       d="M 214.02,297.2 C 214.51,297.11 215.49,296.92 215.98,296.83 L 216.96,297.05 L 216.99,297.67 C 216.26,297.71 214.81,297.77 214.08,297.8 L 214.02,297.2 z"
       id="path153"
       style="opacity:1;fill:#efefef" />
  </g>
  <g
     id="#757676ff">
    <path
       d="M 60.1,3.01 C 60.58,3.05 61.53,3.13 62.01,3.17 L 62.01,3.91 C 61.53,3.88 60.57,3.83 60.09,3.8 L 60.1,3.01 z"
       id="path192"
       style="opacity:1;fill:#757676" />
    <path
       d="M 63.13,127.1 L 63.89,127.09 C 63.87,127.56 63.83,128.52 63.8,128.99 L 63.07,128.94 C 63.09,128.48 63.11,127.56 63.13,127.1 z"
       id="path194"
       style="opacity:1;fill:#757676" />
    <path
       d="M 248.08,274 C 248.79,274.03 250.22,274.08 250.94,274.11 L 250.93,274.91 C 250.22,274.87 248.79,274.79 248.07,274.75 L 248.08,274 z"
       id="path196"
       style="opacity:1;fill:#757676" />
  </g>
  <g
     id="#f0f0f0ff">
    <path
       d="M 65.03,3.35 C 66.82,2.69 69.01,2.68 70.81,3.28 L 70.79,3.87 L 70.04,4.23 C 69.29,4.21 67.78,4.16 67.03,4.13 C 66.53,4.08 65.53,3.97 65.03,3.91 L 65.03,3.35 z"
       id="path202"
       style="opacity:1;fill:#f0f0f0" />
    <path
       d="M 108.02,8.37 C 109.83,7.67 112.01,7.74 113.88,8.24 L 113.89,8.73 C 113.45,8.85 112.58,9.08 112.14,9.2 C 110.76,9.11 109.38,9.01 108.01,8.88 L 108.02,8.37 z"
       id="path204"
       style="opacity:1;fill:#f0f0f0" />
    <path
       d="M 135.01,11.38 C 136.49,10.69 138.35,10.7 139.88,11.23 L 139.94,11.78 L 139.15,12.14 C 137.77,12.1 136.39,12.01 135.01,11.89 L 135.01,11.38 z"
       id="path206"
       style="opacity:1;fill:#f0f0f0" />
    <path
       d="M 230.94,32.04 L 231.57,32.1 C 232.42,33.87 232.31,36.18 231.65,37.99 L 231.09,37.99 C 231.03,37.22 230.9,35.68 230.84,34.91 C 230.86,34.19 230.91,32.76 230.94,32.04 z"
       id="path208"
       style="opacity:1;fill:#f0f0f0" />
    <path
       d="M 232.22,40.11 L 232.78,40.14 C 233.32,41.44 233.28,42.73 232.66,44 L 232.08,43.99 C 232.03,43.22 231.91,41.66 231.86,40.89 L 232.22,40.11 z"
       id="path210"
       style="opacity:1;fill:#f0f0f0" />
    <path
       d="M 56.27,88.98 L 56.92,89 C 56.97,89.78 57.07,91.34 57.12,92.12 C 57.11,92.58 57.09,93.5 57.08,93.96 L 56.44,93.9 C 55.63,92.45 55.7,90.5 56.27,88.98 z"
       id="path212"
       style="opacity:1;fill:#f0f0f0" />
    <path
       d="M 378,204 C 381.31,203.99 384.67,204 388,204 L 388,205 C 384.68,205.01 381.3,204.98 378,205 L 378,204 z"
       id="path214"
       style="opacity:1;fill:#f0f0f0" />
    <path
       d="M 388,205 C 390.97,204.98 394,205 397,205 L 397,206 C 394.03,206.01 390.94,205.97 388,206 L 388,205 z"
       id="path216"
       style="opacity:1;fill:#f0f0f0" />
    <path
       d="M 187.06,291.88 C 187.56,291.96 188.54,292.13 189.03,292.21 L 189.04,292.81 C 188.55,292.58 187.56,292.11 187.06,291.88 z"
       id="path218"
       style="opacity:1;fill:#f0f0f0" />
  </g>
  <g
     id="#ccccccff">
    <path
       d="M 88.97,6.35 C 90.33,5.62 91.69,5.63 93.04,6.38 L 93.06,6.93 C 91.7,7.05 90.34,7.04 88.98,6.92 L 88.97,6.35 z"
       id="path284"
       style="opacity:1;fill:#cccccc" />
    <path
       d="M 251.11,164.98 L 251.68,164.99 C 251.75,165.76 251.87,167.28 251.94,168.05 L 251.17,168.01 C 251.15,167.25 251.12,165.74 251.11,164.98 z"
       id="path286"
       style="opacity:1;fill:#cccccc" />
    <path
       d="M 348.16,303.24 L 348.93,302.96 C 348.7,303.23 348.25,303.76 348.03,304.03 L 348.16,303.24 z"
       id="path288"
       style="opacity:1;fill:#cccccc" />
  </g>
  <g
     id="#f9f9f9ff">
    <path
       d="M 93.04,6.38 C 94.48,5.66 96.36,5.65 97.85,6.24 L 97.83,6.83 L 97.04,7.22 C 96.27,7.19 94.74,7.13 93.98,7.1 L 93.06,6.93 L 93.04,6.38 z"
       id="path291"
       style="opacity:1;fill:#f9f9f9" />
    <path
       d="M 46.32,33 L 46.93,33.01 C 46.99,33.53 47.11,34.57 47.17,35.09 L 46.8,35.88 L 46.18,35.85 C 46.22,35.14 46.29,33.71 46.32,33 z"
       id="path293"
       style="opacity:1;fill:#f9f9f9" />
    <path
       d="M 236.92,72.06 L 237.65,72.1 C 237.66,72.82 237.67,74.27 237.68,74.99 L 237.07,74.97 L 236.86,73.98 C 236.88,73.5 236.91,72.54 236.92,72.06 z"
       id="path295"
       style="opacity:1;fill:#f9f9f9" />
    <path
       d="M 244.92,123.05 L 245.65,123.1 C 245.66,123.82 245.68,125.28 245.68,126 L 245.07,125.96 L 244.86,124.97 C 244.88,124.49 244.91,123.53 244.92,123.05 z"
       id="path297"
       style="opacity:1;fill:#f9f9f9" />
    <path
       d="M 250.01,155.98 L 250.71,156.07 C 250.7,156.8 250.68,158.27 250.67,159 L 250.07,159 C 250.05,158.25 250.03,156.74 250.01,155.98 z"
       id="path299"
       style="opacity:1;fill:#f9f9f9" />
    <path
       d="M 72.37,182.03 L 72.91,182.01 C 72.96,182.78 73.05,184.32 73.1,185.09 L 72.82,185.96 L 72.27,186.4 C 71.99,186.5 71.44,186.69 71.17,186.78 C 70.93,186.54 70.45,186.06 70.21,185.82 L 70.27,185.29 C 70.62,185.14 71.3,184.84 71.65,184.69 C 71.83,184.02 72.19,182.69 72.37,182.03 z"
       id="path301"
       style="opacity:1;fill:#f9f9f9" />
    <path
       d="M 77.3,212.02 L 77.93,212.05 L 78.14,213.04 C 78.12,213.52 78.07,214.48 78.05,214.96 L 77.33,214.91 C 77.33,214.19 77.31,212.75 77.3,212.02 z"
       id="path303"
       style="opacity:1;fill:#f9f9f9" />
  </g>
  <g
     id="#616262ff">
    <path
       d="M 93.98,7.1 C 94.74,7.13 96.27,7.19 97.04,7.22 L 97.04,7.89 C 96.29,7.87 94.79,7.82 94.03,7.8 L 93.98,7.1 z"
       id="path320"
       style="opacity:1;fill:#616262" />
    <path
       d="M 377,231.14 C 377.73,231.16 379.2,231.2 379.93,231.22 L 379.93,231.96 C 379.2,231.94 377.73,231.88 377,231.86 L 377,231.14 z"
       id="path322"
       style="opacity:1;fill:#616262" />
  </g>
  <g
     id="#e4e4e4ff">
    <path
       d="M 141.95,12.06 C 143.55,11.77 145.31,11.76 146.88,12.25 L 146.89,12.74 C 146.45,12.85 145.56,13.09 145.12,13.21 C 144.33,13.09 142.76,12.85 141.97,12.73 L 141.95,12.06 z"
       id="path406"
       style="opacity:1;fill:#e4e4e4" />
    <path
       d="M 405.17,248.24 L 405.94,247.94 C 405.71,248.21 405.26,248.76 405.03,249.03 L 405.17,248.24 z"
       id="path408"
       style="opacity:1;fill:#e4e4e4" />
    <path
       d="M 371.18,281.19 L 372.01,281.02 C 371.75,281.27 371.25,281.76 371,282 L 371.18,281.19 z"
       id="path410"
       style="opacity:1;fill:#e4e4e4" />
  </g>
  <g
     id="#c1c1c1ff">
    <path
       d="M 148.98,13.35 C 150.32,12.61 151.67,12.61 153.01,13.37 L 153.02,13.9 C 151.68,14.04 150.33,14.05 148.99,13.93 L 148.98,13.35 z"
       id="path423"
       style="opacity:1;fill:#c1c1c1" />
    <path
       d="M 111.94,278.04 C 112.7,278.08 114.23,278.17 115,278.21 L 115.04,278.9 C 114.27,278.85 112.75,278.76 111.98,278.71 L 111.94,278.04 z"
       id="path425"
       style="opacity:1;fill:#c1c1c1" />
  </g>
  <g
     id="#f5f5f5ff">
    <path
       d="M 173.33,14.19 C 173.69,14.19 174.4,14.19 174.76,14.19 L 174.82,14.74 C 174.58,15.02 174.09,15.57 173.85,15.85 L 173.07,16.18 C 171.72,16.11 170.36,16.01 169.01,15.89 L 169.02,15.38 C 170.25,15.07 171.49,14.84 172.76,14.68 L 173.33,14.19 z"
       id="path444"
       style="opacity:1;fill:#f5f5f5" />
    <path
       d="M 47.33,38.01 L 47.93,38.01 C 47.99,38.53 48.11,39.56 48.17,40.08 L 47.8,40.88 L 47.18,40.85 C 47.22,40.14 47.29,38.72 47.33,38.01 z"
       id="path446"
       style="opacity:1;fill:#f5f5f5" />
    <path
       d="M 235.21,59.03 L 235.77,59.1 C 236.33,60.42 236.29,61.72 235.66,63 L 235.08,63 C 235.03,62.21 234.94,60.65 234.9,59.86 L 235.21,59.03 z"
       id="path448"
       style="opacity:1;fill:#f5f5f5" />
    <path
       d="M 53.28,72.98 L 53.9,72.97 C 53.95,73.76 54.05,75.35 54.1,76.14 L 53.8,76.97 L 53.24,76.9 C 52.7,75.59 52.71,74.28 53.28,72.98 z"
       id="path450"
       style="opacity:1;fill:#f5f5f5" />
    <path
       d="M 64.28,135.98 L 64.9,135.97 C 64.95,136.76 65.05,138.35 65.1,139.14 L 64.8,139.97 L 64.24,139.9 C 63.7,138.59 63.71,137.28 64.28,135.98 z"
       id="path452"
       style="opacity:1;fill:#f5f5f5" />
    <path
       d="M 255,186.07 L 255.92,186.05 L 255.96,186.87 L 255.09,186.79 L 255,186.07 z"
       id="path454"
       style="opacity:1;fill:#f5f5f5" />
    <path
       d="M 287,195 C 289.66,195 292.33,195 295,195 L 295,196 C 292.33,196 289.66,196 287,196 L 287,195 z"
       id="path456"
       style="opacity:1;fill:#f5f5f5" />
    <path
       d="M 86,250 L 86.8,250.16 L 86.93,250.96 C 86.7,250.72 86.23,250.24 86,250 z"
       id="path458"
       style="opacity:1;fill:#f5f5f5" />
  </g>
  <g
     id="#eaeaeaff">
    <path
       d="M 177.02,16.37 C 179.18,15.65 181.74,15.72 183.93,16.3 L 184.01,16.8 C 183.28,16.9 181.83,17.1 181.11,17.2 C 179.74,17.11 178.37,17 177.01,16.88 L 177.02,16.37 z"
       id="path467"
       style="opacity:1;fill:#eaeaea" />
    <path
       d="M 253.22,175.12 L 253.76,175.15 C 254.28,176.69 254.27,178.52 253.73,180.06 L 253.15,180.02 C 253,178.64 252.91,177.26 252.87,175.87 L 253.22,175.12 z"
       id="path469"
       style="opacity:1;fill:#eaeaea" />
    <path
       d="M 230.03,299.96 C 230.5,299.93 231.43,299.89 231.9,299.86 C 232.42,299.92 233.47,300.03 233.99,300.08 L 234,300.67 C 232.68,301.36 231.37,301.34 230.09,300.61 L 230.03,299.96 z"
       id="path471"
       style="opacity:1;fill:#eaeaea" />
  </g>
  <g
     id="#fbfbfbff">
    <path
       d="M 226,20 C 226.5,20 227.51,20 228.01,20 C 228,21.65 227.99,23.3 227.95,24.95 L 226.79,24.79 L 226.74,24.07 L 225.96,23.95 L 225.83,23.17 L 225.04,23.04 L 224.96,22.28 L 224.21,22.19 C 223.63,22.13 222.47,22 221.89,21.94 L 221.89,21.23 C 223.25,21.09 224.62,21 226,20.95 L 226,20 z"
       id="path514"
       style="opacity:1;fill:#fbfbfb" />
    <path
       d="M 244,108 C 244.5,108 245.5,108 246,108 C 246,108.5 246,109.5 246,110 L 245,110 L 245,111 L 244.07,111 C 243.98,111.78 243.81,113.35 243.73,114.13 L 243.03,114.13 C 243.02,113.58 243,112.47 242.98,111.92 C 243.01,111.4 243.07,110.38 243.1,109.87 L 244,110 C 244,109.5 244,108.5 244,108 z"
       id="path516"
       style="opacity:1;fill:#fbfbfb" />
    <path
       d="M 248,132 L 249,132 L 249,137 L 248.04,136.99 C 247.99,137.78 247.88,139.37 247.83,140.16 L 247.05,140.15 C 247.02,139.34 246.96,137.72 246.93,136.9 L 247.14,136 L 248,136 C 248,134.67 248,133.33 248,132 z"
       id="path518"
       style="opacity:1;fill:#fbfbfb" />
    <path
       d="M 90.01,259.11 C 89.17,258.16 89.17,258.16 90.01,259.11 z"
       id="path520"
       style="opacity:1;fill:#fbfbfb" />
  </g>
  <path
     style="fill:#1b1d1e;fill-opacity:1;fill-rule:evenodd;stroke:#000000;stroke-width:1px;stroke-linecap:butt;stroke-linejoin:miter;stroke-opacity:1"
     d="M 35.18952,25.274128 L 52.05494,17.544144 L 217.19549,37.923191 L 224.22274,44.247722 L 247.41269,198.14465 L 75.94761,255.76816 L 35.18952,25.274128 z"
     id="path5480" />
  <path
     style="fill:#323232;fill-opacity:1;fill-rule:evenodd;stroke:#000000;stroke-width:1px;stroke-linecap:butt;stroke-linejoin:miter;stroke-opacity:1"
     d="M 74.912813,263.0465 L 75.233093,274.5767 L 78.756213,277.45925 L 302.9545,317.49466 L 314.16441,318.45551 L 320.57008,315.25267 L 326.01489,313.65126 L 411.85081,229.41676 L 411.53052,215.96486 L 408.00741,214.04316 L 241.13983,197.06815 L 241.46011,195.78702 L 237.61671,195.46673 L 75.553383,256.96112 L 74.912813,263.0465 z"
     id="path5568" />
  <path
     style="fill:url(#linearGradient3239);fill-opacity:1;fill-rule:evenodd;stroke:#000000;stroke-width:1px;stroke-linecap:butt;stroke-linejoin:miter;stroke-opacity:1"
     d="M 54.558598,31.855611 L 213.37461,45.910125 L 235.86183,187.86072 L 90.397608,232.83517 L 54.558598,31.855611 z"
     id="path4708" />
  <path
     style="fill:#b5b6b7;fill-opacity:1;fill-rule:evenodd;stroke:#000000;stroke-width:1px;stroke-linecap:butt;stroke-linejoin:miter;stroke-opacity:1"
     d="M 91.444633,251.59475 L 76.248903,256.43976 L 74.487083,259.74318 L 308.36904,300.70555 L 322.24339,296.52122 L 323.1243,296.30099 L 323.1243,293.87849 L 316.7377,289.03348 L 307.04767,286.17051 L 91.444633,251.59475 z"
     id="path5576" />
  <path
     style="fill:#7f9098;fill-opacity:1;fill-rule:evenodd;stroke:#000000;stroke-width:1px;stroke-linecap:butt;stroke-linejoin:miter;stroke-opacity:1"
     d="M 147.66635,252.42486 L 266.22656,202.68531 L 332.2601,209.11715 L 334.18965,210.8323 L 333.54647,213.19065 L 234.28177,269.57642 L 147.23756,255.85517"
     id="path5586" />
  <g
     id="#b9bbbcff"
     transform="translate(-32.413817,6.7716858)">
    <path
       d="M 364.9,230.19 L 366.03,230.11 L 366.07,230.74 C 367.62,231.33 369.33,231.1 370.93,230.87 C 371.72,230.91 373.29,230.99 374.08,231.03 L 374.07,231.78 C 374.8,231.8 376.27,231.84 377,231.86 C 377.73,231.88 379.2,231.94 379.93,231.96 C 381.28,231.96 382.64,231.97 384,231.99 C 384,232.49 384,233.5 384,234.01 L 383,234 L 382.92,235.06 L 381.8,235.19 L 381.07,235.27 L 381,236 L 380.24,236.1 L 380.2,236.81 L 379.08,236.94 L 379,238 L 378,238 L 378,239 L 377,239 L 376.92,240.04 L 375.86,240.14 L 375.14,240.19 L 375.14,240.86 L 374.08,240.96 L 374,242 L 373,242 L 372.92,243.06 L 371.8,243.19 L 371.07,243.27 L 371,244 L 370.24,244.1 L 370.2,244.81 L 369.08,244.94 L 369,246 L 368,246 L 367.93,247.05 L 366.84,247.2 L 366.07,247.3 L 365.96,248.08 L 365.19,248.2 L 365.09,248.98 C 363.09,248.71 361.06,248.88 359.06,249.12 C 358.28,249.08 356.7,249.01 355.92,248.98 L 355.92,248.24 C 355.21,248.18 353.79,248.08 353.08,248.02 C 351.69,248 350.3,247.97 348.92,247.95 L 348.92,247.26 C 347.66,246.84 346.38,246.76 345.08,247.03 C 344.53,247 343.44,246.94 342.89,246.91 L 342.88,246.17 L 343.93,246.09 L 344,245 L 345,245 L 345.08,243.96 L 346.14,243.86 L 346.86,243.81 L 346.86,243.14 L 347.92,243.04 L 348,242 L 349,242 L 349.08,240.96 L 350.14,240.86 L 350.86,240.81 L 350.86,240.14 L 351.92,240.04 L 352,239 L 353,239 L 353,238 C 353.5,238 354.5,238 355,238 L 355,237 L 356,237 L 356.08,235.96 L 357.14,235.86 L 357.86,235.81 L 357.86,235.14 L 358.92,235.04 L 359,234 L 360,234 L 360,233 C 360.5,233 361.5,233 362,233 L 362,232 L 363,232 L 363.08,230.95 L 364.15,230.88 L 364.87,230.84 L 364.9,230.19 z"
       id="path1667"
       style="opacity:1;fill:#b9bbbc" />
  </g>
</svg>
