<?xml version="1.0" encoding="UTF-8" standalone="no"?>
<svg
   xmlns:dc="http://purl.org/dc/elements/1.1/"
   xmlns:cc="http://creativecommons.org/ns#"
   xmlns:rdf="http://www.w3.org/1999/02/22-rdf-syntax-ns#"
   xmlns:svg="http://www.w3.org/2000/svg"
   xmlns="http://www.w3.org/2000/svg"
   xmlns:xlink="http://www.w3.org/1999/xlink"
   xmlns:sodipodi="http://sodipodi.sourceforge.net/DTD/sodipodi-0.dtd"
   xmlns:inkscape="http://www.inkscape.org/namespaces/inkscape"
   width="120"
   height="120"
   viewBox="0 0 284 228"
   version="1.0"
   id="svg2"
   sodipodi:version="0.32"
   inkscape:version="0.46"
   sodipodi:docname="server.svg"
   inkscape:output_extension="org.inkscape.output.svg.inkscape">
  <metadata
     id="metadata524">
    <rdf:RDF>
      <cc:Work
         rdf:about="">
        <dc:format>image/svg+xml</dc:format>
        <dc:type
           rdf:resource="http://purl.org/dc/dcmitype/StillImage" />
      </cc:Work>
    </rdf:RDF>
  </metadata>
  <defs
     id="defs522">
    <linearGradient
       id="linearGradient5123">
      <stop
         style="stop-color:#bec0c2;stop-opacity:1;"
         offset="0"
         id="stop5125" />
      <stop
         style="stop-color:#bec0c2;stop-opacity:0;"
         offset="1"
         id="stop5127" />
    </linearGradient>
    <inkscape:perspective
       sodipodi:type="inkscape:persp3d"
       inkscape:vp_x="0 : 142.5 : 1"
       inkscape:vp_y="0 : 1000 : 0"
       inkscape:vp_z="355 : 142.5 : 1"
       inkscape:persp3d-origin="177.5 : 95 : 1"
       id="perspective526" />
    <linearGradient
       inkscape:collect="always"
       xlink:href="#linearGradient5123"
       id="linearGradient5129"
       x1="125.54789"
       y1="15.574954"
       x2="386.48895"
       y2="15.574954"
       gradientUnits="userSpaceOnUse"
       gradientTransform="translate(-113.52634,28.858932)" />
  </defs>
  <sodipodi:namedview
     inkscape:window-height="802"
     inkscape:window-width="1440"
     inkscape:pageshadow="2"
     inkscape:pageopacity="0.0"
     guidetolerance="10.0"
     gridtolerance="10.0"
     objecttolerance="10.0"
     borderopacity="1.0"
     bordercolor="#666666"
     pagecolor="#ffffff"
     id="base"
     showgrid="false"
     inkscape:zoom="1"
     inkscape:cx="202.01657"
     inkscape:cy="142.5"
     inkscape:window-x="0"
     inkscape:window-y="0"
     inkscape:current-layer="svg2" />
  <g
     id="g2649"
     transform="translate(0,0.2613257)">
    <g
       id="#f4f4f4ff">
      <path
         id="path5"
         d="M 47.17,0 L 47.79,0 L 47.62,0.82 L 47.08,0.94 L 47.17,0 z"
         style="opacity:1;fill:#f4f4f4" />
      <path
         id="path7"
         d="M 229.87,0 L 236.8,0 C 236.93,0.53 237.18,1.58 237.3,2.11 C 235.2,0.41 232.33,0.78 229.87,0 z"
         style="opacity:1;fill:#f4f4f4" />
      <path
         id="path9"
         d="M 46.35,3.09 C 46.51,2.8 46.83,2.22 46.99,1.92 L 46.88,2.79 L 46.35,3.09 z"
         style="opacity:1;fill:#f4f4f4" />
      <path
         id="path11"
         d="M 237.3,2.11 C 237.41,2.39 237.63,2.95 237.74,3.23 L 237.29,2.92 L 237.3,2.11 z"
         style="opacity:1;fill:#f4f4f4" />
      <path
         id="path13"
         d="M 45.16,6.17 C 45.33,5.89 45.68,5.34 45.86,5.06 L 45.68,5.92 L 45.16,6.17 z"
         style="opacity:1;fill:#f4f4f4" />
      <path
         id="path15"
         d="M 238.15,5.08 C 238.32,5.36 238.66,5.91 238.84,6.18 L 238.32,5.93 L 238.15,5.08 z"
         style="opacity:1;fill:#f4f4f4" />
      <path
         id="path17"
         d="M 44.31,7.99 C 44.48,7.74 44.83,7.23 45,6.98 L 44.82,7.77 L 44.31,7.99 z"
         style="opacity:1;fill:#f4f4f4" />
      <path
         id="path19"
         d="M 239,6.98 C 239.17,7.24 239.51,7.74 239.68,8 L 239.18,7.77 L 239,6.98 z"
         style="opacity:1;fill:#f4f4f4" />
      <path
         id="path21"
         d="M 43.08,11.22 C 43.34,10.6 43.87,9.38 44.13,8.76 C 43.87,9.38 43.34,10.6 43.08,11.22 z"
         style="opacity:1;fill:#f4f4f4" />
      <path
         id="path23"
         d="M 239.86,8.76 C 240.13,9.38 240.67,10.6 240.93,11.21 C 240.67,10.6 240.13,9.38 239.86,8.76 z"
         style="opacity:1;fill:#f4f4f4" />
      <path
         id="path25"
         d="M 42.26,13.09 C 42.4,12.85 42.68,12.38 42.82,12.14 L 42.7,12.88 L 42.26,13.09 z"
         style="opacity:1;fill:#f4f4f4" />
      <path
         id="path27"
         d="M 241.18,12.14 C 241.32,12.38 241.6,12.86 241.74,13.1 L 241.29,12.88 L 241.18,12.14 z"
         style="opacity:1;fill:#f4f4f4" />
      <path
         id="path29"
         d="M 41.03,16.07 C 41.31,15.5 41.85,14.36 42.12,13.79 C 42.04,14.25 41.88,15.15 41.8,15.61 L 41.03,16.07 z"
         style="opacity:1;fill:#f4f4f4" />
      <path
         id="path31"
         d="M 241.86,13.8 C 242.17,14.16 242.77,14.86 243.08,15.22 L 242.95,16.08 C 242.68,15.51 242.13,14.37 241.86,13.8 z"
         style="opacity:1;fill:#f4f4f4" />
      <path
         id="path33"
         d="M 40.3,16.42 L 41.03,16.07 C 40.97,16.55 40.83,17.51 40.76,17.99 L 40.07,18.16 C 40.13,17.73 40.24,16.86 40.3,16.42 z"
         style="opacity:1;fill:#f4f4f4" />
      <path
         id="path35"
         d="M 242.95,16.08 L 243.68,16.42 C 243.74,16.85 243.87,17.72 243.93,18.16 L 243.24,17.99 C 243.17,17.51 243.02,16.56 242.95,16.08 z"
         style="opacity:1;fill:#f4f4f4" />
      <path
         id="path37"
         d="M 8.43,103.47 C 10.11,102.64 10.76,104.83 11.09,106.02 C 11.36,107.88 12.02,109.86 11.06,111.63 C 10.07,111.19 9.11,110.65 8.05,110.37 C 6.83,110.53 5.61,110.99 4.37,110.74 C 4.38,110.17 4.39,109.03 4.4,108.46 C 5.92,106.94 7.33,105.32 8.43,103.47 z"
         style="opacity:1;fill:#f4f4f4" />
      <path
         id="path39"
         d="M 272.92,106.04 C 273.24,104.74 273.92,102.72 275.66,103.37 C 276.85,106.14 281.52,108.41 278.85,111.68 C 277.88,111.23 276.92,110.75 275.96,110.29 C 274.94,110.71 273.94,111.17 272.94,111.63 C 271.96,109.86 272.65,107.88 272.92,106.04 z"
         style="opacity:1;fill:#f4f4f4" />
      <path
         id="path41"
         d="M 1.75,131.25 C 0.96,127.57 -0.17,122.98 2.85,119.99 L 3.31,120.74 C 3.17,121.2 2.91,122.11 2.78,122.57 C 1.88,125.34 2.49,128.28 2.64,131.11 C 3.31,138.4 2.97,145.74 3.73,153.02 C 4.37,159.42 3.94,165.87 4.56,172.27 C 5.63,183.78 5.21,195.35 5.01,206.88 C 5.13,209.24 6.96,211.13 9.1,211.9 C 12.9,213.24 16.94,213.85 20.96,213.92 C 64.97,213.89 108.99,214.07 153,214.08 C 189.68,214 226.36,213.89 263.04,213.93 C 266.8,213.87 270.57,213.27 274.17,212.17 C 276.58,211.49 278.84,209.55 278.99,206.9 C 278.77,194.81 278.38,182.68 279.57,170.62 C 279.99,164.76 279.64,158.87 280.27,153.03 C 281.06,146.04 280.7,139 281.31,132.01 C 281.44,128.86 282.13,125.63 281.22,122.55 C 281.09,122.09 280.84,121.19 280.72,120.74 L 281.17,119.97 C 284.14,123 283.05,127.56 282.25,131.25 C 281.41,137.38 282.6,143.62 281.75,149.74 C 280.11,156.35 281.54,163.19 280.89,169.89 C 280.39,172.56 279.77,175.23 279.96,177.98 C 280.19,183.58 279.69,189.2 280.16,194.79 C 281.73,199.2 283.97,203.86 282.7,208.65 C 282.22,212.03 278.78,213.96 278.33,217.34 C 277.91,220.91 277.96,224.55 276.8,228 L 7.2,228 C 6.18,224.82 5.99,221.49 5.8,218.19 C 5.69,215.53 3.86,213.54 2.42,211.5 C 1.55,209.14 0.88,206.61 0.97,204.09 C 1.61,199.97 4.25,196.31 4.03,192.03 C 3.88,186.06 4.21,180.07 3.89,174.11 C 1.73,166.13 4.21,157.75 2.25,149.75 C 1.4,143.62 2.59,137.38 1.75,131.25 z"
         style="opacity:1;fill:#f4f4f4" />
    </g>
    <g
       id="#d4d6d7ff">
      <path
         id="path109"
         d="M 52.41,0 L 229.19,0 C 225.91,1.18 222.4,0.57 219,0.67 C 164.69,0.69 110.38,0.64 56.08,0.69 C 54.84,0.57 53.62,0.34 52.41,0 z"
         style="opacity:1;fill:#d4d6d7" />
      <path
         id="path111"
         d="M 47.08,0.94 L 47.62,0.82 C 47.47,1.09 47.15,1.65 46.99,1.92 L 47.08,0.94 z"
         style="opacity:1;fill:#d4d6d7" />
      <path
         id="path113"
         d="M 45.16,6.17 L 45.68,5.92 C 45.51,6.19 45.17,6.71 45,6.98 L 45.16,6.17 z"
         style="opacity:1;fill:#d4d6d7" />
      <path
         id="path115"
         d="M 238.32,5.93 L 238.84,6.18 L 239,6.98 C 238.83,6.72 238.49,6.19 238.32,5.93 z"
         style="opacity:1;fill:#d4d6d7" />
      <path
         id="path117"
         d="M 42.26,13.09 L 42.7,12.88 C 42.56,13.11 42.26,13.56 42.12,13.79 L 42.26,13.09 z"
         style="opacity:1;fill:#d4d6d7" />
      <path
         id="path119"
         d="M 241.29,12.88 L 241.74,13.1 L 241.86,13.8 C 241.72,13.57 241.43,13.11 241.29,12.88 z"
         style="opacity:1;fill:#d4d6d7" />
      <path
         id="path121"
         d="M 40.07,18.16 L 40.76,17.99 C 40.61,18.22 40.33,18.68 40.19,18.91 L 40.07,18.16 z"
         style="opacity:1;fill:#d4d6d7" />
      <path
         id="path123"
         d="M 243.24,17.99 L 243.93,18.16 L 243.82,18.91 C 243.68,18.68 243.39,18.22 243.24,17.99 z"
         style="opacity:1;fill:#d4d6d7" />
      <path
         id="path125"
         d="M 127.88,26.09 C 128.02,25.96 128.3,25.72 128.44,25.6 C 128.3,25.72 128.02,25.96 127.88,26.09 z"
         style="opacity:1;fill:#d4d6d7" />
      <path
         id="path127"
         d="M 127.08,26.76 C 127.28,26.59 127.68,26.26 127.88,26.09 C 127.68,26.26 127.28,26.59 127.08,26.76 z"
         style="opacity:1;fill:#d4d6d7" />
      <path
         id="path129"
         d="M 130.12,26.45 L 130.86,26.42 C 130.85,26.84 130.82,27.67 130.8,28.08 L 130,28.17 C 130.03,27.74 130.09,26.88 130.12,26.45 z"
         style="opacity:1;fill:#d4d6d7" />
      <path
         id="path133"
         d="M 165.29,26.3 C 165.75,26.75 165.75,26.75 165.29,26.3 z"
         style="opacity:1;fill:#d4d6d7" />
      <path
         id="path135"
         d="M 171.29,27.3 C 171.75,27.75 171.75,27.75 171.29,27.3 z"
         style="opacity:1;fill:#d4d6d7" />
      <path
         id="path137"
         d="M 103.1,28.26 L 103.9,28.26 C 103.9,28.63 103.9,29.36 103.91,29.73 L 103.1,29.73 C 103.1,29.36 103.1,28.63 103.1,28.26 z"
         style="opacity:1;fill:#d4d6d7" />
      <path
         id="path139"
         d="M 174.29,28.29 C 174.75,28.75 174.75,28.75 174.29,28.29 z"
         style="opacity:1;fill:#d4d6d7" />
      <path
         id="path141"
         d="M 96.29,29.29 C 96.75,29.76 96.75,29.76 96.29,29.29 z"
         style="opacity:1;fill:#d4d6d7" />
      <path
         id="path143"
         d="M 189.43,30.47 C 189.54,30.61 189.75,30.88 189.86,31.02 C 189.75,30.88 189.54,30.61 189.43,30.47 z"
         style="opacity:1;fill:#d4d6d7" />
      <path
         id="path145"
         d="M 95.29,31.29 C 95.75,31.75 95.75,31.75 95.29,31.29 z"
         style="opacity:1;fill:#d4d6d7" />
      <path
         id="path147"
         d="M 189.86,31.02 C 190.17,31.31 190.81,31.89 191.13,32.18 L 191.04,33.03 L 190.24,32.92 C 190.15,32.45 189.95,31.5 189.86,31.02 z"
         style="opacity:1;fill:#d4d6d7" />
      <path
         id="path149"
         d="M 33.16,35.94 C 32.53,34.65 32.82,33.69 34.05,33.06 C 34.67,34.32 34.37,35.28 33.16,35.94 z"
         style="opacity:1;fill:#d4d6d7" />
      <path
         id="path151"
         d="M 199.12,34.18 C 199.35,33.84 199.8,33.14 200.02,32.79 L 200.75,33.11 L 200.7,33.91 C 200.31,33.98 199.52,34.12 199.12,34.18 z"
         style="opacity:1;fill:#d4d6d7" />
      <path
         id="path153"
         d="M 71.28,36.3 C 71.76,36.74 71.76,36.74 71.28,36.3 z"
         style="opacity:1;fill:#d4d6d7" />
      <path
         id="path155"
         d="M 208.52,36.5 C 208.62,36.62 208.8,36.87 208.9,36.99 C 208.8,36.87 208.62,36.62 208.52,36.5 z"
         style="opacity:1;fill:#d4d6d7" />
      <path
         id="path157"
         d="M 213.13,36.97 C 213.24,36.84 213.48,36.58 213.6,36.45 C 213.48,36.58 213.24,36.84 213.13,36.97 z"
         style="opacity:1;fill:#d4d6d7" />
      <path
         id="path159"
         d="M 213.19,38.92 C 211.67,38.42 211.65,37.77 213.13,36.97 C 213.14,37.46 213.17,38.43 213.19,38.92 z"
         style="opacity:1;fill:#d4d6d7" />
      <path
         id="path161"
         d="M 60.42,41.51 C 60.61,41.58 61,41.74 61.2,41.82 C 61,41.74 60.61,41.58 60.42,41.51 z"
         style="opacity:1;fill:#d4d6d7" />
      <path
         id="path163"
         d="M 226.29,42.29 C 226.75,42.75 226.75,42.75 226.29,42.29 z"
         style="opacity:1;fill:#d4d6d7" />
      <path
         id="path165"
         d="M 239.1,47.78 C 239.22,47.72 239.45,47.61 239.56,47.56 C 239.45,47.61 239.22,47.72 239.1,47.78 z"
         style="opacity:1;fill:#d4d6d7" />
      <path
         id="path167"
         d="M 36.29,51.29 C 36.76,51.75 36.76,51.75 36.29,51.29 z"
         style="opacity:1;fill:#d4d6d7" />
    </g>
    <g
       id="#e6e7e7ff">
      <path
         id="path170"
         d="M 46.35,3.09 L 46.88,2.79 C 46.71,3.09 46.39,3.69 46.23,3.98 L 46.35,3.09 z"
         style="opacity:1;fill:#e6e7e7" />
      <path
         id="path172"
         d="M 237.29,2.92 L 237.74,3.23 L 237.78,4.06 C 237.66,3.78 237.41,3.21 237.29,2.92 z"
         style="opacity:1;fill:#e6e7e7" />
      <path
         id="path174"
         d="M 37.82,23.78 C 37.74,21.85 38.29,19.79 40.19,18.91 C 40.15,20.8 39.82,23 37.82,23.78 z"
         style="opacity:1;fill:#e6e7e7" />
    </g>
    <g
       id="#e6e6e7ff">
      <path
         id="path177"
         d="M 44.31,7.99 L 44.82,7.77 C 44.65,8.02 44.31,8.51 44.13,8.76 L 44.31,7.99 z"
         style="opacity:1;fill:#e6e6e7" />
      <path
         id="path179"
         d="M 239.18,7.77 L 239.68,8 L 239.86,8.76 C 239.69,8.52 239.35,8.02 239.18,7.77 z"
         style="opacity:1;fill:#e6e6e7" />
      <path
         id="path181"
         d="M 243.82,18.91 C 245.72,19.78 246.28,21.85 246.19,23.77 C 244.18,23 243.86,20.8 243.82,18.91 z"
         style="opacity:1;fill:#e6e6e7" />
    </g>
    <g
       id="#f3f4f4ff">
      <path
         id="path184"
         d="M 34.05,33.06 C 34.26,32.52 34.69,31.44 34.9,30.9 C 34.88,31.34 34.83,32.22 34.81,32.66 L 34.05,33.06 z"
         style="opacity:1;fill:#f3f4f4" />
    </g>
    <g
       id="#e9eaeaff">
      <path
         id="path187"
         d="M 249.1,30.92 C 250.71,32.07 251.39,34.01 250.9,35.93 C 249.18,34.86 248.63,32.81 249.1,30.92 z"
         style="opacity:1;fill:#e9eaea" />
    </g>
    <g
       id="#bdbfbfff">
      <path
         id="path190"
         d="M 11.98,86.89 C 16.14,82.62 21.93,85.95 26.96,85.71 C 31.63,85.47 36.27,85.68 40.89,86.39 C 63.25,86.95 85.63,86.48 108,86.73 C 147.68,87.12 187.36,86.49 227.03,86.69 C 231.11,86.81 235.18,86.1 239.25,86.53 C 240.96,86.7 242.68,86.56 244.37,86.22 C 250.89,84.83 257.65,86.59 264.15,84.89 C 267.01,84.02 269.82,85.02 272,86.91 C 272.03,88.87 269.25,88.03 268.02,88.36 C 213.68,88.35 159.34,87.86 104.99,88.1 C 77.66,88.16 50.33,88.42 22.99,88.33 C 19.39,88.22 15.69,88.79 12.17,87.86 L 11.98,86.89 z"
         style="opacity:1;fill:#bdbfbf" />
    </g>
    <g
       id="#edededff">
      <path
         id="path193"
         d="M 10.59,87.76 C 10.9,87.32 11.53,86.44 11.84,86 L 11.98,86.89 L 12.17,87.86 C 15.69,88.79 19.39,88.22 22.99,88.33 C 50.33,88.42 77.66,88.16 104.99,88.1 C 159.34,87.86 213.68,88.35 268.02,88.36 C 269.25,88.03 272.03,88.87 272,86.91 L 272.15,86.02 C 272.47,86.45 273.1,87.32 273.41,87.76 C 275.81,88.13 278.25,87.9 280.66,88.16 C 282.1,89.28 283.01,90.9 284,92.4 L 284,103.43 C 282.12,106.71 283.28,110.7 282.9,114.3 C 280.8,107.47 283.52,100.32 282.66,93.35 C 281.4,92.19 279.63,92.17 278.03,92.1 C 274.27,92.02 270.46,91.97 266.78,92.8 C 262.91,93.69 258.92,93.33 255,93.36 C 237,93.36 219,93.36 201.01,93.37 C 196.95,93.4 192.84,93.04 188.83,93.89 C 186.83,92.38 184.29,93.19 182.38,94.42 C 181.53,95.98 180.72,98.18 182.4,99.52 C 184.75,99.68 187.33,99.27 189.19,101.06 C 177.14,101.54 165.06,101.3 153,101.21 C 150.13,101.25 147.27,101.39 144.41,101.18 C 145.28,99.32 146.17,97.2 144.94,95.24 C 144.11,92.6 140.75,94.2 139.62,95.69 C 138.2,97.55 140.22,99.47 140.82,101.22 C 127.53,101.52 114.23,101.21 100.93,101.25 C 102.79,99.09 103.67,96.34 103.07,93.51 C 98.93,93.52 94.91,92.26 90.77,92.38 C 82.22,92.37 73.67,92.2 65.12,92.23 C 49.08,92.47 33.04,92.35 17,91.94 C 12.13,92.06 7.22,91.59 2.38,92.27 C 2.12,92.56 1.6,93.15 1.35,93.44 C 0.67,100.38 2.93,107.46 1.11,114.29 C 0.63,110.37 1.97,106.03 0,102.43 L 0,92.39 C 0.97,90.88 1.93,89.32 3.32,88.15 C 5.74,87.9 8.19,88.13 10.59,87.76 M 104.3,94.2 C 104.23,96.07 104.23,97.95 104.29,99.82 C 107.66,100.12 107.67,93.87 104.3,94.2 M 109.26,94.3 C 109.21,96.1 109.22,97.9 109.27,99.71 C 109.65,99.73 110.41,99.77 110.79,99.79 C 110.9,97.93 110.89,96.07 110.77,94.22 C 110.39,94.24 109.64,94.28 109.26,94.3 M 114.18,94.29 C 114.48,96.19 113.46,99.3 115.92,99.96 C 116.07,98.04 116.07,96.1 115.84,94.19 C 115.42,94.22 114.6,94.27 114.18,94.29 M 119.2,94.28 C 119.47,96.18 118.43,99.34 120.93,99.95 C 121.03,98.03 121.02,96.11 120.84,94.19 C 120.43,94.21 119.61,94.26 119.2,94.28 M 124.23,94.28 C 124.4,95.96 123.66,98.14 125.02,99.44 C 126.94,98.65 125.58,95.83 125.79,94.19 C 125.4,94.21 124.62,94.26 124.23,94.28 M 129.16,94.2 C 128.94,95.81 128.89,97.45 128.97,99.08 C 132.29,100.38 130.84,95.98 130.85,94.19 C 130.43,94.19 129.58,94.2 129.16,94.2 M 152.96,99.08 C 156.3,100.38 154.81,95.98 154.85,94.18 C 151.89,93.36 153.26,97.39 152.96,99.08 M 158.21,94.19 C 158.38,95.86 157.09,98.62 159,99.49 C 160.27,98.1 159.63,95.99 159.78,94.28 C 159.38,94.26 158.6,94.21 158.21,94.19 M 163.18,94.19 C 163.3,95.85 162.02,98.66 163.98,99.5 C 165.28,98.13 164.61,95.99 164.77,94.28 C 164.37,94.25 163.58,94.21 163.18,94.19 M 168.16,94.19 C 167.92,96.1 167.92,98.03 168.07,99.95 C 170.53,99.31 169.53,96.19 169.81,94.3 C 169.4,94.27 168.58,94.22 168.16,94.19 M 173.18,94.21 C 172.93,96.06 172.93,97.94 173.18,99.8 C 173.57,99.78 174.36,99.74 174.75,99.73 C 174.79,97.91 174.79,96.09 174.75,94.28 C 174.36,94.26 173.57,94.22 173.18,94.21 M 179.7,99.83 C 179.77,97.94 179.76,96.06 179.7,94.18 C 176.33,93.91 176.33,100.09 179.7,99.83 z"
         style="opacity:1;fill:#ededed" />
    </g>
    <g
       id="#c5c5c5ff">
      <path
         id="path196"
         d="M 2.38,92.27 C 7.22,91.59 12.13,92.06 17,91.94 C 33.04,92.35 49.08,92.47 65.12,92.23 C 64.34,93.07 63.57,93.92 62.77,94.75 C 62.37,94.9 61.58,95.2 61.19,95.35 C 61.08,96.49 61,97.63 60.94,98.77 C 60.75,99.35 60.37,100.52 60.19,101.1 C 73.76,101.24 87.35,101.43 100.93,101.25 C 114.23,101.21 127.53,101.52 140.82,101.22 C 140.22,99.47 138.2,97.55 139.62,95.69 C 140.75,94.2 144.11,92.6 144.94,95.24 C 146.17,97.2 145.28,99.32 144.41,101.18 C 147.27,101.39 150.13,101.25 153,101.21 L 153.01,102.12 C 109.67,101.89 66.33,102.11 22.99,101.89 C 20.72,101.88 18.45,101.91 16.2,102.21 C 16.15,103.72 16.21,105.24 16.31,106.75 C 16.29,110.48 16.55,114.23 16.1,117.95 C 12.16,118.37 8.19,118.14 4.24,118.29 C 4.05,120.02 6.05,120.03 7.18,120.61 C 5.89,120.64 4.6,120.69 3.31,120.74 L 2.85,119.99 C 1.68,118.29 0.67,116.42 1.11,114.29 C 2.93,107.46 0.67,100.38 1.35,93.44 C 1.6,93.15 2.12,92.56 2.38,92.27 M 8.43,103.47 C 7.33,105.32 5.92,106.94 4.4,108.46 C 4.39,109.03 4.38,110.17 4.37,110.74 C 5.61,110.99 6.83,110.53 8.05,110.37 C 7.49,111.44 6.96,112.59 6.98,113.83 C 9,116.1 14.14,115.78 14.37,112.19 C 14.86,109.7 15.11,105.67 12.06,104.8 C 11.82,105.11 11.33,105.72 11.09,106.02 C 10.76,104.83 10.11,102.64 8.43,103.47 z"
         style="opacity:1;fill:#c5c5c5" />
      <path
         id="path198"
         d="M 2.78,122.57 C 12.81,121.53 22.91,122.24 32.94,122.92 C 44.31,123.05 55.68,123.29 67.05,123.29 C 70.64,123.41 74.1,124.53 77.64,125.07 C 77.14,125.72 76.44,126.11 75.54,126.27 C 76.17,127.4 77.46,128.31 77.54,129.66 C 76.51,130.65 75.36,131.51 74.06,132.1 C 73.05,131.64 72.22,130.63 71.06,130.59 C 69.09,130.95 67.22,132.05 65.16,131.68 C 61.76,131.12 58.4,132.16 55,131.97 C 52.89,131.96 50.59,131.64 48.78,133 C 43.2,133.03 37.62,133.39 32.05,133.13 C 28.58,133.07 25.06,132.73 21.65,133.54 C 20.49,134.71 20.92,136.49 20.89,137.97 C 21.19,142.95 21.7,147.93 21.67,152.93 C 21.57,163.3 22.9,173.62 22.71,183.99 C 23.17,189.72 22.87,195.55 23.88,201.21 C 24.02,201.6 24.28,202.36 24.42,202.75 C 27.93,203.14 31.48,203 35.01,203.06 C 46.3,203.08 57.6,203.64 68.89,203.1 C 68.24,203.84 67.59,204.56 66.92,205.28 C 46.75,205.48 26.55,205.15 6.39,205.43 C 6.23,205.86 5.91,206.7 5.75,207.13 L 5.01,206.88 C 5.21,195.35 5.63,183.78 4.56,172.27 C 3.94,165.87 4.37,159.42 3.73,153.02 C 2.97,145.74 3.31,138.4 2.64,131.11 C 2.49,128.28 1.88,125.34 2.78,122.57 z"
         style="opacity:1;fill:#c5c5c5" />
      <path
         id="path200"
         d="M 227,123.33 C 241.4,123.21 255.81,123.01 270.2,122.38 C 273.87,122.09 277.56,122.16 281.22,122.55 C 282.13,125.63 281.44,128.86 281.31,132.01 C 280.7,139 281.06,146.04 280.27,153.03 C 279.64,158.87 279.99,164.76 279.57,170.62 C 278.38,182.68 278.77,194.81 278.99,206.9 L 278.24,207.08 C 278.07,206.68 277.73,205.86 277.56,205.45 C 257.47,205.03 237.34,205.69 217.24,205.13 C 213.79,202.64 209.23,204.39 205.29,203.96 L 205.2,203.14 C 222.97,203.54 240.78,203.23 258.54,202.77 C 258.74,202.42 259.14,201.74 259.34,201.4 C 260.28,200.48 260.78,199.25 260.68,197.93 C 260.63,190.6 262.07,183.35 261.66,176.02 C 261.25,167.32 263.05,158.71 262.65,150.02 C 262.42,144.67 263.34,139.33 262.92,133.99 L 262.76,133.21 C 253.91,132.79 245.06,133.58 236.22,132.93 C 234.91,132.26 233.49,131.83 232.01,131.95 C 226.25,131.85 220.38,132.64 214.72,131.26 C 212.81,130.86 210.96,131.8 209.08,131.97 C 207.97,131.31 207.08,130.38 206.39,129.31 C 207.43,128.9 208.48,128.49 209.5,128.03 C 209.42,127.51 209.25,126.46 209.16,125.94 C 209.46,125.63 210.05,125.01 210.35,124.7 C 210.05,124.16 209.75,123.63 209.44,123.09 C 215.28,123.78 221.14,123.17 227,123.33 z"
         style="opacity:1;fill:#c5c5c5" />
    </g>
    <g
       id="#d3d7daff">
      <path
         id="path203"
         d="M 65.12,92.23 C 73.67,92.2 82.22,92.37 90.77,92.38 C 94.91,92.26 98.93,93.52 103.07,93.51 C 103.67,96.34 102.79,99.09 100.93,101.25 C 87.35,101.43 73.76,101.24 60.19,101.1 C 60.37,100.52 60.75,99.35 60.94,98.77 C 63.39,98.71 66.09,99.27 68.3,97.91 C 68.24,97.22 68.12,95.84 68.06,95.15 C 66.3,94.96 64.53,94.84 62.77,94.75 C 63.57,93.92 64.34,93.07 65.12,92.23 M 71.26,95.37 C 70.52,96.14 70.34,98.65 71.76,98.64 C 72.52,97.87 72.68,95.35 71.26,95.37 M 74.25,95.35 C 73.51,96.14 73.34,98.64 74.76,98.66 C 75.5,97.87 75.66,95.36 74.25,95.35 M 77.21,95.35 C 76.48,96.14 76.3,98.66 77.72,98.66 C 78.45,97.86 78.62,95.37 77.21,95.35 M 80.19,95.34 C 79.43,96.13 79.29,98.65 80.7,98.65 C 81.43,97.85 81.6,95.36 80.19,95.34 M 83.19,95.35 C 82.43,96.12 82.2,98.68 83.66,98.63 C 84.41,97.86 84.58,95.37 83.19,95.35 M 85.97,95.27 C 85.97,95.64 85.97,96.37 85.96,96.74 L 86.77,96.75 C 86.77,96.38 86.77,95.64 86.77,95.28 L 85.97,95.27 M 88.37,95.16 C 88.39,95.52 88.42,96.24 88.44,96.6 C 90.55,98.26 90.46,93.69 88.37,95.16 M 100.14,95.24 C 99.43,96.11 99.21,98.64 100.63,98.76 C 101.24,97.88 101.51,95.36 100.14,95.24 M 86.16,98.21 C 86.68,98.74 86.68,98.74 86.16,98.21 M 88.29,98.03 L 88.28,98.82 C 88.65,98.82 89.39,98.82 89.76,98.82 L 89.77,98.03 C 89.4,98.03 88.66,98.03 88.29,98.03 z"
         style="opacity:1;fill:#d3d7da" />
    </g>
    <g
       id="#c1c1c1ff">
      <path
         id="path206"
         d="M 266.78,92.8 C 270.46,91.97 274.27,92.02 278.03,92.1 C 279.63,92.17 281.4,92.19 282.66,93.35 C 283.52,100.32 280.8,107.47 282.9,114.3 C 283.33,116.42 282.32,118.28 281.17,119.97 L 280.72,120.74 C 279.07,120.68 277.43,120.6 275.79,120.53 C 277.14,119.86 279.87,120.38 279.77,118.29 C 275.81,118.19 271.84,118.45 267.9,117.96 C 267.46,114.24 267.7,110.49 267.67,106.76 C 267.77,105.25 267.83,103.75 267.79,102.24 C 265.87,102 263.94,101.92 262.02,101.91 C 240.35,101.95 218.68,101.96 197,102.1 C 182.34,101.99 167.67,101.93 153.01,102.12 L 153,101.21 C 165.06,101.3 177.14,101.54 189.19,101.06 C 213.38,101.83 237.6,100.83 261.8,100.94 L 261.67,100.14 C 255.89,100.09 250.23,98.76 244.58,97.78 L 244.01,97.23 C 251.99,97.11 260.05,97.93 267.98,96.87 L 267.95,95.87 C 267.94,94.7 267.55,93.68 266.78,92.8 M 272.92,106.04 C 272.68,105.72 272.21,105.1 271.97,104.78 C 268.99,105.64 269.36,109.59 269.69,112.03 C 269.77,115.69 274.93,115.98 276.97,113.79 C 277.08,112.53 276.43,111.39 275.96,110.29 C 276.92,110.75 277.88,111.23 278.85,111.68 C 281.52,108.41 276.85,106.14 275.66,103.37 C 273.92,102.72 273.24,104.74 272.92,106.04 z"
         style="opacity:1;fill:#c1c1c1" />
    </g>
    <g
       id="#d1d1d1ff">
      <path
         id="path209"
         d="M 182.38,94.42 C 184.29,93.19 186.83,92.38 188.83,93.89 C 188.99,94.31 189.3,95.15 189.45,95.57 C 215.6,95.92 241.79,95.3 267.95,95.87 L 267.98,96.87 C 260.05,97.93 251.99,97.11 244.01,97.23 L 244.58,97.78 C 250.23,98.76 255.89,100.09 261.67,100.14 L 261.8,100.94 C 237.6,100.83 213.38,101.83 189.19,101.06 C 187.33,99.27 184.75,99.68 182.4,99.52 C 180.72,98.18 181.53,95.98 182.38,94.42 M 183.39,95.26 C 182.7,96.42 182.69,97.58 183.38,98.74 C 184.79,98.78 184.8,95.24 183.39,95.26 z"
         style="opacity:1;fill:#d1d1d1" />
    </g>
    <g
       id="#010a0cff">
      <path
         id="path212"
         d="M 188.83,93.89 C 192.84,93.04 196.95,93.4 201.01,93.37 C 219,93.36 237,93.36 255,93.36 C 258.92,93.33 262.91,93.69 266.78,92.8 C 267.55,93.68 267.94,94.7 267.95,95.87 C 241.79,95.3 215.6,95.92 189.45,95.57 C 189.3,95.15 188.99,94.31 188.83,93.89 z"
         style="opacity:1;fill:#010a0c" />
      <path
         id="path214"
         d="M 109.26,94.3 C 109.64,94.28 110.39,94.24 110.77,94.22 C 110.89,96.07 110.9,97.93 110.79,99.79 C 110.41,99.77 109.65,99.73 109.27,99.71 C 109.22,97.9 109.21,96.1 109.26,94.3 z"
         style="opacity:1;fill:#010a0c" />
      <path
         id="path216"
         d="M 16.2,102.21 C 18.45,101.91 20.72,101.88 22.99,101.89 C 66.33,102.11 109.67,101.89 153.01,102.12 C 167.67,101.93 182.34,101.99 197,102.1 C 218.68,101.96 240.35,101.95 262.02,101.91 C 263.94,101.92 265.87,102 267.79,102.24 C 267.83,103.75 267.77,105.25 267.67,106.76 C 267.02,110.76 267.58,114.82 267.06,118.83 C 266.5,118.7 265.38,118.44 264.82,118.3 C 266.21,113.41 265.61,108.26 265.75,103.25 C 246.93,103.18 228.1,102.99 209.28,103.23 C 209.16,108.25 209.1,113.28 209.27,118.3 C 208.4,118.55 207.55,118.53 206.7,118.25 C 206.62,113.25 206.81,108.24 206.75,103.24 C 196.9,102.87 187.02,103.08 177.17,103.08 L 176.7,103.83 C 175.67,108.83 176.89,113.99 176.09,119.03 L 175.14,118.76 C 173.94,113.71 174.98,108.38 174.82,103.22 L 173.95,103.17 C 152.65,103.19 131.35,103.19 110.05,103.15 L 109.18,103.2 C 109.05,108.37 110.03,113.69 108.86,118.76 L 107.92,119.04 C 107.11,113.99 108.33,108.83 107.29,103.83 L 106.83,103.07 C 96.98,103.08 87.1,102.86 77.25,103.24 C 77.2,108.24 77.38,113.25 77.3,118.26 C 76.44,118.51 75.58,118.53 74.71,118.3 C 74.89,113.28 74.85,108.26 74.71,103.24 C 55.89,102.94 37.05,103.19 18.24,103.23 C 18.12,106.09 18.3,108.96 18.42,111.82 C 18.43,114.22 18.37,116.62 18.03,119 L 17,118.97 C 16.31,114.93 17.04,110.79 16.31,106.75 C 16.21,105.24 16.15,103.72 16.2,102.21 z"
         style="opacity:1;fill:#010a0c" />
      <path
         id="path218"
         d="M 211.16,105.15 C 212.79,104.65 213.35,105.21 212.85,106.81 C 211.22,107.34 210.65,106.78 211.16,105.15 z"
         style="opacity:1;fill:#010a0c" />
      <path
         id="path220"
         d="M 21.2,114.13 C 23.72,114.44 20.39,117.8 20.14,115.22 C 20.4,114.94 20.93,114.4 21.2,114.13 z"
         style="opacity:1;fill:#010a0c" />
      <path
         id="path222"
         d="M 112.21,114.14 C 114.75,114.44 111.41,117.78 111.14,115.21 C 111.4,114.95 111.94,114.41 112.21,114.14 z"
         style="opacity:1;fill:#010a0c" />
      <path
         id="path224"
         d="M 211.16,114.26 C 212.77,113.71 213.46,116.4 211.82,116.74 C 210.26,117.21 209.54,114.62 211.16,114.26 z"
         style="opacity:1;fill:#010a0c" />
      <path
         id="path226"
         d="M 20.89,137.97 C 20.92,136.49 20.49,134.71 21.65,133.54 C 22,133.89 22.71,134.59 23.06,134.94 C 23.42,140.61 23.86,146.29 23.66,151.98 C 23.43,159.67 24.87,167.28 24.67,174.96 C 24.48,183.25 25.55,191.51 25.3,199.81 C 29.15,200.49 33.11,200.39 36.99,200.01 C 37.03,186.34 36.19,172.68 36.34,159.01 C 36.36,152.66 35.95,146.33 35.9,139.98 C 35.85,138.11 35.99,136.11 34.9,134.48 C 35.41,134.31 36.42,133.98 36.92,133.81 C 37.23,134.06 37.85,134.56 38.16,134.81 C 37.34,144.18 38.69,153.57 38.67,162.95 C 38.6,175.28 38.63,187.61 39.17,199.92 C 43.13,200.44 47.15,200.4 51.12,200 C 51.73,181.35 51.21,162.65 50.72,144 C 50.53,140.84 51.25,137.49 49.89,134.51 C 50.4,134.32 51.42,133.93 51.93,133.74 C 52.22,134.01 52.81,134.54 53.11,134.81 C 52.18,141.18 53,147.61 53.01,154.01 C 53.38,162.71 53.16,171.43 53.59,180.13 C 53.95,186.74 53.23,193.39 53.95,199.99 C 57.97,200.39 62.05,200.38 66.07,200 C 66.93,182.01 65.4,163.99 65.66,145.99 C 65.48,142.18 66.31,138.19 64.9,134.54 C 65.39,134.35 66.37,133.98 66.86,133.79 C 67.16,134.07 67.76,134.61 68.07,134.89 C 67.32,140.56 67.77,146.29 67.69,151.99 C 67.93,167.93 68.56,183.86 68.28,199.79 C 72.47,200.47 76.76,200.36 80.97,199.97 C 81.15,187.66 80.52,175.33 80.63,163.01 C 79.91,153.65 80.88,144.23 79.95,134.88 C 80.49,134.63 81.57,134.13 82.12,133.88 C 82.88,145.64 81.71,157.49 82.68,169.23 C 82.84,179.45 83.02,189.68 83.19,199.9 C 87.34,200.37 91.58,200.47 95.72,199.84 C 95.54,188.24 95.91,176.63 95.35,165.03 C 95.04,154.97 95.91,144.85 94.85,134.83 C 95.16,134.57 95.77,134.05 96.08,133.79 C 96.59,133.97 97.6,134.32 98.11,134.5 C 96.99,136.49 97.32,138.81 97.3,140.99 C 97.47,147.85 97.14,154.72 97.48,161.58 C 98.08,174.37 97.17,187.2 97.97,199.97 C 101.99,200.34 106.05,200.35 110.08,199.99 C 110.7,193.02 110.16,186 110.33,179 C 110.16,164.28 110.64,149.52 109.77,134.82 C 110.58,133.64 111.42,133.65 112.28,134.85 C 112.28,156.49 112.44,178.14 112.28,199.78 C 116.48,200.41 120.76,200.31 124.97,199.95 C 125.27,178.3 124.69,156.61 124.88,134.95 C 125.23,134.6 125.94,133.92 126.3,133.58 C 127.48,134.69 126.92,136.54 127.14,137.98 C 127.11,156.65 127.24,175.33 127.36,194.01 C 127.38,196.32 127.37,198.65 127,200.95 C 125,201.17 123,201.2 120.99,201.19 C 88.62,201.15 56.25,201.27 23.88,201.21 C 22.87,195.55 23.17,189.72 22.71,183.99 C 22.9,173.62 21.57,163.3 21.67,152.93 C 21.7,147.93 21.19,142.95 20.89,137.97 z"
         style="opacity:1;fill:#010a0c" />
      <path
         id="path228"
         d="M 156.86,137.97 C 157.02,136.5 156.65,134.76 157.65,133.52 C 158.02,133.83 158.75,134.46 159.11,134.77 C 159.06,152.18 159.13,169.59 158.89,187 C 158.93,191.32 158.62,195.65 159.03,199.96 C 162.94,200.32 166.91,200.37 170.83,199.92 L 171.7,199.75 C 171.58,178.12 171.72,156.48 171.7,134.85 C 172.58,133.63 173.42,133.62 174.22,134.82 C 173.36,149.85 173.85,164.94 173.67,180 C 173.85,186.65 173.28,193.33 173.94,199.96 C 177.95,200.24 181.98,200.24 185.99,199.93 C 186.79,187.45 185.98,174.91 186.48,162.41 C 186.86,155.28 186.53,148.13 186.71,140.99 C 186.68,138.81 187.02,136.49 185.89,134.51 C 186.4,134.32 187.41,133.96 187.92,133.78 C 188.23,134.04 188.84,134.57 189.15,134.83 C 187.99,146.32 189.16,157.9 188.48,169.42 C 188.17,179.55 188.43,189.68 188.29,199.81 C 192.43,200.36 196.64,200.3 200.78,199.86 C 200.89,189.65 201.12,179.45 201.31,169.24 C 202.31,157.49 201.11,145.64 201.89,133.87 C 202.33,133.91 203.23,133.98 203.67,134.02 L 204.06,134.88 C 203.34,140.57 203.75,146.31 203.67,152.02 C 203.33,167.99 203.05,183.98 203.06,199.95 C 207.26,200.3 211.53,200.38 215.71,199.79 C 215.36,180.85 216.37,161.93 216.37,142.99 C 216.42,140.28 216.26,137.58 215.94,134.89 C 216.24,134.61 216.84,134.05 217.14,133.77 C 217.63,133.96 218.61,134.35 219.1,134.54 C 217.68,138.2 218.52,142.18 218.34,146 C 218.58,163.99 217.09,182.01 217.93,199.99 C 221.95,200.31 226,200.3 230.03,199.96 C 230.75,193.65 230.12,187.3 230.36,180.97 C 230.8,171.66 230.66,162.33 231.02,153.01 C 231.05,146.94 231.78,140.84 230.89,134.81 C 231.67,133.35 232.96,133.94 234.12,134.5 C 232.82,137.14 233.43,140.15 233.29,142.98 C 232.83,161.97 232.24,181 232.89,199.98 C 236.85,200.32 240.86,200.37 244.82,199.91 C 245.42,186.97 245.17,174 245.67,161.05 C 245.41,152.31 246.57,143.55 245.84,134.82 C 246.15,134.56 246.76,134.05 247.07,133.79 C 247.58,133.96 248.6,134.32 249.11,134.5 C 247.8,136.41 248.18,138.8 248.06,140.98 C 247.53,158.32 247.69,175.66 247.03,192.99 C 246.93,195.32 246.86,197.66 247.03,200 C 250.9,200.38 254.85,200.44 258.7,199.8 C 258.69,194.87 258.74,189.93 259.12,185 C 259.57,178.89 259.05,172.75 259.58,166.64 C 260.72,156.09 260.11,145.47 260.79,134.89 C 261.32,134.67 262.39,134.22 262.92,133.99 C 263.34,139.33 262.42,144.67 262.65,150.02 C 263.05,158.71 261.25,167.32 261.66,176.02 C 262.07,183.35 260.63,190.6 260.68,197.93 C 260.78,199.25 260.28,200.48 259.34,201.4 C 229.23,201.02 199.11,201.26 168.99,201.19 C 165,201.13 161,201.39 157.02,200.93 C 156.61,198.64 156.62,196.32 156.64,194.01 C 156.76,175.33 156.88,156.65 156.86,137.97 z"
         style="opacity:1;fill:#010a0c" />
    </g>
    <g
       id="#1c2527ff">
      <path
         id="path231"
         d="M 104.3,94.2 C 107.67,93.87 107.66,100.12 104.29,99.82 C 104.23,97.95 104.23,96.07 104.3,94.2 z"
         style="opacity:1;fill:#1c2527" />
      <path
         id="path233"
         d="M 173.18,94.21 C 173.57,94.22 174.36,94.26 174.75,94.28 C 174.79,96.09 174.79,97.91 174.75,99.73 C 174.36,99.74 173.57,99.78 173.18,99.8 C 172.93,97.94 172.93,96.06 173.18,94.21 z"
         style="opacity:1;fill:#1c2527" />
      <path
         id="path235"
         d="M 179.7,99.83 C 176.33,100.09 176.33,93.91 179.7,94.18 C 179.76,96.06 179.77,97.94 179.7,99.83 z"
         style="opacity:1;fill:#1c2527" />
      <path
         id="path237"
         d="M 79.12,104.22 C 87.71,104.14 96.3,104.36 104.88,104.14 L 105.08,105 C 105.3,107.31 105.44,109.62 105.31,111.94 C 101.02,110.45 96.44,111.14 92,111.02 C 87.57,111.17 83.01,110.47 78.73,111.94 C 78.73,109.38 78.27,106.69 79.12,104.22 z"
         style="opacity:1;fill:#1c2527" />
      <path
         id="path239"
         d="M 179.12,104.15 C 187.7,104.37 196.29,104.11 204.87,104.23 C 205.74,106.69 205.25,109.4 205.25,111.97 C 201.01,110.32 196.42,111.19 192,111.04 C 187.56,111.12 182.97,110.31 178.7,111.94 C 178.56,109.62 178.7,107.3 178.91,105 L 179.12,104.15 z"
         style="opacity:1;fill:#1c2527" />
      <path
         id="path241"
         d="M 111.22,105.21 C 112.89,104.66 113.45,105.19 112.91,106.81 C 111.27,107.33 110.71,106.8 111.22,105.21 z"
         style="opacity:1;fill:#1c2527" />
    </g>
    <g
       id="#363c3cff">
      <path
         id="path244"
         d="M 114.18,94.29 C 114.6,94.27 115.42,94.22 115.84,94.19 C 116.07,96.1 116.07,98.04 115.92,99.96 C 113.46,99.3 114.48,96.19 114.18,94.29 z"
         style="opacity:1;fill:#363c3c" />
      <path
         id="path246"
         d="M 163.18,94.19 C 163.58,94.21 164.37,94.25 164.77,94.28 C 164.61,95.99 165.28,98.13 163.98,99.5 C 162.02,98.66 163.3,95.85 163.18,94.19 z"
         style="opacity:1;fill:#363c3c" />
      <path
         id="path248"
         d="M 168.16,94.19 C 168.58,94.22 169.4,94.27 169.81,94.3 C 169.53,96.19 170.53,99.31 168.07,99.95 C 167.92,98.03 167.92,96.1 168.16,94.19 z"
         style="opacity:1;fill:#363c3c" />
      <path
         id="path250"
         d="M 178.7,111.94 C 182.97,110.31 187.56,111.12 192,111.04 C 196.42,111.19 201.01,110.32 205.25,111.97 C 205.19,112.45 205.08,113.42 205.02,113.9 C 196.4,113.47 187.76,113.92 179.14,113.83 C 179.03,113.36 178.81,112.41 178.7,111.94 z"
         style="opacity:1;fill:#363c3c" />
      <path
         id="path252"
         d="M 122.09,125.14 C 124.91,124.56 123.51,128.02 123.73,129.66 C 123.32,129.71 122.49,129.81 122.07,129.87 C 121.98,128.29 121.98,126.71 122.09,125.14 z"
         style="opacity:1;fill:#363c3c" />
      <path
         id="path254"
         d="M 160.26,125.31 C 160.67,125.27 161.5,125.19 161.91,125.14 C 162.01,126.71 162.02,128.29 161.93,129.86 C 159.12,130.39 160.49,126.96 160.26,125.31 z"
         style="opacity:1;fill:#363c3c" />
      <path
         id="path256"
         d="M 165.25,125.31 C 165.67,125.27 166.49,125.19 166.9,125.15 C 167,126.71 167,128.28 166.91,129.84 C 164.09,130.43 165.49,126.94 165.25,125.31 z"
         style="opacity:1;fill:#363c3c" />
    </g>
    <g
       id="#363c3dff">
      <path
         id="path259"
         d="M 119.2,94.28 C 119.61,94.26 120.43,94.21 120.84,94.19 C 121.02,96.11 121.03,98.03 120.93,99.95 C 118.43,99.34 119.47,96.18 119.2,94.28 z"
         style="opacity:1;fill:#363c3d" />
      <path
         id="path261"
         d="M 124.23,94.28 C 124.62,94.26 125.4,94.21 125.79,94.19 C 125.58,95.83 126.94,98.65 125.02,99.44 C 123.66,98.14 124.4,95.96 124.23,94.28 z"
         style="opacity:1;fill:#363c3d" />
      <path
         id="path263"
         d="M 158.21,94.19 C 158.6,94.21 159.38,94.26 159.78,94.28 C 159.63,95.99 160.27,98.1 159,99.49 C 157.09,98.62 158.38,95.86 158.21,94.19 z"
         style="opacity:1;fill:#363c3d" />
      <path
         id="path265"
         d="M 78.73,111.94 C 83.01,110.47 87.57,111.17 92,111.02 C 96.44,111.14 101.02,110.45 105.31,111.94 C 105.19,112.41 104.96,113.35 104.84,113.82 C 96.25,114.29 87.62,113.31 79.04,113.95 C 78.96,113.45 78.81,112.44 78.73,111.94 z"
         style="opacity:1;fill:#363c3d" />
      <path
         id="path267"
         d="M 92.27,125.33 C 92.67,125.29 93.48,125.2 93.89,125.16 C 93.99,126.71 94,128.28 93.92,129.83 C 91.1,130.45 92.49,126.96 92.27,125.33 z"
         style="opacity:1;fill:#363c3d" />
      <path
         id="path269"
         d="M 117.1,125.15 C 119.9,124.59 118.51,128.05 118.75,129.68 C 118.33,129.72 117.51,129.8 117.1,129.85 C 117.01,128.28 117.01,126.71 117.1,125.15 z"
         style="opacity:1;fill:#363c3d" />
      <path
         id="path271"
         d="M 190.11,125.17 C 192.89,124.59 191.5,128.06 191.74,129.68 C 191.32,129.72 190.49,129.81 190.07,129.85 C 189.99,128.29 190.01,126.73 190.11,125.17 z"
         style="opacity:1;fill:#363c3d" />
    </g>
    <g
       id="#6b6e6eff">
      <path
         id="path274"
         d="M 129.16,94.2 C 129.58,94.2 130.43,94.19 130.85,94.19 C 130.84,95.98 132.29,100.38 128.97,99.08 C 128.89,97.45 128.94,95.81 129.16,94.2 z"
         style="opacity:1;fill:#6b6e6e" />
    </g>
    <g
       id="#6a6d6eff">
      <path
         id="path277"
         d="M 152.96,99.08 C 153.26,97.39 151.89,93.36 154.85,94.18 C 154.81,95.98 156.3,100.38 152.96,99.08 z"
         style="opacity:1;fill:#6a6d6e" />
    </g>
    <g
       id="#888a8bff">
      <path
         id="path280"
         d="M 61.19,95.35 C 61.58,95.2 62.37,94.9 62.77,94.75 C 64.53,94.84 66.3,94.96 68.06,95.15 C 68.12,95.84 68.24,97.22 68.3,97.91 C 66.09,99.27 63.39,98.71 60.94,98.77 C 61,97.63 61.08,96.49 61.19,95.35 z"
         style="opacity:1;fill:#888a8b" />
    </g>
    <g
       id="#6a767bff">
      <path
         id="path283"
         d="M 71.26,95.37 C 72.68,95.35 72.52,97.87 71.76,98.64 C 70.34,98.65 70.52,96.14 71.26,95.37 z"
         style="opacity:1;fill:#6a767b" />
      <path
         id="path285"
         d="M 74.25,95.35 C 75.66,95.36 75.5,97.87 74.76,98.66 C 73.34,98.64 73.51,96.14 74.25,95.35 z"
         style="opacity:1;fill:#6a767b" />
      <path
         id="path287"
         d="M 77.21,95.35 C 78.62,95.37 78.45,97.86 77.72,98.66 C 76.3,98.66 76.48,96.14 77.21,95.35 z"
         style="opacity:1;fill:#6a767b" />
      <path
         id="path289"
         d="M 80.19,95.34 C 81.6,95.36 81.43,97.85 80.7,98.65 C 79.29,98.65 79.43,96.13 80.19,95.34 z"
         style="opacity:1;fill:#6a767b" />
    </g>
    <g
       id="#6a90b3ff">
      <path
         id="path292"
         d="M 83.19,95.35 C 84.58,95.37 84.41,97.86 83.66,98.63 C 82.2,98.68 82.43,96.12 83.19,95.35 z"
         style="opacity:1;fill:#6a90b3" />
    </g>
    <g
       id="#71a5dbff">
      <path
         id="path295"
         d="M 85.97,95.27 L 86.77,95.28 C 86.77,95.64 86.77,96.38 86.77,96.75 L 85.96,96.74 C 85.97,96.37 85.97,95.64 85.97,95.27 z"
         style="opacity:1;fill:#71a5db" />
    </g>
    <g
       id="#75a6d8ff">
      <path
         id="path298"
         d="M 88.37,95.16 C 90.46,93.69 90.55,98.26 88.44,96.6 C 88.42,96.24 88.39,95.52 88.37,95.16 z"
         style="opacity:1;fill:#75a6d8" />
    </g>
    <g
       id="#101b1dff">
      <path
         id="path301"
         d="M 100.14,95.24 C 101.51,95.36 101.24,97.88 100.63,98.76 C 99.21,98.64 99.43,96.11 100.14,95.24 z"
         style="opacity:1;fill:#101b1d" />
    </g>
    <g
       id="#131b1cff">
      <path
         id="path304"
         d="M 183.39,95.26 C 184.8,95.24 184.79,98.78 183.38,98.74 C 182.69,97.58 182.7,96.42 183.39,95.26 z"
         style="opacity:1;fill:#131b1c" />
    </g>
    <g
       id="#5c9cddff">
      <path
         id="path307"
         d="M 86.16,98.21 C 86.68,98.74 86.68,98.74 86.16,98.21 z"
         style="opacity:1;fill:#5c9cdd" />
    </g>
    <g
       id="#70a4daff">
      <path
         id="path310"
         d="M 88.29,98.03 C 88.66,98.03 89.4,98.03 89.77,98.03 L 89.76,98.82 C 89.39,98.82 88.65,98.82 88.28,98.82 L 88.29,98.03 z"
         style="opacity:1;fill:#70a4da" />
    </g>
    <g
       id="#cacacaff">
      <path
         id="path313"
         d="M 18.24,103.23 C 37.05,103.19 55.89,102.94 74.71,103.24 C 74.85,108.26 74.89,113.28 74.71,118.3 C 59.14,118.38 43.57,118.3 28,118.35 C 24.99,118.35 21.96,118.53 18.99,117.98 C 18.72,115.93 18.56,113.88 18.42,111.82 C 18.3,108.96 18.12,106.09 18.24,103.23 M 20.14,105.15 C 19.62,106.78 20.18,107.33 21.8,106.81 C 22.32,105.18 21.77,104.63 20.14,105.15 M 21.2,114.13 C 20.93,114.4 20.4,114.94 20.14,115.22 C 20.39,117.8 23.72,114.44 21.2,114.13 z"
         style="opacity:1;fill:#cacaca" />
      <path
         id="path315"
         d="M 209.28,103.23 C 228.1,102.99 246.93,103.18 265.75,103.25 C 265.61,108.26 266.21,113.41 264.82,118.3 C 246.3,118.35 227.78,118.36 209.27,118.3 C 209.1,113.28 209.16,108.25 209.28,103.23 M 211.16,105.15 C 210.65,106.78 211.22,107.34 212.85,106.81 C 213.35,105.21 212.79,104.65 211.16,105.15 M 211.16,114.26 C 209.54,114.62 210.26,117.21 211.82,116.74 C 213.46,116.4 212.77,113.71 211.16,114.26 z"
         style="opacity:1;fill:#cacaca" />
    </g>
    <g
       id="#dededfff">
      <path
         id="path318"
         d="M 77.25,103.24 C 87.1,102.86 96.98,103.08 106.83,103.07 L 107.29,103.83 C 107.02,108.79 107.72,113.82 106.81,118.74 C 96.98,118.33 87.09,119.23 77.3,118.26 C 77.38,113.25 77.2,108.24 77.25,103.24 M 79.12,104.22 C 78.27,106.69 78.73,109.38 78.73,111.94 C 78.81,112.44 78.96,113.45 79.04,113.95 C 79.02,114.72 78.97,116.27 78.94,117.04 C 84.59,117.72 90.32,117.13 96,117.3 C 99.23,117.16 102.57,117.74 105.72,116.85 C 105.68,113.01 105.62,109.18 105.84,105.35 L 105.08,105 L 104.88,104.14 C 96.3,104.36 87.71,104.14 79.12,104.22 z"
         style="opacity:1;fill:#dededf" />
      <path
         id="path320"
         d="M 177.17,103.08 C 187.02,103.08 196.9,102.87 206.75,103.24 C 206.81,108.24 206.62,113.25 206.7,118.25 C 196.92,119.25 187.02,118.32 177.19,118.73 C 176.29,113.82 176.97,108.79 176.7,103.83 L 177.17,103.08 M 179.12,104.15 L 178.91,105 L 178.18,105.38 C 178.36,109.2 178.33,113.02 178.28,116.85 C 181.76,117.76 185.44,117.13 189,117.31 C 194.35,117.15 199.74,117.72 205.05,117.02 C 205.04,116.24 205.03,114.68 205.02,113.9 C 205.08,113.42 205.19,112.45 205.25,111.97 C 205.25,109.4 205.74,106.69 204.87,104.23 C 196.29,104.11 187.7,104.37 179.12,104.15 z"
         style="opacity:1;fill:#dededf" />
      <path
         id="path322"
         d="M 3.31,120.74 C 4.6,120.69 5.89,120.64 7.18,120.61 C 91.12,120.72 175.06,120.62 259,120.66 C 264.6,120.6 270.2,120.81 275.79,120.53 C 277.43,120.6 279.07,120.68 280.72,120.74 C 280.84,121.19 281.09,122.09 281.22,122.55 C 277.56,122.16 273.87,122.09 270.2,122.38 C 255.81,123.01 241.4,123.21 227,123.33 C 221.14,123.17 215.28,123.78 209.44,123.09 C 209.75,123.63 210.05,124.16 210.35,124.7 C 210.05,125.01 209.46,125.63 209.16,125.94 C 209.25,126.46 209.42,127.51 209.5,128.03 C 208.48,128.49 207.43,128.9 206.39,129.31 C 207.08,130.38 207.97,131.31 209.08,131.97 C 210.96,131.8 212.81,130.86 214.72,131.26 C 220.38,132.64 226.25,131.85 232.01,131.95 C 233.49,131.83 234.91,132.26 236.22,132.93 C 225.49,133.56 214.73,132.94 203.98,133.2 C 192,133 180.01,133.3 168.03,133.22 C 164.57,133.22 161.07,132.86 157.65,133.52 C 156.65,134.76 157.02,136.5 156.86,137.97 C 156.88,156.65 156.76,175.33 156.64,194.01 C 156.62,196.32 156.61,198.64 157.02,200.93 C 161,201.39 165,201.13 168.99,201.19 C 199.11,201.26 229.23,201.02 259.34,201.4 C 259.14,201.74 258.74,202.42 258.54,202.77 C 240.78,203.23 222.97,203.54 205.2,203.14 L 205.29,203.96 C 209.23,204.39 213.79,202.64 217.24,205.13 C 210.83,205.51 204.41,205.28 198,205.34 C 154.31,205.3 110.61,205.41 66.92,205.28 C 67.59,204.56 68.24,203.84 68.89,203.1 C 57.6,203.64 46.3,203.08 35.01,203.06 C 31.48,203 27.93,203.14 24.42,202.75 C 24.28,202.36 24.02,201.6 23.88,201.21 C 56.25,201.27 88.62,201.15 120.99,201.19 C 123,201.2 125,201.17 127,200.95 C 127.37,198.65 127.38,196.32 127.36,194.01 C 127.24,175.33 127.11,156.65 127.14,137.98 C 126.92,136.54 127.48,134.69 126.3,133.58 C 125.2,133.31 124.09,133.17 122.97,133.16 C 99.97,133.35 76.97,133.05 53.97,133.21 C 52.24,133.23 50.51,133.12 48.78,133 C 50.59,131.64 52.89,131.96 55,131.97 C 58.4,132.16 61.76,131.12 65.16,131.68 C 67.22,132.05 69.09,130.95 71.06,130.59 C 72.22,130.63 73.05,131.64 74.06,132.1 C 75.36,131.51 76.51,130.65 77.54,129.66 C 77.46,128.31 76.17,127.4 75.54,126.27 C 76.44,126.11 77.14,125.72 77.64,125.07 C 74.1,124.53 70.64,123.41 67.05,123.29 C 55.68,123.29 44.31,123.05 32.94,122.92 C 22.91,122.24 12.81,121.53 2.78,122.57 C 2.91,122.11 3.17,121.2 3.31,120.74 M 92.27,125.33 C 92.49,126.96 91.1,130.45 93.92,129.83 C 94,128.28 93.99,126.71 93.89,125.16 C 93.48,125.2 92.67,125.29 92.27,125.33 M 97.09,125.09 C 97.35,126.87 95.88,130.73 98.98,129.98 C 99.09,128.32 99.09,126.66 98.99,125 C 98.51,125.02 97.57,125.06 97.09,125.09 M 102.05,125.05 C 101.95,126.67 101.95,128.3 102.06,129.92 C 102.53,129.93 103.48,129.93 103.95,129.93 C 104.06,128.3 104.05,126.67 103.95,125.05 C 103.47,125.05 102.52,125.05 102.05,125.05 M 107.04,125.02 C 106.93,126.67 106.92,128.32 107.03,129.97 C 107.51,129.97 108.48,129.96 108.96,129.96 C 109.06,128.32 109.05,126.68 108.93,125.05 C 108.46,125.05 107.51,125.03 107.04,125.02 M 112.01,125.02 C 111.92,126.66 111.93,128.3 112.05,129.94 C 112.52,129.92 113.44,129.9 113.91,129.88 C 113.64,128.1 115.1,124.26 112.01,125.02 M 117.1,125.15 C 117.01,126.71 117.01,128.28 117.1,129.85 C 117.51,129.8 118.33,129.72 118.75,129.68 C 118.51,128.05 119.9,124.59 117.1,125.15 M 122.09,125.14 C 121.98,126.71 121.98,128.29 122.07,129.87 C 122.49,129.81 123.32,129.71 123.73,129.66 C 123.51,128.02 124.91,124.56 122.09,125.14 M 160.26,125.31 C 160.49,126.96 159.12,130.39 161.93,129.86 C 162.02,128.29 162.01,126.71 161.91,125.14 C 161.5,125.19 160.67,125.27 160.26,125.31 M 165.25,125.31 C 165.49,126.94 164.09,130.43 166.91,129.84 C 167,128.28 167,126.71 166.9,125.15 C 166.49,125.19 165.67,125.27 165.25,125.31 M 170.14,125.12 C 170.02,126.71 170.01,128.3 170.1,129.9 C 170.56,129.91 171.49,129.93 171.95,129.94 C 172.06,128.3 172.07,126.67 171.97,125.04 C 171.51,125.06 170.59,125.1 170.14,125.12 M 175.09,125.08 C 174.96,126.7 174.94,128.33 175.04,129.95 C 175.52,129.96 176.48,129.97 176.96,129.97 C 177.07,128.32 177.07,126.66 176.97,125.01 C 176.5,125.03 175.56,125.06 175.09,125.08 M 180.07,125.05 C 179.95,126.68 179.94,128.32 180.03,129.95 C 180.51,129.94 181.47,129.93 181.94,129.93 C 182.05,128.3 182.06,126.67 181.95,125.05 C 181.48,125.05 180.54,125.05 180.07,125.05 M 185.02,125 C 184.92,126.65 184.92,128.31 185.02,129.97 C 188.11,130.72 186.65,126.88 186.91,125.09 C 186.44,125.07 185.49,125.02 185.02,125 M 190.11,125.17 C 190.01,126.73 189.99,128.29 190.07,129.85 C 190.49,129.81 191.32,129.72 191.74,129.68 C 191.5,128.06 192.89,124.59 190.11,125.17 M 134.46,138.19 C 133.53,139.52 135.89,140.73 136.8,139.66 C 137.96,138.25 135.37,136.92 134.46,138.19 M 147.21,138.17 C 145.98,139.64 148.68,140.81 149.5,139.46 C 150.57,138.07 148.03,137.02 147.21,138.17 M 135.16,142.04 C 133.44,142.5 134.48,144.82 136,144.21 C 138.01,143.95 136.8,141.09 135.16,142.04 M 147.19,142.31 C 146,143.74 148.64,145 149.55,143.77 C 150.46,142.44 148.09,141.25 147.19,142.31 M 135.18,146.08 C 133.28,146.63 134.37,149.29 136.07,148.99 C 138.13,148.69 137.12,145.16 135.18,146.08 M 147.24,146.34 C 145.7,147.74 147.98,150.11 149.33,148.41 C 150.92,147.17 148.5,144.99 147.24,146.34 M 135.33,150.16 C 133.45,150.63 134.1,153.45 136.01,153.04 C 138.02,152.8 137.29,149.21 135.33,150.16 M 147.26,150.29 C 146.05,151.32 147.24,153.68 148.81,152.93 C 151.12,152.22 148.93,148.95 147.26,150.29 M 134.44,155.21 C 133.54,156.53 135.9,157.73 136.81,156.68 C 137.99,155.25 135.35,154 134.44,155.21 M 147.09,155.15 C 145.81,156.72 148.7,158.05 149.66,156.68 C 150.7,155.19 148.05,153.89 147.09,155.15 M 135.17,159.05 C 133.44,159.5 134.54,161.85 136.04,161.25 C 138.02,160.94 136.78,158.15 135.17,159.05 M 147.19,159.33 C 146,160.74 148.61,162.05 149.51,160.8 C 150.46,159.46 148.09,158.25 147.19,159.33 M 135.19,163.04 C 133.38,163.56 134.28,166.31 136.02,165.89 C 138.2,165.64 137.18,162.14 135.19,163.04 M 147.15,163.28 C 145.57,164.67 148.01,166.92 149.32,165.36 C 150.84,164.08 148.44,161.94 147.15,163.28 M 135.31,167.26 C 133.5,167.75 134.2,170.52 136.04,170.11 C 138.21,169.9 137.27,166.32 135.31,167.26 M 147.24,167.42 C 145.83,168.43 147.28,170.8 148.83,170 C 151.04,169.23 148.89,166.1 147.24,167.42 M 134.48,172.21 C 133.54,173.54 135.91,174.74 136.82,173.68 C 138,172.27 135.38,170.96 134.48,172.21 M 147.16,172.22 C 145.93,173.7 148.67,174.8 149.49,173.49 C 150.56,172.08 147.99,171.07 147.16,172.22 M 135.18,176.03 C 133.47,176.49 134.51,178.82 136.03,178.2 C 138.05,177.93 136.82,175.09 135.18,176.03 M 147.15,176.31 C 145.97,177.73 148.61,178.97 149.53,177.77 C 150.44,176.44 148.06,175.25 147.15,176.31 M 135.17,179.98 C 132.95,180.76 135.12,183.84 136.77,182.58 C 138.18,181.57 136.71,179.21 135.17,179.98 M 147.14,180.29 C 145.58,181.67 147.98,183.88 149.29,182.35 C 150.88,181.07 148.43,178.88 147.14,180.29 M 135.24,184.18 C 133.37,184.63 134.26,187.45 136.04,186.99 C 138.25,186.74 137.22,183.31 135.24,184.18 M 147.19,184.42 C 145.46,185.82 148.2,188.11 149.49,186.49 C 150.72,185.15 148.42,183.31 147.19,184.42 M 135.35,188.28 C 133.54,188.75 134.17,191.57 136.05,191.13 C 138.17,190.91 137.33,187.33 135.35,188.28 M 147.14,188.28 C 147.12,188.93 147.06,190.24 147.04,190.9 C 147.73,190.88 149.11,190.85 149.8,190.83 C 150.23,189.17 148.75,187.87 147.14,188.28 z"
         style="opacity:1;fill:#dededf" />
    </g>
    <g
       id="#4e4f4fff">
      <path
         id="path325"
         d="M 109.18,103.2 L 110.05,103.15 C 109.49,108.1 109.42,113.13 109.95,118.08 C 111.62,118.29 113.32,118.37 115.01,118.37 C 130.67,118.29 146.33,118.36 162,118.33 C 166.01,118.29 170.05,118.58 174.04,118.07 C 174.58,113.13 174.51,108.11 173.95,103.17 L 174.82,103.22 C 174.98,108.38 173.94,113.71 175.14,118.76 L 176.09,119.03 C 176.89,113.99 175.67,108.83 176.7,103.83 C 176.97,108.79 176.29,113.82 177.19,118.73 C 187.02,118.32 196.92,119.25 206.7,118.25 C 207.55,118.53 208.4,118.55 209.27,118.3 C 227.78,118.36 246.3,118.35 264.82,118.3 C 265.38,118.44 266.5,118.7 267.06,118.83 C 267.58,114.82 267.02,110.76 267.67,106.76 C 267.7,110.49 267.46,114.24 267.9,117.96 C 271.84,118.45 275.81,118.19 279.77,118.29 C 279.87,120.38 277.14,119.86 275.79,120.53 C 270.2,120.81 264.6,120.6 259,120.66 C 175.06,120.62 91.12,120.72 7.18,120.61 C 6.05,120.03 4.05,120.02 4.24,118.29 C 8.19,118.14 12.16,118.37 16.1,117.95 C 16.55,114.23 16.29,110.48 16.31,106.75 C 17.04,110.79 16.31,114.93 17,118.97 L 18.03,119 C 18.37,116.62 18.43,114.22 18.42,111.82 C 18.56,113.88 18.72,115.93 18.99,117.98 C 21.96,118.53 24.99,118.35 28,118.35 C 43.57,118.3 59.14,118.38 74.71,118.3 C 75.58,118.53 76.44,118.51 77.3,118.26 C 87.09,119.23 96.98,118.33 106.81,118.74 C 107.72,113.82 107.02,108.79 107.29,103.83 C 108.33,108.83 107.11,113.99 107.92,119.04 L 108.86,118.76 C 110.03,113.69 109.05,108.37 109.18,103.2 z"
         style="opacity:1;fill:#4e4f4f" />
      <path
         id="path327"
         d="M 147.26,150.29 C 148.93,148.95 151.12,152.22 148.81,152.93 C 147.24,153.68 146.05,151.32 147.26,150.29 z"
         style="opacity:1;fill:#4e4f4f" />
    </g>
    <g
       id="#dcdcdcff">
      <path
         id="path330"
         d="M 110.05,103.15 C 131.35,103.19 152.65,103.19 173.95,103.17 C 174.51,108.11 174.58,113.13 174.04,118.07 C 170.05,118.58 166.01,118.29 162,118.33 C 146.33,118.36 130.67,118.29 115.01,118.37 C 113.32,118.37 111.62,118.29 109.95,118.08 C 109.42,113.13 109.49,108.1 110.05,103.15 M 111.22,105.21 C 110.71,106.8 111.27,107.33 112.91,106.81 C 113.45,105.19 112.89,104.66 111.22,105.21 M 112.21,114.14 C 111.94,114.41 111.4,114.95 111.14,115.21 C 111.41,117.78 114.75,114.44 112.21,114.14 z"
         style="opacity:1;fill:#dcdcdc" />
    </g>
    <g
       id="#939595ff">
      <path
         id="path333"
         d="M 12.06,104.8 C 15.11,105.67 14.86,109.7 14.37,112.19 C 14.14,115.78 9,116.1 6.98,113.83 C 6.96,112.59 7.49,111.44 8.05,110.37 C 9.11,110.65 10.07,111.19 11.06,111.63 C 12.02,109.86 11.36,107.88 11.09,106.02 C 11.33,105.72 11.82,105.11 12.06,104.8 z"
         style="opacity:1;fill:#939595" />
    </g>
    <g
       id="#444c4dff">
      <path
         id="path336"
         d="M 20.14,105.15 C 21.77,104.63 22.32,105.18 21.8,106.81 C 20.18,107.33 19.62,106.78 20.14,105.15 z"
         style="opacity:1;fill:#444c4d" />
    </g>
    <g
       id="#565f61ff">
      <path
         id="path339"
         d="M 105.08,105 L 105.84,105.35 C 105.62,109.18 105.68,113.01 105.72,116.85 C 102.57,117.74 99.23,117.16 96,117.3 C 90.32,117.13 84.59,117.72 78.94,117.04 C 78.97,116.27 79.02,114.72 79.04,113.95 C 87.62,113.31 96.25,114.29 104.84,113.82 C 104.96,113.35 105.19,112.41 105.31,111.94 C 105.44,109.62 105.3,107.31 105.08,105 z"
         style="opacity:1;fill:#565f61" />
      <path
         id="path341"
         d="M 178.18,105.38 L 178.91,105 C 178.7,107.3 178.56,109.62 178.7,111.94 C 178.81,112.41 179.03,113.36 179.14,113.83 C 187.76,113.92 196.4,113.47 205.02,113.9 C 205.03,114.68 205.04,116.24 205.05,117.02 C 199.74,117.72 194.35,117.15 189,117.31 C 185.44,117.13 181.76,117.76 178.28,116.85 C 178.33,113.02 178.36,109.2 178.18,105.38 z"
         style="opacity:1;fill:#565f61" />
      <path
         id="path343"
         d="M 135.18,146.08 C 137.12,145.16 138.13,148.69 136.07,148.99 C 134.37,149.29 133.28,146.63 135.18,146.08 z"
         style="opacity:1;fill:#565f61" />
      <path
         id="path345"
         d="M 147.24,146.34 C 148.5,144.99 150.92,147.17 149.33,148.41 C 147.98,150.11 145.7,147.74 147.24,146.34 z"
         style="opacity:1;fill:#565f61" />
      <path
         id="path347"
         d="M 135.33,150.16 C 137.29,149.21 138.02,152.8 136.01,153.04 C 134.1,153.45 133.45,150.63 135.33,150.16 z"
         style="opacity:1;fill:#565f61" />
    </g>
    <g
       id="#929494ff">
      <path
         id="path350"
         d="M 269.69,112.03 C 269.36,109.59 268.99,105.64 271.97,104.78 C 272.21,105.1 272.68,105.72 272.92,106.04 C 272.65,107.88 271.96,109.86 272.94,111.63 C 273.94,111.17 274.94,110.71 275.96,110.29 C 276.43,111.39 277.08,112.53 276.97,113.79 C 274.93,115.98 269.77,115.69 269.69,112.03 z"
         style="opacity:1;fill:#929494" />
    </g>
    <g
       id="#5c6263ff">
      <path
         id="path353"
         d="M 97.09,125.09 C 97.57,125.06 98.51,125.02 98.99,125 C 99.09,126.66 99.09,128.32 98.98,129.98 C 95.88,130.73 97.35,126.87 97.09,125.09 z"
         style="opacity:1;fill:#5c6263" />
    </g>
    <g
       id="#5d6263ff">
      <path
         id="path356"
         d="M 102.05,125.05 C 102.52,125.05 103.47,125.05 103.95,125.05 C 104.05,126.67 104.06,128.3 103.95,129.93 C 103.48,129.93 102.53,129.93 102.06,129.92 C 101.95,128.3 101.95,126.67 102.05,125.05 z"
         style="opacity:1;fill:#5d6263" />
    </g>
    <g
       id="#565c5cff">
      <path
         id="path359"
         d="M 107.04,125.02 C 107.51,125.03 108.46,125.05 108.93,125.05 C 109.05,126.68 109.06,128.32 108.96,129.96 C 108.48,129.96 107.51,129.97 107.03,129.97 C 106.92,128.32 106.93,126.67 107.04,125.02 z"
         style="opacity:1;fill:#565c5c" />
    </g>
    <g
       id="#606566ff">
      <path
         id="path362"
         d="M 112.01,125.02 C 115.1,124.26 113.64,128.1 113.91,129.88 C 113.44,129.9 112.52,129.92 112.05,129.94 C 111.93,128.3 111.92,126.66 112.01,125.02 z"
         style="opacity:1;fill:#606566" />
    </g>
    <g
       id="#616565ff">
      <path
         id="path365"
         d="M 170.14,125.12 C 170.59,125.1 171.51,125.06 171.97,125.04 C 172.07,126.67 172.06,128.3 171.95,129.94 C 171.49,129.93 170.56,129.91 170.1,129.9 C 170.01,128.3 170.02,126.71 170.14,125.12 z"
         style="opacity:1;fill:#616565" />
    </g>
    <g
       id="#565c5dff">
      <path
         id="path368"
         d="M 175.09,125.08 C 175.56,125.06 176.5,125.03 176.97,125.01 C 177.07,126.66 177.07,128.32 176.96,129.97 C 176.48,129.97 175.52,129.96 175.04,129.95 C 174.94,128.33 174.96,126.7 175.09,125.08 z"
         style="opacity:1;fill:#565c5d" />
    </g>
    <g
       id="#5d6262ff">
      <path
         id="path371"
         d="M 180.07,125.05 C 180.54,125.05 181.48,125.05 181.95,125.05 C 182.06,126.67 182.05,128.3 181.94,129.93 C 181.47,129.93 180.51,129.94 180.03,129.95 C 179.94,128.32 179.95,126.68 180.07,125.05 z"
         style="opacity:1;fill:#5d6262" />
    </g>
    <g
       id="#5c6162ff">
      <path
         id="path374"
         d="M 185.02,125 C 185.49,125.02 186.44,125.07 186.91,125.09 C 186.65,126.88 188.11,130.72 185.02,129.97 C 184.92,128.31 184.92,126.65 185.02,125 z"
         style="opacity:1;fill:#5c6162" />
    </g>
    <g
       id="#5e6363ff">
      <path
         id="path377"
         d="M 21.65,133.54 C 25.06,132.73 28.58,133.07 32.05,133.13 C 37.62,133.39 43.2,133.03 48.78,133 C 50.51,133.12 52.24,133.23 53.97,133.21 C 76.97,133.05 99.97,133.35 122.97,133.16 C 124.09,133.17 125.2,133.31 126.3,133.58 C 125.94,133.92 125.23,134.6 124.88,134.95 C 120.68,135.04 116.47,135.14 112.28,134.85 C 111.42,133.65 110.58,133.64 109.77,134.82 C 105.89,135.08 101.95,135.25 98.11,134.5 C 97.6,134.32 96.59,133.97 96.08,133.79 C 95.77,134.05 95.16,134.57 94.85,134.83 C 90.88,135.13 86.9,134.83 82.92,135.09 C 82.12,146.45 83.17,157.86 82.68,169.23 C 81.71,157.49 82.88,145.64 82.12,133.88 C 81.57,134.13 80.49,134.63 79.95,134.88 C 75.99,135.03 72.02,135.07 68.07,134.89 C 67.76,134.61 67.16,134.07 66.86,133.79 C 66.37,133.98 65.39,134.35 64.9,134.54 C 61.01,135.23 57.03,135.09 53.11,134.81 C 52.81,134.54 52.22,134.01 51.93,133.74 C 51.42,133.93 50.4,134.32 49.89,134.51 C 46.02,135.25 42.06,135.08 38.16,134.81 C 37.85,134.56 37.23,134.06 36.92,133.81 C 36.42,133.98 35.41,134.31 34.9,134.48 C 31,135.3 27,134.98 23.06,134.94 C 22.71,134.59 22,133.89 21.65,133.54 z"
         style="opacity:1;fill:#5e6363" />
    </g>
    <g
       id="#5f6464ff">
      <path
         id="path380"
         d="M 157.65,133.52 C 161.07,132.86 164.57,133.22 168.03,133.22 C 180.01,133.3 192,133 203.98,133.2 C 214.73,132.94 225.49,133.56 236.22,132.93 C 245.06,133.58 253.91,132.79 262.76,133.21 L 262.92,133.99 C 262.39,134.22 261.32,134.67 260.79,134.89 C 256.9,135.02 252.95,135.27 249.11,134.5 C 248.6,134.32 247.58,133.96 247.07,133.79 C 246.76,134.05 246.15,134.56 245.84,134.82 C 241.94,135.08 237.98,135.26 234.12,134.5 C 232.96,133.94 231.67,133.35 230.89,134.81 C 226.97,135.09 222.99,135.22 219.1,134.54 C 218.61,134.35 217.63,133.96 217.14,133.77 C 216.84,134.05 216.24,134.61 215.94,134.89 C 211.98,135.07 208.01,135.03 204.06,134.88 L 203.67,134.02 C 203.23,133.98 202.33,133.91 201.89,133.87 C 201.11,145.64 202.31,157.49 201.31,169.24 C 200.84,157.86 201.87,146.45 201.08,135.09 C 197.1,134.84 193.12,135.14 189.15,134.83 C 188.84,134.57 188.23,134.04 187.92,133.78 C 187.41,133.96 186.4,134.32 185.89,134.51 C 182.04,135.25 178.1,135.07 174.22,134.82 C 173.42,133.62 172.58,133.63 171.7,134.85 C 167.79,135.1 163.87,134.95 159.96,135.18 L 159.11,134.77 C 158.75,134.46 158.02,133.83 157.65,133.52 z"
         style="opacity:1;fill:#5f6464" />
    </g>
    <g
       id="#bfbfbfff">
      <path
         id="path383"
         d="M 23.06,134.94 C 27,134.98 31,135.3 34.9,134.48 C 35.99,136.11 35.85,138.11 35.9,139.98 C 35.95,146.33 36.36,152.66 36.34,159.01 C 36.19,172.68 37.03,186.34 36.99,200.01 C 33.11,200.39 29.15,200.49 25.3,199.81 C 25.55,191.51 24.48,183.25 24.67,174.96 C 24.87,167.28 23.43,159.67 23.66,151.98 C 23.86,146.29 23.42,140.61 23.06,134.94 z"
         style="opacity:1;fill:#bfbfbf" />
    </g>
    <g
       id="#c2c2c2ff">
      <path
         id="path386"
         d="M 38.16,134.81 C 42.06,135.08 46.02,135.25 49.89,134.51 C 51.25,137.49 50.53,140.84 50.72,144 C 51.21,162.65 51.73,181.35 51.12,200 C 47.15,200.4 43.13,200.44 39.17,199.92 C 38.63,187.61 38.6,175.28 38.67,162.95 C 38.69,153.57 37.34,144.18 38.16,134.81 z"
         style="opacity:1;fill:#c2c2c2" />
    </g>
    <g
       id="#c5c6c6ff">
      <path
         id="path389"
         d="M 53.11,134.81 C 57.03,135.09 61.01,135.23 64.9,134.54 C 66.31,138.19 65.48,142.18 65.66,145.99 C 65.4,163.99 66.93,182.01 66.07,200 C 62.05,200.38 57.97,200.39 53.95,199.99 C 53.23,193.39 53.95,186.74 53.59,180.13 C 53.16,171.43 53.38,162.71 53.01,154.01 C 53,147.61 52.18,141.18 53.11,134.81 M 56.22,137.26 C 54.37,137.77 54.96,140.79 56.98,140.17 C 59.03,139.89 58.01,136.65 56.22,137.26 z"
         style="opacity:1;fill:#c5c6c6" />
    </g>
    <g
       id="#c9cacaff">
      <path
         id="path392"
         d="M 68.07,134.89 C 72.02,135.07 75.99,135.03 79.95,134.88 C 80.88,144.23 79.91,153.65 80.63,163.01 C 80.52,175.33 81.15,187.66 80.97,199.97 C 76.76,200.36 72.47,200.47 68.28,199.79 C 68.56,183.86 67.93,167.93 67.69,151.99 C 67.77,146.29 67.32,140.56 68.07,134.89 M 71.17,137.24 C 69.27,137.72 69.96,140.83 71.97,140.18 C 74,139.84 72.9,136.76 71.17,137.24 z"
         style="opacity:1;fill:#c9caca" />
    </g>
    <g
       id="#ccccccff">
      <path
         id="path395"
         d="M 82.92,135.09 C 86.9,134.83 90.88,135.13 94.85,134.83 C 95.91,144.85 95.04,154.97 95.35,165.03 C 95.91,176.63 95.54,188.24 95.72,199.84 C 91.58,200.47 87.34,200.37 83.19,199.9 C 83.02,189.68 82.84,179.45 82.68,169.23 C 83.17,157.86 82.12,146.45 82.92,135.09 M 86.16,137.22 C 84.05,137.6 84.86,140.97 86.96,140.14 C 88.81,139.71 87.77,136.9 86.16,137.22 z"
         style="opacity:1;fill:#cccccc" />
    </g>
    <g
       id="#d0d0d0ff">
      <path
         id="path398"
         d="M 97.3,140.99 C 97.32,138.81 96.99,136.49 98.11,134.5 C 101.95,135.25 105.89,135.08 109.77,134.82 C 110.64,149.52 110.16,164.28 110.33,179 C 110.16,186 110.7,193.02 110.08,199.99 C 106.05,200.35 101.99,200.34 97.97,199.97 C 97.17,187.2 98.08,174.37 97.48,161.58 C 97.14,154.72 97.47,147.85 97.3,140.99 M 101.1,137.24 C 98.84,137.51 99.83,141.04 101.94,140.14 C 103.7,139.65 102.62,137.02 101.1,137.24 z"
         style="opacity:1;fill:#d0d0d0" />
    </g>
    <g
       id="#d4d4d4ff">
      <path
         id="path401"
         d="M 112.28,134.85 C 116.47,135.14 120.68,135.04 124.88,134.95 C 124.69,156.61 125.27,178.3 124.97,199.95 C 120.76,200.31 116.48,200.41 112.28,199.78 C 112.44,178.14 112.28,156.49 112.28,134.85 M 115.39,137.41 C 112.62,138.33 116.05,141.54 117.29,139.42 C 118.64,138.3 116.51,136.9 115.39,137.41 z"
         style="opacity:1;fill:#d4d4d4" />
    </g>
    <g
       id="#cececeff">
      <path
         id="path404"
         d="M 159.11,134.77 L 159.96,135.18 C 159.25,149.74 159.93,164.34 160.15,178.91 C 161.84,177.62 161.06,175.2 161.39,173.38 C 163.14,173.51 164.74,174.35 166.48,174.56 C 168.76,174.56 169.69,177.19 169.92,179.08 C 170.34,186.02 171.11,192.95 170.83,199.92 C 166.91,200.37 162.94,200.32 159.03,199.96 C 158.62,195.65 158.93,191.32 158.89,187 C 159.13,169.59 159.06,152.18 159.11,134.77 z"
         style="opacity:1;fill:#cecece" />
    </g>
    <g
       id="#dddedeff">
      <path
         id="path407"
         d="M 159.96,135.18 C 163.87,134.95 167.79,135.1 171.7,134.85 C 171.72,156.48 171.58,178.12 171.7,199.75 L 170.83,199.92 C 171.11,192.95 170.34,186.02 169.92,179.08 C 169.69,177.19 168.76,174.56 166.48,174.56 C 164.74,174.35 163.14,173.51 161.39,173.38 C 161.06,175.2 161.84,177.62 160.15,178.91 C 159.93,164.34 159.25,149.74 159.96,135.18 M 162.14,138.19 C 160.9,139.69 163.69,140.79 164.47,139.41 C 165.55,137.99 162.95,137.08 162.14,138.19 z"
         style="opacity:1;fill:#dddede" />
    </g>
    <g
       id="#d6d6d6ff">
      <path
         id="path410"
         d="M 174.22,134.82 C 178.1,135.07 182.04,135.25 185.89,134.51 C 187.02,136.49 186.68,138.81 186.71,140.99 C 186.53,148.13 186.86,155.28 186.48,162.41 C 185.98,174.91 186.79,187.45 185.99,199.93 C 181.98,200.24 177.95,200.24 173.94,199.96 C 173.28,193.33 173.85,186.65 173.67,180 C 173.85,164.94 173.36,149.85 174.22,134.82 M 177.26,137.39 C 175.62,137.95 176.34,140.45 178.06,140.05 C 180.11,139.85 178.95,136.63 177.26,137.39 z"
         style="opacity:1;fill:#d6d6d6" />
    </g>
    <g
       id="#d2d2d2ff">
      <path
         id="path413"
         d="M 189.15,134.83 C 193.12,135.14 197.1,134.84 201.08,135.09 C 201.87,146.45 200.84,157.86 201.31,169.24 C 201.12,179.45 200.89,189.65 200.78,199.86 C 196.64,200.3 192.43,200.36 188.29,199.81 C 188.43,189.68 188.17,179.55 188.48,169.42 C 189.16,157.9 187.99,146.32 189.15,134.83 M 192.22,137.26 C 190.4,137.81 190.95,140.77 192.98,140.16 C 195.07,139.9 194.01,136.62 192.22,137.26 z"
         style="opacity:1;fill:#d2d2d2" />
    </g>
    <g
       id="#cdcdcdff">
      <path
         id="path416"
         d="M 204.06,134.88 C 208.01,135.03 211.98,135.07 215.94,134.89 C 216.26,137.58 216.42,140.28 216.37,142.99 C 216.37,161.93 215.36,180.85 215.71,199.79 C 211.53,200.38 207.26,200.3 203.06,199.95 C 203.05,183.98 203.33,167.99 203.67,152.02 C 203.75,146.31 203.34,140.57 204.06,134.88 M 207.19,137.22 C 205.25,137.71 205.93,140.82 207.98,140.12 C 209.95,139.79 208.92,136.67 207.19,137.22 z"
         style="opacity:1;fill:#cdcdcd" />
    </g>
    <g
       id="#c8c8c8ff">
      <path
         id="path419"
         d="M 218.34,146 C 218.52,142.18 217.68,138.2 219.1,134.54 C 222.99,135.22 226.97,135.09 230.89,134.81 C 231.78,140.84 231.05,146.94 231.02,153.01 C 230.66,162.33 230.8,171.66 230.36,180.97 C 230.12,187.3 230.75,193.65 230.03,199.96 C 226,200.3 221.95,200.31 217.93,199.99 C 217.09,182.01 218.58,163.99 218.34,146 M 222.16,137.22 C 220.06,137.61 220.86,140.95 222.97,140.13 C 224.83,139.71 223.77,136.88 222.16,137.22 z"
         style="opacity:1;fill:#c8c8c8" />
    </g>
    <g
       id="#c2c3c2ff">
      <path
         id="path422"
         d="M 233.29,142.98 C 233.43,140.15 232.82,137.14 234.12,134.5 C 237.98,135.26 241.94,135.08 245.84,134.82 C 246.57,143.55 245.41,152.31 245.67,161.05 C 245.17,174 245.42,186.97 244.82,199.91 C 240.86,200.37 236.85,200.32 232.89,199.98 C 232.24,181 232.83,161.97 233.29,142.98 M 237.18,137.28 C 235.23,137.57 235.82,140.83 237.83,139.96 C 239.49,139.55 238.72,136.97 237.18,137.28 z"
         style="opacity:1;fill:#c2c3c2" />
    </g>
    <g
       id="#bcbdbdff">
      <path
         id="path425"
         d="M 248.06,140.98 C 248.18,138.8 247.8,136.41 249.11,134.5 C 252.95,135.27 256.9,135.02 260.79,134.89 C 260.11,145.47 260.72,156.09 259.58,166.64 C 259.05,172.75 259.57,178.89 259.12,185 C 258.74,189.93 258.69,194.87 258.7,199.8 C 254.85,200.44 250.9,200.38 247.03,200 C 246.86,197.66 246.93,195.32 247.03,192.99 C 247.69,175.66 247.53,158.32 248.06,140.98 z"
         style="opacity:1;fill:#bcbdbd" />
    </g>
    <g
       id="#599ee2ff">
      <path
         id="path428"
         d="M 56.22,137.26 C 58.01,136.65 59.03,139.89 56.98,140.17 C 54.96,140.79 54.37,137.77 56.22,137.26 z"
         style="opacity:1;fill:#599ee2" />
      <path
         id="path430"
         d="M 71.17,137.24 C 72.9,136.76 74,139.84 71.97,140.18 C 69.96,140.83 69.27,137.72 71.17,137.24 z"
         style="opacity:1;fill:#599ee2" />
      <path
         id="path432"
         d="M 86.16,137.22 C 87.77,136.9 88.81,139.71 86.96,140.14 C 84.86,140.97 84.05,137.6 86.16,137.22 z"
         style="opacity:1;fill:#599ee2" />
      <path
         id="path434"
         d="M 222.16,137.22 C 223.77,136.88 224.83,139.71 222.97,140.13 C 220.86,140.95 220.06,137.61 222.16,137.22 z"
         style="opacity:1;fill:#599ee2" />
    </g>
    <g
       id="#61a1e1ff">
      <path
         id="path437"
         d="M 101.1,137.24 C 102.62,137.02 103.7,139.65 101.94,140.14 C 99.83,141.04 98.84,137.51 101.1,137.24 z"
         style="opacity:1;fill:#61a1e1" />
    </g>
    <g
       id="#69a6e2ff">
      <path
         id="path440"
         d="M 115.39,137.41 C 116.51,136.9 118.64,138.3 117.29,139.42 C 116.05,141.54 112.62,138.33 115.39,137.41 z"
         style="opacity:1;fill:#69a6e2" />
    </g>
    <g
       id="#5ba0e3ff">
      <path
         id="path443"
         d="M 177.26,137.39 C 178.95,136.63 180.11,139.85 178.06,140.05 C 176.34,140.45 175.62,137.95 177.26,137.39 z"
         style="opacity:1;fill:#5ba0e3" />
      <path
         id="path445"
         d="M 147.09,155.15 C 148.05,153.89 150.7,155.19 149.66,156.68 C 148.7,158.05 145.81,156.72 147.09,155.15 z"
         style="opacity:1;fill:#5ba0e3" />
    </g>
    <g
       id="#5da1e3ff">
      <path
         id="path448"
         d="M 192.22,137.26 C 194.01,136.62 195.07,139.9 192.98,140.16 C 190.95,140.77 190.4,137.81 192.22,137.26 z"
         style="opacity:1;fill:#5da1e3" />
    </g>
    <g
       id="#5fa0e0ff">
      <path
         id="path451"
         d="M 207.19,137.22 C 208.92,136.67 209.95,139.79 207.98,140.12 C 205.93,140.82 205.25,137.71 207.19,137.22 z"
         style="opacity:1;fill:#5fa0e0" />
    </g>
    <g
       id="#539ce4ff">
      <path
         id="path454"
         d="M 237.18,137.28 C 238.72,136.97 239.49,139.55 237.83,139.96 C 235.82,140.83 235.23,137.57 237.18,137.28 z"
         style="opacity:1;fill:#539ce4" />
    </g>
    <g
       id="#5c6b70ff">
      <path
         id="path457"
         d="M 134.46,138.19 C 135.37,136.92 137.96,138.25 136.8,139.66 C 135.89,140.73 133.53,139.52 134.46,138.19 z"
         style="opacity:1;fill:#5c6b70" />
      <path
         id="path459"
         d="M 147.21,138.17 C 148.03,137.02 150.57,138.07 149.5,139.46 C 148.68,140.81 145.98,139.64 147.21,138.17 z"
         style="opacity:1;fill:#5c6b70" />
    </g>
    <g
       id="#559ee6ff">
      <path
         id="path462"
         d="M 162.14,138.19 C 162.95,137.08 165.55,137.99 164.47,139.41 C 163.69,140.79 160.9,139.69 162.14,138.19 z"
         style="opacity:1;fill:#559ee6" />
    </g>
    <g
       id="#5b6a6fff">
      <path
         id="path465"
         d="M 135.16,142.04 C 136.8,141.09 138.01,143.95 136,144.21 C 134.48,144.82 133.44,142.5 135.16,142.04 z"
         style="opacity:1;fill:#5b6a6f" />
      <path
         id="path467"
         d="M 134.44,155.21 C 135.35,154 137.99,155.25 136.81,156.68 C 135.9,157.73 133.54,156.53 134.44,155.21 z"
         style="opacity:1;fill:#5b6a6f" />
    </g>
    <g
       id="#59696eff">
      <path
         id="path470"
         d="M 147.19,142.31 C 148.09,141.25 150.46,142.44 149.55,143.77 C 148.64,145 146,143.74 147.19,142.31 z"
         style="opacity:1;fill:#59696e" />
    </g>
    <g
       id="#519ce5ff">
      <path
         id="path473"
         d="M 135.17,159.05 C 136.78,158.15 138.02,160.94 136.04,161.25 C 134.54,161.85 133.44,159.5 135.17,159.05 z"
         style="opacity:1;fill:#519ce5" />
      <path
         id="path475"
         d="M 147.19,159.33 C 148.09,158.25 150.46,159.46 149.51,160.8 C 148.61,162.05 146,160.74 147.19,159.33 z"
         style="opacity:1;fill:#519ce5" />
      <path
         id="path477"
         d="M 134.48,172.21 C 135.38,170.96 138,172.27 136.82,173.68 C 135.91,174.74 133.54,173.54 134.48,172.21 z"
         style="opacity:1;fill:#519ce5" />
      <path
         id="path479"
         d="M 147.16,172.22 C 147.99,171.07 150.56,172.08 149.49,173.49 C 148.67,174.8 145.93,173.7 147.16,172.22 z"
         style="opacity:1;fill:#519ce5" />
    </g>
    <g
       id="#6aa4deff">
      <path
         id="path482"
         d="M 135.19,163.04 C 137.18,162.14 138.2,165.64 136.02,165.89 C 134.28,166.31 133.38,163.56 135.19,163.04 z"
         style="opacity:1;fill:#6aa4de" />
    </g>
    <g
       id="#65a2dfff">
      <path
         id="path485"
         d="M 147.15,163.28 C 148.44,161.94 150.84,164.08 149.32,165.36 C 148.01,166.92 145.57,164.67 147.15,163.28 z"
         style="opacity:1;fill:#65a2df" />
      <path
         id="path487"
         d="M 135.31,167.26 C 137.27,166.32 138.21,169.9 136.04,170.11 C 134.2,170.52 133.5,167.75 135.31,167.26 z"
         style="opacity:1;fill:#65a2df" />
      <path
         id="path489"
         d="M 147.24,167.42 C 148.89,166.1 151.04,169.23 148.83,170 C 147.28,170.8 145.83,168.43 147.24,167.42 z"
         style="opacity:1;fill:#65a2df" />
    </g>
    <g
       id="#4b9be8ff">
      <path
         id="path492"
         d="M 135.18,176.03 C 136.82,175.09 138.05,177.93 136.03,178.2 C 134.51,178.82 133.47,176.49 135.18,176.03 z"
         style="opacity:1;fill:#4b9be8" />
      <path
         id="path494"
         d="M 147.15,176.31 C 148.06,175.25 150.44,176.44 149.53,177.77 C 148.61,178.97 145.97,177.73 147.15,176.31 z"
         style="opacity:1;fill:#4b9be8" />
    </g>
    <g
       id="#69a5e0ff">
      <path
         id="path497"
         d="M 135.17,179.98 C 136.71,179.21 138.18,181.57 136.77,182.58 C 135.12,183.84 132.95,180.76 135.17,179.98 z"
         style="opacity:1;fill:#69a5e0" />
      <path
         id="path499"
         d="M 147.14,180.29 C 148.43,178.88 150.88,181.07 149.29,182.35 C 147.98,183.88 145.58,181.67 147.14,180.29 z"
         style="opacity:1;fill:#69a5e0" />
    </g>
    <g
       id="#68a3ddff">
      <path
         id="path502"
         d="M 135.24,184.18 C 137.22,183.31 138.25,186.74 136.04,186.99 C 134.26,187.45 133.37,184.63 135.24,184.18 z"
         style="opacity:1;fill:#68a3dd" />
      <path
         id="path504"
         d="M 147.19,184.42 C 148.42,183.31 150.72,185.15 149.49,186.49 C 148.2,188.11 145.46,185.82 147.19,184.42 z"
         style="opacity:1;fill:#68a3dd" />
    </g>
    <g
       id="#65a4e2ff">
      <path
         id="path507"
         d="M 135.35,188.28 C 137.33,187.33 138.17,190.91 136.05,191.13 C 134.17,191.57 133.54,188.75 135.35,188.28 z"
         style="opacity:1;fill:#65a4e2" />
    </g>
    <g
       id="#70a7dfff">
      <path
         id="path510"
         d="M 147.14,188.28 C 148.75,187.87 150.23,189.17 149.8,190.83 C 149.11,190.85 147.73,190.88 147.04,190.9 C 147.06,190.24 147.12,188.93 147.14,188.28 z"
         style="opacity:1;fill:#70a7df" />
    </g>
    <g
       id="#8f9091ff">
      <path
         id="path513"
         d="M 6.39,205.43 C 26.55,205.15 46.75,205.48 66.92,205.28 C 110.61,205.41 154.31,205.3 198,205.34 C 204.41,205.28 210.83,205.51 217.24,205.13 C 237.34,205.69 257.47,205.03 277.56,205.45 C 277.73,205.86 278.07,206.68 278.24,207.08 C 274.78,208.9 270.93,209.86 267.02,209.7 C 235.35,209.56 203.67,209.74 172,209.93 C 123.67,210.36 75.33,209.47 27,209.67 C 19.88,209.46 12.26,210.78 5.75,207.13 C 5.91,206.7 6.23,205.86 6.39,205.43 M 8.06,206.15 L 8.25,207 C 12.15,207.47 16.08,207.31 20,207.34 C 101,207.33 182,207.34 263.01,207.33 C 267.25,207.3 271.52,207.49 275.75,207.01 L 275.94,206.15 C 255.3,205.58 234.64,206.18 214,205.71 C 166,205.69 118,205.7 70,205.71 C 49.36,206.2 28.7,205.55 8.06,206.15 z"
         style="opacity:1;fill:#8f9091" />
    </g>
    <g
       id="#2e3434ff">
      <path
         id="path516"
         d="M 8.06,206.15 C 28.7,205.55 49.36,206.2 70,205.71 C 118,205.7 166,205.69 214,205.71 C 234.64,206.18 255.3,205.58 275.94,206.15 L 275.75,207.01 C 271.52,207.49 267.25,207.3 263.01,207.33 C 182,207.34 101,207.33 20,207.34 C 16.08,207.31 12.15,207.47 8.25,207 L 8.06,206.15 z"
         style="opacity:1;fill:#2e3434" />
    </g>
    <g
       id="#dad9d9ff">
      <path
         id="path519"
         d="M 5.01,206.88 L 5.75,207.13 C 12.26,210.78 19.88,209.46 27,209.67 C 75.33,209.47 123.67,210.36 172,209.93 C 203.67,209.74 235.35,209.56 267.02,209.7 C 270.93,209.86 274.78,208.9 278.24,207.08 L 278.99,206.9 C 278.84,209.55 276.58,211.49 274.17,212.17 C 270.57,213.27 266.8,213.87 263.04,213.93 C 226.36,213.89 189.68,214 153,214.08 C 108.99,214.07 64.97,213.89 20.96,213.92 C 16.94,213.85 12.9,213.24 9.1,211.9 C 6.96,211.13 5.13,209.24 5.01,206.88 z"
         style="opacity:1;fill:#dad9d9" />
    </g>
    <path
       id="path2905"
       d="M 12.521555,88.106078 L 49.132975,0.2386743 L 236.37422,0.7616953 L 272.46261,88.629098 L 12.521555,88.106078 z"
       style="opacity:0.79699246;fill:url(#linearGradient5129);fill-opacity:1;fill-rule:evenodd;stroke:#000000;stroke-width:1px;stroke-linecap:butt;stroke-linejoin:miter;stroke-opacity:1" />
  </g>
</svg>
