<?xml version="1.0" encoding="UTF-8" standalone="no"?>
<svg
   xmlns:dc="http://purl.org/dc/elements/1.1/"
   xmlns:cc="http://creativecommons.org/ns#"
   xmlns:rdf="http://www.w3.org/1999/02/22-rdf-syntax-ns#"
   xmlns:svg="http://www.w3.org/2000/svg"
   xmlns="http://www.w3.org/2000/svg"
   xmlns:sodipodi="http://sodipodi.sourceforge.net/DTD/sodipodi-0.dtd"
   xmlns:inkscape="http://www.inkscape.org/namespaces/inkscape"
   width="120"
   height="120"
   viewBox="0 0 306 428"
   version="1.0"
   id="svg2"
   sodipodi:version="0.32"
   inkscape:version="0.46"
   sodipodi:docname="software.svg"
   inkscape:output_extension="org.inkscape.output.svg.inkscape">
  <metadata
     id="metadata617">
    <rdf:RDF>
      <cc:Work
         rdf:about="">
        <dc:format>image/svg+xml</dc:format>
        <dc:type
           rdf:resource="http://purl.org/dc/dcmitype/StillImage" />
      </cc:Work>
    </rdf:RDF>
  </metadata>
  <defs
     id="defs615">
    <inkscape:perspective
       sodipodi:type="inkscape:persp3d"
       inkscape:vp_x="0 : 267.5 : 1"
       inkscape:vp_y="0 : 1000 : 0"
       inkscape:vp_z="382.5 : 267.5 : 1"
       inkscape:persp3d-origin="191.25 : 178.33333 : 1"
       id="perspective619" />
  </defs>
  <sodipodi:namedview
     inkscape:window-height="713"
     inkscape:window-width="640"
     inkscape:pageshadow="2"
     inkscape:pageopacity="0.0"
     guidetolerance="10.0"
     gridtolerance="10.0"
     objecttolerance="10.0"
     borderopacity="1.0"
     bordercolor="#666666"
     pagecolor="#ffffff"
     id="base"
     showgrid="false"
     inkscape:zoom="0.93084112"
     inkscape:cx="191.25"
     inkscape:cy="267.5"
     inkscape:window-x="0"
     inkscape:window-y="0"
     inkscape:current-layer="svg2" />
  <g
     id="#e5e9eeff">
    <path
       d="M 66.12,132.62 C 70.54,128.66 76.46,130.57 81.71,131.26 L 82.58,131.38 C 85.07,131.67 87.56,131.95 90.06,132.22 C 89.85,133.82 89.6,135.41 89.32,137 C 89.61,138.59 89.88,140.19 90.11,141.8 C 89.17,142.31 88.22,142.82 87.27,143.32 C 84.1,149.63 82.31,156.58 78.64,162.63 C 76.7,167.61 79.74,175.47 74.32,178.54 C 73.68,164.2 74.52,149.72 72.4,135.48 L 72.19,134.61 C 72.08,134.14 71.86,133.2 71.76,132.74 L 71.59,131.94 C 70.43,131.59 69.55,131.95 68.94,133.03 L 68.06,133.1 C 67.57,132.98 66.6,132.74 66.12,132.62 z"
       id="path5"
       style="opacity:1;fill:#e5e9ee" />
    <path
       d="M 75.2,221.17 C 75.9,221.12 77.28,221.04 77.98,221 C 78.91,225.09 79.63,229.23 80.61,233.33 C 81.34,234.7 81.97,236.12 82.58,237.55 C 86.22,241.99 86.85,248.03 90.52,252.46 C 95.38,256.28 97.26,262.46 102.46,266.07 C 105.13,265.46 107.87,263.33 110.47,265.3 C 115.34,264.94 120.47,266.68 125.19,265.18 C 139.62,256.81 157.01,259.93 172.89,259.95 C 173.99,258.35 175.03,256.72 176.12,255.12 C 178.09,252.37 180.39,249.74 183.69,248.64 C 183.85,250.28 184.18,253.57 184.35,255.22 C 184.14,255.78 183.73,256.91 183.53,257.47 L 183.18,258.13 C 183.14,256.42 183.06,254.71 182.99,253.01 C 182.25,253.01 180.76,253 180.01,253 C 177.88,256.25 175.71,259.49 173.62,262.78 C 162.3,261.24 150.32,260.19 139.45,264.44 C 135.37,267.41 131.54,271.27 126.08,271.19 C 124.87,272.99 123.82,274.89 122.76,276.79 C 118.41,277.21 113.76,276.8 109.81,279 C 107.27,277.71 104.82,276.22 102.65,274.36 C 101.52,274.15 100.4,273.94 99.27,273.74 C 97.21,271.44 95,269.28 93.05,266.88 C 93.24,266.47 93.64,265.65 93.83,265.25 C 88.61,261.49 83.31,256.9 81.38,250.54 C 79.62,248.69 78,246.72 76.25,244.86 C 75.49,245.95 74.72,247.03 73.98,248.14 C 72.63,239.83 74.13,231.48 74.16,223.14 C 74.42,222.65 74.94,221.66 75.2,221.17 z"
       id="path7"
       style="opacity:1;fill:#e5e9ee" />
  </g>
  <g
     id="#e9eef2ff">
    <path
       d="M 81.71,131.26 C 86.8,131.07 91.9,130.99 96.99,130.98 L 97.04,136.09 C 98.61,135.88 101.77,135.46 103.35,135.25 C 98.9,149.39 88.51,161.19 88.76,176.73 C 75.99,187.05 84.04,207.37 82.51,221.43 C 84.84,224.06 86.03,227.4 87.39,230.58 C 88.19,231.09 88.96,231.62 89.71,232.19 C 86.71,236.52 91.48,243.53 96.78,242.29 C 97.59,246.01 97.93,251.23 102.96,250.17 C 104.7,252.52 105.95,255.16 107.17,257.8 C 109.81,257.62 112.6,257.82 114.83,259.34 C 117.94,259.18 121.41,261.37 124.5,260.36 C 131.27,255.46 140.22,256.91 148.01,254.98 C 157.46,251.86 166.84,259.1 176.12,255.12 C 175.03,256.72 173.99,258.35 172.89,259.95 C 157.01,259.93 139.62,256.81 125.19,265.18 C 120.47,266.68 115.34,264.94 110.47,265.3 C 107.87,263.33 105.13,265.46 102.46,266.07 C 97.26,262.46 95.38,256.28 90.52,252.46 C 86.85,248.03 86.22,241.99 82.58,237.55 C 81.97,236.12 81.34,234.7 80.61,233.33 C 79.63,229.23 78.91,225.09 77.98,221 C 77.28,221.04 75.9,221.12 75.2,221.17 C 74.94,221.66 74.42,222.65 74.16,223.14 C 72.8,198.92 74.64,174.58 71.85,150.47 C 72.05,145.18 72.08,139.9 72.19,134.61 L 72.4,135.48 C 74.52,149.72 73.68,164.2 74.32,178.54 C 79.74,175.47 76.7,167.61 78.64,162.63 C 82.31,156.58 84.1,149.63 87.27,143.32 C 88.22,142.82 89.17,142.31 90.11,141.8 C 89.88,140.19 89.61,138.59 89.32,137 C 89.6,135.41 89.85,133.82 90.06,132.22 C 87.56,131.95 85.07,131.67 82.58,131.38 L 81.71,131.26 z"
       id="path10"
       style="opacity:1;fill:#e9eef2" />
  </g>
  <g
     id="#9ed0f8ff">
    <path
       d="M 68.94,133.03 C 69.55,131.95 70.43,131.59 71.59,131.94 L 71.76,132.74 L 70.99,133.29 C 70.48,133.22 69.46,133.1 68.94,133.03 z"
       id="path13"
       style="opacity:1;fill:#9ed0f8" />
  </g>
  <g
     id="#a1cae9ff">
    <path
       d="M 64.37,133.25 C 64.81,133.09 65.68,132.78 66.12,132.62 C 66.6,132.74 67.57,132.98 68.06,133.1 C 67.11,133.7 66.1,134.13 65.01,134.41 L 64.38,133.93 L 64.37,133.25 z"
       id="path16"
       style="opacity:1;fill:#a1cae9" />
  </g>
  <g
     id="#03a5f1ff">
    <path
       d="M 68.06,133.1 L 68.94,133.03 C 69.46,133.1 70.48,133.22 70.99,133.29 C 70.89,139.28 71.08,145.28 71.35,151.27 C 70.97,158.41 70.92,165.57 70.88,172.72 C 67.91,173.83 68.16,177.51 67.68,180.06 C 60.36,178.75 53.33,169.51 45.96,175.96 C 43.61,178.86 42.34,177.21 41.82,174.11 C 40.49,175.67 39.08,177.17 37.56,178.54 C 37.08,179.41 36.59,180.27 36.09,181.13 C 35.98,167.76 35.95,154.38 36.04,141.01 C 36.63,140.83 37.82,140.47 38.41,140.29 L 39.2,140.09 C 40.33,140.32 41.31,140.06 42.14,139.29 C 42.58,139.22 43.46,139.07 43.9,139 C 45.16,139.41 46.12,139.14 46.78,138.19 C 49.21,137.71 51.6,136.87 54.11,136.96 C 54.63,136.73 55.67,136.28 56.19,136.06 C 56.63,136.06 57.5,136.06 57.94,136.06 C 59.1,136.26 60.14,136.01 61.07,135.31 L 61.88,135.05 C 63.03,135.3 64.07,135.09 65.01,134.41 C 66.1,134.13 67.11,133.7 68.06,133.1 z"
       id="path19"
       style="opacity:1;fill:#03a5f1" />
  </g>
  <g
     id="#33a7fcff">
    <path
       d="M 70.99,133.29 L 71.76,132.74 C 71.86,133.2 72.08,134.14 72.19,134.61 C 72.08,139.9 72.05,145.18 71.85,150.47 L 71.35,151.27 C 71.08,145.28 70.89,139.28 70.99,133.29 z"
       id="path22"
       style="opacity:1;fill:#33a7fc" />
  </g>
  <g
     id="#bcdff5ff">
    <path
       d="M 60.36,134.83 C 60.78,134.7 61.61,134.44 62.02,134.31 L 61.88,135.05 L 61.07,135.31 L 60.36,134.83 z"
       id="path25"
       style="opacity:1;fill:#bcdff5" />
    <path
       d="M 56.19,136.06 C 56.65,135.88 57.57,135.52 58.03,135.33 L 57.94,136.06 C 57.5,136.06 56.63,136.06 56.19,136.06 z"
       id="path27"
       style="opacity:1;fill:#bcdff5" />
  </g>
  <g
     id="#44bbffff">
    <path
       d="M 62.02,134.31 C 62.61,134.21 63.79,134.03 64.38,133.93 L 65.01,134.41 C 64.07,135.09 63.03,135.3 61.88,135.05 L 62.02,134.31 z"
       id="path30"
       style="opacity:1;fill:#44bbff" />
  </g>
  <g
     id="#4fa2d7ff">
    <path
       d="M 58.03,135.33 C 58.61,135.21 59.78,134.96 60.36,134.83 L 61.07,135.31 C 60.14,136.01 59.1,136.26 57.94,136.06 L 58.03,135.33 z"
       id="path33"
       style="opacity:1;fill:#4fa2d7" />
  </g>
  <g
     id="#eef2f5ff">
    <path
       d="M 103.35,135.25 C 111.75,134.83 120.18,134.88 128.59,135.33 C 131.41,135.69 134.27,135.97 137.1,136.38 C 134.75,136.67 132.4,136.9 130.04,137.08 C 125.77,137 121.53,136.68 117.28,136.3 C 115.03,138.24 112.68,140.08 110.05,141.47 C 115.06,149.75 103.16,153.78 101.6,161.45 C 96.56,162.43 99.01,168.91 95.22,171.51 C 95.15,174.31 95.36,177.15 95.78,179.92 C 93.9,181.66 92.03,183.43 90.14,185.17 C 90,193.08 89.94,201 90.05,208.91 C 91.31,209.65 92.57,210.38 93.81,211.14 C 92.44,217.97 97.23,223.39 98.27,229.79 C 99.07,230.3 99.87,230.81 100.67,231.32 C 103.77,238.76 106.03,247.05 114.65,249.34 C 116.21,249.53 119.33,249.92 120.89,250.11 C 121.37,250.94 121.84,251.78 122.32,252.63 C 125.13,252.96 128.57,252.32 130.79,254.56 C 133.02,254.69 135.26,254.75 137.5,254.74 C 147.98,244.9 162.71,254.51 174.82,254.03 C 177.2,249.32 180.49,244.31 186.89,245.83 C 186.09,248.96 185.41,252.15 184.35,255.22 C 184.18,253.57 183.85,250.28 183.69,248.64 C 180.39,249.74 178.09,252.37 176.12,255.12 C 166.84,259.1 157.46,251.86 148.01,254.98 C 140.22,256.91 131.27,255.46 124.5,260.36 C 121.41,261.37 117.94,259.18 114.83,259.34 C 112.6,257.82 109.81,257.62 107.17,257.8 C 105.95,255.16 104.7,252.52 102.96,250.17 C 97.93,251.23 97.59,246.01 96.78,242.29 C 91.48,243.53 86.71,236.52 89.71,232.19 C 88.96,231.62 88.19,231.09 87.39,230.58 C 86.03,227.4 84.84,224.06 82.51,221.43 C 84.04,207.37 75.99,187.05 88.76,176.73 C 88.51,161.19 98.9,149.39 103.35,135.25 z"
       id="path36"
       style="opacity:1;fill:#eef2f5" />
  </g>
  <g
     id="#4db3ffff">
    <path
       d="M 54.11,136.96 C 54.63,136.73 55.67,136.28 56.19,136.06 C 55.67,136.28 54.63,136.73 54.11,136.96 z"
       id="path39"
       style="opacity:1;fill:#4db3ff" />
  </g>
  <g
     id="#f4f5f6ff">
    <path
       d="M 117.28,136.3 C 121.53,136.68 125.77,137 130.04,137.08 C 129.95,138.29 129.86,139.49 129.76,140.7 C 127.08,142.96 124.91,145.72 122.5,148.25 C 123.27,142.19 116.94,142.88 112.69,142.34 C 113.45,143.55 114.25,144.74 115.05,145.93 C 115.79,145.97 117.25,146.04 117.99,146.08 C 117.97,146.78 117.95,148.18 117.94,148.88 C 115.62,150.25 113.33,151.64 111.05,153.06 C 111.01,155.66 110.95,158.26 110.88,160.86 C 110,161.64 109.13,162.42 108.26,163.21 C 109.34,170.92 104.06,177.26 103.76,184.77 C 102.86,185.6 101.96,186.43 101.05,187.25 C 101.94,199.81 103.1,212.36 104.03,224.92 C 102.94,225.41 101.85,225.9 100.76,226.39 C 101.18,231.47 109.94,231.06 104.98,236.54 C 107.64,237.48 109.82,239.25 111.19,241.72 C 110.71,242.89 110.24,244.07 109.79,245.26 C 119.38,241.5 128.07,253.72 137.33,247.37 C 150.37,244.23 164.11,246.52 177.4,246.8 L 177.78,246.02 C 178.83,243.5 180.46,241.3 182.16,239.19 C 185.42,238.48 188.67,237.73 191.92,236.97 C 190.9,241.23 187.44,245.48 188.82,249.99 L 189,250.84 C 188.8,251.37 188.4,252.43 188.2,252.96 C 187.74,253.97 187.28,254.98 186.84,256 L 186.06,256.28 C 186.04,256.74 186.01,257.66 185.99,258.12 C 186,258.58 186.02,259.5 186.03,259.96 C 185.76,260.49 185.21,261.55 184.94,262.08 L 184.9,262.93 C 183.76,264.2 183.24,266.08 184.05,267.66 C 183.39,269.2 182.8,270.76 182.18,272.31 C 182.06,269.61 181.98,266.91 181.95,264.22 C 181.98,262.85 182.01,261.49 182.03,260.13 C 182.32,259.63 182.89,258.63 183.18,258.13 L 183.53,257.47 C 183.73,256.91 184.14,255.78 184.35,255.22 C 185.41,252.15 186.09,248.96 186.89,245.83 C 180.49,244.31 177.2,249.32 174.82,254.03 C 162.71,254.51 147.98,244.9 137.5,254.74 C 135.26,254.75 133.02,254.69 130.79,254.56 C 128.57,252.32 125.13,252.96 122.32,252.63 C 121.84,251.78 121.37,250.94 120.89,250.11 C 119.33,249.92 116.21,249.53 114.65,249.34 C 106.03,247.05 103.77,238.76 100.67,231.32 C 99.87,230.81 99.07,230.3 98.27,229.79 C 97.23,223.39 92.44,217.97 93.81,211.14 C 92.57,210.38 91.31,209.65 90.05,208.91 C 89.94,201 90,193.08 90.14,185.17 C 92.03,183.43 93.9,181.66 95.78,179.92 C 95.36,177.15 95.15,174.31 95.22,171.51 C 99.01,168.91 96.56,162.43 101.6,161.45 C 103.16,153.78 115.06,149.75 110.05,141.47 C 112.68,140.08 115.03,138.24 117.28,136.3 z"
       id="path42"
       style="opacity:1;fill:#f4f5f6" />
  </g>
  <g
     id="#f4f6faff">
    <path
       d="M 137.1,136.38 C 142.71,137.08 148.36,137.04 154.01,137.02 L 154,138.01 C 153.99,138.75 153.98,140.24 153.98,140.98 C 152.24,140.99 148.77,141.01 147.04,141.02 C 146.6,141.93 146.17,142.85 145.74,143.78 C 143.21,143.89 140.68,144.01 138.16,144.14 C 133.26,149.86 128.23,155.56 122.42,160.4 C 121.82,163.93 120.18,166.95 117.5,169.46 C 116.26,173.22 114.5,176.81 113.64,180.7 C 112.52,181.82 110.26,184.05 109.13,185.16 C 111.25,197.84 103.51,213.95 113.91,224.04 C 113.4,225.71 112.48,227.2 111.78,228.79 C 113.15,228.91 114.53,229.03 115.92,229.16 C 117.11,233.3 118.43,237.48 120.99,241.02 C 121.46,240.8 122.41,240.35 122.89,240.13 C 140.2,248.08 159.41,243.49 177.78,246.02 L 177.4,246.8 C 164.11,246.52 150.37,244.23 137.33,247.37 C 128.07,253.72 119.38,241.5 109.79,245.26 C 110.24,244.07 110.71,242.89 111.19,241.72 C 109.82,239.25 107.64,237.48 104.98,236.54 C 109.94,231.06 101.18,231.47 100.76,226.39 C 101.85,225.9 102.94,225.41 104.03,224.92 C 103.1,212.36 101.94,199.81 101.05,187.25 C 101.96,186.43 102.86,185.6 103.76,184.77 C 104.06,177.26 109.34,170.92 108.26,163.21 C 109.13,162.42 110,161.64 110.88,160.86 C 110.95,158.26 111.01,155.66 111.05,153.06 C 113.33,151.64 115.62,150.25 117.94,148.88 C 117.95,148.18 117.97,146.78 117.99,146.08 C 117.25,146.04 115.79,145.97 115.05,145.93 C 114.25,144.74 113.45,143.55 112.69,142.34 C 116.94,142.88 123.27,142.19 122.5,148.25 C 124.91,145.72 127.08,142.96 129.76,140.7 C 129.86,139.49 129.95,138.29 130.04,137.08 C 132.4,136.9 134.75,136.67 137.1,136.38 z"
       id="path45"
       style="opacity:1;fill:#f4f6fa" />
  </g>
  <g
     id="#dfeaf3ff">
    <path
       d="M 41.48,138.8 C 41.85,137.5 42.67,137.35 43.97,138.36 L 43.9,139 C 43.46,139.07 42.58,139.22 42.14,139.29 L 41.48,138.8 z"
       id="path48"
       style="opacity:1;fill:#dfeaf3" />
  </g>
  <g
     id="#66ccffff">
    <path
       d="M 43.97,138.36 C 44.67,138.32 46.08,138.23 46.78,138.19 C 46.12,139.14 45.16,139.41 43.9,139 L 43.97,138.36 z"
       id="path51"
       style="opacity:1;fill:#66ccff" />
    <path
       d="M 71.35,151.27 L 71.85,150.47 C 72.08,159.64 72,168.82 72,178 L 70.96,178 C 70.96,176.24 70.91,174.48 70.88,172.72 C 70.92,165.57 70.97,158.41 71.35,151.27 z"
       id="path53"
       style="opacity:1;fill:#66ccff" />
    <path
       d="M 69.95,201.97 L 71,202 C 71,202.5 71,203.49 71,203.99 C 71.01,208.71 71.09,213.44 71.14,218.16 C 70.98,226.01 71.01,233.86 71.28,241.71 C 71.15,245.48 70.91,249.28 70.79,253.06 L 70.17,253.05 C 69.79,236.03 70.13,219 69.95,201.97 z"
       id="path55"
       style="opacity:1;fill:#66ccff" />
  </g>
  <g
     id="#fafcfcff">
    <path
       d="M 154,138.01 C 159.83,137.98 165.69,137.77 171.5,138.46 C 183.93,139.59 196.54,139.76 208.82,142.21 C 208.73,164.69 207.28,188.14 207.95,211.04 C 208.15,216.03 207.29,221.41 209.99,225.9 C 203.94,230.41 198.02,235.41 193.99,241.89 C 192.39,242.02 191.61,243.92 192.06,245.32 C 191.86,245.52 191.47,245.91 191.27,246.1 L 190.83,246.68 C 190.67,247.03 190.36,247.72 190.21,248.07 L 189.79,248.86 C 189.55,249.15 189.06,249.71 188.82,249.99 C 187.44,245.48 190.9,241.23 191.92,236.97 C 188.67,237.73 185.42,238.48 182.16,239.19 C 180.46,241.3 178.83,243.5 177.78,246.02 C 159.41,243.49 140.2,248.08 122.89,240.13 C 122.41,240.35 121.46,240.8 120.99,241.02 C 118.43,237.48 117.11,233.3 115.92,229.16 C 114.53,229.03 113.15,228.91 111.78,228.79 C 112.48,227.2 113.4,225.71 113.91,224.04 C 103.51,213.95 111.25,197.84 109.13,185.16 C 110.26,184.05 112.52,181.82 113.64,180.7 C 114.5,176.81 116.26,173.22 117.5,169.46 C 120.18,166.95 121.82,163.93 122.42,160.4 C 128.23,155.56 133.26,149.86 138.16,144.14 C 140.68,144.01 143.21,143.89 145.74,143.78 C 146.17,142.85 146.6,141.93 147.04,141.02 C 148.77,141.01 152.24,140.99 153.98,140.98 C 153.98,140.24 153.99,138.75 154,138.01 M 155.03,167 C 154.6,167.93 154.18,168.87 153.78,169.82 C 153.14,169.91 151.86,170.09 151.22,170.18 C 147.54,175.16 142.69,179.19 138.25,183.48 C 138.6,188.68 139.05,194.56 132.73,194.77 C 130.28,201.04 132.96,209.88 131.94,216.88 C 131.46,217.19 130.49,217.81 130,218.12 C 130.07,220.59 130.18,223.06 130.33,225.53 C 135.45,233.64 144.88,233.01 153.65,231.85 C 153.79,230.05 155.38,230.03 156.8,229.91 C 158.27,232.91 160.15,235.91 164.45,234.5 C 169.66,239.39 180.99,237.44 183.3,230.3 C 186.15,229.06 189.69,226.96 186.09,224.16 C 190.53,222.07 192.56,217.23 196.61,214.6 C 203.12,210.1 198.8,200.76 200.13,194.33 C 203.87,194.36 200.75,188.85 201.98,187.36 C 199.77,183.9 192.81,188.52 192.07,183.83 C 194.88,177.33 188.52,179.21 186.33,176.6 C 186.15,172.85 183.74,169.71 179.07,171.86 C 179.06,171.43 179.05,170.57 179.04,170.14 C 181.5,169.86 183.95,169.49 186.38,169.02 C 177.72,163.89 165.05,168.6 155.03,167 z"
       id="path58"
       style="opacity:1;fill:#fafcfc" />
  </g>
  <g
     id="#8dd1f7ff">
    <path
       d="M 39.2,140.09 C 39.77,139.77 40.91,139.12 41.48,138.8 L 42.14,139.29 C 41.31,140.06 40.33,140.32 39.2,140.09 z"
       id="path61"
       style="opacity:1;fill:#8dd1f7" />
  </g>
  <g
     id="#a9d8f8ff">
    <path
       d="M 35,140.14 C 35.85,140.18 37.56,140.25 38.41,140.29 C 37.82,140.47 36.63,140.83 36.04,141.01 C 35.95,154.38 35.98,167.76 36.09,181.13 C 36.01,212.01 35.8,242.9 36.21,273.78 C 35.97,284.52 35.96,295.26 36,306 L 35,305.99 C 35,298.66 35,291.33 35,284 C 35,275.33 35,266.67 35,258 C 34.53,219.58 35.88,180.99 34.42,142.66 C 34.62,141.82 34.81,140.98 35,140.14 z"
       id="path64"
       style="opacity:1;fill:#a9d8f8" />
  </g>
  <g
     id="#f2f5f7ff">
    <path
       d="M 71.85,150.47 C 74.64,174.58 72.8,198.92 74.16,223.14 C 74.13,231.48 72.63,239.83 73.98,248.14 C 73.56,256.84 73.03,265.55 73.26,274.28 C 73.22,276.01 73.16,279.46 73.13,281.19 C 73.07,283.06 73,284.94 72.98,286.81 C 72.43,297.92 74.2,309.3 72.2,320.28 C 72.18,319.48 72.13,317.87 72.11,317.07 C 71.89,305.38 72.03,293.69 72,282 C 72,276.66 71.99,271.34 72,266 C 71.59,257.94 73.06,249.65 71.28,241.71 C 71.01,233.86 70.98,226.01 71.14,218.16 C 71.75,213.46 72.05,208.75 72.05,204.02 C 71.99,195.34 71.99,186.67 72,178 C 72,168.82 72.08,159.64 71.85,150.47 z"
       id="path67"
       style="opacity:1;fill:#f2f5f7" />
  </g>
  <g
     id="#ffffffff">
    <path
       d="M 155.03,167 C 165.05,168.6 177.72,163.89 186.38,169.02 C 183.95,169.49 181.5,169.86 179.04,170.14 C 179.05,170.57 179.06,171.43 179.07,171.86 C 183.74,169.71 186.15,172.85 186.33,176.6 C 188.52,179.21 194.88,177.33 192.07,183.83 C 192.81,188.52 199.77,183.9 201.98,187.36 C 200.75,188.85 203.87,194.36 200.13,194.33 C 198.8,200.76 203.12,210.1 196.61,214.6 C 192.56,217.23 190.53,222.07 186.09,224.16 C 189.69,226.96 186.15,229.06 183.3,230.3 C 180.99,237.44 169.66,239.39 164.45,234.5 C 160.15,235.91 158.27,232.91 156.8,229.91 C 155.38,230.03 153.79,230.05 153.65,231.85 C 144.88,233.01 135.45,233.64 130.33,225.53 C 130.18,223.06 130.07,220.59 130,218.12 C 130.49,217.81 131.46,217.19 131.94,216.88 C 132.96,209.88 130.28,201.04 132.73,194.77 C 139.05,194.56 138.6,188.68 138.25,183.48 C 142.69,179.19 147.54,175.16 151.22,170.18 C 151.86,170.09 153.14,169.91 153.78,169.82 C 154.18,168.87 154.6,167.93 155.03,167 z"
       id="path70"
       style="opacity:1;fill:#ffffff" />
  </g>
  <g
     id="#03a6f0ff">
    <path
       d="M 67.68,180.06 C 68.16,177.51 67.91,173.83 70.88,172.72 C 70.91,174.48 70.96,176.24 70.96,178 C 70.92,180.61 70.88,183.21 70.85,185.83 C 70.03,191.17 69.98,196.58 69.95,201.97 C 70.13,219 69.79,236.03 70.17,253.05 C 69.77,254.66 69.78,256.34 70.2,257.95 C 70.47,262.67 69.18,267.66 70.79,272.26 C 70.84,275.48 70.99,278.75 70.99,281.99 C 70.98,284.04 70.94,286.1 70.93,288.16 C 70.16,285.9 69.41,283.68 68.51,281.49 C 68.29,284.35 68.09,287.2 67.91,290.07 L 67.03,290.05 C 66.98,287.46 66.86,282.28 66.81,279.69 C 66.54,280.23 66.01,281.31 65.75,281.85 C 64.56,281.94 63.37,282.03 62.18,282.13 C 61.84,282.58 61.16,283.49 60.83,283.95 C 56.35,283.89 51.86,284.1 47.4,283.71 C 45.51,282.69 43.49,282.07 41.33,281.84 C 40.75,283.3 40.16,284.76 39.57,286.23 C 37.32,282.44 37.21,277.97 36.21,273.78 C 35.8,242.9 36.01,212.01 36.09,181.13 C 36.59,180.27 37.08,179.41 37.56,178.54 C 39.08,177.17 40.49,175.67 41.82,174.11 C 42.34,177.21 43.61,178.86 45.96,175.96 C 53.33,169.51 60.36,178.75 67.68,180.06 z"
       id="path73"
       style="opacity:1;fill:#03a6f0" />
  </g>
  <g
     id="#9ed1f8ff">
    <path
       d="M 70.96,178 L 72,178 C 71.99,186.67 71.99,195.34 72.05,204.02 L 71,203.99 C 71,203.49 71,202.5 71,202 C 70.99,196.6 71,191.22 70.85,185.83 C 70.88,183.21 70.92,180.61 70.96,178 z"
       id="path76"
       style="opacity:1;fill:#9ed1f8" />
  </g>
  <g
     id="#33c2ffff">
    <path
       d="M 69.95,201.97 C 69.98,196.58 70.03,191.17 70.85,185.83 C 71,191.22 70.99,196.6 71,202 L 69.95,201.97 z"
       id="path79"
       style="opacity:1;fill:#33c2ff" />
  </g>
  <g
     id="#cce7f4ff">
    <path
       d="M 71,203.99 L 72.05,204.02 C 72.05,208.75 71.75,213.46 71.14,218.16 C 71.09,213.44 71.01,208.71 71,203.99 z"
       id="path82"
       style="opacity:1;fill:#cce7f4" />
  </g>
  <g
     id="#f3f7f8ff">
    <path
       d="M 240.06,210.18 C 247.67,212.92 255.87,213.42 263.35,216.69 C 264.93,216.82 268.09,217.07 269.67,217.19 C 270.35,219.04 272.47,219.27 274,220.13 C 273.77,220.55 273.31,221.38 273.08,221.8 C 277.56,224.55 281.46,228.13 285.47,231.51 C 286.5,232.8 287.65,233.99 288.91,235.05 C 289.99,238.34 292.52,240.83 295.04,243.07 C 299.62,256.19 303.56,269.88 302.62,283.78 C 301.25,285.36 300.56,287.24 300.57,289.43 C 297.17,292.28 298.23,297.75 296.7,301.64 C 292.65,303.33 292.05,308.25 289.3,311.3 C 289.23,311.98 289.08,313.33 289.01,314.01 C 288.13,315.16 287.35,316.38 286.59,317.62 C 284.96,318.7 283.35,319.83 281.65,320.79 L 281.06,321.11 C 279.55,321.92 278.09,322.81 276.7,323.8 C 275.69,324.49 274.68,325.16 273.65,325.81 C 269.58,327.82 265.54,329.92 261.24,331.43 C 260.92,330.79 260.26,329.5 259.93,328.86 C 260.49,328.66 261.61,328.24 262.17,328.03 L 263.1,328.11 C 263.51,328.04 264.35,327.89 264.77,327.82 L 264.78,327.02 C 266.91,326.02 269.02,324.96 271.11,323.87 L 271.75,323.71 L 272.07,323.1 C 272.56,322.77 273.55,322.11 274.05,321.78 C 274.32,321.58 274.88,321.18 275.16,320.98 C 275.7,320.68 276.79,320.09 277.34,319.79 C 277.52,319.56 277.89,319.11 278.08,318.88 C 278.27,318.71 278.65,318.38 278.85,318.21 C 279.05,318.03 279.47,317.67 279.67,317.49 C 280.55,316.73 281.42,315.95 282.28,315.16 C 284.02,313.55 285.52,311.71 286.9,309.79 L 287.72,309.8 C 287.87,309.41 288.17,308.63 288.32,308.25 C 288.8,307.4 289.31,306.57 289.83,305.74 L 290.65,305.7 C 290.73,305.28 290.91,304.44 290.99,304.02 C 292.32,301.32 293.69,298.64 295.06,295.96 L 295.84,295.75 C 295.86,295.31 295.91,294.43 295.94,293.99 C 296.3,292.64 296.69,291.3 297.06,289.96 L 297.87,289.71 C 297.9,289.24 297.97,288.31 298.01,287.85 C 298.01,287.4 298.01,286.51 298.01,286.06 C 299.26,285.18 299.45,283.59 299.21,282.2 L 299.22,281.28 L 299.3,280.39 C 299.38,276.54 300.76,272.41 299.17,268.7 C 299.16,267.98 299.15,266.54 299.14,265.82 C 299.23,264.53 299.5,262.52 297.9,262.03 C 297.94,261.54 298.02,260.56 298.06,260.08 C 297.78,259.56 297.22,258.52 296.95,258 L 297.08,257.07 C 297.01,256.63 296.88,255.75 296.81,255.31 L 295.98,255.19 C 295.6,254.14 295.24,253.08 294.88,252.03 C 294.88,251.59 294.87,250.71 294.86,250.27 L 294.1,250.02 C 293.15,248.21 292.23,246.39 291.19,244.64 C 290.87,244.16 290.23,243.2 289.91,242.72 C 289.34,242.02 288.77,241.34 288.19,240.66 C 286.05,238.14 284.16,235.41 281.81,233.08 C 279.12,230.45 276.16,228.11 273.06,226 C 271.43,224.9 269.79,223.81 268.14,222.74 C 267.65,222.46 266.69,221.88 266.21,221.59 C 262.02,220.19 257.5,219.91 253.13,220.43 C 250.91,218.92 248.67,217.17 245.89,216.96 L 245,216.81 L 244.16,216.66 C 241.75,216.58 236.94,216.42 234.53,216.34 L 233.75,216.64 C 232.75,217.02 231.77,217.44 230.8,217.89 C 230.11,217.9 228.72,217.91 228.02,217.92 C 227.57,217.97 226.66,218.06 226.21,218.11 L 225.98,218.91 C 220.38,220.51 214.84,222.62 209.99,225.9 C 207.29,221.41 208.15,216.03 207.95,211.04 L 209.19,210.72 C 209.17,213.59 209.14,219.33 209.12,222.21 C 217,217.89 225.48,215.06 234.26,213.24 C 235.45,213.1 236.65,212.97 237.85,212.84 C 238.58,211.95 239.32,211.07 240.06,210.18 z"
       id="path85"
       style="opacity:1;fill:#f3f7f8" />
  </g>
  <g
     id="#eaeef1ff">
    <path
       d="M 209.19,210.72 C 209.6,211.71 209.98,212.71 210.34,213.73 C 210.96,214.43 211.58,215.15 212.19,215.87 C 213.82,215.87 217.08,215.86 218.71,215.85 C 222.76,212.23 229.11,213.15 234.26,213.24 C 225.48,215.06 217,217.89 209.12,222.21 C 209.14,219.33 209.17,213.59 209.19,210.72 z"
       id="path88"
       style="opacity:1;fill:#eaeef1" />
  </g>
  <g
     id="#cce8f4ff">
    <path
       d="M 234.53,216.34 C 236.94,216.42 241.75,216.58 244.16,216.66 L 245,216.81 L 243.96,216.88 C 243.43,216.91 242.36,216.99 241.83,217.02 L 240.79,217.04 C 239.03,216.94 235.51,216.74 233.75,216.64 L 234.53,216.34 z"
       id="path91"
       style="opacity:1;fill:#cce8f4" />
  </g>
  <g
     id="#6cafe1ff">
    <path
       d="M 230.8,217.89 C 231.77,217.44 232.75,217.02 233.75,216.64 C 235.51,216.74 239.03,216.94 240.79,217.04 C 239.22,224.93 246.26,228.46 252.04,231.18 C 252.08,237.77 252.18,245.51 246.75,250.24 C 245.98,244.9 247.61,239.6 247.91,234.29 C 240.2,232.61 236.85,225.11 235.82,218.1 C 234.14,218.01 232.47,217.93 230.8,217.89 z"
       id="path94"
       style="opacity:1;fill:#6cafe1" />
  </g>
  <g
     id="#79b8e6ff">
    <path
       d="M 240.79,217.04 L 241.83,217.02 C 241.04,225.02 248.69,227.59 254.14,231.04 C 254.6,237.9 252.14,244.38 250.42,250.88 L 249.68,251.35 C 248.38,251.04 247.1,250.69 245.83,250.31 L 246.75,250.24 C 252.18,245.51 252.08,237.77 252.04,231.18 C 246.26,228.46 239.22,224.93 240.79,217.04 z"
       id="path97"
       style="opacity:1;fill:#79b8e6" />
  </g>
  <g
     id="#85c0ebff">
    <path
       d="M 241.83,217.02 C 242.36,216.99 243.43,216.91 243.96,216.88 C 242.69,226.56 255.13,225.78 258.27,232.92 C 259.31,232.63 260.36,232.35 261.4,232.06 C 261.53,239.68 255.08,245.21 252.75,252.05 C 251.72,251.83 250.7,251.59 249.68,251.35 L 250.42,250.88 C 252.14,244.38 254.6,237.9 254.14,231.04 C 248.69,227.59 241.04,225.02 241.83,217.02 z"
       id="path100"
       style="opacity:1;fill:#85c0eb" />
  </g>
  <g
     id="#97ccf0ff">
    <path
       d="M 243.96,216.88 L 245,216.81 L 245.89,216.96 L 246.2,217.76 C 246.49,219.16 246.77,220.57 247.05,221.98 C 250.88,223.79 254.98,225.19 258.37,227.8 C 260.89,227.12 263.16,225.74 264.41,223.38 C 265.65,223.16 266.89,222.95 268.14,222.74 C 269.79,223.81 271.43,224.9 273.06,226 C 265.31,233.98 260.9,244.49 253.99,253.14 C 253.68,252.87 253.06,252.32 252.75,252.05 C 255.08,245.21 261.53,239.68 261.4,232.06 C 260.36,232.35 259.31,232.63 258.27,232.92 C 255.13,225.78 242.69,226.56 243.96,216.88 z"
       id="path103"
       style="opacity:1;fill:#97ccf0" />
  </g>
  <g
     id="#d0e4f1ff">
    <path
       d="M 245.89,216.96 C 248.67,217.17 250.91,218.92 253.13,220.43 C 257.5,219.91 262.02,220.19 266.21,221.59 C 259.28,223.5 250.67,225.23 246.2,217.76 L 245.89,216.96 z"
       id="path106"
       style="opacity:1;fill:#d0e4f1" />
  </g>
  <g
     id="#98ccf7ff">
    <path
       d="M 226.21,218.11 C 226.66,218.06 227.57,217.97 228.02,217.92 C 227.51,218.17 226.49,218.66 225.98,218.91 L 226.21,218.11 z"
       id="path109"
       style="opacity:1;fill:#98ccf7" />
  </g>
  <g
     id="#5ea7ddff">
    <path
       d="M 228.02,217.92 C 228.72,217.91 230.11,217.9 230.8,217.89 C 232.47,217.93 234.14,218.01 235.82,218.1 C 236.85,225.11 240.2,232.61 247.91,234.29 C 247.61,239.6 245.98,244.9 246.75,250.24 L 245.83,250.31 C 244.12,250.23 240.71,250.07 239,250 C 237.6,249.38 236.61,249.69 236.03,250.93 C 231.09,252.02 227.49,255.87 223.07,258.08 C 222.19,258.53 221.33,259 220.47,259.49 C 219.82,259.48 219.17,259.47 218.52,259.46 C 210.55,253.37 202.72,246.86 193.99,241.89 C 198.02,235.41 203.94,230.41 209.99,225.9 C 214.84,222.62 220.38,220.51 225.98,218.91 C 226.49,218.66 227.51,218.17 228.02,217.92 z"
       id="path112"
       style="opacity:1;fill:#5ea7dd" />
    <path
       d="M 289.46,244.44 C 289.9,244.49 290.76,244.59 291.19,244.64 C 292.23,246.39 293.15,248.21 294.1,250.02 C 294.1,250.46 294.1,251.33 294.1,251.76 L 294.88,252.03 C 295.24,253.08 295.6,254.14 295.98,255.19 C 296.25,255.66 296.8,256.6 297.08,257.07 L 296.95,258 C 297.22,258.52 297.78,259.56 298.06,260.08 C 298.02,260.56 297.94,261.54 297.9,262.03 C 297.69,263.31 297.42,265.46 299.14,265.82 C 299.15,266.54 299.16,267.98 299.17,268.7 C 299.16,272.89 299.17,277.08 299.22,281.28 L 299.21,282.2 C 297.36,282.47 297.7,284.76 298.01,286.06 C 298.01,286.51 298.01,287.4 298.01,287.85 C 297.77,288.38 297.3,289.43 297.06,289.96 C 296.69,291.3 296.3,292.64 295.94,293.99 L 295.14,294.22 C 295.12,294.65 295.08,295.52 295.06,295.96 C 293.69,298.64 292.32,301.32 290.99,304.02 L 290.18,304.1 C 290.1,304.51 289.92,305.33 289.83,305.74 C 289.31,306.57 288.8,307.4 288.32,308.25 C 287.45,307.52 286.6,306.8 285.74,306.09 C 285.37,306.27 284.64,306.62 284.27,306.79 C 277.38,303.58 272.57,297.28 265.51,294.45 C 262.89,293.48 263.37,290.21 263.38,287.98 L 262.72,287.73 C 263.64,285.88 264.43,283.97 265.18,282.04 L 265.87,281.72 C 265.89,281.03 265.93,279.64 265.95,278.94 C 265.95,275.62 265.99,272.35 266.03,269.05 C 265.77,268.53 265.24,267.47 264.98,266.95 C 264.95,266.53 264.89,265.69 264.86,265.28 L 264.84,264.5 C 265.35,264.52 266.36,264.57 266.86,264.59 C 274.13,257.58 282.21,251.45 289.46,244.44 z"
       id="path114"
       style="opacity:1;fill:#5ea7dd" />
  </g>
  <g
     id="#a8d8f5ff">
    <path
       d="M 246.2,217.76 C 250.67,225.23 259.28,223.5 266.21,221.59 C 266.69,221.88 267.65,222.46 268.14,222.74 C 266.89,222.95 265.65,223.16 264.41,223.38 C 263.16,225.74 260.89,227.12 258.37,227.8 C 254.98,225.19 250.88,223.79 247.05,221.98 C 246.77,220.57 246.49,219.16 246.2,217.76 z"
       id="path117"
       style="opacity:1;fill:#a8d8f5" />
  </g>
  <g
     id="#acdaf7ff">
    <path
       d="M 273.06,226 C 276.16,228.11 279.12,230.45 281.81,233.08 C 281.33,233.09 280.38,233.11 279.9,233.12 C 280.66,234.57 281.53,235.96 282.42,237.33 C 282.49,238.51 282.58,239.69 282.7,240.87 C 276.62,247.54 269.3,252.99 262.11,258.39 C 262.07,259 261.99,260.23 261.95,260.85 C 259.49,258.08 256.88,255.44 253.99,253.14 C 260.9,244.49 265.31,233.98 273.06,226 z"
       id="path120"
       style="opacity:1;fill:#acdaf7" />
  </g>
  <g
     id="#99cdf3ff">
    <path
       d="M 279.9,233.12 C 280.38,233.11 281.33,233.09 281.81,233.08 C 284.16,235.41 286.05,238.14 288.19,240.66 C 280.72,248.94 270.24,253.97 262.75,262.01 C 262.55,261.72 262.15,261.14 261.95,260.85 C 261.99,260.23 262.07,259 262.11,258.39 C 269.3,252.99 276.62,247.54 282.7,240.87 C 282.58,239.69 282.49,238.51 282.42,237.33 C 281.53,235.96 280.66,234.57 279.9,233.12 z"
       id="path123"
       style="opacity:1;fill:#99cdf3" />
  </g>
  <g
     id="#e8edf1ff">
    <path
       d="M 288.91,235.05 C 289.61,234.39 289.61,234.39 288.91,235.05 z"
       id="path126"
       style="opacity:1;fill:#e8edf1" />
  </g>
  <g
     id="#81bde9ff">
    <path
       d="M 262.75,262.01 C 270.24,253.97 280.72,248.94 288.19,240.66 C 288.77,241.34 289.34,242.02 289.91,242.72 C 280.77,249.08 272.4,256.46 263.6,263.28 C 263.39,262.96 262.96,262.32 262.75,262.01 z"
       id="path129"
       style="opacity:1;fill:#81bde9" />
    <path
       d="M 223.39,290.01 C 224.62,291.25 225.86,292.48 227.16,293.65 C 226.8,294.15 226.1,295.15 225.75,295.65 C 220.99,300.82 220.2,308.42 218.15,314.88 C 222.25,319.3 226.85,323.92 228.05,330.05 C 226.23,329.54 224.43,328.98 222.66,328.34 C 222.73,327.54 222.85,325.94 222.92,325.14 C 221.12,324.09 217.53,322 215.74,320.95 C 215.26,314.81 217.5,309.06 218.92,303.23 C 211.67,296.21 201.53,304 193.65,306.44 C 193.12,305.68 192.61,304.91 192.13,304.13 C 202.52,300.08 215.25,298.06 223.39,290.01 z"
       id="path131"
       style="opacity:1;fill:#81bde9" />
  </g>
  <g
     id="#bee3f6ff">
    <path
       d="M 71.28,241.71 C 73.06,249.65 71.59,257.94 72,266 L 70.96,265.97 C 70.9,263.29 70.85,260.61 70.81,257.94 C 71.23,256.33 71.23,254.65 70.79,253.06 C 70.91,249.28 71.15,245.48 71.28,241.71 z"
       id="path134"
       style="opacity:1;fill:#bee3f6" />
  </g>
  <g
     id="#7fb7e3ff">
    <path
       d="M 192.06,245.32 C 191.61,243.92 192.39,242.02 193.99,241.89 C 194.41,243.4 193.12,244.51 192.06,245.32 z"
       id="path137"
       style="opacity:1;fill:#7fb7e3" />
  </g>
  <g
     id="#3498cdff">
    <path
       d="M 193.99,241.89 C 202.72,246.86 210.55,253.37 218.52,259.46 C 219.17,259.47 219.82,259.48 220.47,259.49 C 221.33,259 222.19,258.53 223.07,258.08 C 222.01,260.05 220.96,262.03 219.91,264 L 219.13,264.32 C 219.17,264.77 219.23,265.67 219.26,266.12 C 218.92,266.59 218.25,267.55 217.91,268.03 C 217.93,267.56 217.96,266.62 217.98,266.15 C 217.56,266.29 216.72,266.57 216.3,266.71 C 209.28,261.31 202.46,255.51 194.42,251.65 C 193.44,249.86 192.86,247.58 190.83,246.68 L 191.27,246.1 C 191.47,245.91 191.86,245.52 192.06,245.32 C 193.12,244.51 194.41,243.4 193.99,241.89 z"
       id="path140"
       style="opacity:1;fill:#3498cd" />
  </g>
  <g
     id="#e6ebf0ff">
    <path
       d="M 295.04,243.07 C 295.33,239.83 298.21,244.38 295.04,243.07 z"
       id="path143"
       style="opacity:1;fill:#e6ebf0" />
    <path
       d="M 86.01,334.99 L 86.95,335.03 C 88.96,335.05 90.98,335.03 93,335.01 L 92.86,335.77 C 86.11,335.67 81.73,342.21 75.1,342.12 C 75.07,341.34 75.01,339.76 74.98,338.97 C 74.21,339 72.67,339.06 71.91,339.09 C 73.33,335.89 77.31,336.92 80.14,336.34 C 81.61,336.01 84.54,335.33 86.01,334.99 z"
       id="path145"
       style="opacity:1;fill:#e6ebf0" />
  </g>
  <g
     id="#6eb1e2ff">
    <path
       d="M 263.6,263.28 C 272.4,256.46 280.77,249.08 289.91,242.72 C 290.23,243.2 290.87,244.16 291.19,244.64 C 290.76,244.59 289.9,244.49 289.46,244.44 C 282.21,251.45 274.13,257.58 266.86,264.59 C 266.36,264.57 265.35,264.52 264.84,264.5 L 264.86,265.28 C 264.55,264.78 263.92,263.78 263.6,263.28 z"
       id="path148"
       style="opacity:1;fill:#6eb1e2" />
  </g>
  <g
     id="#dde3e8ff">
    <path
       d="M 76.25,244.86 C 78,246.72 79.62,248.69 81.38,250.54 C 83.31,256.9 88.61,261.49 93.83,265.25 C 93.64,265.65 93.24,266.47 93.05,266.88 C 95,269.28 97.21,271.44 99.27,273.74 C 100.4,273.94 101.52,274.15 102.65,274.36 C 104.82,276.22 107.27,277.71 109.81,279 C 113.76,276.8 118.41,277.21 122.76,276.79 C 123.82,274.89 124.87,272.99 126.08,271.19 C 131.54,271.27 135.37,267.41 139.45,264.44 C 150.32,260.19 162.3,261.24 173.62,262.78 C 175.71,259.49 177.88,256.25 180.01,253 C 180.76,253 182.25,253.01 182.99,253.01 C 183.06,254.71 183.14,256.42 183.18,258.13 C 182.89,258.63 182.32,259.63 182.03,260.13 C 182,259.54 181.93,258.37 181.9,257.78 C 177.79,258.57 176.37,262.61 174.97,266.03 C 162.59,266.76 150.18,266.75 138.56,271.54 C 137.33,272.69 135.99,273.72 134.59,274.67 C 127.94,279.21 122.34,289.87 113.31,288.95 C 96.13,287.71 86.98,271.02 75,260.69 C 74.31,265.19 74.12,269.78 73.26,274.28 C 73.03,265.55 73.56,256.84 73.98,248.14 C 74.72,247.03 75.49,245.95 76.25,244.86 z"
       id="path151"
       style="opacity:1;fill:#dde3e8" />
  </g>
  <g
     id="#96cbefff">
    <path
       d="M 191.27,246.1 C 191.47,245.91 191.86,245.52 192.06,245.32 C 191.86,245.52 191.47,245.91 191.27,246.1 z"
       id="path154"
       style="opacity:1;fill:#96cbef" />
    <path
       d="M 230.94,296.2 C 231.18,296.32 231.66,296.57 231.9,296.7 C 231.66,296.57 231.18,296.32 230.94,296.2 z"
       id="path156"
       style="opacity:1;fill:#96cbef" />
    <path
       d="M 277.34,319.79 C 277.52,319.56 277.89,319.11 278.08,318.88 C 277.89,319.11 277.52,319.56 277.34,319.79 z"
       id="path158"
       style="opacity:1;fill:#96cbef" />
  </g>
  <g
     id="#84bfeaff">
    <path
       d="M 190.21,248.07 C 190.36,247.72 190.67,247.03 190.83,246.68 C 190.67,247.03 190.36,247.72 190.21,248.07 z"
       id="path161"
       style="opacity:1;fill:#84bfea" />
    <path
       d="M 188.82,249.99 C 189.06,249.71 189.55,249.15 189.79,248.86 C 189.55,249.15 189.06,249.71 188.82,249.99 z"
       id="path163"
       style="opacity:1;fill:#84bfea" />
    <path
       d="M 278.08,318.88 C 278.27,318.71 278.65,318.38 278.85,318.21 C 278.65,318.38 278.27,318.71 278.08,318.88 z"
       id="path165"
       style="opacity:1;fill:#84bfea" />
  </g>
  <g
     id="#2787cdff">
    <path
       d="M 190.83,246.68 C 192.86,247.58 193.44,249.86 194.42,251.65 C 202.46,255.51 209.28,261.31 216.3,266.71 C 216.72,266.57 217.56,266.29 217.98,266.15 C 217.96,266.62 217.93,267.56 217.91,268.03 C 217.89,268.49 217.86,269.41 217.84,269.87 C 217.42,271.18 217.07,272.52 216.81,273.88 C 214.96,273.26 213.08,272.75 211.16,272.44 C 204.96,266.64 197.08,262.54 191.51,256.21 C 190.41,256.5 189.32,256.83 188.23,257.15 C 188.5,255.67 188.77,254.19 189.02,252.71 C 189.02,252.24 189,251.31 189,250.84 L 188.82,249.99 C 189.06,249.71 189.55,249.15 189.79,248.86 L 190.21,248.07 C 190.36,247.72 190.67,247.03 190.83,246.68 z"
       id="path168"
       style="opacity:1;fill:#2787cd" />
    <path
       d="M 253.01,296.25 C 253.91,295.7 254.81,295.15 255.71,294.59 C 256.3,295.64 256.86,296.69 257.41,297.77 C 258.44,297.97 259.46,298.19 260.49,298.41 C 267.05,304.64 276.16,308.1 282.28,315.16 C 281.42,315.95 280.55,316.73 279.67,317.49 C 279.47,317.67 279.05,318.03 278.85,318.21 C 278.65,318.38 278.27,318.71 278.08,318.88 C 277.89,319.11 277.52,319.56 277.34,319.79 L 276.45,319.58 C 275.02,319.26 273.58,319.01 272.15,318.77 C 272.09,318.1 271.98,316.75 271.93,316.08 C 270.64,316.03 269.35,315.98 268.07,315.93 C 268.02,315.23 267.93,313.82 267.89,313.12 C 262.88,309.91 257.1,307.33 253.7,302.23 C 252.54,302.11 251.38,301.99 250.22,301.89 C 249.7,301 249.18,300.12 248.66,299.24 C 248.23,299.19 247.37,299.08 246.94,299.03 L 247.04,298.07 C 248.72,297.75 250.37,297.28 252.02,296.81 L 252.64,296.74 L 253.01,296.25 z"
       id="path170"
       style="opacity:1;fill:#2787cd" />
    <path
       d="M 232.23,298.12 C 232.71,298.03 233.66,297.86 234.13,297.78 C 234.62,297.8 235.59,297.84 236.08,297.86 L 235.87,298.63 L 235.63,299.47 C 232.94,315.58 255.08,317.44 262.96,327.34 L 263.1,328.11 L 262.17,328.03 C 261.61,328.24 260.49,328.66 259.93,328.86 C 259.51,328.97 258.66,329.2 258.24,329.31 C 257.55,329.13 256.19,328.78 255.5,328.61 C 248.11,323.59 239.75,319.9 233.09,313.84 C 230.8,308.97 230.89,303.24 232.23,298.12 z"
       id="path172"
       style="opacity:1;fill:#2787cd" />
  </g>
  <g
     id="#94caefff">
    <path
       d="M 236.03,250.93 C 236.61,249.69 237.6,249.38 239,250 C 238.32,251.15 237.32,251.46 236.03,250.93 z"
       id="path175"
       style="opacity:1;fill:#94caef" />
  </g>
  <g
     id="#f2f6f7ff">
    <path
       d="M 239,250 C 240.71,250.07 244.12,250.23 245.83,250.31 C 247.1,250.69 248.38,251.04 249.68,251.35 C 250.7,251.59 251.72,251.83 252.75,252.05 C 253.06,252.32 253.68,252.87 253.99,253.14 C 256.88,255.44 259.49,258.08 261.95,260.85 C 262.15,261.14 262.55,261.72 262.75,262.01 C 262.96,262.32 263.39,262.96 263.6,263.28 C 263.92,263.78 264.55,264.78 264.86,265.28 C 264.89,265.69 264.95,266.53 264.98,266.95 C 265.24,267.47 265.77,268.53 266.03,269.05 C 265.99,272.35 265.95,275.62 265.95,278.94 C 264.81,279.72 264.55,280.75 265.18,282.04 C 264.43,283.97 263.64,285.88 262.72,287.73 C 260.42,290.05 258.21,292.48 255.71,294.59 C 254.81,295.15 253.91,295.7 253.01,296.25 C 252.76,296.39 252.27,296.67 252.02,296.81 C 250.37,297.28 248.72,297.75 247.04,298.07 C 243.98,298.12 240.97,298.19 237.93,298.11 C 237.47,298.05 236.54,297.92 236.08,297.86 C 235.59,297.84 234.62,297.8 234.13,297.78 C 233.57,297.51 232.46,296.97 231.9,296.7 C 231.66,296.57 231.18,296.32 230.94,296.2 L 230.32,295.86 C 229.24,295.17 228.17,294.44 227.16,293.65 C 225.86,292.48 224.62,291.25 223.39,290.01 C 222.65,289.25 221.92,288.48 221.22,287.69 C 220.83,286.74 220.47,285.78 220.13,284.81 C 219.83,284.4 219.24,283.58 218.94,283.17 L 219.01,282.21 C 218.73,281.68 218.15,280.63 217.87,280.1 C 217.85,279.63 217.82,278.71 217.81,278.24 C 217.79,275.44 217.8,272.65 217.84,269.87 C 217.86,269.41 217.89,268.49 217.91,268.03 C 218.25,267.55 218.92,266.59 219.26,266.12 C 219.42,265.59 219.75,264.53 219.91,264 C 220.96,262.03 222.01,260.05 223.07,258.08 C 227.49,255.87 231.09,252.02 236.03,250.93 C 237.32,251.46 238.32,251.15 239,250 M 221.19,267.85 C 220.97,269.41 220.73,270.98 220.37,272.52 C 219.24,283.34 226.92,293.77 237.62,295.85 C 240.64,295.99 243.62,295.91 246.66,295.87 C 247.28,295.5 248.53,294.75 249.15,294.37 C 264.04,290.81 268,269.91 257.65,259.38 C 255.18,257.84 253.1,255.34 250.08,254.94 C 246.54,252.28 241.92,252.91 237.8,253.22 C 230.28,254.74 223.33,260.15 221.19,267.85 z"
       id="path178"
       style="opacity:1;fill:#f2f6f7" />
  </g>
  <g
     id="#b2d7f1ff">
    <path
       d="M 294.1,250.02 L 294.86,250.27 C 294.87,250.71 294.88,251.59 294.88,252.03 L 294.1,251.76 C 294.1,251.33 294.1,250.46 294.1,250.02 z"
       id="path181"
       style="opacity:1;fill:#b2d7f1" />
  </g>
  <g
     id="#7eb2deff">
    <path
       d="M 188.2,252.96 C 188.4,252.43 188.8,251.37 189,250.84 C 189,251.31 189.02,252.24 189.02,252.71 L 188.2,252.96 z"
       id="path184"
       style="opacity:1;fill:#7eb2de" />
  </g>
  <g
     id="#5da6ddff">
    <path
       d="M 70.17,253.05 L 70.79,253.06 C 71.23,254.65 71.23,256.33 70.81,257.94 L 70.2,257.95 C 69.78,256.34 69.77,254.66 70.17,253.05 z"
       id="path187"
       style="opacity:1;fill:#5da6dd" />
  </g>
  <g
     id="#157fc9ff">
    <path
       d="M 188.2,252.96 L 189.02,252.71 C 188.77,254.19 188.5,255.67 188.23,257.15 C 189.32,256.83 190.41,256.5 191.51,256.21 C 197.08,262.54 204.96,266.64 211.16,272.44 C 213.08,272.75 214.96,273.26 216.81,273.88 C 217.05,275.35 217.39,276.81 217.81,278.24 C 217.82,278.71 217.85,279.63 217.87,280.1 C 218.15,280.63 218.73,281.68 219.01,282.21 L 218.94,283.17 C 219.04,283.64 219.26,284.57 219.36,285.03 C 205.88,294.76 196.92,276.15 185.27,273.49 C 185.15,272.1 184.9,269.31 184.77,267.92 C 185.22,266.28 185.13,264.58 184.9,262.93 L 184.94,262.08 C 185.21,261.55 185.76,260.49 186.03,259.96 C 186.02,259.5 186,258.58 185.99,258.12 C 186.2,257.59 186.63,256.53 186.84,256 C 187.28,254.98 187.74,253.97 188.2,252.96 z"
       id="path190"
       style="opacity:1;fill:#157fc9" />
  </g>
  <g
     id="#cddae4ff">
    <path
       d="M 221.19,267.85 C 223.33,260.15 230.28,254.74 237.8,253.22 C 241.89,253.75 245.97,254.5 250.08,254.94 C 253.1,255.34 255.18,257.84 257.65,259.38 C 268,269.91 264.04,290.81 249.15,294.37 C 246.45,294.5 243.76,294.75 241.07,295.02 C 241.06,294.28 241.02,292.79 241,292.05 C 238.89,291.53 236.78,291 234.68,290.49 C 239,288.76 243.85,289.09 248.28,287.65 C 245.7,285.26 242,287.3 238.96,286.1 C 234.04,285.33 231.64,280.58 228.01,277.79 C 228.39,281.2 230.63,283.93 232.12,286.92 C 230.96,286.1 229.83,285.27 228.71,284.42 C 227.16,284.53 225.61,284.59 224.06,284.67 C 222.77,279.13 221.48,273.55 221.19,267.85 M 233.77,268.75 C 230.48,272.45 232.16,277.84 234.22,281.78 C 236.8,282.89 239.39,283.97 241.99,285.02 C 248.8,284.05 254.78,276.27 250.3,269.84 C 247.9,263.14 237.5,263.27 233.77,268.75 z"
       id="path193"
       style="opacity:1;fill:#cddae4" />
  </g>
  <g
     id="#c0c5caff">
    <path
       d="M 237.8,253.22 C 241.92,252.91 246.54,252.28 250.08,254.94 C 245.97,254.5 241.89,253.75 237.8,253.22 z"
       id="path196"
       style="opacity:1;fill:#c0c5ca" />
  </g>
  <g
     id="#b2d8f1ff">
    <path
       d="M 295.98,255.19 L 296.81,255.31 C 296.88,255.75 297.01,256.63 297.08,257.07 C 296.8,256.6 296.25,255.66 295.98,255.19 z"
       id="path199"
       style="opacity:1;fill:#b2d8f1" />
  </g>
  <g
     id="#7ab9e6ff">
    <path
       d="M 186.06,256.28 L 186.84,256 C 186.63,256.53 186.2,257.59 185.99,258.12 C 186.01,257.66 186.04,256.74 186.06,256.28 z"
       id="path202"
       style="opacity:1;fill:#7ab9e6" />
  </g>
  <g
     id="#f8f4edff">
    <path
       d="M 34,258 L 35,258 C 35,266.67 35,275.33 35,284 L 34,284 C 34,275.33 34,266.66 34,258 z"
       id="path205"
       style="opacity:1;fill:#f8f4ed" />
  </g>
  <g
     id="#33a8ffff">
    <path
       d="M 70.2,257.95 L 70.81,257.94 C 70.85,260.61 70.9,263.29 70.96,265.97 C 70.96,268.07 70.86,270.16 70.79,272.26 C 69.18,267.66 70.47,262.67 70.2,257.95 z"
       id="path208"
       style="opacity:1;fill:#33a8ff" />
  </g>
  <g
     id="#d2d7dcff">
    <path
       d="M 174.97,266.03 C 176.37,262.61 177.79,258.57 181.9,257.78 C 181.93,258.37 182,259.54 182.03,260.13 C 182.01,261.49 181.98,262.85 181.95,264.22 L 181.14,263.83 C 180.77,263.31 180.03,262.29 179.66,261.78 C 176.68,265.56 174.57,269.92 171.99,273.97 C 170.7,274.02 169.42,274.08 168.14,274.14 C 167.8,274.54 167.12,275.34 166.77,275.74 C 155.83,274.34 143.01,278.14 137.91,288.7 C 135.5,291.7 133,294.65 130.77,297.8 C 130.1,297.88 128.78,298.04 128.11,298.12 C 126.3,300.99 124.54,303.9 123.01,306.94 C 119.13,306.57 113.64,306.95 113.42,301.8 C 115.22,301.12 116.83,302.07 118.35,302.95 C 118.69,301 118.72,299.02 118.48,297.07 C 119.01,296.09 119.53,295.11 120.07,294.14 C 121.31,294.03 122.55,293.92 123.8,293.8 C 126.72,290.11 130.35,287.09 133.67,283.76 C 139.08,269.38 159.2,271.18 171.88,269.86 C 172.94,268.61 174.01,267.36 174.97,266.03 z"
       id="path211"
       style="opacity:1;fill:#d2d7dc" />
  </g>
  <g
     id="#acdbf7ff">
    <path
       d="M 296.95,258 C 297.22,258.52 297.78,259.56 298.06,260.08 C 297.78,259.56 297.22,258.52 296.95,258 z"
       id="path214"
       style="opacity:1;fill:#acdbf7" />
  </g>
  <g
     id="#80b3ccff">
    <path
       d="M 184.94,262.08 C 185.21,261.55 185.76,260.49 186.03,259.96 C 185.76,260.49 185.21,261.55 184.94,262.08 z"
       id="path217"
       style="opacity:1;fill:#80b3cc" />
    <path
       d="M 259.93,328.86 C 260.49,328.66 261.61,328.24 262.17,328.03 C 261.61,328.24 260.49,328.66 259.93,328.86 z"
       id="path219"
       style="opacity:1;fill:#80b3cc" />
  </g>
  <g
     id="#d5dde4ff">
    <path
       d="M 75,260.69 C 86.98,271.02 96.13,287.71 113.31,288.95 C 122.34,289.87 127.94,279.21 134.59,274.67 C 135.99,273.72 137.33,272.69 138.56,271.54 C 150.18,266.75 162.59,266.76 174.97,266.03 C 174.01,267.36 172.94,268.61 171.88,269.86 C 159.2,271.18 139.08,269.38 133.67,283.76 C 130.35,287.09 126.72,290.11 123.8,293.8 C 122.55,293.92 121.31,294.03 120.07,294.14 C 119.53,295.11 119.01,296.09 118.48,297.07 C 118.72,299.02 118.69,301 118.35,302.95 C 116.83,302.07 115.22,301.12 113.42,301.8 C 109.39,303.19 106.13,301.18 103.37,298.67 C 96.14,299.45 93.3,291.89 87.48,289.44 C 85.83,287.76 84.11,286.16 82.26,284.71 C 82.16,284.06 81.97,282.77 81.88,282.12 C 81.19,282.07 79.81,281.96 79.12,281.9 C 78.37,280.61 77.62,279.33 76.87,278.04 C 76.22,278.07 74.92,278.13 74.28,278.16 C 73.91,279.17 73.52,280.18 73.13,281.19 C 73.16,279.46 73.22,276.01 73.26,274.28 C 74.12,269.78 74.31,265.19 75,260.69 z"
       id="path222"
       style="opacity:1;fill:#d5dde4" />
  </g>
  <g
     id="#caccceff">
    <path
       d="M 171.99,273.97 C 174.57,269.92 176.68,265.56 179.66,261.78 C 180.03,262.29 180.77,263.31 181.14,263.83 C 181.12,264.32 181.08,265.29 181.06,265.78 C 178.21,267.82 176.33,270.8 175.02,273.99 C 167.42,282.44 154.29,278.87 146.14,287.12 C 146,287.72 145.72,288.92 145.58,289.52 C 142.59,291.18 141.19,294.26 140.35,297.42 C 135.37,302.45 136.81,308.97 137.02,315.3 C 135.76,311.81 134.56,308.29 133.33,304.79 C 132.98,299.18 139.43,294.43 137.91,288.7 C 143.01,278.14 155.83,274.34 166.77,275.74 C 167.12,275.34 167.8,274.54 168.14,274.14 C 169.42,274.08 170.7,274.02 171.99,273.97 z"
       id="path225"
       style="opacity:1;fill:#caccce" />
  </g>
  <g
     id="#b2d5e5ff">
    <path
       d="M 297.9,262.03 C 299.5,262.52 299.23,264.53 299.14,265.82 C 297.42,265.46 297.69,263.31 297.9,262.03 z"
       id="path228"
       style="opacity:1;fill:#b2d5e5" />
  </g>
  <g
     id="#80bde8ff">
    <path
       d="M 184.05,267.66 C 183.24,266.08 183.76,264.2 184.9,262.93 C 185.13,264.58 185.22,266.28 184.77,267.92 L 184.05,267.66 z"
       id="path231"
       style="opacity:1;fill:#80bde8" />
  </g>
  <g
     id="#dadfe4ff">
    <path
       d="M 181.14,263.83 L 181.95,264.22 C 181.98,266.91 182.06,269.61 182.18,272.31 C 182.8,270.76 183.39,269.2 184.05,267.66 C 184.02,271.46 184.04,275.29 183.97,279.1 C 184.03,280.47 184.14,283.2 184.2,284.56 L 184.59,285.03 C 185.03,286.03 185.44,287.05 185.81,288.09 C 186.59,293.87 189.52,299.01 192.13,304.13 C 192.61,304.91 193.12,305.68 193.65,306.44 L 194.06,307.02 C 193.04,306.63 192.03,306.26 191.02,305.89 L 190.63,306.64 L 190.26,307.32 C 188.95,304.86 187.61,302.42 186.36,299.93 C 185.36,297.71 184.43,295.45 183.74,293.11 C 183.55,292.55 183.16,291.44 182.97,290.88 L 183.08,290 C 183.61,288.55 183.22,287.58 181.92,287.1 C 181.67,284.66 181.14,282.27 180.91,279.84 C 180.92,279.12 180.94,277.69 180.95,276.97 C 180.97,276.21 181.01,274.7 181.03,273.94 C 181.01,271.21 181.02,268.5 181.06,265.78 C 181.08,265.29 181.12,264.32 181.14,263.83 z"
       id="path234"
       style="opacity:1;fill:#dadfe4" />
  </g>
  <g
     id="#97cdf1ff">
    <path
       d="M 219.13,264.32 L 219.91,264 C 219.75,264.53 219.42,265.59 219.26,266.12 C 219.23,265.67 219.17,264.77 219.13,264.32 z"
       id="path237"
       style="opacity:1;fill:#97cdf1" />
  </g>
  <g
     id="#bfc6ccff">
    <path
       d="M 233.77,268.75 C 237.5,263.27 247.9,263.14 250.3,269.84 C 245.97,265.89 238.44,264.08 234.75,269.75 C 228.95,276.46 238.88,286.65 246.04,282.08 C 250.68,279.86 249.76,274.12 250.3,269.84 C 254.78,276.27 248.8,284.05 241.99,285.02 C 239.39,283.97 236.8,282.89 234.22,281.78 C 232.16,277.84 230.48,272.45 233.77,268.75 z"
       id="path240"
       style="opacity:1;fill:#bfc6cc" />
  </g>
  <g
     id="#8dc5edff">
    <path
       d="M 70.96,265.97 L 72,266 C 71.99,271.34 72,276.66 72,282 L 70.99,281.99 C 70.99,278.75 70.84,275.48 70.79,272.26 C 70.86,270.16 70.96,268.07 70.96,265.97 z"
       id="path243"
       style="opacity:1;fill:#8dc5ed" />
  </g>
  <g
     id="#b1b7bbff">
    <path
       d="M 175.02,273.99 C 176.33,270.8 178.21,267.82 181.06,265.78 C 181.02,268.5 181.01,271.21 181.03,273.94 C 176.02,269.16 175.95,280.89 174.05,284.04 C 168.15,293.69 153.5,297.24 154.14,310.51 C 158.02,314.06 159.74,320.11 158.11,325.11 C 155.23,324.7 152.43,323.77 150.1,322 C 150.31,314.37 144.26,306.61 149.28,299.38 C 151.1,285.43 171.13,290.64 174,277.96 C 174.4,276.65 174.7,275.31 175.02,273.99 z"
       id="path246"
       style="opacity:1;fill:#b1b7bb" />
    <path
       d="M 207.16,324.3 C 207.38,324.44 207.82,324.71 208.04,324.85 C 207.82,324.71 207.38,324.44 207.16,324.3 z"
       id="path248"
       style="opacity:1;fill:#b1b7bb" />
  </g>
  <g
     id="#e8ecefff">
    <path
       d="M 234.75,269.75 C 238.44,264.08 245.97,265.89 250.3,269.84 C 249.76,274.12 250.68,279.86 246.04,282.08 C 238.88,286.65 228.95,276.46 234.75,269.75 z"
       id="path251"
       style="opacity:1;fill:#e8ecef" />
  </g>
  <g
     id="#a3d4e2ff">
    <path
       d="M 264.98,266.95 C 265.24,267.47 265.77,268.53 266.03,269.05 C 265.77,268.53 265.24,267.47 264.98,266.95 z"
       id="path254"
       style="opacity:1;fill:#a3d4e2" />
  </g>
  <g
     id="#2787ceff">
    <path
       d="M 184.05,267.66 L 184.77,267.92 C 184.9,269.31 185.15,272.1 185.27,273.49 C 196.92,276.15 205.88,294.76 219.36,285.03 L 220.13,284.81 C 220.47,285.78 220.83,286.74 221.22,287.69 L 220.32,287.95 C 214.84,288.69 210.57,294.38 204.75,292.3 C 198.1,288.78 192.02,284.26 185.44,280.59 C 185.08,280.22 184.34,279.47 183.97,279.1 C 184.04,275.29 184.02,271.46 184.05,267.66 z"
       id="path257"
       style="opacity:1;fill:#2787ce" />
  </g>
  <g
     id="#c7d1daff">
    <path
       d="M 221.19,267.85 C 221.48,273.55 222.77,279.13 224.06,284.67 C 225.61,284.59 227.16,284.53 228.71,284.42 C 229.83,285.27 230.96,286.1 232.12,286.92 C 230.63,283.93 228.39,281.2 228.01,277.79 C 231.64,280.58 234.04,285.33 238.96,286.1 C 242,287.3 245.7,285.26 248.28,287.65 C 243.85,289.09 239,288.76 234.68,290.49 C 236.78,291 238.89,291.53 241,292.05 C 241.02,292.79 241.06,294.28 241.07,295.02 C 239.91,295.25 238.76,295.53 237.62,295.85 C 226.92,293.77 219.24,283.34 220.37,272.52 C 220.73,270.98 220.97,269.41 221.19,267.85 z"
       id="path260"
       style="opacity:1;fill:#c7d1da" />
  </g>
  <g
     id="#c1e5f6ff">
    <path
       d="M 299.17,268.7 C 300.76,272.41 299.38,276.54 299.3,280.39 L 299.22,281.28 C 299.17,277.08 299.16,272.89 299.17,268.7 z"
       id="path263"
       style="opacity:1;fill:#c1e5f6" />
  </g>
  <g
     id="#76b6e5ff">
    <path
       d="M 216.81,273.88 C 217.07,272.52 217.42,271.18 217.84,269.87 C 217.8,272.65 217.79,275.44 217.81,278.24 C 217.39,276.81 217.05,275.35 216.81,273.88 z"
       id="path266"
       style="opacity:1;fill:#76b6e5" />
  </g>
  <g
     id="#a1a6acff">
    <path
       d="M 174.05,284.04 C 175.95,280.89 176.02,269.16 181.03,273.94 C 181.01,274.7 180.97,276.21 180.95,276.97 C 180.08,276.25 179.21,275.53 178.32,274.85 C 176.41,286.72 172.42,297.73 167.82,308.75 C 170.19,310.18 172.54,311.66 174.92,313.08 C 179.69,310.21 185.47,309.36 190.64,311.64 C 191.35,312.18 192.06,312.72 192.78,313.24 C 192.54,312.12 192.28,311.01 192.02,309.91 C 196.18,314.58 200.3,319.39 205.4,323.08 C 202.62,323.06 199.85,323.05 197.08,323.06 C 194.24,321.94 191.84,322.23 189.9,323.93 C 188.7,324.01 187.51,324.09 186.32,324.16 C 183.41,324.2 180.48,323.9 177.71,324.88 C 176.46,324.92 175.22,324.94 173.97,324.94 C 172.48,325.21 169.5,325.75 168.01,326.01 C 166.67,325.97 165.32,325.96 163.98,325.98 C 160.27,320.63 159.11,314.04 155.14,308.86 C 156.44,296.71 170.77,294.58 174.05,284.04 z"
       id="path269"
       style="opacity:1;fill:#a1a6ac" />
  </g>
  <g
     id="#147ec9ff">
    <path
       d="M 36.21,273.78 C 37.21,277.97 37.32,282.44 39.57,286.23 C 40.16,284.76 40.75,283.3 41.33,281.84 C 43.49,282.07 45.51,282.69 47.4,283.71 C 51.86,284.1 56.35,283.89 60.83,283.95 C 61.16,283.49 61.84,282.58 62.18,282.13 C 63.37,282.03 64.56,281.94 65.75,281.85 C 66.01,281.31 66.54,280.23 66.81,279.69 C 66.86,282.28 66.98,287.46 67.03,290.05 L 67.91,290.07 C 68.09,287.2 68.29,284.35 68.51,281.49 C 69.41,283.68 70.16,285.9 70.93,288.16 C 71.06,297.78 71.01,307.4 70.95,317.03 C 70.95,320.44 70.72,323.97 71.74,327.29 C 71.79,328.87 71.86,330.44 71.98,332.02 C 64.64,330.63 57.51,325.78 49.93,326.68 C 46.67,325.65 43.36,324.83 40.07,323.96 C 38.81,323.14 37.44,322.4 35.93,322.23 C 35.97,319.42 35.99,316.61 35.99,313.82 C 36,311.2 36,308.6 36,306 C 35.96,295.26 35.97,284.52 36.21,273.78 z"
       id="path272"
       style="opacity:1;fill:#147ec9" />
  </g>
  <g
     id="#bec3c9ff">
    <path
       d="M 146.14,287.12 C 154.29,278.87 167.42,282.44 175.02,273.99 C 174.7,275.31 174.4,276.65 174,277.96 C 168.58,287.41 154.91,285.14 149.34,294.38 C 143.64,304.11 144.38,320.02 154.09,326.97 C 153.36,326.94 151.89,326.88 151.16,326.86 L 150.28,326.7 C 146.17,325.86 141.98,326.12 137.87,326.67 C 137.5,322.89 136.99,319.11 137.02,315.3 C 136.81,308.97 135.37,302.45 140.35,297.42 C 141.19,294.26 142.59,291.18 145.58,289.52 C 145.72,288.92 146,287.72 146.14,287.12 z"
       id="path275"
       style="opacity:1;fill:#bec3c9" />
  </g>
  <g
     id="#999a9bff">
    <path
       d="M 178.32,274.85 C 179.21,275.53 180.08,276.25 180.95,276.97 C 180.94,277.69 180.92,279.12 180.91,279.84 C 179.77,280.43 178.66,281.07 177.59,281.79 C 175.06,289.76 177.16,297.85 178.21,305.84 C 182.14,306.67 186.26,306.99 189.92,308.75 C 190.01,308.39 190.18,307.68 190.26,307.32 L 190.63,306.64 C 191.06,307.74 191.53,308.82 192.02,309.91 C 192.28,311.01 192.54,312.12 192.78,313.24 C 192.06,312.72 191.35,312.18 190.64,311.64 C 185.47,309.36 179.69,310.21 174.92,313.08 C 172.54,311.66 170.19,310.18 167.82,308.75 C 172.42,297.73 176.41,286.72 178.32,274.85 z"
       id="path278"
       style="opacity:1;fill:#999a9b" />
  </g>
  <g
     id="#cdd8e3ff">
    <path
       d="M 74.28,278.16 C 74.92,278.13 76.22,278.07 76.87,278.04 C 77.62,279.33 78.37,280.61 79.12,281.9 C 79.81,281.96 81.19,282.07 81.88,282.12 C 81.97,282.77 82.16,284.06 82.26,284.71 C 84.11,286.16 85.83,287.76 87.48,289.44 C 93.3,291.89 96.14,299.45 103.37,298.67 C 106.13,301.18 109.39,303.19 113.42,301.8 C 113.64,306.95 119.13,306.57 123.01,306.94 C 122.32,308.25 121.61,309.55 120.89,310.84 C 118.17,310.97 115.5,311.3 112.83,311.78 C 105.32,309.12 99.04,303.92 91.36,301.6 C 90.76,300.55 90.17,299.51 89.57,298.48 C 82.53,296.98 79.67,286.15 72.98,286.81 C 73,284.94 73.07,283.06 73.13,281.19 C 73.52,280.18 73.91,279.17 74.28,278.16 z"
       id="path281"
       style="opacity:1;fill:#cdd8e3" />
  </g>
  <g
     id="#b7bdc2ff">
    <path
       d="M 149.34,294.38 C 154.91,285.14 168.58,287.41 174,277.96 C 171.13,290.64 151.1,285.43 149.28,299.38 C 144.26,306.61 150.31,314.37 150.1,322 C 152.43,323.77 155.23,324.7 158.11,325.11 C 159.21,325.3 160.31,325.53 161.4,325.81 C 159.46,325.42 157.21,325.42 155.81,327.05 C 155.38,327.03 154.52,326.99 154.09,326.97 C 144.38,320.02 143.64,304.11 149.34,294.38 z"
       id="path284"
       style="opacity:1;fill:#b7bdc2" />
  </g>
  <g
     id="#7cbae7ff">
    <path
       d="M 183.97,279.1 C 184.34,279.47 185.08,280.22 185.44,280.59 C 185.54,282.15 185.26,283.63 184.59,285.03 L 184.2,284.56 C 184.14,283.2 184.03,280.47 183.97,279.1 z"
       id="path287"
       style="opacity:1;fill:#7cbae7" />
  </g>
  <g
     id="#b9d6deff">
    <path
       d="M 265.18,282.04 C 264.55,280.75 264.81,279.72 265.95,278.94 C 265.93,279.64 265.89,281.03 265.87,281.72 L 265.18,282.04 z"
       id="path290"
       style="opacity:1;fill:#b9d6de" />
  </g>
  <g
     id="#818488ff">
    <path
       d="M 177.59,281.79 C 178.66,281.07 179.77,280.43 180.91,279.84 C 181.14,282.27 181.67,284.66 181.92,287.1 C 181.52,288.42 181.91,289.38 183.08,290 L 182.97,290.88 C 183.16,291.44 183.55,292.55 183.74,293.11 C 184.43,295.45 185.36,297.71 186.36,299.93 C 184.57,301.45 182.26,300.12 180.26,299.87 C 178.51,294 177.96,287.88 177.59,281.79 z"
       id="path293"
       style="opacity:1;fill:#818488" />
  </g>
  <g
     id="#b0b6d4ff">
    <path
       d="M 217.87,280.1 C 218.15,280.63 218.73,281.68 219.01,282.21 C 218.73,281.68 218.15,280.63 217.87,280.1 z"
       id="path296"
       style="opacity:1;fill:#b0b6d4" />
  </g>
  <g
     id="#3297ccff">
    <path
       d="M 185.44,280.59 C 192.02,284.26 198.1,288.78 204.75,292.3 C 210.57,294.38 214.84,288.69 220.32,287.95 C 212.46,295.11 200,300.67 191.79,291.18 C 191.37,291.37 190.53,291.75 190.11,291.94 C 190.06,291.23 189.97,289.8 189.93,289.08 C 188.55,288.74 187.19,288.4 185.81,288.09 C 185.44,287.05 185.03,286.03 184.59,285.03 C 185.26,283.63 185.54,282.15 185.44,280.59 z"
       id="path299"
       style="opacity:1;fill:#3297cc" />
  </g>
  <g
     id="#64aadfff">
    <path
       d="M 70.99,281.99 L 72,282 C 72.03,293.69 71.89,305.38 72.11,317.07 L 70.95,317.03 C 71.01,307.4 71.06,297.78 70.93,288.16 C 70.94,286.1 70.98,284.04 70.99,281.99 z"
       id="path302"
       style="opacity:1;fill:#64aadf" />
  </g>
  <g
     id="#8e9295ff">
    <path
       d="M 178.21,305.84 C 177.16,297.85 175.06,289.76 177.59,281.79 C 177.96,287.88 178.51,294 180.26,299.87 C 182.26,300.12 184.57,301.45 186.36,299.93 C 187.61,302.42 188.95,304.86 190.26,307.32 C 190.18,307.68 190.01,308.39 189.92,308.75 C 186.26,306.99 182.14,306.67 178.21,305.84 z"
       id="path305"
       style="opacity:1;fill:#8e9295" />
  </g>
  <g
     id="#b1d3daff">
    <path
       d="M 298.01,286.06 C 297.7,284.76 297.36,282.47 299.21,282.2 C 299.45,283.59 299.26,285.18 298.01,286.06 z"
       id="path308"
       style="opacity:1;fill:#b1d3da" />
  </g>
  <g
     id="#85c1eaff">
    <path
       d="M 218.94,283.17 C 219.24,283.58 219.83,284.4 220.13,284.81 L 219.36,285.03 C 219.26,284.57 219.04,283.64 218.94,283.17 z"
       id="path311"
       style="opacity:1;fill:#85c1ea" />
  </g>
  <g
     id="#a8aeb3ff">
    <path
       d="M 154.14,310.51 C 153.5,297.24 168.15,293.69 174.05,284.04 C 170.77,294.58 156.44,296.71 155.14,308.86 C 159.11,314.04 160.27,320.63 163.98,325.98 C 163.53,326 162.62,326.02 162.17,326.03 L 161.4,325.81 C 160.31,325.53 159.21,325.3 158.11,325.11 C 159.74,320.11 158.02,314.06 154.14,310.51 z"
       id="path314"
       style="opacity:1;fill:#a8aeb3" />
  </g>
  <g
     id="#c8d2dcff">
    <path
       d="M 72.98,286.81 C 79.67,286.15 82.53,296.98 89.57,298.48 C 90.17,299.51 90.76,300.55 91.36,301.6 C 99.04,303.92 105.32,309.12 112.83,311.78 C 115.5,311.3 118.17,310.97 120.89,310.84 C 121.61,309.55 122.32,308.25 123.01,306.94 C 124.54,303.9 126.3,300.99 128.11,298.12 C 128.78,298.04 130.1,297.88 130.77,297.8 C 133,294.65 135.5,291.7 137.91,288.7 C 139.43,294.43 132.98,299.18 133.33,304.79 C 134.56,308.29 135.76,311.81 137.02,315.3 C 136.99,319.11 137.5,322.89 137.87,326.67 C 141.98,326.12 146.17,325.86 150.28,326.7 C 149.73,326.84 148.62,327.11 148.07,327.24 C 146.43,326.86 143.93,326.16 142.93,328.03 C 142.41,328.07 141.38,328.15 140.86,328.2 C 139.37,328.33 136.38,328.61 134.89,328.75 C 132.91,328.83 130.93,328.91 128.96,329.03 C 125.35,328.46 121.74,328.06 118.11,327.82 L 118,329 C 119.67,329 121.33,328.99 123,329 L 123.04,329.88 C 121,329.88 118.96,329.96 116.92,330.05 C 113.97,329.5 111.03,329.06 108.04,328.83 C 108.25,329.22 108.66,330.01 108.87,330.4 L 109.18,331.12 C 108.35,331.13 106.69,331.15 105.86,331.17 C 104.55,331.01 103.23,330.99 101.92,331.11 C 100.67,330.73 98.42,330.28 98.07,332.07 C 96.69,332.04 95.32,332.02 93.95,332.01 L 93.01,331.97 L 92.16,331.85 C 89.45,331.39 86.76,331.11 84.04,330.84 C 84.24,331.23 84.64,332.01 84.84,332.4 L 85.13,333.1 C 84.29,333.09 82.61,333.08 81.77,333.07 L 80.93,332.8 C 78.93,331.85 74.75,330.01 74.25,333.16 L 74.16,333.97 C 73.69,333.89 72.74,333.74 72.27,333.67 C 72.19,333.26 72.05,332.43 71.98,332.02 C 71.86,330.44 71.79,328.87 71.74,327.29 C 71.85,325.54 72.09,322.03 72.2,320.28 C 74.2,309.3 72.43,297.92 72.98,286.81 z"
       id="path317"
       style="opacity:1;fill:#c8d2dc" />
  </g>
  <g
     id="#a8acb0ff">
    <path
       d="M 181.92,287.1 C 183.22,287.58 183.61,288.55 183.08,290 C 181.91,289.38 181.52,288.42 181.92,287.1 z"
       id="path320"
       style="opacity:1;fill:#a8acb0" />
  </g>
  <g
     id="#64aadeff">
    <path
       d="M 185.81,288.09 C 187.19,288.4 188.55,288.74 189.93,289.08 C 189.97,289.8 190.06,291.23 190.11,291.94 C 190.53,291.75 191.37,291.37 191.79,291.18 C 200,300.67 212.46,295.11 220.32,287.95 L 221.22,287.69 C 221.92,288.48 222.65,289.25 223.39,290.01 C 215.25,298.06 202.52,300.08 192.13,304.13 C 189.52,299.01 186.59,293.87 185.81,288.09 z"
       id="path323"
       style="opacity:1;fill:#64aade" />
  </g>
  <g
     id="#3699cdff">
    <path
       d="M 255.71,294.59 C 258.21,292.48 260.42,290.05 262.72,287.73 L 263.38,287.98 C 263.37,290.21 262.89,293.48 265.51,294.45 C 272.57,297.28 277.38,303.58 284.27,306.79 C 284.64,306.62 285.37,306.27 285.74,306.09 C 286.6,306.8 287.45,307.52 288.32,308.25 C 287.96,308.63 287.25,309.4 286.9,309.79 C 285.52,311.71 284.02,313.55 282.28,315.16 C 276.16,308.1 267.05,304.64 260.49,298.41 C 259.46,298.19 258.44,297.97 257.41,297.77 C 256.86,296.69 256.3,295.64 255.71,294.59 z"
       id="path326"
       style="opacity:1;fill:#3699cd" />
  </g>
  <g
     id="#a3d4fbff">
    <path
       d="M 297.06,289.96 C 297.3,289.43 297.77,288.38 298.01,287.85 C 297.97,288.31 297.9,289.24 297.87,289.71 L 297.06,289.96 z"
       id="path329"
       style="opacity:1;fill:#a3d4fb" />
  </g>
  <g
     id="#b0b6bcff">
    <path
       d="M 182.97,290.88 C 183.16,291.44 183.55,292.55 183.74,293.11 C 183.55,292.55 183.16,291.44 182.97,290.88 z"
       id="path332"
       style="opacity:1;fill:#b0b6bc" />
  </g>
  <g
     id="#60a8deff">
    <path
       d="M 225.75,295.65 C 226.1,295.15 226.8,294.15 227.16,293.65 C 228.17,294.44 229.24,295.17 230.32,295.86 C 227.04,298.54 227.13,302.99 226.38,306.82 C 227.56,319.34 237.55,325.08 247.92,329.32 C 247.65,329.72 247.11,330.51 246.84,330.91 C 246.67,331.18 246.35,331.73 246.19,332 C 244.5,331.94 242.8,331.94 241.11,331.91 C 230.02,329.88 225.35,320.21 221.17,310.99 C 221.99,305.67 224.56,300.86 225.75,295.65 z"
       id="path335"
       style="opacity:1;fill:#60a8de" />
  </g>
  <g
     id="#b7bec4ff">
    <path
       d="M 241.07,295.02 C 243.76,294.75 246.45,294.5 249.15,294.37 C 248.53,294.75 247.28,295.5 246.66,295.87 C 243.62,295.91 240.64,295.99 237.62,295.85 C 238.76,295.53 239.91,295.25 241.07,295.02 z"
       id="path338"
       style="opacity:1;fill:#b7bec4" />
  </g>
  <g
     id="#b1d7f1ff">
    <path
       d="M 295.14,294.22 L 295.94,293.99 C 295.91,294.43 295.86,295.31 295.84,295.75 L 295.06,295.96 C 295.08,295.52 295.12,294.65 295.14,294.22 z"
       id="path341"
       style="opacity:1;fill:#b1d7f1" />
  </g>
  <g
     id="#71b2e2ff">
    <path
       d="M 218.15,314.88 C 220.2,308.42 220.99,300.82 225.75,295.65 C 224.56,300.86 221.99,305.67 221.17,310.99 C 225.35,320.21 230.02,329.88 241.11,331.91 C 236.64,332.2 232.28,331.36 228.05,330.05 C 226.85,323.92 222.25,319.3 218.15,314.88 z"
       id="path344"
       style="opacity:1;fill:#71b2e2" />
  </g>
  <g
     id="#3397ccff">
    <path
       d="M 226.38,306.82 C 227.13,302.99 227.04,298.54 230.32,295.86 L 230.94,296.2 C 231.18,296.32 231.66,296.57 231.9,296.7 C 232.46,296.97 233.57,297.51 234.13,297.78 C 233.66,297.86 232.71,298.03 232.23,298.12 C 230.89,303.24 230.8,308.97 233.09,313.84 C 239.75,319.9 248.11,323.59 255.5,328.61 C 256.19,328.78 257.55,329.13 258.24,329.31 C 257.12,329.59 255.99,329.84 254.85,330.04 C 253.58,329.88 251.61,329.49 251.03,331.05 C 249.64,330.71 248.24,330.66 246.84,330.91 C 247.11,330.51 247.65,329.72 247.92,329.32 C 237.55,325.08 227.56,319.34 226.38,306.82 z"
       id="path347"
       style="opacity:1;fill:#3397cc" />
  </g>
  <g
     id="#80bde9ff">
    <path
       d="M 252.02,296.81 C 252.27,296.67 252.76,296.39 253.01,296.25 L 252.64,296.74 L 252.02,296.81 z"
       id="path350"
       style="opacity:1;fill:#80bde9" />
  </g>
  <g
     id="#65abdfff">
    <path
       d="M 236.08,297.86 C 236.54,297.92 237.47,298.05 237.93,298.11 L 237.79,298.88 C 237.31,298.82 236.35,298.69 235.87,298.63 L 236.08,297.86 z"
       id="path353"
       style="opacity:1;fill:#65abdf" />
  </g>
  <g
     id="#a5d3f1ff">
    <path
       d="M 237.93,298.11 C 240.97,298.19 243.98,298.12 247.04,298.07 L 246.94,299.03 C 243.87,298.9 240.84,298.88 237.79,298.88 L 237.93,298.11 z"
       id="path356"
       style="opacity:1;fill:#a5d3f1" />
  </g>
  <g
     id="#177fc9ff">
    <path
       d="M 235.63,299.47 L 235.87,298.63 C 236.35,298.69 237.31,298.82 237.79,298.88 C 240.84,298.88 243.87,298.9 246.94,299.03 C 247.37,299.08 248.23,299.19 248.66,299.24 C 249.18,300.12 249.7,301 250.22,301.89 C 251.38,301.99 252.54,302.11 253.7,302.23 C 257.1,307.33 262.88,309.91 267.89,313.12 C 267.93,313.82 268.02,315.23 268.07,315.93 C 269.35,315.98 270.64,316.03 271.93,316.08 C 271.98,316.75 272.09,318.1 272.15,318.77 C 273.58,319.01 275.02,319.26 276.45,319.58 C 276.13,319.93 275.48,320.63 275.16,320.98 C 274.88,321.18 274.32,321.58 274.05,321.78 C 273.55,322.11 272.56,322.77 272.07,323.1 L 271.4,323.28 L 271.11,323.87 C 269.02,324.96 266.91,326.02 264.78,327.02 C 264.32,327.1 263.41,327.26 262.96,327.34 C 255.08,317.44 232.94,315.58 235.63,299.47 z"
       id="path359"
       style="opacity:1;fill:#177fc9" />
  </g>
  <g
     id="#95caefff">
    <path
       d="M 193.65,306.44 C 201.53,304 211.67,296.21 218.92,303.23 C 217.5,309.06 215.26,314.81 215.74,320.95 C 217.53,322 221.12,324.09 222.92,325.14 C 222.85,325.94 222.73,327.54 222.66,328.34 C 219.36,327.06 216.09,325.67 212.96,324.01 C 212.85,319.22 213.91,314.58 215.04,309.97 C 211.95,307.6 208.62,305.58 205.08,303.98 C 201.78,305.44 198.4,306.7 195.07,308.07 C 194.82,307.81 194.31,307.28 194.06,307.02 L 193.65,306.44 z"
       id="path362"
       style="opacity:1;fill:#95caef" />
  </g>
  <g
     id="#aad9f6ff">
    <path
       d="M 195.07,308.07 C 198.4,306.7 201.78,305.44 205.08,303.98 C 208.62,305.58 211.95,307.6 215.04,309.97 C 213.91,314.58 212.85,319.22 212.96,324.01 C 212.54,323.74 211.7,323.2 211.29,322.94 C 210.5,322.38 209.73,321.81 208.97,321.24 C 212.51,315.5 205.94,312.39 201.62,310.58 C 200.05,310.44 198.49,310.29 196.93,310.19 C 196.32,309.47 195.7,308.77 195.07,308.07 z"
       id="path365"
       style="opacity:1;fill:#aad9f6" />
  </g>
  <g
     id="#b3d8dfff">
    <path
       d="M 290.18,304.1 L 290.99,304.02 C 290.91,304.44 290.73,305.28 290.65,305.7 L 289.83,305.74 C 289.92,305.33 290.1,304.51 290.18,304.1 z"
       id="path368"
       style="opacity:1;fill:#b3d8df" />
  </g>
  <g
     id="#a8b9bdff">
    <path
       d="M 35,305.99 L 36,306 C 36,308.6 36,311.2 35.99,313.82 L 35.1,314.09 L 35.08,313.1 C 35.06,311.76 35.04,310.42 35.03,309.08 C 35.03,308.31 35.01,306.76 35,305.99 z"
       id="path371"
       style="opacity:1;fill:#a8b9bd" />
  </g>
  <g
     id="#f1f4f5ff">
    <path
       d="M 191.02,305.89 C 192.03,306.26 193.04,306.63 194.06,307.02 C 194.31,307.28 194.82,307.81 195.07,308.07 C 195.7,308.77 196.32,309.47 196.93,310.19 C 200.18,314.64 204.61,317.95 208.97,321.24 C 209.73,321.81 210.5,322.38 211.29,322.94 C 210.43,323.72 209.56,324.48 208.66,325.22 L 208.04,324.85 C 207.82,324.71 207.38,324.44 207.16,324.3 C 206.72,324 205.84,323.39 205.4,323.08 C 200.3,319.39 196.18,314.58 192.02,309.91 C 191.53,308.82 191.06,307.74 190.63,306.64 L 191.02,305.89 z"
       id="path374"
       style="opacity:1;fill:#f1f4f5" />
  </g>
  <g
     id="#8cc5edff">
    <path
       d="M 286.9,309.79 C 287.25,309.4 287.96,308.63 288.32,308.25 C 288.17,308.63 287.87,309.41 287.72,309.8 L 286.9,309.79 z"
       id="path377"
       style="opacity:1;fill:#8cc5ed" />
  </g>
  <g
     id="#e5e7e9ff">
    <path
       d="M 11.46,311.47 C 19.28,310.63 27.46,311.64 35.03,309.08 C 35.04,310.42 35.06,311.76 35.08,313.1 C 27.53,310.46 19.79,314.13 12.11,314.13 C 12.05,314.89 11.92,316.4 11.85,317.16 C 8.28,315.99 4.82,314.49 1.67,312.42 C 4.93,312.14 8.25,312.18 11.46,311.47 z"
       id="path380"
       style="opacity:1;fill:#e5e7e9" />
  </g>
  <g
     id="#c9e2f2ff">
    <path
       d="M 196.93,310.19 C 198.49,310.29 200.05,310.44 201.62,310.58 C 205.94,312.39 212.51,315.5 208.97,321.24 C 204.61,317.95 200.18,314.64 196.93,310.19 z"
       id="path383"
       style="opacity:1;fill:#c9e2f2" />
  </g>
  <g
     id="#d6d9ddff">
    <path
       d="M 12.11,314.13 C 19.79,314.13 27.53,310.46 35.08,313.1 L 35.1,314.09 L 35.11,315.03 C 28.61,313.68 20.94,313.31 14.81,316.37 C 16.43,317.01 18.05,317.67 19.61,318.47 L 20.04,319.06 C 17.27,318.61 14.54,317.94 11.85,317.16 C 11.92,316.4 12.05,314.89 12.11,314.13 z"
       id="path386"
       style="opacity:1;fill:#d6d9dd" />
  </g>
  <g
     id="#c9cccfff">
    <path
       d="M 14.81,316.37 C 20.94,313.31 28.61,313.68 35.11,315.03 C 35.13,315.49 35.17,316.42 35.19,316.89 C 31.11,315.44 26.8,316.95 22.64,317.35 C 24.61,320.39 28.39,321.15 31.39,322.79 C 27.89,322.85 24.72,320.96 21.23,320.77 C 20.93,320.34 20.34,319.49 20.04,319.06 L 19.61,318.47 C 18.05,317.67 16.43,317.01 14.81,316.37 z"
       id="path389"
       style="opacity:1;fill:#c9cccf" />
  </g>
  <g
     id="#8a8f92ff">
    <path
       d="M 35.1,314.09 L 35.99,313.82 C 35.99,316.61 35.97,319.42 35.93,322.23 L 35.86,323.04 C 35.7,321.5 35.36,318.43 35.19,316.89 C 35.17,316.42 35.13,315.49 35.11,315.03 L 35.1,314.09 z"
       id="path392"
       style="opacity:1;fill:#8a8f92" />
  </g>
  <g
     id="#e9eef1ff">
    <path
       d="M 289.01,314.01 C 289.66,314.65 289.66,314.65 289.01,314.01 z"
       id="path395"
       style="opacity:1;fill:#e9eef1" />
  </g>
  <g
     id="#acb1b6ff">
    <path
       d="M 22.64,317.35 C 26.8,316.95 31.11,315.44 35.19,316.89 C 35.36,318.43 35.7,321.5 35.86,323.04 C 36.06,324.53 37.77,324.87 38.98,325.17 L 39.38,325.95 C 38.45,326.01 36.58,326.13 35.65,326.19 C 35.5,325.83 35.2,325.11 35.05,324.74 C 34.77,323.42 33.31,323.06 32.16,322.96 L 31.39,322.79 C 28.39,321.15 24.61,320.39 22.64,317.35 z"
       id="path398"
       style="opacity:1;fill:#acb1b6" />
  </g>
  <g
     id="#3197ccff">
    <path
       d="M 70.95,317.03 L 72.11,317.07 C 72.13,317.87 72.18,319.48 72.2,320.28 C 72.09,322.03 71.85,325.54 71.74,327.29 C 70.72,323.97 70.95,320.44 70.95,317.03 z"
       id="path401"
       style="opacity:1;fill:#3197cc" />
  </g>
  <g
     id="#7fbce9ff">
    <path
       d="M 278.85,318.21 C 279.05,318.03 279.47,317.67 279.67,317.49 C 279.47,317.67 279.05,318.03 278.85,318.21 z"
       id="path404"
       style="opacity:1;fill:#7fbce9" />
  </g>
  <g
     id="#87b9e1ff">
    <path
       d="M 275.16,320.98 C 275.48,320.63 276.13,319.93 276.45,319.58 L 277.34,319.79 C 276.79,320.09 275.7,320.68 275.16,320.98 z"
       id="path407"
       style="opacity:1;fill:#87b9e1" />
  </g>
  <g
     id="#82beeaff">
    <path
       d="M 274.05,321.78 C 274.32,321.58 274.88,321.18 275.16,320.98 C 274.88,321.18 274.32,321.58 274.05,321.78 z"
       id="path410"
       style="opacity:1;fill:#82beea" />
    <path
       d="M 271.4,323.28 L 272.07,323.1 L 271.75,323.71 L 271.11,323.87 L 271.4,323.28 z"
       id="path412"
       style="opacity:1;fill:#82beea" />
  </g>
  <g
     id="#dee2e7ff">
    <path
       d="M 276.7,323.8 C 278.09,322.81 279.55,321.92 281.06,321.11 L 281.29,321.62 L 281.84,321.37 L 281.65,320.79 C 285.82,322.52 289.65,325.16 292.4,328.78 C 290.03,329.3 285.31,330.34 282.95,330.86 C 283.24,330.6 283.82,330.09 284.11,329.83 C 282.61,326.82 279.46,325.39 276.7,323.8 z"
       id="path415"
       style="opacity:1;fill:#dee2e7" />
  </g>
  <g
     id="#4b698eff">
    <path
       d="M 35.93,322.23 C 37.44,322.4 38.81,323.14 40.07,323.96 C 39.79,324.26 39.25,324.87 38.98,325.17 C 37.77,324.87 36.06,324.53 35.86,323.04 L 35.93,322.23 z"
       id="path418"
       style="opacity:1;fill:#4b698e" />
  </g>
  <g
     id="#dadcdeff">
    <path
       d="M 32.16,322.96 C 33.31,323.06 34.77,323.42 35.05,324.74 C 33.97,325.79 31.6,324.38 32.16,322.96 z"
       id="path421"
       style="opacity:1;fill:#dadcde" />
  </g>
  <g
     id="#6d6e6fff">
    <path
       d="M 189.9,323.93 C 191.84,322.23 194.24,321.94 197.08,323.06 C 195.18,324.8 192.79,325.09 189.9,323.93 z"
       id="path424"
       style="opacity:1;fill:#6d6e6f" />
  </g>
  <g
     id="#2d2e30ff">
    <path
       d="M 197.08,323.06 C 199.85,323.05 202.62,323.06 205.4,323.08 C 193.58,328.05 178.61,325.23 165.76,327.78 C 162.8,327.87 159.86,328.12 156.91,328.22 C 155.28,327.92 152.93,327.29 151.86,329.02 C 149.94,328.84 148.02,329.05 146.11,329.28 C 144.33,329.06 142.57,328.72 140.86,328.2 C 141.38,328.15 142.41,328.07 142.93,328.03 C 144.63,328.13 146.33,328.09 148.02,327.85 C 149.39,328.39 150.44,328.06 151.16,326.86 C 151.89,326.88 153.36,326.94 154.09,326.97 C 154.52,326.99 155.38,327.03 155.81,327.05 C 157.28,326.94 160.22,326.73 161.68,326.62 L 162.17,326.03 C 162.62,326.02 163.53,326 163.98,325.98 C 165.32,325.96 166.67,325.97 168.01,326.01 C 169.5,325.75 172.48,325.21 173.97,324.94 C 175.22,324.94 176.46,324.92 177.71,324.88 C 180.58,324.79 183.53,325.05 186.32,324.16 C 187.51,324.09 188.7,324.01 189.9,323.93 C 192.79,325.09 195.18,324.8 197.08,323.06 z"
       id="path427"
       style="opacity:1;fill:#2d2e30" />
  </g>
  <g
     id="#676768ff">
    <path
       d="M 205.4,323.08 C 205.84,323.39 206.72,324 207.16,324.3 C 207.38,324.44 207.82,324.71 208.04,324.85 L 208.66,325.22 C 209,325.42 209.68,325.83 210.02,326.04 L 210.26,326.68 L 210.9,326.91 C 211.42,327.17 212.45,327.7 212.97,327.96 C 212.67,328.45 212.07,329.42 211.77,329.91 C 196.44,329.04 181.12,327.9 165.76,327.78 C 178.61,325.23 193.58,328.05 205.4,323.08 z"
       id="path430"
       style="opacity:1;fill:#676768" />
  </g>
  <g
     id="#e1e3e6ff">
    <path
       d="M 211.29,322.94 C 211.7,323.2 212.54,323.74 212.96,324.01 C 216.09,325.67 219.36,327.06 222.66,328.34 C 224.43,328.98 226.23,329.54 228.05,330.05 C 232.28,331.36 236.64,332.2 241.11,331.91 C 242.8,331.94 244.5,331.94 246.19,332 C 247.78,332.05 249.93,332.58 251.03,331.05 C 252.27,331.56 254.33,331.57 254.85,330.04 C 255.99,329.84 257.12,329.59 258.24,329.31 C 258.66,329.2 259.51,328.97 259.93,328.86 C 260.26,329.5 260.92,330.79 261.24,331.43 C 259.08,332.19 256.9,332.92 254.75,333.76 C 256.2,333.87 257.66,333.97 259.11,334.04 C 256.7,339.27 250.29,335.67 245.99,336.26 C 233.2,337.47 220.31,334.84 207.57,336.56 C 207.2,336.51 206.47,336.4 206.1,336.34 C 203.49,336.77 200.92,335.71 198.88,334.13 C 199.61,334.15 201.05,334.18 201.78,334.2 C 212.55,335.54 223.44,335.11 234.27,334.72 C 231.96,334.02 229.61,333.45 227.24,333.02 C 225.62,332.7 224.01,332.37 222.39,332.1 C 219.26,330.69 216.05,329.48 212.97,327.96 C 212.45,327.7 211.42,327.17 210.9,326.91 L 210.67,326.28 L 210.02,326.04 C 209.68,325.83 209,325.42 208.66,325.22 C 209.56,324.48 210.43,323.72 211.29,322.94 z"
       id="path433"
       style="opacity:1;fill:#e1e3e6" />
  </g>
  <g
     id="#323f4cff">
    <path
       d="M 38.98,325.17 C 39.25,324.87 39.79,324.26 40.07,323.96 C 43.36,324.83 46.67,325.65 49.93,326.68 C 57.26,329.35 64.75,331.57 72.27,333.67 C 72.74,333.74 73.69,333.89 74.16,333.97 C 74.88,333.97 76.33,333.98 77.05,333.98 C 77.61,334.27 78.73,334.84 79.29,335.12 C 76.12,335.07 72.95,335 69.78,335.17 C 69.33,334.92 68.42,334.41 67.97,334.16 C 66.08,333.28 64.02,332.68 61.93,333.08 C 61.44,332.72 60.47,331.99 59.98,331.62 C 59.45,331.51 58.38,331.27 57.85,331.15 L 57.06,330.75 C 56.18,329.61 55.14,329.42 53.92,330.16 C 53.58,328.65 51.59,328.33 50.39,328.99 C 47.82,327.29 44.77,326.71 41.82,326.03 L 41.04,325.65 C 40.52,325.53 39.49,325.29 38.98,325.17 z"
       id="path436"
       style="opacity:1;fill:#323f4c" />
  </g>
  <g
     id="#676f70ff">
    <path
       d="M 177.71,324.88 C 180.48,323.9 183.41,324.2 186.32,324.16 C 183.53,325.05 180.58,324.79 177.71,324.88 z"
       id="path439"
       style="opacity:1;fill:#676f70" />
  </g>
  <g
     id="#d3d8ddff">
    <path
       d="M 273.65,325.81 C 274.68,325.16 275.69,324.49 276.7,323.8 C 279.46,325.39 282.61,326.82 284.11,329.83 C 283.82,330.09 283.24,330.6 282.95,330.86 C 281.41,331.99 279.45,332.12 277.69,332.67 C 275.94,332.77 272.43,332.98 270.67,333.08 C 272.96,331.91 275.26,330.75 277.37,329.26 C 275.97,328.71 274.56,328.19 273.13,327.7 C 273.26,327.23 273.52,326.29 273.65,325.81 z"
       id="path442"
       style="opacity:1;fill:#d3d8dd" />
  </g>
  <g
     id="#dee7eeff">
    <path
       d="M 35.05,324.74 C 35.2,325.11 35.5,325.83 35.65,326.19 C 36.84,329.55 35.07,335.93 39.74,337.28 C 49.28,341.01 59.16,344.34 68.62,347.6 C 69.16,347.7 70.24,347.89 70.78,347.99 C 71.08,346.88 71.39,345.77 71.69,344.67 C 71.89,346.8 71.98,348.94 72.02,351.09 C 59.66,349.74 49.26,341.89 37.1,339.78 C 35.31,334.98 34.89,329.82 35.05,324.74 z"
       id="path445"
       style="opacity:1;fill:#dee7ee" />
  </g>
  <g
     id="#6e7071ff">
    <path
       d="M 38.98,325.17 C 39.49,325.29 40.52,325.53 41.04,325.65 C 40.62,325.73 39.8,325.88 39.38,325.95 L 38.98,325.17 z"
       id="path448"
       style="opacity:1;fill:#6e7071" />
    <path
       d="M 57.85,331.15 C 58.38,331.27 59.45,331.51 59.98,331.62 C 59.5,331.7 58.54,331.85 58.06,331.92 L 57.85,331.15 z"
       id="path450"
       style="opacity:1;fill:#6e7071" />
    <path
       d="M 67.97,334.16 C 68.42,334.41 69.33,334.92 69.78,335.17 C 69.3,335.09 68.34,334.94 67.86,334.86 L 67.97,334.16 z"
       id="path452"
       style="opacity:1;fill:#6e7071" />
  </g>
  <g
     id="#717274ff">
    <path
       d="M 168.01,326.01 C 169.5,325.75 172.48,325.21 173.97,324.94 C 172.48,325.21 169.5,325.75 168.01,326.01 z"
       id="path455"
       style="opacity:1;fill:#717274" />
  </g>
  <g
     id="#cbdfedff">
    <path
       d="M 35.65,326.19 C 36.58,326.13 38.45,326.01 39.38,325.95 C 39.14,327.47 41.74,328.5 42.19,326.76 C 44.64,328.3 47.59,328.62 50.39,328.99 C 50.56,329.31 50.9,329.96 51.06,330.28 C 51.82,331.51 52.82,331.72 54.08,330.91 C 54.78,332.33 56.75,332.52 58.06,331.92 C 58.59,333.47 60.63,333.5 61.93,333.08 C 63.6,334.31 65.74,335.44 67.86,334.86 C 71.65,335.42 75.46,335.78 79.29,335.94 L 80.14,336.34 C 77.31,336.92 73.33,335.89 71.91,339.09 C 71.84,340.94 72.07,342.83 71.69,344.67 C 71.39,345.77 71.08,346.88 70.78,347.99 C 70.24,347.89 69.16,347.7 68.62,347.6 C 59.16,344.34 49.28,341.01 39.74,337.28 C 35.07,335.93 36.84,329.55 35.65,326.19 z"
       id="path458"
       style="opacity:1;fill:#cbdfed" />
  </g>
  <g
     id="#a1b1b3ff">
    <path
       d="M 39.38,325.95 C 39.8,325.88 40.62,325.73 41.04,325.65 L 41.82,326.03 L 42.19,326.76 C 41.74,328.5 39.14,327.47 39.38,325.95 z"
       id="path461"
       style="opacity:1;fill:#a1b1b3" />
  </g>
  <g
     id="#7e8082ff">
    <path
       d="M 41.82,326.03 C 44.77,326.71 47.82,327.29 50.39,328.99 C 47.59,328.62 44.64,328.3 42.19,326.76 L 41.82,326.03 z"
       id="path464"
       style="opacity:1;fill:#7e8082" />
  </g>
  <g
     id="#4992c6ff">
    <path
       d="M 49.93,326.68 C 57.51,325.78 64.64,330.63 71.98,332.02 C 72.05,332.43 72.19,333.26 72.27,333.67 C 64.75,331.57 57.26,329.35 49.93,326.68 z"
       id="path467"
       style="opacity:1;fill:#4992c6" />
  </g>
  <g
     id="#7c7f81ff">
    <path
       d="M 155.81,327.05 C 157.21,325.42 159.46,325.42 161.4,325.81 L 162.17,326.03 L 161.68,326.62 C 160.22,326.73 157.28,326.94 155.81,327.05 z"
       id="path470"
       style="opacity:1;fill:#7c7f81" />
  </g>
  <g
     id="#a2a7acff">
    <path
       d="M 210.02,326.04 L 210.67,326.28 L 210.9,326.91 L 210.26,326.68 L 210.02,326.04 z"
       id="path473"
       style="opacity:1;fill:#a2a7ac" />
  </g>
  <g
     id="#c2c6c9ff">
    <path
       d="M 261.24,331.43 C 265.54,329.92 269.58,327.82 273.65,325.81 C 273.52,326.29 273.26,327.23 273.13,327.7 C 274.56,328.19 275.97,328.71 277.37,329.26 C 275.26,330.75 272.96,331.91 270.67,333.08 C 267.96,333.45 264.05,331.78 262,334.1 C 261.28,334.09 259.83,334.06 259.11,334.04 C 257.66,333.97 256.2,333.87 254.75,333.76 C 256.9,332.92 259.08,332.19 261.24,331.43 z"
       id="path476"
       style="opacity:1;fill:#c2c6c9" />
  </g>
  <g
     id="#9fa4a8ff">
    <path
       d="M 142.93,328.03 C 143.93,326.16 146.43,326.86 148.07,327.24 L 148.02,327.85 C 146.33,328.09 144.63,328.13 142.93,328.03 z"
       id="path479"
       style="opacity:1;fill:#9fa4a8" />
  </g>
  <g
     id="#5b6d6eff">
    <path
       d="M 148.07,327.24 C 148.62,327.11 149.73,326.84 150.28,326.7 L 151.16,326.86 C 150.44,328.06 149.39,328.39 148.02,327.85 L 148.07,327.24 z"
       id="path482"
       style="opacity:1;fill:#5b6d6e" />
  </g>
  <g
     id="#8cc5ecff">
    <path
       d="M 262.96,327.34 C 263.41,327.26 264.32,327.1 264.78,327.02 L 264.77,327.82 C 264.35,327.89 263.51,328.04 263.1,328.11 L 262.96,327.34 z"
       id="path485"
       style="opacity:1;fill:#8cc5ec" />
  </g>
  <g
     id="#dfe5ebff">
    <path
       d="M 118.11,327.82 C 121.74,328.06 125.35,328.46 128.96,329.03 C 126.97,328.99 124.99,329.01 123,329 C 121.33,328.99 119.67,329 118,329 L 118.11,327.82 z"
       id="path488"
       style="opacity:1;fill:#dfe5eb" />
  </g>
  <g
     id="#6c7173ff">
    <path
       d="M 134.89,328.75 C 136.38,328.61 139.37,328.33 140.86,328.2 C 142.57,328.72 144.33,329.06 146.11,329.28 L 146.08,329.67 C 144.13,329.86 142.18,329.91 140.22,329.83 C 138.48,329.3 136.69,328.95 134.89,328.75 z"
       id="path491"
       style="opacity:1;fill:#6c7173" />
  </g>
  <g
     id="#666666ff">
    <path
       d="M 151.86,329.02 C 152.93,327.29 155.28,327.92 156.91,328.22 L 156.9,328.79 C 155.25,329.12 153.53,329.39 151.86,329.02 z"
       id="path494"
       style="opacity:1;fill:#666666" />
  </g>
  <g
     id="#818588ff">
    <path
       d="M 156.91,328.22 C 159.86,328.12 162.8,327.87 165.76,327.78 C 181.12,327.9 196.44,329.04 211.77,329.91 C 212.07,329.42 212.67,328.45 212.97,327.96 C 216.05,329.48 219.26,330.69 222.39,332.1 C 211.69,333.36 200.85,331.59 190.16,330.83 L 189.26,330.73 C 183.21,329.9 177.15,328.99 171.03,328.95 C 166.31,328.91 161.61,328.82 156.9,328.79 L 156.91,328.22 z"
       id="path497"
       style="opacity:1;fill:#818588" />
  </g>
  <g
     id="#808284ff">
    <path
       d="M 50.39,328.99 C 51.59,328.33 53.58,328.65 53.92,330.16 C 53.21,330.19 51.78,330.25 51.06,330.28 C 50.9,329.96 50.56,329.31 50.39,328.99 z"
       id="path500"
       style="opacity:1;fill:#808284" />
  </g>
  <g
     id="#e4eaefff">
    <path
       d="M 108.04,328.83 C 111.03,329.06 113.97,329.5 116.92,330.05 C 115.23,330.04 113.53,330.04 111.84,330.01 C 111.1,330.11 109.61,330.3 108.87,330.4 C 108.66,330.01 108.25,329.22 108.04,328.83 z"
       id="path503"
       style="opacity:1;fill:#e4eaef" />
  </g>
  <g
     id="#737576ff">
    <path
       d="M 123,329 C 124.99,329.01 126.97,328.99 128.96,329.03 C 130.3,329.54 131.68,329.99 133.1,330.26 L 133.1,330.72 C 131.06,330.88 129.02,330.96 126.99,330.93 C 125.7,330.48 124.38,330.11 123.04,329.88 L 123,329 z"
       id="path506"
       style="opacity:1;fill:#737576" />
  </g>
  <g
     id="#333338ff">
    <path
       d="M 128.96,329.03 C 130.93,328.91 132.91,328.83 134.89,328.75 C 136.69,328.95 138.48,329.3 140.22,329.83 C 139.64,329.86 138.48,329.94 137.91,329.97 C 136.3,329.94 134.69,330.05 133.1,330.26 C 131.68,329.99 130.3,329.54 128.96,329.03 z"
       id="path509"
       style="opacity:1;fill:#333338" />
    <path
       d="M 116.92,330.05 C 118.96,329.96 121,329.88 123.04,329.88 C 124.38,330.11 125.7,330.48 126.99,330.93 C 125.36,330.83 123.74,331.02 122.13,331.26 C 120.34,331.13 118.57,330.78 116.92,330.05 z"
       id="path511"
       style="opacity:1;fill:#333338" />
  </g>
  <g
     id="#949799ff">
    <path
       d="M 146.11,329.28 C 148.02,329.05 149.94,328.84 151.86,329.02 L 152.24,329.48 C 150.45,330.52 147.96,330.45 146.08,329.67 L 146.11,329.28 z"
       id="path514"
       style="opacity:1;fill:#949799" />
  </g>
  <g
     id="#aeb4b8ff">
    <path
       d="M 151.86,329.02 C 153.53,329.39 155.25,329.12 156.9,328.79 C 161.61,328.82 166.31,328.91 171.03,328.95 L 171.04,329.96 C 164.85,329.48 158.28,331.04 152.24,329.48 L 151.86,329.02 z"
       id="path517"
       style="opacity:1;fill:#aeb4b8" />
  </g>
  <g
     id="#9da1a4ff">
    <path
       d="M 171.03,328.95 C 177.15,328.99 183.21,329.9 189.26,330.73 C 183.17,331.09 177.07,330.91 171.04,329.96 L 171.03,328.95 z"
       id="path520"
       style="opacity:1;fill:#9da1a4" />
  </g>
  <g
     id="#b2b9beff">
    <path
       d="M 51.06,330.28 C 51.78,330.25 53.21,330.19 53.92,330.16 L 54.08,330.91 C 52.82,331.72 51.82,331.51 51.06,330.28 z"
       id="path523"
       style="opacity:1;fill:#b2b9be" />
  </g>
  <g
     id="#787b7dff">
    <path
       d="M 53.92,330.16 C 55.14,329.42 56.18,329.61 57.06,330.75 C 56.31,330.79 54.82,330.87 54.08,330.91 L 53.92,330.16 z"
       id="path526"
       style="opacity:1;fill:#787b7d" />
  </g>
  <g
     id="#a4a9adff">
    <path
       d="M 108.87,330.4 C 109.61,330.3 111.1,330.11 111.84,330.01 L 112.01,330.69 C 111.3,330.8 109.88,331.01 109.18,331.12 L 108.87,330.4 z"
       id="path529"
       style="opacity:1;fill:#a4a9ad" />
  </g>
  <g
     id="#727476ff">
    <path
       d="M 111.84,330.01 C 113.53,330.04 115.23,330.04 116.92,330.05 C 118.57,330.78 120.34,331.13 122.13,331.26 L 122.09,331.71 C 120.15,331.86 118.21,331.9 116.27,331.82 C 114.86,331.38 113.44,331 112.01,330.69 L 111.84,330.01 z"
       id="path532"
       style="opacity:1;fill:#727476" />
  </g>
  <g
     id="#95999dff">
    <path
       d="M 133.1,330.26 C 134.69,330.05 136.3,329.94 137.91,329.97 C 137.62,331.78 134.36,331.58 133.1,330.72 L 133.1,330.26 z"
       id="path535"
       style="opacity:1;fill:#95999d" />
  </g>
  <g
     id="#72afd6ff">
    <path
       d="M 251.03,331.05 C 251.61,329.49 253.58,329.88 254.85,330.04 C 254.33,331.57 252.27,331.56 251.03,331.05 z"
       id="path538"
       style="opacity:1;fill:#72afd6" />
  </g>
  <g
     id="#abb0b4ff">
    <path
       d="M 54.08,330.91 C 54.82,330.87 56.31,330.79 57.06,330.75 L 57.85,331.15 L 58.06,331.92 C 56.75,332.52 54.78,332.33 54.08,330.91 z"
       id="path541"
       style="opacity:1;fill:#abb0b4" />
  </g>
  <g
     id="#e1e6ecff">
    <path
       d="M 84.04,330.84 C 86.76,331.11 89.45,331.39 92.16,331.85 L 93.01,331.97 C 91.28,331.96 89.55,332.01 87.83,332 C 87.08,332.1 85.59,332.3 84.84,332.4 C 84.64,332.01 84.24,331.23 84.04,330.84 z"
       id="path544"
       style="opacity:1;fill:#e1e6ec" />
  </g>
  <g
     id="#8d9093ff">
    <path
       d="M 98.07,332.07 C 98.42,330.28 100.67,330.73 101.92,331.11 L 101.84,331.69 C 100.61,332.12 99.36,332.25 98.07,332.07 z"
       id="path547"
       style="opacity:1;fill:#8d9093" />
  </g>
  <g
     id="#576666ff">
    <path
       d="M 101.92,331.11 C 103.23,330.99 104.55,331.01 105.86,331.17 L 106.25,331.95 L 105.74,332.73 L 104.87,333.18 C 104.45,333.1 103.6,332.92 103.18,332.84 C 102.85,332.55 102.18,331.98 101.84,331.69 L 101.92,331.11 z"
       id="path550"
       style="opacity:1;fill:#576666" />
  </g>
  <g
     id="#33383dff">
    <path
       d="M 105.86,331.17 C 106.69,331.15 108.35,331.13 109.18,331.12 C 109.88,331.01 111.3,330.8 112.01,330.69 C 113.44,331 114.86,331.38 116.27,331.82 C 115.72,331.84 114.63,331.87 114.09,331.89 C 111.47,331.92 108.86,331.93 106.25,331.95 L 105.86,331.17 z"
       id="path553"
       style="opacity:1;fill:#33383d" />
  </g>
  <g
     id="#a1a4a7ff">
    <path
       d="M 122.13,331.26 C 123.74,331.02 125.36,330.83 126.99,330.93 C 126.55,332.71 123.42,332.51 122.09,331.71 L 122.13,331.26 z"
       id="path556"
       style="opacity:1;fill:#a1a4a7" />
  </g>
  <g
     id="#a5a9adff">
    <path
       d="M 190.16,330.83 C 200.85,331.59 211.69,333.36 222.39,332.1 C 224.01,332.37 225.62,332.7 227.24,333.02 C 218.82,334.5 210.27,333.86 201.78,334.2 C 201.05,334.18 199.61,334.15 198.88,334.13 C 195.99,333.25 193.16,332.1 190.14,331.76 L 190.16,330.83 z"
       id="path559"
       style="opacity:1;fill:#a5a9ad" />
  </g>
  <g
     id="#91c8eeff">
    <path
       d="M 246.19,332 C 246.35,331.73 246.67,331.18 246.84,330.91 C 248.24,330.66 249.64,330.71 251.03,331.05 C 249.93,332.58 247.78,332.05 246.19,332 z"
       id="path562"
       style="opacity:1;fill:#91c8ee" />
  </g>
  <g
     id="#a0a3a6ff">
    <path
       d="M 58.06,331.92 C 58.54,331.85 59.5,331.7 59.98,331.62 C 60.47,331.99 61.44,332.72 61.93,333.08 C 60.63,333.5 58.59,333.47 58.06,331.92 z"
       id="path565"
       style="opacity:1;fill:#a0a3a6" />
  </g>
  <g
     id="#e4eaf0ff">
    <path
       d="M 74.25,333.16 C 74.75,330.01 78.93,331.85 80.93,332.8 C 79.56,333.05 78.19,333.21 76.8,333.29 C 76.16,333.26 74.89,333.19 74.25,333.16 z"
       id="path568"
       style="opacity:1;fill:#e4eaf0" />
  </g>
  <g
     id="#a3a7abff">
    <path
       d="M 84.84,332.4 C 85.59,332.3 87.08,332.1 87.83,332 L 87.99,332.69 C 87.27,332.79 85.84,333 85.13,333.1 L 84.84,332.4 z"
       id="path571"
       style="opacity:1;fill:#a3a7ab" />
  </g>
  <g
     id="#6e7374ff">
    <path
       d="M 87.83,332 C 89.55,332.01 91.28,331.96 93.01,331.97 L 93.95,332.01 C 95.57,332.76 97.33,333.12 99.11,333.27 L 99.09,333.65 C 96.45,333.72 93.81,333.8 91.18,333.89 C 90.13,333.45 89.06,333.05 87.99,332.69 L 87.83,332 z"
       id="path574"
       style="opacity:1;fill:#6e7374" />
  </g>
  <g
     id="#333333ff">
    <path
       d="M 93.95,332.01 C 95.32,332.02 96.69,332.04 98.07,332.07 C 99.36,332.25 100.61,332.12 101.84,331.69 C 102.18,331.98 102.85,332.55 103.18,332.84 C 101.82,332.93 100.46,333.07 99.11,333.27 C 97.33,333.12 95.57,332.76 93.95,332.01 z"
       id="path577"
       style="opacity:1;fill:#333333" />
    <path
       d="M 81.77,333.07 C 82.61,333.08 84.29,333.09 85.13,333.1 C 85.84,333 87.27,332.79 87.99,332.69 C 89.06,333.05 90.13,333.45 91.18,333.89 C 89.78,333.96 88.39,334.02 86.99,334.07 C 85.49,333.96 84,333.76 82.56,333.34 L 81.77,333.07 z"
       id="path579"
       style="opacity:1;fill:#333333" />
  </g>
  <g
     id="#898d90ff">
    <path
       d="M 106.25,331.95 C 108.86,331.93 111.47,331.92 114.09,331.89 L 114.01,333.05 C 111.25,333.02 108.49,332.97 105.74,332.73 L 106.25,331.95 z"
       id="path582"
       style="opacity:1;fill:#898d90" />
  </g>
  <g
     id="#9aa5a8ff">
    <path
       d="M 61.93,333.08 C 64.02,332.68 66.08,333.28 67.97,334.16 L 67.86,334.86 C 65.74,335.44 63.6,334.31 61.93,333.08 z"
       id="path585"
       style="opacity:1;fill:#9aa5a8" />
  </g>
  <g
     id="#989b9eff">
    <path
       d="M 74.25,333.16 C 74.89,333.19 76.16,333.26 76.8,333.29 L 77.05,333.98 C 76.33,333.98 74.88,333.97 74.16,333.97 L 74.25,333.16 z"
       id="path588"
       style="opacity:1;fill:#989b9e" />
  </g>
  <g
     id="#6e7375ff">
    <path
       d="M 76.8,333.29 C 78.19,333.21 79.56,333.05 80.93,332.8 L 81.77,333.07 L 82.56,333.34 C 84,333.76 85.49,333.96 86.99,334.07 L 86.95,335.03 L 86.01,334.99 C 84.33,335.03 80.97,335.09 79.29,335.12 C 78.73,334.84 77.61,334.27 77.05,333.98 L 76.8,333.29 z"
       id="path591"
       style="opacity:1;fill:#6e7375" />
  </g>
  <g
     id="#a4aaaeff">
    <path
       d="M 99.11,333.27 C 100.46,333.07 101.82,332.93 103.18,332.84 C 103.6,332.92 104.45,333.1 104.87,333.18 C 103.92,334.84 100.69,334.4 99.09,333.65 L 99.11,333.27 z"
       id="path594"
       style="opacity:1;fill:#a4aaae" />
  </g>
  <g
     id="#c3c6c9ff">
    <path
       d="M 227.24,333.02 C 229.61,333.45 231.96,334.02 234.27,334.72 C 223.44,335.11 212.55,335.54 201.78,334.2 C 210.27,333.86 218.82,334.5 227.24,333.02 z"
       id="path597"
       style="opacity:1;fill:#c3c6c9" />
  </g>
  <g
     id="#d7dce1ff">
    <path
       d="M 262,334.1 C 264.05,331.78 267.96,333.45 270.67,333.08 L 271.52,333.3 C 268.15,333.64 264.89,334.35 261.55,334.82 L 262,334.1 z"
       id="path600"
       style="opacity:1;fill:#d7dce1" />
  </g>
  <g
     id="#b8bcbfff">
    <path
       d="M 86.99,334.07 C 88.39,334.02 89.78,333.96 91.18,333.89 C 93.81,333.8 96.45,333.72 99.09,333.65 L 99,334.96 C 97.5,334.98 94.5,335 93,335.01 C 90.98,335.03 88.96,335.05 86.95,335.03 L 86.99,334.07 z"
       id="path603"
       style="opacity:1;fill:#b8bcbf" />
  </g>
  <g
     id="#9a9ea1ff">
    <path
       d="M 67.86,334.86 C 68.34,334.94 69.3,335.09 69.78,335.17 C 72.95,335 76.12,335.07 79.29,335.12 L 79.29,335.94 C 75.46,335.78 71.65,335.42 67.86,334.86 z"
       id="path606"
       style="opacity:1;fill:#9a9ea1" />
  </g>
  <g
     id="#bfc3c6ff">
    <path
       d="M 79.29,335.12 C 80.97,335.09 84.33,335.03 86.01,334.99 C 84.54,335.33 81.61,336.01 80.14,336.34 L 79.29,335.94 L 79.29,335.12 z"
       id="path609"
       style="opacity:1;fill:#bfc3c6" />
  </g>
  <g
     id="#e8edf2ff">
    <path
       d="M 37.1,339.78 C 49.26,341.89 59.66,349.74 72.02,351.09 C 71.22,352.61 70.44,354.15 69.7,355.71 C 68.81,356.14 67.93,356.57 67.05,357.01 C 67.02,356.52 66.97,355.54 66.94,355.05 C 64.36,355.02 61.77,354.98 59.19,354.92 C 60.13,348.77 52.02,353.24 50.54,349.27 C 45.14,350.72 41.62,346.58 37.17,344.75 C 37.1,343.09 37.09,341.43 37.1,339.78 z"
       id="path612"
       style="opacity:1;fill:#e8edf2" />
  </g>
</svg>
